<svg width="70" height="50" viewBox="0 0 70 50" fill="none" xmlns="http://www.w3.org/2000/svg">
<path fill-rule="evenodd" clip-rule="evenodd" d="M2.39339 0.18242C1.2849 0.623524 0.589555 1.34776 0.197613 2.46924C0.0457083 2.90405 0.0109481 5.89052 0.00602145 18.9507L0 34.9012L0.321463 35.2828C0.591334 35.6028 0.778272 35.6742 1.4847 35.7263L2.32647 35.7884V37.7918C2.32647 40.1443 2.54352 40.9622 3.38624 41.7863C4.29069 42.6708 4.66361 42.7945 6.60307 42.8535L8.34792 42.9066V43.2488C8.34792 43.8092 9.14371 45.681 9.76282 46.577C10.8123 48.0956 12.6638 49.3404 14.5478 49.7938C16.2149 50.1951 18.1705 49.9697 19.8618 49.1815C21.978 48.1951 23.7786 45.9161 24.2622 43.6118L24.416 42.8785H35.0339H45.6518L45.8056 43.6118C46.5617 47.2151 50.0151 50.0079 53.7048 50C56.2739 49.9945 58.876 48.645 60.305 46.577C60.926 45.6782 61.7199 43.8086 61.7199 43.2447V42.8983L64.628 42.8535C67.8638 42.8036 68.1439 42.7331 69.0603 41.7384C70.0575 40.6558 69.9994 41.2952 69.9994 31.4249V22.5553L69.6919 21.9679C69.5226 21.6448 67.424 19.1273 65.028 16.3732C61.1447 11.9098 60.5958 11.3327 59.973 11.0592C59.2908 10.7597 59.1402 10.7524 53.5938 10.7524H47.9134L47.8714 6.73669C47.8323 2.99806 47.8096 2.6775 47.5417 2.09238C47.1682 1.2768 46.6257 0.734429 45.7767 0.327686L45.0925 0L23.949 0.00921904C8.10898 0.016203 2.70213 0.0596426 2.39339 0.18242ZM45.119 2.70878L45.503 3.04597L45.539 18.2131L45.575 33.3804H23.9507H2.32647V18.2843V3.1883L2.72649 2.78002L3.1265 2.37174H23.9308H44.735L45.119 2.70878ZM52.5508 19.3251C52.5508 24.513 52.5848 25.6214 52.7589 26.1249C53.2054 27.4168 54.1461 28.2257 55.4989 28.4809C55.9868 28.5729 58.516 28.6313 62.0187 28.6313H67.7413V34.1593V39.6874L67.3383 40.0987L66.9351 40.5102L64.3772 40.4721L61.8194 40.4341L61.639 39.7148C61.0362 37.3088 59.373 35.2181 57.2643 34.2152C55.6891 33.4661 55.0803 33.3804 51.3337 33.3804H47.8979V23.2537V13.127H50.2244H52.5508V19.3251ZM59.307 13.4413C60.1257 14.1993 67.6094 22.9457 67.6775 23.2241C67.7191 23.394 67.735 24.1301 67.713 24.86L67.6729 26.1869L62.0138 26.2234C58.3841 26.2468 56.1638 26.2074 55.8223 26.1134C54.8675 25.8511 54.8773 25.9238 54.8773 19.1401V13.127H56.9224C58.8515 13.127 58.9868 13.1449 59.307 13.4413ZM10.2675 36.139C9.20406 37.5337 8.91572 38.1391 8.2654 40.3421C8.22256 40.4872 7.88769 40.5186 6.77714 40.4817C4.73409 40.4139 4.73491 40.415 4.67702 37.7767L4.63269 35.7549H7.59661H10.5604L10.2675 36.139ZM17.8427 35.9659C20.9092 36.7811 22.7631 40.0124 21.966 43.1525C20.8361 47.6027 15.4372 49.1144 12.259 45.8705C9.66785 43.2259 10.0705 38.8402 13.0924 36.7928C14.5408 35.8117 16.1855 35.5254 17.8427 35.9659ZM28.0545 38.1294V40.5039H26.207C24.3832 40.5039 24.3595 40.4999 24.3566 40.1897C24.3488 39.3462 23.476 37.5023 22.4392 36.139L22.147 35.7549H25.1008H28.0545V38.1294ZM38.592 38.1294V40.5039H34.4865H30.381V38.1294V35.7549H34.4865H38.592V38.1294ZM47.6286 36.139C46.5918 37.5023 45.719 39.3462 45.7112 40.1897C45.7083 40.5035 45.7049 40.5039 43.3134 40.5039H40.9185V38.1294V35.7549H44.4196H47.9208L47.6286 36.139ZM55.2972 35.9777C57.2079 36.5505 58.6845 38.0347 59.2771 39.9781C60.2423 43.1432 58.3418 46.5793 55.1565 47.4284C50.8988 48.5633 46.9898 44.5405 48.1047 40.1715C48.9111 37.0113 52.2503 35.0643 55.2972 35.9777ZM15.2525 38.3072C13.6577 38.9626 12.7592 40.35 12.8923 41.9513C13.095 44.3858 15.5707 45.9327 17.676 44.9404C18.6001 44.5049 19.1104 43.984 19.5371 43.0408C20.289 41.379 19.5162 39.2994 17.8407 38.475C17.2018 38.1607 15.8263 38.0715 15.2525 38.3072ZM52.6178 38.3072C51.5115 38.7673 50.734 39.5751 50.3826 40.6295C49.6381 42.8634 51.5807 45.4034 53.8972 45.2252C55.8429 45.0753 57.1354 43.6649 57.1354 41.6912C57.1354 40.2116 56.4667 39.0975 55.2062 38.4775C54.5631 38.1611 53.1869 38.0706 52.6178 38.3072ZM17.1169 40.9122C17.3581 41.1583 17.5169 41.4677 17.5169 41.6912C17.5169 42.1812 16.8338 42.8785 16.3537 42.8785C15.9189 42.8785 15.1905 42.1896 15.1905 41.7784C15.1905 40.6481 16.3482 40.1277 17.1169 40.9122ZM54.24 40.659C54.5972 40.8251 54.8773 41.3172 54.8773 41.7784C54.8773 42.1896 54.1489 42.8785 53.7141 42.8785C53.234 42.8785 52.5508 42.1812 52.5508 41.6912C52.5508 41.2475 53.2258 40.5039 53.6287 40.5039C53.7814 40.5039 54.0565 40.5738 54.24 40.659Z" fill="#E30D16"/>
</svg>
