<svg width="50" height="50" viewBox="0 0 50 50" fill="none" xmlns="http://www.w3.org/2000/svg">
<path fill-rule="evenodd" clip-rule="evenodd" d="M17.4812 0.349817C16.0005 0.895475 15.5401 1.08874 14.5758 1.56965C13.7751 1.96899 13.6958 1.98963 13.4226 1.8705C13.2612 1.80018 12.8573 1.74062 12.5251 1.73817C11.8284 1.73308 11.336 1.9553 9.69969 3.01326C6.9756 4.77455 4.7762 6.97411 3.01504 9.69839C1.95715 11.3348 1.73495 11.8272 1.74004 12.524C1.74249 12.8562 1.80204 13.2602 1.87236 13.4216C1.99148 13.6947 1.97094 13.774 1.57456 14.5688C1.11139 15.4979 0.521174 16.9445 0.17213 18.0065C-0.0945674 18.8177 -0.0529051 19.449 0.307972 20.0648C0.687432 20.7123 1.17007 20.9782 2.71148 21.3888C3.46775 21.5903 4.10922 21.7778 4.13689 21.8055C4.16457 21.8332 4.14354 22.051 4.09005 22.2895C3.68682 24.089 3.56438 27.586 3.8301 29.7131C4.381 34.1228 6.18519 38.2706 9.05784 41.7314C12.6446 46.0524 17.7938 48.9272 23.5448 49.8196C25.0932 50.0598 28.5084 50.0602 30.1318 49.8204C38.5878 48.5708 45.6323 42.8697 48.6237 34.855C49.0902 33.6052 49.591 31.6246 49.8144 30.1464C50.0603 28.5187 50.0622 25.1185 49.818 23.5445C48.9245 17.7852 46.0513 12.6412 41.7224 9.05072C38.2112 6.13845 34.1832 4.38685 29.7129 3.82838C27.586 3.56264 24.0893 3.68509 22.2899 4.08835C22.0514 4.14185 21.8366 4.16591 21.8126 4.14185C21.7885 4.11778 21.5999 3.47471 21.3935 2.71271C20.9719 1.15711 20.7091 0.683335 20.0554 0.300132C19.3489 -0.113978 18.7061 -0.101557 17.4812 0.349817ZM19.1259 2.05457C19.2203 2.16832 20.6147 7.2597 20.6079 7.46548C20.6063 7.5137 20.0549 7.76848 19.3827 8.03148C14.2447 10.0421 10.0434 14.2437 8.0329 19.3821C7.76992 20.0544 7.51066 20.6057 7.45687 20.6074C7.19291 20.6151 2.15793 19.2117 2.04224 19.0981C1.92967 18.9875 1.94327 18.8625 2.12957 18.2972C2.43294 17.3766 3.23059 15.5258 3.6966 14.6611C4.13934 13.8396 4.19459 13.3455 3.88721 12.9547C3.77963 12.818 3.69162 12.6233 3.69162 12.5221C3.69162 12.3095 4.61748 10.7612 5.43097 9.6134C6.17629 8.56169 8.51662 6.22335 9.59328 5.4545C10.7861 4.60271 12.3018 3.68988 12.5232 3.68988C12.6244 3.68988 12.8191 3.77791 12.9558 3.8855C13.3511 4.19642 13.8622 4.13999 14.6741 3.69556C15.5004 3.2434 16.6899 2.71916 17.9213 2.26427C18.9249 1.89358 18.9838 1.88331 19.1259 2.05457ZM30.0484 5.8375C35.3287 6.70866 39.7619 9.23039 43.2066 13.3224C47.1289 17.9815 48.8675 24.6001 47.7484 30.6114C46.6271 36.6345 43.0468 41.8316 37.8229 45.0193C31.6899 48.7616 23.9344 49.0927 17.4957 45.8871C13.1989 43.7478 9.83133 40.3865 7.80093 36.2103C6.12426 32.7618 5.46441 29.4711 5.66314 25.5495C5.71928 24.4426 5.97326 22.5559 6.09209 22.3637C6.11439 22.3276 6.42959 22.3805 6.79262 22.4812C7.62567 22.7122 7.84141 22.7086 8.38596 22.4548C8.7527 22.2838 9.02996 22.2475 10.0485 22.2369C11.2404 22.2244 11.2894 22.2152 12.0045 21.8709C13.0342 21.375 13.5422 20.8791 14.5209 19.4139C16.0439 17.1341 17.1352 16.0429 19.4163 14.5188C20.8525 13.5593 21.3336 13.0652 21.861 12.0083C22.2202 11.2882 22.2246 11.2652 22.2332 10.0522C22.2397 9.12065 22.2803 8.75055 22.4015 8.51709C22.6663 8.00684 22.6906 7.51409 22.4863 6.79326C22.383 6.42903 22.328 6.11283 22.364 6.09053C22.5563 5.97169 24.4429 5.71769 25.5496 5.66155C26.9839 5.58888 29.0253 5.66869 30.0484 5.8375ZM15.047 6.36937C14.284 6.79228 14.4454 7.98972 15.2866 8.14758C16.3143 8.34045 16.8959 7.15201 16.1012 6.48322C15.775 6.20878 15.4082 6.16907 15.047 6.36937ZM27.2611 7.94121C27.1056 8.02747 26.6448 8.72679 25.9953 9.86212C24.8329 11.894 24.7703 12.1408 25.2976 12.612C25.6814 12.9548 26.167 12.9753 26.5249 12.6636C26.8513 12.3793 28.7281 9.09493 28.7281 8.80796C28.7281 8.04469 27.9274 7.5715 27.2611 7.94121ZM20.1805 11.0658C19.9166 11.6973 19.5172 12.1038 18.5163 12.7592C15.9157 14.462 14.4729 15.9052 12.7613 18.5156C11.875 19.8674 11.2479 20.3169 10.2487 20.3169H9.75798L9.95005 19.8296C11.6037 15.6339 15.4774 11.7373 19.7306 9.99151L20.2685 9.77067L20.2978 10.2429C20.3142 10.5082 20.2628 10.8687 20.1805 11.0658ZM36.4542 10.7025C36.3735 10.7289 35.5223 11.1975 34.5625 11.7437C32.8053 12.7439 32.5423 12.9687 32.5423 13.4705C32.5423 13.9856 33.0212 14.4485 33.5542 14.4485C33.8242 14.4485 36.8695 12.7237 37.31 12.3213C37.5567 12.096 37.6278 11.9517 37.6278 11.6764C37.6278 11.0962 36.9554 10.5382 36.4542 10.7025ZM6.73414 14.6829C6.21033 14.9732 6.09228 15.6338 6.48152 16.0966C6.93198 16.6319 7.7486 16.5839 8.04826 16.0045C8.22948 15.6541 8.22791 15.3918 8.04268 15.0334C7.79388 14.5524 7.23819 14.4034 6.73414 14.6829ZM24.7767 15.2903C21.8648 15.8162 19.1985 17.4855 17.4036 19.9064C13.9058 24.6242 14.4999 31.2798 18.782 35.3477C20.0026 36.5073 21.8647 37.6481 22.5367 37.6481C23.2501 37.6481 23.6869 36.9843 23.4099 36.3212C23.2926 36.0406 23.1301 35.9072 22.5493 35.615C19.9235 34.2935 18.1514 32.114 17.3613 29.2343C17.1927 28.6197 17.154 28.1911 17.1478 26.8699C17.1388 24.9462 17.3046 24.1751 18.0633 22.6153C19.0834 20.5181 20.6657 18.9631 22.7925 17.9678C23.9977 17.4038 24.9554 17.1802 26.4298 17.1188C27.8975 17.0576 28.9262 17.2104 30.2342 17.6836C33.3893 18.8254 35.743 21.611 36.467 25.0605C36.6412 25.8903 36.6148 27.93 36.418 28.8361C36.195 29.8641 35.6784 31.136 35.1201 32.0325C34.2296 33.4627 32.6192 34.9025 31.0088 35.7086C30.7301 35.848 30.433 36.0609 30.3486 36.1814C29.949 36.7519 30.4012 37.6481 31.0884 37.6481C31.8586 37.6481 33.8533 36.4074 35.1156 35.1433C36.774 33.4828 37.8526 31.4687 38.3677 29.0705C38.616 27.9152 38.6022 25.732 38.339 24.5225C37.2859 19.6824 33.5927 16.1093 28.7886 15.2826C27.7207 15.0988 25.8167 15.1025 24.7767 15.2903ZM38.999 17.6875C38.6222 17.8378 38.4194 18.0656 38.3545 18.4112C38.2863 18.7754 38.5027 19.2767 38.796 19.4337C38.909 19.4942 39.8587 19.5344 41.1727 19.5344H43.3614L43.6241 19.2601C44.1585 18.7023 43.8593 17.7929 43.0909 17.6391C42.6039 17.5417 39.2654 17.5811 38.999 17.6875ZM26.1778 19.3313C25.4206 20.0886 26.3065 21.3485 27.2523 20.8593C27.5331 20.7142 27.8479 20.2697 27.8479 20.0187C27.8479 19.7636 27.5286 19.2606 27.3007 19.1568C26.8727 18.9617 26.4875 19.0215 26.1778 19.3313ZM23.0069 20.0342C22.401 20.3827 22.2816 21.1226 22.7549 21.5959C23.1444 21.9854 23.6203 21.9863 24.0544 21.5983C24.6714 21.047 24.3679 20.0871 23.5395 19.9696C23.3542 19.9433 23.1145 19.9724 23.0069 20.0342ZM29.8528 20.0342C29.2469 20.3827 29.1275 21.1226 29.6008 21.5959C29.9903 21.9854 30.4662 21.9863 30.9003 21.5983C31.5173 21.047 31.2139 20.0871 30.3854 19.9696C30.2001 19.9433 29.9604 19.9724 29.8528 20.0342ZM20.3533 22.6419C19.6074 23.2463 19.9758 24.3714 20.9198 24.3714C21.4378 24.3714 21.8822 23.9177 21.8822 23.3887C21.8822 22.6553 20.9181 22.1844 20.3533 22.6419ZM32.1693 22.7128C31.8025 23.0215 31.7181 23.353 31.8972 23.7816C32.3108 24.7714 33.7158 24.4717 33.7158 23.3936C33.7158 23.1336 33.6404 22.965 33.43 22.7545C33.0591 22.3836 32.5792 22.3678 32.1693 22.7128ZM25.7243 23.0995C24.7134 23.4155 23.8152 24.1983 23.3271 25.1891C22.7506 26.3587 22.8583 27.8639 23.5992 28.994C24.4359 30.2703 26.077 30.9788 27.5134 30.6841C29.1649 30.3452 30.345 29.165 30.6839 27.5134C31.0608 25.6762 29.8653 23.7128 28.02 23.1384C27.3461 22.9286 26.3264 22.9114 25.7243 23.0995ZM8.42293 25.0551C7.76523 25.3396 7.58802 26.0916 8.06811 26.561C8.21608 26.7056 9.09784 27.2579 10.0277 27.7883C11.5534 28.6584 11.7539 28.7469 12.0815 28.6948C12.5732 28.6165 12.8847 28.2463 12.8847 27.7402C12.8847 27.4652 12.8198 27.2857 12.6647 27.1324C12.4259 26.8964 9.24365 25.0616 8.92385 24.9756C8.81627 24.9467 8.59085 24.9824 8.42293 25.0551ZM27.9324 25.2356C28.9521 25.9105 29.0811 27.325 28.2031 28.2031C27.0047 29.4016 25.0561 28.67 24.9334 26.9756C24.8734 26.145 25.2454 25.5038 26.0386 25.0707C26.4963 24.8208 27.4283 24.902 27.9324 25.2356ZM41.375 25.0593C41.0684 25.1903 40.7574 25.6342 40.7574 25.9407C40.7574 26.4057 41.0642 26.663 42.8424 27.6898C44.8566 28.8527 45.0837 28.9157 45.557 28.4423C45.9251 28.0741 45.9545 27.4902 45.6229 27.1324C45.3669 26.8563 42.2925 25.066 41.9309 24.9826C41.7965 24.9515 41.5463 24.986 41.375 25.0593ZM19.3319 26.1777C19.0222 26.4874 18.9623 26.8726 19.1574 27.3007C19.2612 27.5286 19.7642 27.8479 20.0192 27.8479C20.2703 27.8479 20.7147 27.5331 20.8598 27.2523C21.349 26.3064 20.0891 25.4204 19.3319 26.1777ZM33.0237 26.1777C32.4756 26.7259 32.7525 27.6304 33.5202 27.799C33.8897 27.8802 34.3544 27.6339 34.5516 27.2523C35.0408 26.3064 33.781 25.4204 33.0237 26.1777ZM20.3533 29.4883C19.6074 30.0927 19.9758 31.2178 20.9198 31.2178C21.4378 31.2178 21.8822 30.7641 21.8822 30.2351C21.8822 29.5017 20.9181 29.0308 20.3533 29.4883ZM32.1693 29.5592C31.8025 29.8679 31.7181 30.1994 31.8972 30.628C32.0973 31.107 32.5546 31.3277 33.0436 31.1811C33.5041 31.0431 33.7158 30.7543 33.7158 30.2638C33.7158 29.4468 32.7991 29.0292 32.1693 29.5592ZM23.0937 31.856C22.7633 31.9896 22.469 32.4378 22.469 32.8078C22.469 33.2929 22.9111 33.7163 23.4177 33.7163C23.9082 33.7163 24.197 33.5045 24.335 33.0439C24.481 32.5568 24.2608 32.0976 23.7859 31.8991C23.4103 31.7422 23.3801 31.7403 23.0937 31.856ZM29.9396 31.856C29.3031 32.1132 29.1225 32.9521 29.6008 33.4304C30.1277 33.9573 30.9701 33.7478 31.1832 33.0367C31.3267 32.5573 31.1033 32.0962 30.6319 31.8991C30.2562 31.7422 30.226 31.7403 29.9396 31.856ZM39.6557 32.7376C39.305 33.0134 39.1878 33.4057 39.3319 33.8206C39.5137 34.3433 41.2362 37.2661 41.4739 37.4552C42.0107 37.882 42.8624 37.5222 42.974 36.8214C43.027 36.4887 42.9425 36.2968 42.0692 34.7675C41.5395 33.8396 40.987 32.9594 40.8415 32.8116C40.5179 32.4827 40.0192 32.4516 39.6557 32.7376ZM26.1778 33.0241C25.6296 33.5723 25.9066 34.4768 26.6743 34.6454C27.0438 34.7266 27.5085 34.4803 27.7057 34.0987C28.1949 33.1528 26.9351 32.2668 26.1778 33.0241ZM10.0877 34.44C9.72052 34.8072 9.66742 35.1211 9.89724 35.5657C10.1386 36.0324 10.4049 36.0775 12.7314 36.0446L14.858 36.0147L15.0938 35.7403C15.3467 35.4461 15.4079 34.9255 15.2289 34.5911C15.0007 34.1644 14.6778 34.1075 12.4886 34.1075H10.4202L10.0877 34.44ZM26.1778 36.9363C25.7047 37.4095 25.8329 38.1699 26.4338 38.4552C26.8295 38.6429 26.9065 38.6432 27.2644 38.4582C28.189 37.9799 27.86 36.6504 26.8169 36.6504C26.5569 36.6504 26.3883 36.7258 26.1778 36.9363ZM34.7318 38.409C34.6182 38.4549 34.4289 38.615 34.3111 38.7647C34.103 39.0293 34.0978 39.0993 34.1264 41.2267L34.1559 43.4164L34.4304 43.6522C34.8331 43.9984 35.4021 43.9773 35.7772 43.6022L36.063 43.3163V41.1473V38.9782L35.7305 38.6457C35.3944 38.3095 35.1319 38.2473 34.7318 38.409ZM18.131 40.263C17.2243 40.7919 16.3891 41.318 16.275 41.4321C16.1311 41.5759 16.0676 41.7624 16.0676 42.0402C16.0676 42.3688 16.1248 42.4921 16.3848 42.7244C16.5867 42.9048 16.8096 43.0078 16.998 43.0078C17.3831 43.0078 20.8286 41.0392 20.9831 40.7309C21.3551 39.9891 20.9715 39.287 20.1996 39.2963C19.8496 39.3004 19.5045 39.4618 18.131 40.263ZM27.4078 40.8471C27.3002 40.8932 27.1407 41.0131 27.0533 41.1135C26.857 41.3391 25.1359 44.2951 25.0138 44.6162C24.8887 44.9453 25.0635 45.4981 25.3524 45.6874C25.6401 45.8759 26.2666 45.8876 26.5019 45.7089C26.7885 45.4914 28.6492 42.2046 28.7016 41.8236C28.7415 41.5335 28.7003 41.4159 28.4702 41.1631C28.1745 40.8383 27.7342 40.7073 27.4078 40.8471Z" fill="#161921"/>
</svg>
