<svg width="50" height="34" viewBox="0 0 50 34" fill="none" xmlns="http://www.w3.org/2000/svg">
<path fill-rule="evenodd" clip-rule="evenodd" d="M14.4482 0.166462C13.1863 0.499233 11.8597 1.34144 11.1347 2.27006C10.9083 2.55996 10.344 3.61176 9.8698 4.62745C9.00221 6.48622 8.47589 7.45152 8.04376 7.9765L7.80546 8.26612L7.80497 7.46532C7.80449 6.74408 7.78065 6.64088 7.56463 6.42753L7.32487 6.19052H5.06884H2.8128L2.57304 6.42753C2.33983 6.65787 2.33319 6.70421 2.33319 8.10625C2.33319 9.3461 2.35761 9.5778 2.50749 9.76074C2.64691 9.93075 2.96561 10.03 4.09514 10.255C4.87246 10.4099 5.54757 10.549 5.59535 10.5642C5.64313 10.5795 4.95208 11.1685 4.05977 11.8731C3.16736 12.5778 2.23314 13.3787 1.98351 13.6529C1.34659 14.3529 0.750906 15.4011 0.366059 16.4991L0.0371946 17.4374L0.00807945 24.6778C-0.0141966 30.2237 0.00739553 32.0199 0.100408 32.3527C0.258294 32.9176 1.04518 33.7111 1.61176 33.8765C2.17608 34.0412 8.74321 34.0412 9.30753 33.8765C9.84421 33.7198 10.6536 32.9201 10.8121 32.3898C10.8775 32.1712 10.9309 31.5739 10.9309 31.0624V30.1323H25H39.0691V31.0624C39.0691 31.5739 39.1225 32.1712 39.1879 32.3898C39.3464 32.9201 40.1558 33.7198 40.6925 33.8765C41.2568 34.0412 47.8239 34.0412 48.3882 33.8765C48.9548 33.7111 49.7417 32.9176 49.8996 32.3527C49.9926 32.0199 50.0142 30.2237 49.9919 24.6778L49.9628 17.4374L49.6339 16.4991C49.2491 15.4011 48.6534 14.3529 48.0165 13.6529C47.7669 13.3787 46.8324 12.5776 45.9398 11.8727L44.3169 10.5913L45.8111 10.2903C47.7567 9.89831 47.6668 10.0041 47.6668 8.10625C47.6668 6.70421 47.6602 6.65787 47.427 6.42753L47.1872 6.19052H44.9312H42.6751L42.4354 6.42753C42.2194 6.64088 42.1955 6.74408 42.195 7.46532L42.1945 8.26612L41.9562 7.9765C41.5241 7.45152 40.9978 6.48622 40.1302 4.62745C39.656 3.61176 39.0917 2.55996 38.8653 2.27006C38.1264 1.32368 36.7996 0.490255 35.5069 0.160573C34.6533 -0.0572198 15.2754 -0.0517174 14.4482 0.166462ZM35.8882 1.92232C36.6362 2.27228 37.2761 2.75015 37.656 3.24221C37.8419 3.48307 39.4033 6.6376 39.8201 7.61448C39.8611 7.71073 36.8596 7.73515 25 7.73515C13.1404 7.73515 10.1389 7.71073 10.1799 7.61448C10.5967 6.6376 12.1581 3.48307 12.344 3.24221C12.8569 2.57773 13.9834 1.85629 14.8142 1.66031C15.0203 1.61166 19.5672 1.58057 25.1954 1.58936L35.2098 1.6049L35.8882 1.92232ZM6.24126 8.42222C6.24126 9.07483 6.2309 9.10649 6.03393 9.05562C5.92001 9.02617 5.39242 8.92423 4.86151 8.82894L3.89641 8.65585V8.19545V7.73515H5.06884H6.24126V8.42222ZM46.1036 8.19912V8.66309L45.1998 8.83406C44.7028 8.92809 44.1751 9.02888 44.0274 9.05793L43.7587 9.11084V8.42299V7.73515H44.9312H46.1036V8.19912ZM41.3484 9.73834C41.7292 10.2488 43.3109 11.7969 43.8854 12.2213C44.0894 12.372 44.2213 12.5286 44.1785 12.5693C44.1357 12.61 42.8697 13.1276 41.365 13.7193L38.6294 14.7954L37.5044 15.8992L36.3793 17.0029H31.7014H27.0234L26.0117 17.9867L25 18.9704L23.9883 17.9867L22.9766 17.0029H18.2986H13.6207L12.4956 15.8992L11.3706 14.7954L8.63495 13.7193C7.13034 13.1276 5.86432 12.61 5.82153 12.5693C5.77874 12.5286 5.91063 12.372 6.11464 12.2213C6.68912 11.7969 8.27082 10.2488 8.65156 9.73834L8.99352 9.27978H25H41.0065L41.3484 9.73834ZM7.41368 14.8932C9.05263 15.5382 10.4354 16.1031 10.4865 16.1485C10.5428 16.1983 10.4287 16.3836 10.1981 16.6169L9.81656 17.0029H6.771C5.0959 17.0029 3.5865 16.9755 3.4166 16.9419C3.03136 16.8658 2.56152 16.4421 2.47212 16.0903C2.38985 15.7663 2.56591 15.373 3.04875 14.8025C3.46125 14.3151 4.16011 13.7207 4.32093 13.7204C4.38297 13.7203 5.77473 14.2481 7.41368 14.8932ZM46.1962 14.0543C47.0929 14.7945 47.6433 15.636 47.5279 16.0903C47.4385 16.4421 46.9686 16.8658 46.5834 16.9419C46.4135 16.9755 44.9041 17.0029 43.229 17.0029H40.1834L39.8036 16.6185C39.5947 16.4071 39.4563 16.2019 39.4961 16.1626C39.6046 16.0555 45.4428 13.7397 45.6302 13.7295C45.7192 13.7246 45.9739 13.8708 46.1962 14.0543ZM12.3553 17.9683L12.9658 18.5476H17.6348H22.3036L23.4895 19.706C24.5261 20.7186 24.7164 20.8645 25 20.8645C25.2836 20.8645 25.4739 20.7186 26.5105 19.706L27.6964 18.5476H32.3652H37.0342L37.6609 17.953L38.2874 17.3585L38.9196 17.9583L39.5518 18.5581L43.2917 18.527C47.3536 18.4933 47.3498 18.4938 48.0347 17.9244L48.3284 17.6802L48.3871 17.8967C48.4193 18.0157 48.4464 18.7322 48.4471 19.4888L48.4484 20.8645H46.2886C43.8824 20.8645 43.3554 20.9461 42.3493 21.4743C41.517 21.9114 41.1208 22.3079 41.1208 22.704C41.1208 23.4121 41.8918 23.7112 42.4726 23.2283C42.6332 23.0947 43.0213 22.8678 43.3349 22.7241C43.8246 22.4998 44.0625 22.4574 45.0161 22.4252L46.1268 22.3876L46.0878 23.071C46.046 23.8012 45.897 24.0986 45.3824 24.4788C45.1422 24.6562 44.9326 24.683 43.4499 24.7261C41.8484 24.7726 41.78 24.7828 41.6004 25.0023C41.3372 25.324 41.3626 25.7461 41.6631 26.0431L41.9124 26.2893L43.6416 26.253C45.2888 26.2185 45.3945 26.2046 45.8698 25.9595C46.606 25.5799 46.9137 25.2866 47.2712 24.6239C47.5377 24.13 47.6008 23.8915 47.6433 23.219L47.6944 22.4091H48.0714H48.4484V24.4977C48.4484 25.8553 48.4068 26.7252 48.3296 26.9836C48.1711 27.5139 47.3617 28.3136 46.825 28.4703C46.5463 28.5517 45.4697 28.5877 43.3158 28.5877H40.2086L39.0771 27.4996C37.8597 26.3289 37.2102 25.9156 36.1728 25.6513C35.6427 25.5163 34.3125 25.4984 24.8046 25.4984C15.2966 25.4984 13.9665 25.5163 13.4364 25.6513C12.399 25.9156 11.7495 26.3289 10.5321 27.4996L9.40064 28.5877H6.48883C4.48829 28.5877 3.45129 28.5509 3.17499 28.4703C2.63831 28.3136 1.82895 27.5139 1.67038 26.9836C1.59319 26.7252 1.55157 25.8553 1.55157 24.4977V22.4091H1.9286H2.30563L2.35615 23.2094C2.43743 24.4972 2.94685 25.3216 4.01356 25.8919L4.62918 26.221L6.3584 26.2552L8.08763 26.2893L8.33686 26.0431C8.63739 25.7461 8.6628 25.324 8.39959 25.0023C8.22001 24.7828 8.15162 24.7726 6.55009 24.7261C5.06737 24.683 4.8578 24.6562 4.61755 24.4788C4.10296 24.0986 3.95396 23.8012 3.91224 23.071L3.87316 22.3876L4.98393 22.4252C5.9375 22.4574 6.17541 22.4998 6.66509 22.7241C6.97871 22.8678 7.36678 23.0947 7.5274 23.2283C8.10179 23.7058 8.87921 23.4121 8.87921 22.7175C8.87921 22.3066 8.49465 21.9175 7.6507 21.4743C6.64457 20.9461 6.11757 20.8645 3.71137 20.8645H1.55157L1.55294 19.4888C1.55362 18.7322 1.58069 18.0157 1.61293 17.8967L1.67165 17.6802L1.96534 17.9244C2.65023 18.4938 2.64622 18.4932 6.70954 18.527L10.4508 18.5582L11.0573 17.9755C11.3908 17.655 11.682 17.3919 11.7043 17.3909C11.7265 17.39 12.0195 17.6497 12.3553 17.9683ZM36.393 27.3639C36.7349 27.52 37.1927 27.8398 37.4641 28.1121L37.9382 28.5877H24.805H11.6719L12.1075 28.1452C12.563 27.6826 13.057 27.3853 13.7154 27.1775C14.0243 27.0801 16.3798 27.0581 24.9511 27.0728L35.796 27.0913L36.393 27.3639ZM6.16144 30.1141L9.36771 30.1443V31.0597C9.36771 31.9031 9.34876 31.994 9.12786 32.2122L8.8881 32.4492H5.45964H2.03119L1.79143 32.2122C1.56066 31.9843 1.55157 31.9262 1.55157 30.6853V29.3952L2.25336 29.7397L2.95516 30.084L6.16144 30.1141ZM48.4484 30.6676C48.4484 31.9273 48.4396 31.984 48.2086 32.2122L47.9688 32.4492H44.5404H41.1119L40.8721 32.2122C40.6512 31.994 40.6323 31.9031 40.6323 31.0597V30.1443L43.8347 30.1141L47.0371 30.084L47.7183 29.7367C48.093 29.5457 48.4106 29.3828 48.424 29.3747C48.4374 29.3666 48.4484 29.9484 48.4484 30.6676Z" fill="#161921"/>
</svg>
