<svg width="120" height="120" viewBox="0 0 120 120" fill="none" xmlns="http://www.w3.org/2000/svg">
<path opacity="0.15" fill-rule="evenodd" clip-rule="evenodd" d="M41.955 0.839561C38.4011 2.14914 37.2963 2.61298 34.982 3.76716C33.0602 4.72558 32.87 4.77511 32.2142 4.4892C31.8269 4.32043 30.8576 4.17748 30.0602 4.17161C28.3881 4.1594 27.2063 4.69272 23.2793 7.23183C16.7414 11.4589 11.4629 16.7379 7.2361 23.2761C4.69717 27.2035 4.16389 28.3854 4.1761 30.0576C4.18196 30.855 4.32491 31.8244 4.49367 32.2118C4.77955 32.8674 4.73026 33.0575 3.77896 34.9652C2.66734 37.1949 1.25082 40.6669 0.413112 43.2156C-0.226962 45.1625 -0.126972 46.6777 0.739134 48.1556C1.64984 49.7095 2.80817 50.3478 6.50754 51.3332C8.32261 51.8167 9.86212 52.2667 9.92854 52.3331C9.99497 52.3996 9.94451 52.9223 9.81612 53.4948C8.84838 57.8137 8.55451 66.2064 9.19224 71.3114C10.5144 81.8948 14.8445 91.8494 21.7388 100.155C30.3471 110.526 42.7051 117.425 56.5075 119.567C60.2237 120.144 68.42 120.144 72.3164 119.569C92.6107 116.57 109.518 102.887 116.697 83.652C117.816 80.6524 119.018 75.899 119.555 72.3512C120.145 68.4448 120.149 60.2845 119.563 56.5067C117.419 42.6844 110.523 30.3388 100.134 21.7217C91.7068 14.7323 82.0397 10.5284 71.3111 9.18811C66.2064 8.55033 57.8144 8.84422 53.4958 9.81203C52.9233 9.94043 52.4079 9.99817 52.3501 9.94043C52.2924 9.88268 51.8399 8.33931 51.3444 6.5105C50.3325 2.77705 49.7018 1.64 48.133 0.720316C46.4374 -0.273548 44.8946 -0.243737 41.955 0.839561ZM45.9022 4.93097C46.1287 5.20397 49.4753 17.4233 49.4589 17.9172C49.4551 18.0329 48.1318 18.6444 46.5186 19.2756C34.1873 24.101 24.104 34.1849 19.279 46.5171C18.6478 48.1305 18.0256 49.4537 17.8965 49.4577C17.263 49.4762 5.17904 46.108 4.90137 45.8355C4.63121 45.57 4.66384 45.27 5.11097 43.9132C5.83907 41.7039 7.75342 37.2618 8.87185 35.1865C9.93441 33.215 10.067 32.0291 9.32931 31.0914C9.07112 30.7632 8.85988 30.2959 8.85988 30.0531C8.85988 29.5428 11.0819 25.827 13.0343 23.0721C14.8231 20.5481 20.4399 14.936 23.0239 13.0908C25.8867 11.0465 29.5244 8.85572 30.0558 8.85572C30.2985 8.85572 30.7658 9.06698 31.0939 9.32519C32.0427 10.0714 33.2693 9.93597 35.2179 8.86934C37.201 7.78416 40.0557 6.52599 43.0112 5.43424C45.4196 4.5446 45.5612 4.51995 45.9022 4.93097ZM72.1161 14.01C84.789 16.1008 95.4285 22.1529 103.696 31.9737C113.109 43.1555 117.282 59.0402 114.596 73.4674C111.905 87.9228 103.312 100.396 90.775 108.046C76.0559 117.028 57.4426 117.823 41.9897 110.129C31.6774 104.995 23.5952 96.9277 18.7222 86.9048C14.6982 78.6283 13.1146 70.7307 13.5915 61.3188C13.7263 58.6623 14.3358 54.1343 14.621 53.6728C14.6745 53.5862 15.431 53.7131 16.3023 53.9549C18.3016 54.5094 18.8194 54.5007 20.1263 53.8915C21.0065 53.4812 21.6719 53.3939 24.1165 53.3686C26.977 53.3385 27.0946 53.3164 28.8108 52.4902C31.2822 51.3001 32.5013 50.1097 34.8501 46.5934C38.5054 41.1218 41.1246 38.5029 46.5991 34.8452C50.0459 32.5423 51.2007 31.3564 52.4663 28.8198C53.3284 27.0917 53.339 27.0366 53.3597 24.1252C53.3754 21.8896 53.4728 21.0013 53.7636 20.441C54.3992 19.2164 54.4574 18.0338 53.9671 16.3038C53.7192 15.4297 53.5871 14.6708 53.6737 14.6173C54.1352 14.3321 58.6629 13.7225 61.3192 13.5877C64.7613 13.4133 69.6608 13.6049 72.1161 14.01ZM36.1129 15.2865C34.2816 16.3015 34.6689 19.1753 36.6879 19.5542C39.1543 20.0171 40.5502 17.1648 38.6429 15.5597C37.8601 14.9011 36.9797 14.8058 36.1129 15.2865ZM65.4267 19.0589C65.0535 19.2659 63.9475 20.9443 62.3888 23.6691C59.5989 28.5457 59.4487 29.1379 60.7143 30.2689C61.6353 31.0916 62.8007 31.1407 63.6597 30.3926C64.4432 29.7104 68.9475 21.8278 68.9475 21.1391C68.9475 19.3073 67.0258 18.1716 65.4267 19.0589ZM48.4332 26.5579C47.7999 28.0736 46.8413 29.0492 44.439 30.6221C38.1976 34.7089 34.7349 38.1726 30.6271 44.4374C28.5001 47.6817 26.9951 48.7605 24.597 48.7605H23.4191L23.8801 47.591C27.849 37.5214 37.1459 28.1696 47.3535 23.9796L48.6444 23.4496L48.7146 24.5829C48.754 25.2197 48.6308 26.085 48.4332 26.5579ZM87.4901 25.6859C87.2965 25.7493 85.2535 26.8739 82.95 28.1849C78.7328 30.5853 78.1014 31.1249 78.1014 32.3291C78.1014 33.5655 79.2508 34.6765 80.53 34.6765C81.1781 34.6765 88.4867 30.5369 89.5439 29.5712C90.1361 29.0304 90.3067 28.6842 90.3067 28.0234C90.3067 26.6309 88.693 25.2918 87.4901 25.6859ZM16.1619 35.2389C14.9048 35.9356 14.6215 37.5212 15.5557 38.6317C16.6368 39.9167 18.5966 39.8014 19.3158 38.4108C19.7507 37.5698 19.747 36.9402 19.3024 36.0802C18.7053 34.9257 17.3717 34.5682 16.1619 35.2389ZM59.4642 36.6968C52.4755 37.959 46.0764 41.9652 41.7686 47.7753C33.374 59.0982 34.7996 75.0716 45.0767 84.8344C48.0062 87.6174 52.4752 90.3553 54.088 90.3553C55.8002 90.3553 56.8485 88.7624 56.1838 87.1709C55.9024 86.4975 55.5122 86.1773 54.1183 85.4759C47.8163 82.3044 43.5633 77.0736 41.6672 70.1624C41.2626 68.6873 41.1696 67.6587 41.1546 64.4877C41.133 59.8709 41.5311 58.0203 43.352 54.2767C45.8001 49.2433 49.5976 45.5115 54.702 43.1227C57.5944 41.7692 59.893 41.2326 63.4316 41.0852C66.954 40.9382 69.423 41.3049 72.5621 42.4408C80.1343 45.181 85.7832 51.8665 87.5209 60.1451C87.9389 62.1368 87.8755 67.0319 87.4033 69.2068C86.8679 71.6738 85.6281 74.7263 84.2883 76.8781C82.151 80.3104 78.2861 83.7659 74.4211 85.7006C73.7521 86.0353 73.0393 86.5461 72.8367 86.8353C71.8777 88.2045 72.9628 90.3553 74.6121 90.3553C76.4605 90.3553 81.2478 87.3777 84.2775 84.344C88.2576 80.3587 90.8463 75.5249 92.0826 69.7692C92.6783 66.9965 92.6452 61.7568 92.0136 58.854C89.4861 47.2378 80.6225 38.6622 69.0927 36.6783C66.5296 36.2372 61.9602 36.2459 59.4642 36.6968ZM93.5977 42.4499C92.6933 42.8107 92.2065 43.3574 92.0509 44.1869C91.8871 45.0609 92.4065 46.2641 93.1104 46.6408C93.3815 46.7861 95.6609 46.8826 98.8145 46.8826H104.067L104.698 46.2242C105.98 44.8855 105.262 42.7029 103.418 42.3339C102.249 42.1002 94.2371 42.1947 93.5977 42.4499ZM62.8267 46.3951C61.0093 48.2126 63.1356 51.2365 65.4056 50.0623C66.0795 49.714 66.835 48.6474 66.835 48.0448C66.835 47.4326 66.0686 46.2254 65.5218 45.9763C64.4944 45.508 63.5701 45.6517 62.8267 46.3951ZM55.2165 48.0821C53.7624 48.9185 53.4758 50.6942 54.6116 51.8301C55.5465 52.7651 56.6887 52.7672 57.7306 51.836C59.2114 50.5128 58.4831 48.2091 56.4948 47.927C56.05 47.8638 55.4747 47.9338 55.2165 48.0821ZM71.6467 48.0821C70.1926 48.9185 69.906 50.6942 71.0418 51.8301C71.9767 52.7651 73.1189 52.7672 74.1608 51.836C75.6416 50.5128 74.9133 48.2091 72.925 47.927C72.4802 47.8638 71.9049 47.9338 71.6467 48.0821ZM48.8479 54.3406C47.0577 55.791 47.9419 58.4914 50.2074 58.4914C51.4507 58.4914 52.5173 57.4025 52.5173 56.1328C52.5173 54.3727 50.2034 53.2425 48.8479 54.3406ZM77.2062 54.5108C76.326 55.2516 76.1235 56.0471 76.5532 57.0759C77.5458 59.4515 80.918 58.732 80.918 56.1448C80.918 55.5206 80.7371 55.1159 80.2319 54.6108C79.3419 53.7207 78.1901 53.6826 77.2062 54.5108ZM61.7384 55.4389C59.3121 56.1971 57.1564 58.0759 55.985 60.4538C54.6015 63.2609 54.86 66.8733 56.6382 69.5856C58.6462 72.6487 62.5847 74.3491 66.0323 73.6418C69.9957 72.8285 72.828 69.9959 73.6413 66.0322C74.5459 61.623 71.6768 56.9107 67.2481 55.5321C65.6307 55.0286 63.1833 54.9873 61.7384 55.4389ZM20.215 60.1322C18.6365 60.815 18.2112 62.6199 19.3635 63.7464C19.7186 64.0936 21.8348 65.4189 24.0665 66.6918C27.7281 68.7803 28.2093 68.9927 28.9956 68.8676C30.1757 68.6795 30.9233 67.7911 30.9233 66.5766C30.9233 65.9165 30.7674 65.4857 30.3952 65.1177C29.8222 64.5513 22.1848 60.1479 21.4172 59.9413C21.1591 59.8721 20.618 59.9578 20.215 60.1322ZM67.0378 60.5655C69.485 62.1852 69.7945 65.5801 67.6875 67.6876C64.8113 70.5638 60.1345 68.8079 59.8402 64.7414C59.6961 62.7481 60.5889 61.2091 62.4927 60.1697C63.5912 59.57 65.8278 59.7648 67.0378 60.5655ZM99.2999 60.1423C98.5641 60.4568 97.8177 61.522 97.8177 62.2577C97.8177 63.3736 98.554 63.9912 102.822 66.4554C107.656 69.2464 108.201 69.3976 109.337 68.2615C110.22 67.3779 110.291 65.9766 109.495 65.1177C108.881 64.455 101.502 60.1585 100.634 59.9582C100.312 59.8836 99.7111 59.9665 99.2999 60.1423ZM46.3965 62.8265C45.6532 63.5699 45.5095 64.4942 45.9778 65.5217C46.2268 66.0686 47.434 66.835 48.0461 66.835C48.6487 66.835 49.7152 66.0794 50.0635 65.4055C51.2376 63.1354 48.214 61.0089 46.3965 62.8265ZM79.2569 62.8265C77.9414 64.1421 78.6061 66.313 80.4486 66.7176C81.3354 66.9125 82.4505 66.3214 82.9239 65.4055C84.098 63.1354 81.0744 61.0089 79.2569 62.8265ZM48.8479 70.772C47.0577 72.2224 47.9419 74.9228 50.2074 74.9228C51.4507 74.9228 52.5173 73.8338 52.5173 72.5642C52.5173 70.8041 50.2034 69.6739 48.8479 70.772ZM77.2062 70.9421C76.326 71.683 76.1235 72.4785 76.5532 73.5073C77.0335 74.6568 78.131 75.1864 79.3046 74.8347C80.4099 74.5035 80.918 73.8104 80.918 72.6332C80.918 70.6724 78.7178 69.6701 77.2062 70.9421ZM55.4249 76.4544C54.6318 76.775 53.9256 77.8508 53.9256 78.7388C53.9256 79.9029 54.9867 80.919 56.2026 80.919C57.3797 80.919 58.0728 80.4108 58.404 79.3055C58.7544 78.1363 58.2258 77.0342 57.0863 76.5579C56.1847 76.1812 56.1122 76.1767 55.4249 76.4544ZM71.8551 76.4544C70.3274 77.0718 69.8941 79.0851 71.0418 80.2329C72.3065 81.4974 74.3283 80.9946 74.8396 79.2881C75.1841 78.1374 74.648 77.0309 73.5165 76.5579C72.6149 76.1812 72.5424 76.1767 71.8551 76.4544ZM95.1736 78.5703C94.3321 79.2322 94.0507 80.1738 94.3967 81.1695C94.8328 82.4239 98.9668 89.4387 99.5374 89.8924C100.826 90.9168 102.87 90.0532 103.138 88.3714C103.265 87.5728 103.062 87.1123 100.966 83.442C99.6947 81.215 98.3688 79.1027 98.0195 78.7477C97.2431 77.9586 96.046 77.8839 95.1736 78.5703ZM62.8267 79.2578C61.5112 80.5735 62.1759 82.7443 64.0184 83.149C64.9052 83.3438 66.0203 82.7528 66.4937 81.8369C67.6678 79.5667 64.6442 77.4403 62.8267 79.2578ZM24.2104 82.6561C23.3292 83.5373 23.2018 84.2908 23.7534 85.3576C24.3327 86.4778 24.9718 86.586 30.5553 86.5071L35.6592 86.4353L36.2251 85.7766C36.8321 85.0705 36.979 83.8213 36.5495 83.0187C36.0016 81.9946 35.2268 81.858 29.9727 81.858H25.0084L24.2104 82.6561ZM62.8267 88.6472C61.6912 89.7828 61.9989 91.6079 63.441 92.2924C64.3909 92.7431 64.5756 92.7438 65.4344 92.2996C67.6537 91.1518 66.8641 87.9611 64.3606 87.9611C63.7365 87.9611 63.3319 88.142 62.8267 88.6472ZM83.3563 92.1816C83.0838 92.2917 82.6294 92.6759 82.3465 93.0353C81.8473 93.6703 81.8346 93.8383 81.9034 98.944L81.9743 104.199L82.6329 104.765C83.5994 105.596 84.965 105.545 85.8652 104.645L86.5512 103.959V98.7534V93.5477L85.7532 92.7496C84.9465 91.9428 84.3165 91.7936 83.3563 92.1816ZM43.5145 96.6312C41.3384 97.9006 39.3339 99.1633 39.06 99.437C38.7147 99.7823 38.5622 100.23 38.5622 100.897C38.5622 101.685 38.6995 101.981 39.3236 102.539C39.808 102.972 40.343 103.219 40.7953 103.219C41.7193 103.219 49.9887 98.494 50.3595 97.7542C51.2521 95.9739 50.3316 94.2888 48.479 94.3111C47.6391 94.3209 46.8108 94.7083 43.5145 96.6312ZM65.7788 98.033C65.5206 98.1436 65.1378 98.4314 64.9279 98.6724C64.4568 99.2137 60.3261 106.308 60.0331 107.079C59.7329 107.869 60.1524 109.195 60.8457 109.65C61.5363 110.102 63.0399 110.13 63.6046 109.701C64.2923 109.179 68.758 101.291 68.8839 100.377C68.9796 99.6804 68.8808 99.3982 68.3285 98.7915C67.6187 98.0119 66.562 97.6976 65.7788 98.033Z" fill="#FFC000"/>
</svg>
