<svg width="70" height="70" viewBox="0 0 70 70" fill="none" xmlns="http://www.w3.org/2000/svg">
<path fill-rule="evenodd" clip-rule="evenodd" d="M31.7867 0.090098C31.6361 0.153569 31.3898 0.342476 31.2392 0.509633C30.9775 0.800175 30.9637 1.03545 30.9265 5.86059L30.8875 10.9076H27.4638C23.7888 10.9076 23.4402 10.9646 23.0692 11.6271C22.9583 11.825 22.8792 12.7179 22.8458 14.1477L22.7942 16.3618L20.4158 16.4048L18.0372 16.4476L17.6581 16.8265L17.2789 17.2054L17.2358 19.5169L17.1927 21.8282L15.562 21.8738C13.9899 21.9175 13.9175 21.9329 13.5521 22.2984L13.173 22.6776L13.131 28.7959L13.0889 34.9142L9.84619 36.8694C8.0627 37.9447 6.50572 38.8988 6.38623 38.9896C6.10552 39.2032 5.85068 39.6848 5.85068 40.0019C5.85068 40.179 11.4523 59.225 12.917 64.0281C12.9818 64.2405 12.9528 64.2574 12.7282 64.1373C12.5821 64.0591 11.855 63.8917 11.1121 63.7652C7.85083 63.2095 5.13583 63.97 2.05088 66.303C0.633093 67.3752 0.138734 67.8823 0.030337 68.3756C-0.0969479 68.9551 0.184721 69.5335 0.717265 69.7861C1.53025 70.1717 1.52984 70.1719 3.58364 68.6186C6.20749 66.6342 8.60236 65.9344 10.8063 66.5081C11.2299 66.6184 12.1823 66.9807 12.9228 67.3134C15.1512 68.3143 16.3681 68.6382 18.237 68.7278C20.3373 68.8286 21.4561 68.5643 23.8827 67.3945C28.475 65.1807 29.822 65.1273 33.8104 67.0012C37.5222 68.7453 39.1959 69.1588 41.4947 68.8997C42.9668 68.7339 44.0043 68.3769 46.2071 67.2778C48.3354 66.216 49.3836 65.8277 50.4914 65.6908C51.8776 65.5195 53.8271 65.9871 56.1006 67.0361C59.6741 68.685 63.1159 68.605 66.1399 66.8027C66.9477 66.3212 68.8308 64.8761 69.4496 64.2628C70.2436 63.4757 70.1687 62.4256 69.2888 62.0083C68.4542 61.6125 68.4339 61.6215 66.3374 63.3239C65.0135 64.3988 63.962 64.9878 62.8494 65.2774C61.9353 65.5153 60.5473 65.5444 59.6388 65.3447C58.6966 65.1376 57.0384 64.4842 57.0384 64.32C57.0384 64.2396 58.6397 58.7915 60.5969 52.213C62.554 45.6345 64.1554 40.1396 64.1554 40.0022C64.1554 39.6848 63.9007 39.2032 63.6198 38.9896C63.5003 38.8988 61.9434 37.9447 60.1599 36.8694L56.9171 34.9142L56.8751 28.7959L56.8331 22.6776L56.454 22.2984C56.0885 21.9329 56.0161 21.9175 54.4441 21.8738L52.8133 21.8282L52.7702 19.5169L52.7271 17.2054L52.348 16.8265L51.9689 16.4476L49.5903 16.4048L47.2118 16.3618L47.1602 14.1477C47.1268 12.7179 47.0477 11.825 46.9369 11.6271C46.5658 10.9646 46.2172 10.9076 42.5423 10.9076H39.1186L39.0796 5.84937L39.0406 0.79101L38.6613 0.411965L38.282 0.032783L35.1712 0.00364672C33.4603 -0.0124945 31.9372 0.0264907 31.7867 0.090098ZM36.3717 6.80389V10.9076H35.003H33.6344V6.80389V2.70019H35.003H36.3717V6.80389ZM44.3099 15.0113V16.3792H35.003H25.6962V15.0113V13.6434H35.003H44.3099V15.0113ZM50.0582 20.4829V21.8508H35.003H19.9478V20.4829V19.115H35.003H50.0582V20.4829ZM29.8637 24.7072C29.7719 24.7925 19.1136 31.2643 15.9445 33.1591C15.8881 33.1929 15.8419 31.2778 15.8419 28.9036V24.5866H22.9178C27.0087 24.5866 29.9389 24.6375 29.8637 24.7072ZM54.1642 28.9036C54.1642 31.2778 54.1181 33.1929 54.0615 33.1591C50.8924 31.2643 40.2342 24.7925 40.1423 24.7072C40.0672 24.6375 42.9973 24.5866 47.0882 24.5866H54.1642V28.9036ZM33.6344 44.75V63.8191L32.9788 63.5701C30.8471 62.7606 28.1043 62.6866 25.9965 63.3818C25.6431 63.4983 24.3686 64.0816 23.1642 64.678C20.4746 66.0098 19.3192 66.2988 17.5943 66.0712C16.9932 65.9919 16.4495 65.8741 16.3864 65.8095C16.2486 65.6683 8.81929 40.7247 8.8932 40.6508C8.95684 40.5872 33.5527 25.6872 33.6002 25.6835C33.6189 25.6821 33.6344 34.262 33.6344 44.75ZM49.1624 33.4C55.7082 37.3609 61.0862 40.6241 61.1137 40.6515C61.141 40.679 59.6544 45.7703 57.81 51.9655C55.3942 60.0802 54.406 63.2161 54.2761 63.181C53.6176 63.0029 51.852 62.8725 50.811 62.9252C49.2494 63.0041 47.7935 63.482 45.0878 64.8045C42.7352 65.9542 42.0216 66.1682 40.5461 66.1658C39.2903 66.1638 38.5967 66.0299 37.2955 65.5384L36.3717 65.1893V45.424V25.6586L36.8165 25.9285C37.0612 26.0769 42.6169 29.4391 49.1624 33.4ZM29.4567 31.8906C28.55 32.2856 28.4688 33.5161 29.3049 34.1931C29.943 34.7096 31.1527 34.2501 31.3635 33.4111C31.4875 32.9174 31.1236 32.1634 30.6408 31.9139C30.1451 31.6577 29.9981 31.6548 29.4567 31.8906ZM40.0432 32.0707C39.2568 32.5583 39.173 33.4325 39.8481 34.1072C40.4467 34.7055 40.9849 34.7266 41.6014 34.1759C41.9688 33.8478 42.0454 33.6804 42.0454 33.2044C42.0454 32.7283 41.9688 32.5609 41.6014 32.2329C41.0971 31.7824 40.5927 31.7299 40.0432 32.0707ZM23.9791 35.297C19.4778 38.0774 15.8577 40.4046 15.6023 40.6821C15.2694 41.0438 15.1902 41.7823 15.4354 42.24C15.6455 42.6326 16.3628 42.956 16.8204 42.8645C17.0368 42.8213 19.2814 41.483 21.8086 39.8907C25.5466 37.5356 26.443 36.9126 26.6158 36.5507C26.8735 36.0106 26.7704 35.4967 26.3128 35.0393C25.7909 34.5177 25.1207 34.5918 23.9791 35.297ZM44.7355 34.9C43.9421 35.3395 43.8263 36.2734 44.481 36.9534C44.9537 37.4445 53.1608 42.5459 53.8827 42.7975C55.1529 43.2401 56.1054 41.6056 55.1565 40.6113C54.8559 40.2964 47.1815 35.4823 45.9955 34.8647C45.6054 34.6616 45.1424 34.6746 44.7355 34.9Z" fill="#E30D16"/>
</svg>
