<svg width="120" height="76" viewBox="0 0 120 76" fill="none" xmlns="http://www.w3.org/2000/svg">
<path opacity="0.15" fill-rule="evenodd" clip-rule="evenodd" d="M60.9096 0.308475C59.8322 1.13596 59.7363 2.37367 60.6771 3.31464L61.3637 4.0014H67.0814H72.7989L74.1482 6.87951C74.8902 8.4626 75.4964 9.83704 75.4953 9.93384C75.4943 10.0306 71.3976 10.1112 66.3913 10.1129C56.4088 10.1159 56.0365 10.1563 53.1892 11.5505C51.3018 12.4746 48.5785 15.1053 47.6878 16.8648L47.0634 18.0983H29.6943C12.4647 18.0983 12.3141 18.1023 10.9672 18.6065C6.24731 20.3728 4.24015 27.079 7.74052 29.3869C8.12058 29.6376 8.61667 29.8434 8.84264 29.8441C9.60345 29.8471 9.2544 30.1944 7.90142 30.7808C6.15664 31.5369 2.54611 33.9108 2.22313 34.5141C1.82663 35.2556 1.92717 36.3794 2.43594 36.8883C3.28015 37.7327 3.98952 37.7308 5.33029 36.8805C9.38453 34.3095 12.2685 33.0805 15.7276 32.4489C17.5882 32.1092 21.8768 32.0899 23.8549 32.4123C32.1886 33.7708 39.253 39.5966 42.3782 47.6879C43.4564 50.4798 43.813 52.592 43.9274 56.8648C44.0246 60.5009 44.0974 61.0971 44.5562 62.0214C44.8413 62.5961 45.3731 63.2833 45.7377 63.5486C46.3834 64.018 46.7226 64.0324 58.6363 64.0956C72.1069 64.167 72.1659 64.1618 73.9003 62.7319C75.4083 61.4886 75.8981 60.0476 76.0545 56.3949C76.1295 54.6504 76.3033 52.5887 76.4412 51.8134C77.2595 47.2126 79.7644 42.473 83.0858 39.2411C84.6105 37.7574 87.4027 35.4932 87.7151 35.4871C87.857 35.4842 89.6478 39.0392 89.54 39.1095C87.196 40.6345 84.3209 43.5357 83.0492 45.6592C80.9326 49.194 80.0656 52.7118 80.2622 56.9668C80.4177 60.326 80.8029 61.8805 82.1986 64.7755C84.7608 70.0914 89.411 73.9009 95.2246 75.4469C97.9846 76.1808 102.274 76.1848 104.972 75.456C112.102 73.5299 117.564 68.1444 119.457 61.173C120.135 58.6755 120.187 53.7461 119.561 51.3435C117.64 43.9793 111.976 38.3654 104.73 36.6444C101.5 35.8768 96.4449 36.0843 93.7917 37.0934C93.217 37.3119 93.1559 37.248 92.3176 35.5531C91.8363 34.5806 91.4743 33.7555 91.5131 33.7196C91.7038 33.5429 94.8878 32.6616 96.1862 32.4262C96.9969 32.2791 98.8297 32.1649 100.259 32.1724C104.016 32.1924 106.753 32.7967 110.345 34.399C112.034 35.1523 112.639 35.1694 113.416 34.486C114.255 33.747 114.415 32.7022 113.807 31.9288C112.698 30.5191 106.641 28.5739 102.261 28.2211C98.4414 27.9133 93.3809 28.5692 90.5958 29.7332C90.1096 29.9364 89.6835 30.0184 89.6492 29.9155C89.6147 29.8126 88.8973 28.312 88.055 26.5811C87.2124 24.8502 86.5592 23.398 86.6031 23.3539C86.6473 23.3099 87.4158 23.429 88.3112 23.6189C89.2066 23.8087 90.5855 23.9657 91.3754 23.968C92.6166 23.9715 92.8954 23.8881 93.4307 23.3527L94.0499 22.7331V14.2007C94.0499 8.44779 93.9649 5.48157 93.7892 5.09555C93.4345 4.3174 92.637 4.00069 91.044 4.00539C87.6547 4.01573 83.231 5.77479 80.9323 8.0263L79.7179 9.21584L77.6281 4.86671C76.3655 2.23928 75.3494 0.416787 75.0614 0.262426C74.3563 -0.114902 61.4064 -0.072846 60.9096 0.308475ZM90.0567 14.0739V19.9173L89.0584 19.727C87.4684 19.4239 86.1453 18.8826 84.7813 17.9771C83.7346 17.2821 83.387 16.8655 82.7917 15.593C82.395 14.7451 82.0704 13.8197 82.0704 13.5365C82.0704 12.8411 83.2664 10.9977 84.0977 10.4115C85.6645 9.307 88.1837 8.30495 89.5282 8.25138L90.0567 8.23047V14.0739ZM79.7842 20.1003L82.7788 26.0964L67.2912 26.0327C51.9856 25.9698 51.7956 25.9632 51.1404 25.4766C48.6668 23.64 50.6843 17.6033 54.5243 15.3525C56.5456 14.1676 56.8629 14.1366 67.1568 14.1199L76.7895 14.1042L79.7842 20.1003ZM45.8969 24.0895V26.0865H27.9277C10.3166 26.0865 9.95837 26.0774 9.95837 25.6319C9.95837 24.9391 10.4019 23.9173 10.9724 23.2961C12.0813 22.0882 11.7215 22.1115 29.3957 22.1016L45.8969 22.0924V24.0895ZM49.9582 29.4346L50.9471 29.9632L68.1124 30.0278L85.2774 30.0924L85.6807 30.938C85.9022 31.403 86.0527 31.8061 86.0149 31.8336C85.9771 31.8613 85.3382 32.2817 84.595 32.7675C83.852 33.2536 83.1852 33.7466 83.1131 33.8629C83.0377 33.9848 77.0618 34.0748 69.0287 34.0748C55.5531 34.0748 55.0314 34.0912 53.7928 34.5548C52.3802 35.0834 51.0314 36.3785 50.4113 37.8011C50.1572 38.3847 50.0339 39.4079 50.0231 41.022C50.0087 43.2065 50.062 43.4946 50.7174 44.7812C51.5553 46.4253 52.9949 47.5228 54.8306 47.9165C55.5637 48.0737 59.3074 48.1717 64.5824 48.1717C69.2915 48.1717 73.14 48.2509 73.1346 48.3479C73.1292 48.4449 72.9338 49.3171 72.7005 50.2862L72.2765 52.0483L65.6878 52.1658C59.6332 52.2737 59.0594 52.3195 58.6053 52.7309C58.2955 53.0114 58.1113 53.4644 58.1113 53.9451C58.1113 56.0667 58.4374 56.1599 65.8511 56.1599H71.97V57.4329C71.97 60.2849 72.5833 60.1541 59.2158 60.1541H48.0826L47.9346 56.2187C47.8386 53.666 47.6267 51.5815 47.3317 50.2862C45.3893 41.7602 40.1989 35.0099 32.6051 31.1342L30.5411 30.0807H38.6519H46.7625L47.7979 29.5107C48.3673 29.1973 48.8636 28.9329 48.9012 28.9233C48.9386 28.9137 49.4142 29.1437 49.9582 29.4346ZM18.0375 36.2297C9.86653 36.9078 3.11243 42.5069 0.656397 50.6387C0.0980573 52.487 0.01561 53.1672 0.00128159 56.0425C-0.0121073 58.7639 0.0743332 59.6424 0.502072 61.1308C1.85364 65.8344 4.37028 69.4942 8.19668 72.3206C10.0763 73.7092 11.8561 74.5851 14.3516 75.3496C16.1797 75.9095 16.8104 75.9835 19.8239 75.9924C22.6508 76.0006 23.5356 75.9146 25.0284 75.4859C30.7471 73.8433 35.2702 70.1342 37.8608 64.9623C41.103 58.4899 40.345 49.9829 36.0148 44.2459C31.7038 38.5339 25.2031 35.6353 18.0375 36.2297ZM76.7818 40.6588C75.8302 42.083 74.9841 43.4619 74.9015 43.7227C74.7532 44.19 74.605 44.1961 65.0268 44.1285L55.3027 44.0601L54.7052 43.4619C53.5258 42.282 53.751 39.0329 55.0577 38.3727C55.5064 38.1457 58.3411 38.075 67.0784 38.0724L78.5115 38.0689L76.7818 40.6588ZM23.9089 40.6468C28.5053 41.8227 32.1513 44.8429 34.2695 49.229C35.4839 51.7434 35.8579 53.4193 35.8492 56.3042C35.8306 62.3548 32.4796 67.6844 26.9881 70.3978C24.2441 71.7537 22.0344 72.2206 19.1192 72.0605C14.8707 71.8272 11.6999 70.3978 8.64979 67.3407C7.60687 66.2956 6.42559 64.8589 6.0244 64.1482C4.1469 60.8216 3.46054 56.7029 4.18683 53.1185C5.46183 46.8243 9.95673 42.1044 16.183 40.522C18.0481 40.0479 21.8049 40.1085 23.9089 40.6468ZM104.856 40.831C109.466 42.4791 112.527 45.1517 114.478 49.229C115.674 51.7298 115.999 53.2066 116.004 56.1599C116.012 60.7093 114.673 63.948 111.432 67.2185C109.26 69.4108 107.729 70.384 104.915 71.3628C103.326 71.9154 102.733 71.9962 100.275 71.9941C98.3155 71.9924 96.9964 71.8655 95.949 71.5777C86.0753 68.8648 81.2581 57.9242 85.9017 48.7591C86.6294 47.3224 87.339 46.395 88.9128 44.8237C90.045 43.6931 91.0661 42.7679 91.1819 42.7679C91.5276 42.7679 94.8149 49.9063 94.5979 50.1859C92.9222 52.3449 92.3474 53.8476 92.358 56.0425C92.3857 61.7689 98.3423 65.3269 103.582 62.7467C106.239 61.4385 107.741 58.9892 107.77 55.9163C107.785 54.3703 107.689 53.9465 107.017 52.5805C105.617 49.7362 103.123 48.1743 99.972 48.1691L98.3954 48.1665L96.6922 44.6059C95.7554 42.6476 95.0388 40.9957 95.0996 40.9348C95.1605 40.874 95.7684 40.6823 96.4505 40.5089C98.2829 40.0432 103.177 40.2307 104.856 40.831ZM16.9586 48.7335C15.32 49.4075 14.2968 50.2355 13.3373 51.664C12.3209 53.1773 11.9799 54.3555 11.9888 56.3244C12.0026 59.3785 13.7845 62.0327 16.7421 63.4051C18.6315 64.2816 21.2605 64.2772 23.164 63.3942C24.7481 62.6593 26.2881 61.1542 27.1015 59.5456C27.9495 57.8687 28.0444 55.149 27.3226 53.2247C26.6069 51.3172 24.6847 49.3822 22.8082 48.6799C20.9452 47.9826 18.7347 48.0028 16.9586 48.7335ZM22.1094 52.788C23.188 53.5934 23.6538 54.4293 23.7639 55.7568C24.0134 58.7676 21.3027 60.8725 18.5364 59.8157C16.7334 59.1271 15.678 57.3152 15.9798 55.4264C16.1461 54.387 17.2772 52.9404 18.2787 52.4861C19.27 52.0364 21.3194 52.198 22.1094 52.788ZM101.644 52.4863C103.326 53.1893 104.389 55.3407 103.918 57.0892C103.406 58.9904 101.387 60.377 99.5623 60.081C96.972 59.6604 95.3669 56.7382 96.5111 54.5254C96.8275 53.9131 96.9426 53.8652 97.8124 53.9817C98.5929 54.0865 98.8715 54.0111 99.3444 53.5668C99.6622 53.268 99.9222 52.8307 99.9222 52.5948C99.9222 52.0747 100.562 52.0343 101.644 52.4863Z" fill="#FFC000"/>
</svg>
