<svg width="147" height="105" viewBox="0 0 147 105" fill="none" xmlns="http://www.w3.org/2000/svg">
<path fill-rule="evenodd" clip-rule="evenodd" d="M5.02612 0.383082C2.69828 1.3094 1.23807 2.83029 0.414987 5.18539C0.0959874 6.09851 0.022991 12.3701 0.012645 39.7965L0 73.2925L0.675073 74.0938C1.2418 74.7658 1.63437 74.9157 3.11787 75.0251L4.88559 75.1556V79.3628C4.88559 84.303 5.34138 86.0207 7.11111 87.7513C9.01046 89.6086 9.79359 89.8685 13.8664 89.9923L17.5306 90.1038V90.8224C17.5306 91.9992 19.2018 95.9301 20.5019 97.8118C22.7059 101.001 26.594 103.615 30.5504 104.567C34.0514 105.41 38.1582 104.936 41.7097 103.281C46.1538 101.21 49.935 96.4237 50.9506 91.5848L51.2737 90.0448H73.5712H95.8687L96.1917 91.5848C97.7795 99.1517 105.032 105.017 112.78 105C118.175 104.989 123.64 102.154 126.64 97.8118C127.945 95.9242 129.612 91.9981 129.612 90.8139V90.0865L135.719 89.9923C142.514 89.8876 143.102 89.7395 145.027 87.6507C147.121 85.3771 146.999 86.72 146.999 65.9922V47.3661L146.353 46.1326C145.997 45.4542 141.59 40.1673 136.559 34.3838C128.404 25.0106 127.251 23.7986 125.943 23.2243C124.511 22.5954 124.194 22.5801 112.547 22.5801H100.618L100.53 14.1471C100.448 6.29592 100.4 5.62274 99.8375 4.394C99.0533 2.68128 97.914 1.5423 96.1311 0.68814L94.6942 0L50.2928 0.01936C17.0289 0.0340262 5.67446 0.12525 5.02612 0.383082ZM94.7499 5.68845L95.5563 6.39653L95.6319 38.2475L95.7075 70.0987H50.2965H4.88559V38.3971V6.69543L5.72562 5.83804L6.56565 4.98065H50.2546H93.9435L94.7499 5.68845ZM110.357 40.5826C110.357 51.4773 110.428 53.8048 110.794 54.8623C111.731 57.5752 113.707 59.2739 116.548 59.8098C117.572 60.0031 122.884 60.1257 130.239 60.1257H142.257V71.7346V83.3435L141.41 84.2074L140.564 85.0715L135.192 84.9914L129.821 84.9116L129.442 83.401C128.176 78.3485 124.683 73.958 120.255 71.8519C116.947 70.2788 115.669 70.0987 107.801 70.0987H100.586V48.8327V27.5667H105.471H110.357V40.5826ZM124.545 28.2266C126.264 29.8185 141.98 48.1859 142.123 48.7705C142.21 49.1275 142.244 50.6733 142.197 52.2059L142.113 54.9925L130.229 55.0691C122.607 55.1183 117.944 55.0356 117.227 54.8382C115.222 54.2874 115.242 54.4399 115.242 40.1943V27.5667H119.537C123.588 27.5667 123.872 27.6042 124.545 28.2266ZM21.5618 75.8919C19.3285 78.8207 18.723 80.092 17.3573 84.7183C17.2674 85.0231 16.5641 85.0891 14.232 85.0117C9.94159 84.8691 9.94332 84.8714 9.82175 79.3311L9.72864 75.0853H15.9529H22.1768L21.5618 75.8919ZM37.4696 75.5285C43.9094 77.2403 47.8026 84.0261 46.1286 90.6203C43.7559 99.9656 32.4182 103.14 25.7439 96.3281C20.3025 90.7743 21.148 81.5645 27.4941 77.265C30.5358 75.2046 33.9896 74.6033 37.4696 75.5285ZM58.9144 80.0718V85.0583H55.0347C51.2047 85.0583 51.155 85.0498 51.1489 84.3983C51.1325 82.6269 49.2996 78.7547 47.1223 75.8919L46.5088 75.0853H52.7117H58.9144V80.0718ZM81.0433 80.0718V85.0583H72.4216H63.8V80.0718V75.0853H72.4216H81.0433V80.0718ZM100.02 75.8919C97.8428 78.7547 96.0098 82.6269 95.9934 84.3983C95.9874 85.0574 95.9802 85.0583 90.9581 85.0583H85.9288V80.0718V75.0853H93.2811H100.634L100.02 75.8919ZM116.124 75.5531C120.137 76.756 123.237 79.8729 124.482 83.9539C126.509 90.6007 122.518 97.8165 115.829 99.5996C106.887 101.983 98.6785 93.5351 101.02 84.3602C102.713 77.7237 109.726 73.6351 116.124 75.5531ZM32.0302 80.4452C28.6813 81.8215 26.7943 84.735 27.0739 88.0977C27.4995 93.2101 32.6984 96.4586 37.1195 94.3749C39.0603 93.4603 40.1319 92.3665 41.028 90.3857C42.6069 86.896 40.984 82.5287 37.4655 80.7975C36.1237 80.1375 33.2352 79.95 32.0302 80.4452ZM110.497 80.4452C108.174 81.4114 106.541 83.1077 105.803 85.322C104.24 90.0131 108.319 95.3472 113.184 94.973C117.27 94.6582 119.984 91.6962 119.984 87.5516C119.984 84.4444 118.58 82.1048 115.933 80.8027C114.583 80.1384 111.693 79.9483 110.497 80.4452ZM35.9456 85.9157C36.4519 86.4325 36.7856 87.0822 36.7856 87.5516C36.7856 88.5805 35.351 90.0448 34.3428 90.0448C33.4298 90.0448 31.9 88.5981 31.9 87.7346C31.9 85.361 34.3313 84.2681 35.9456 85.9157ZM113.904 85.3839C114.654 85.7326 115.242 86.766 115.242 87.7346C115.242 88.5981 113.713 90.0448 112.8 90.0448C111.791 90.0448 110.357 88.5805 110.357 87.5516C110.357 86.6197 111.774 85.0583 112.62 85.0583C112.941 85.0583 113.519 85.205 113.904 85.3839Z" fill="#E30D16"/>
</svg>
