<svg width="70" height="70" viewBox="0 0 70 70" fill="none" xmlns="http://www.w3.org/2000/svg">
<path fill-rule="evenodd" clip-rule="evenodd" d="M63.7014 0.0333629C60.2536 0.472301 56.9505 1.75926 54.3352 3.68251C53.6741 4.1687 51.0242 6.68646 47.8506 9.84367L42.4838 15.1828L40.5872 15.0229C37.8979 14.7962 38.0868 14.8724 38.2438 14.079C38.4716 12.9276 37.8416 11.184 36.8905 10.333C36.7499 10.2071 36.2956 9.93228 35.881 9.72205C35.254 9.40418 34.9545 9.34023 34.0994 9.34146C32.5186 9.34351 32.0565 9.61454 29.7693 11.8806L27.8263 13.8058L26.269 13.6539C25.4125 13.5703 24.4591 13.4697 24.1503 13.4304L23.5887 13.3589L23.6498 12.3713C23.7571 10.6376 22.9742 9.19779 21.4719 8.36621C20.8097 7.99972 20.6162 7.95986 19.504 7.96069C17.8381 7.96206 17.4842 8.16735 15.1138 10.5087L13.1905 12.4085L10.3251 12.1307C8.74921 11.9778 7.29968 11.8878 7.1037 11.9309C6.87799 11.9804 5.52767 13.2288 3.41977 15.3365C0.409003 18.3472 0.0854379 18.7152 0.0204781 19.2009C-0.0343403 19.6122 0.0156815 19.8224 0.234133 20.0994C0.409004 20.3209 2.12441 21.2985 4.66689 22.6252C9.34166 25.0648 9.56971 25.1352 10.2674 24.3547C10.4859 24.1105 10.6646 23.7544 10.6646 23.5636C10.6646 22.7456 10.3694 22.5018 7.69081 21.108C6.27361 20.3707 4.78392 19.583 4.38032 19.3576L3.64644 18.948L5.79656 16.7962C7.44837 15.1431 8.01547 14.6549 8.24351 14.6895C8.40673 14.7144 15.5091 15.388 24.0266 16.1863C32.544 16.9846 39.6022 17.6662 39.7116 17.7011C39.8395 17.7418 37.5518 20.1218 33.2941 24.3773L26.6778 30.9902L23.1595 29.1535C19.1368 27.0536 18.7292 26.9279 18.0716 27.585C17.6206 28.0359 17.5328 28.5667 17.8092 29.1728C17.9613 29.5065 18.5572 29.851 23.0834 32.2224L24.6072 33.0207L22.6435 35.049C20.5323 37.2297 19.1579 38.8717 17.8055 40.8287C16.9761 42.029 16.9369 42.0637 16.3103 42.152C15.9563 42.202 14.1866 42.2543 12.3776 42.2684C10.5686 42.2827 8.02547 42.3343 6.72628 42.3832L4.36401 42.4722L2.51197 44.3193C1.40314 45.4252 0.603472 46.3377 0.518914 46.5936C0.345688 47.1184 0.507677 47.6051 0.979115 47.9757C1.16577 48.1225 3.77595 49.0646 6.77959 50.0695C9.78309 51.0742 12.2617 51.9129 12.2873 51.9331C12.3131 51.9534 12.1145 52.8528 11.846 53.9318C11.105 56.9098 10.9854 57.7898 11.264 58.2148C11.7287 58.9236 12.0633 59.0301 13.2379 58.8432C13.8201 58.7506 15.1482 58.4586 16.1892 58.1944C17.2303 57.9302 18.0994 57.7359 18.1207 57.7626C18.1419 57.7893 18.9834 60.2713 19.9907 63.2783C21.1353 66.695 21.9395 68.8848 22.1349 69.1168C22.5149 69.5683 23.0646 69.6934 23.6154 69.4538C23.8415 69.3555 24.8283 68.4667 25.8081 67.4787L27.5897 65.6822L27.6802 63.1161C27.7299 61.7048 27.7805 58.9786 27.7926 57.0578C27.8046 55.137 27.8564 53.4613 27.9077 53.3339C27.959 53.2067 28.5559 52.7191 29.2343 52.2506C31.196 50.8957 32.8375 49.5233 35.0211 47.412L37.0539 45.4466L43.3296 57.4713C46.7813 64.0849 49.7308 69.6094 49.884 69.748C50.0654 69.9121 50.3724 70 50.7638 70H51.3652L54.7192 66.6502C56.845 64.5273 58.1019 63.1702 58.1515 62.9445C58.1946 62.7487 58.1045 61.3001 57.9516 59.7253L57.6735 56.8618L59.5746 54.9398C61.9176 52.5709 62.123 52.2173 62.1244 50.5525C62.1252 49.4411 62.0853 49.2477 61.7186 48.586C60.8871 47.0859 59.4454 46.3023 57.7141 46.4092L56.729 46.4702L56.6551 45.9777C56.6146 45.7068 56.5134 44.7532 56.4303 43.8584L56.2792 42.2318L58.2038 40.2922C60.4764 38.0015 60.7449 37.5427 60.7347 35.9669C60.7254 34.5135 60.0598 33.2211 58.9401 32.4825C58.155 31.9645 56.8145 31.6647 56.002 31.8252C55.209 31.9819 55.287 32.1741 55.0528 29.4883L54.8878 27.5977L60.2301 22.2297C66.2922 16.1384 66.7838 15.5562 68.1255 12.8767C69.5443 10.0431 70.0016 7.99136 70 4.46739C69.9985 0.971226 69.8509 0.491338 68.69 0.209349C68.0983 0.0656841 64.4569 -0.0629159 63.7014 0.0333629ZM67.2371 2.85133C67.4649 3.07895 67.4471 5.18229 67.2036 6.79616C66.8277 9.28901 66.0218 11.3603 64.5698 13.5666C63.7369 14.8324 62.3637 16.2429 47.6822 30.9119C37.8323 40.7534 31.1338 47.3404 30.2224 48.0809C25.9142 51.5812 20.7888 54.1948 15.6847 55.4939C14.9408 55.6834 14.3057 55.8118 14.2734 55.7796C14.0451 55.5515 15.6932 50.4787 16.7058 48.2928C18.6582 44.0783 20.6726 41.1424 24.154 37.4378C27.2567 34.1359 54.8106 6.74097 55.6842 6.08934C57.9807 4.37646 60.6954 3.22933 63.3805 2.83723C64.6489 2.65207 67.0465 2.66083 67.2371 2.85133ZM20.2379 10.8255C20.9164 11.1761 21.1668 12.2443 20.7032 12.8098C20.4675 13.0973 20.4328 13.0996 18.6818 12.939C17.7019 12.8491 16.8729 12.7537 16.8397 12.7268C16.7454 12.6505 18.2221 11.1775 18.6818 10.8892C19.1725 10.5814 19.7221 10.559 20.2379 10.8255ZM34.7192 12.2159C35.2761 12.48 35.6624 13.2158 35.5391 13.7773C35.3862 14.4731 35.246 14.5078 33.3159 14.3267C32.3524 14.2363 31.5368 14.1365 31.5034 14.1047C31.3917 13.9985 33.0662 12.3833 33.4827 12.1959C34.0187 11.9544 34.1729 11.9569 34.7192 12.2159ZM46.4486 21.7779C45.2606 22.4359 45.7577 24.3258 47.1188 24.3258C47.8132 24.3258 48.4893 23.6567 48.4893 22.9695C48.4893 21.9413 47.3522 21.2773 46.4486 21.7779ZM13.5717 24.8061C13.0807 25.0192 12.6649 25.7735 12.8026 26.2012C13.07 27.0324 13.4584 27.3388 14.2448 27.3388C14.5209 27.3388 14.794 27.2047 15.0606 26.9384C15.7628 26.2367 15.5215 25.0646 14.6094 24.7469C14.0944 24.5675 14.125 24.5657 13.5717 24.8061ZM42.5963 25.6368C42.0212 26.0267 31.3543 36.6944 31.144 37.0899C30.8235 37.6928 30.9005 38.1387 31.4133 38.6512C31.926 39.1635 32.3718 39.2405 32.9757 38.921C33.5586 38.6124 44.3442 27.7309 44.513 27.2807C44.9451 26.1292 43.5875 24.9648 42.5963 25.6368ZM53.9167 46.2153L55.4383 62.0567L53.3042 64.2111C52.1304 65.396 51.1205 66.3159 51.0601 66.2555C50.9995 66.195 48.2772 61.0347 45.0103 54.7882L39.0706 43.4309L45.6584 36.8283C49.2817 33.1968 52.2795 30.259 52.3205 30.2998C52.3615 30.3405 53.0798 37.5025 53.9167 46.2153ZM57.1947 34.6764C57.8321 34.9787 58.1637 35.7041 57.9657 36.3632C57.8277 36.8226 56.1187 38.7109 55.9764 38.5613C55.8625 38.4418 55.5936 35.0178 55.6862 34.868C55.79 34.7002 56.2632 34.4827 56.5543 34.469C56.656 34.4643 56.944 34.5576 57.1947 34.6764ZM15.1871 45.0778C15.1871 45.1173 14.9784 45.5641 14.7233 46.0707C14.3074 46.8965 13.7088 48.2502 13.3945 49.0753C13.2802 49.3754 13.239 49.365 9.47062 48.0907C7.37615 47.3826 5.36404 46.6992 4.9995 46.5723L4.3366 46.3416L4.92111 45.7464L5.50547 45.1513L7.02298 45.1079C9.89821 45.0256 15.1871 45.006 15.1871 45.0778ZM58.7478 49.3096C59.4068 49.6502 59.6406 50.5529 59.2578 51.2784C59.0481 51.6755 57.4369 53.316 57.3553 53.2153C57.3283 53.1819 57.2327 52.3534 57.1428 51.3742C56.982 49.6244 56.9843 49.5897 57.272 49.3541C57.6264 49.0639 58.2368 49.0456 58.7478 49.3096ZM25.0086 59.6884L24.9184 64.5103L24.3409 65.0984C23.9428 65.5037 23.7342 65.6331 23.6694 65.5149C23.6175 65.4207 22.9226 63.4155 22.1252 61.0591L20.6752 56.7747L21.049 56.634C21.7018 56.3881 23.8711 55.4119 24.3692 55.1399C24.633 54.9958 24.905 54.8755 24.9738 54.8723C25.0485 54.8689 25.0625 56.8082 25.0086 59.6884Z" fill="#E30D16"/>
</svg>
