<svg width="120" height="120" viewBox="0 0 120 120" fill="none" xmlns="http://www.w3.org/2000/svg">
<path opacity="0.15" fill-rule="evenodd" clip-rule="evenodd" d="M41.7181 0.0560238C37.2441 0.666156 32.6935 2.01947 29.1778 3.78534C26.5436 5.10852 26.0638 5.72312 26.7316 6.91843C27.4034 8.12079 28.0229 8.10196 30.9667 6.78985C36.7744 4.20144 41.5416 3.26069 47.6577 3.49664C51.4623 3.64335 53.9019 4.07263 57.3185 5.19706C69.4167 9.17858 78.6319 19.4423 81.3528 31.9668C82.675 38.0526 82.3229 44.7587 80.366 50.7639C76.3017 63.2352 65.8665 72.4687 52.9055 75.0618C49.1598 75.8111 43.1835 75.8111 39.4379 75.0618C21.3812 71.4493 8.93908 55.1215 10.3195 36.8502C11.0016 27.8242 14.4179 20.4767 21.0202 13.8366C23.7526 11.0886 24.1382 10.6054 24.1382 9.92882C24.1382 8.76884 23.0075 7.95855 21.9517 8.36193C20.4286 8.94357 15.6506 14.0316 13.313 17.561C5.71493 29.0327 4.5631 43.8014 10.3061 56.1133L11.2158 58.0638H7.96094C2.90262 58.0638 1.41442 58.5974 0.435806 60.7622C0.0270153 61.666 0.00521624 62.9656 0.000293866 86.6235C-0.00415971 108.515 0.0387352 111.638 0.355642 112.4C1.2194 114.477 2.39843 115.05 5.80564 115.05H8.35332L8.91447 116.254C10.4931 119.64 14.6968 120.979 18.0295 119.156C19.2154 118.508 20.4455 117.095 21.0399 115.698L21.3153 115.05H23.8588H26.402L26.9632 116.254C27.646 117.718 29.1801 119.125 30.639 119.625C34.0504 120.792 37.6283 119.13 39.0886 115.698L39.364 115.05H41.9075H44.4507L45.0118 116.254C45.3206 116.916 46.0301 117.862 46.5886 118.356C49.9926 121.366 55.2935 120.082 57.0787 115.816L57.3989 115.05H65.6148C73.5182 115.05 73.8485 115.032 74.2995 114.579C74.9312 113.945 74.9188 112.67 74.2751 112.084C73.8131 111.664 73.2632 111.632 65.5292 111.569L57.2765 111.501L56.9983 110.728C56.5604 109.512 55.1812 108.071 53.8098 107.397C52.165 106.588 50.027 106.547 48.3056 107.291C46.9911 107.859 45.3824 109.455 44.8614 110.708L44.5245 111.518H41.8791H39.2339L38.9526 110.737C38.512 109.513 37.1358 108.073 35.7611 107.397C34.1163 106.588 31.9784 106.547 30.2569 107.291C28.9424 107.859 27.3337 109.455 26.8127 110.708L26.4758 111.518H23.8304H21.1852L20.904 110.737C20.4633 109.513 19.0871 108.073 17.7124 107.397C16.0676 106.588 13.9297 106.547 12.2082 107.291C10.8937 107.859 9.28506 109.455 8.76399 110.708L8.42716 111.518H6.11153C4.21595 111.518 3.76989 111.451 3.6534 111.146C3.44572 110.602 3.47877 79.7288 3.68691 79.7246C3.78372 79.7227 22.928 85.2589 46.2303 92.0271L88.5978 104.333V107.926V111.518H84.5068C80.1433 111.518 79.4478 111.657 79.0132 112.615C78.6473 113.422 78.6846 113.722 79.239 114.43L79.7246 115.05H90.1012H100.478L101.164 116.398C102.83 119.671 106.609 120.918 109.881 119.275C111.463 118.481 112.352 117.569 113.023 116.051L113.466 115.05H115.105C117.526 115.05 118.871 114.266 119.647 112.4C119.956 111.656 120.006 109.757 119.999 98.9863C119.993 87.6973 119.951 86.3214 119.585 85.2619C119.141 83.9776 112.394 73.773 111.152 72.5076C110.73 72.0771 109.939 71.4858 109.394 71.1936C108.436 70.679 108.148 70.6583 100.318 70.5444L92.231 70.4266L92.1138 65.717C91.9905 60.7608 91.9396 60.5201 90.7861 59.4466C89.5553 58.301 89.1592 58.2084 85.0516 58.1069L81.1538 58.0108L82.1563 55.8555C86.6654 46.1617 86.818 34.2823 82.5634 24.1545C78.1879 13.7391 69.0485 5.29855 58.3604 1.80188C54.4164 0.51168 51.9067 0.119839 46.992 0.027766C44.5426 -0.0183883 42.1693 -0.00567232 41.7181 0.0560238ZM37.2994 23.141C36.8674 23.3548 36.2346 23.9539 35.893 24.4724L35.2721 25.4148L35.2009 38.7369C35.1617 46.0642 35.1952 52.5138 35.2754 53.0697C35.446 54.2544 36.5217 55.6181 37.6635 56.0973C38.6397 56.5071 65.1919 56.5692 66.2561 56.1642C67.0838 55.8494 67.9006 55.0937 68.4032 54.1784C68.7487 53.5492 68.7986 52.0334 68.8591 40.3088C68.9046 31.4806 68.8431 26.7497 68.6725 25.9444C68.3851 24.5883 67.9318 23.9397 66.776 23.2319C65.9922 22.7517 65.7374 22.7435 52.0316 22.748C39.5471 22.752 38.0026 22.7932 37.2994 23.141ZM46.1717 31.0831V35.8925L46.7726 36.6101C47.5945 37.5913 48.5928 37.8117 52.1488 37.7978C55.6852 37.7839 56.6087 37.5402 57.356 36.4236C57.8691 35.6571 57.8916 35.4275 57.8916 30.9427V26.2618L61.5834 26.3268L65.2751 26.3916V39.5785V52.7655H52.0316H38.7881L38.7272 39.814C38.6936 32.6907 38.7168 26.7302 38.7785 26.5682C38.8615 26.3501 39.8347 26.2738 42.5312 26.2738H46.1717V31.0831ZM54.3756 30.277V34.2802H52.0316H49.6876V30.277V26.2738H52.0316H54.3756V30.277ZM22.8947 31.0096C21.8106 31.6433 21.966 33.618 23.1352 34.0645C23.4458 34.1832 25.05 34.2802 26.7002 34.2802C29.3807 34.2802 29.7663 34.2282 30.3181 33.792C31.0921 33.1805 31.165 31.9202 30.4669 31.2189C30.0413 30.7913 29.6911 30.7487 26.658 30.755C24.7633 30.7593 23.1347 30.8692 22.8947 31.0096ZM17.6817 38.3905C17.3652 38.7084 17.1062 39.243 17.1062 39.5785C17.1062 39.9141 17.3652 40.4486 17.6817 40.7665L18.2569 41.3446H23.9788C29.4124 41.3446 29.7316 41.3202 30.3181 40.8565C31.0921 40.2449 31.165 38.9846 30.4669 38.2834C30.023 37.8374 29.6857 37.8124 24.1276 37.8124H18.2569L17.6817 38.3905ZM22.8947 45.1385C21.8127 45.7708 21.9447 47.6094 23.1104 48.143C23.4455 48.2965 24.9621 48.4091 26.6959 48.4091C29.3807 48.4091 29.7663 48.357 30.3181 47.9209C31.0921 47.3094 31.165 46.0491 30.4669 45.3478C30.0413 44.9202 29.6911 44.8776 26.658 44.8839C24.7633 44.8882 23.1347 44.9981 22.8947 45.1385ZM14.5459 63.3033C16.276 65.6579 20.3379 69.715 22.7318 71.4797C23.8276 72.2876 24.7577 72.9799 24.7987 73.0183C24.8397 73.0567 23.5327 74.7468 21.8941 76.7738C19.7392 79.4394 18.8136 80.4202 18.549 80.3183C18.2623 80.2078 11.2878 78.1749 4.27291 76.1573L3.51112 75.9383V68.9951V62.052L4.03851 61.8388C4.3287 61.7218 6.52923 61.6191 8.92877 61.6109L13.2914 61.5961L14.5459 63.3033ZM88.2035 61.8904C88.5739 62.164 88.5978 63.5444 88.5413 81.4036L88.4806 100.622L71.1351 95.5833C61.5951 92.812 46.828 88.5215 38.3193 86.0494C29.8106 83.5771 22.8122 81.5213 22.767 81.4811C22.722 81.4408 23.8778 79.9285 25.3357 78.1203L27.9868 74.8325L29.2853 75.4184C33.1114 77.144 36.5332 78.2034 40.3117 78.8324C42.6245 79.2174 49.7708 79.2058 52.1488 78.8133C58.5193 77.7614 64.5621 75.2189 69.6598 71.4451C72.0471 69.6778 76.1269 65.5995 77.8044 63.3033L79.0519 61.5961H83.4284C86.5609 61.5961 87.9183 61.6797 88.2035 61.8904ZM98.9113 81.5658V89.0551L99.5829 90.119C100.792 92.0339 101.012 92.0803 109.283 92.1623L116.491 92.2338V101.504C116.491 106.602 116.427 110.941 116.349 111.146C116.24 111.43 115.863 111.518 114.755 111.518C113.324 111.518 113.3 111.507 113.023 110.737C112.582 109.513 111.206 108.073 109.831 107.397C106.578 105.798 102.164 107.429 101.002 110.658L100.692 111.518H96.403H92.1138V92.7974V74.0766H95.5126H98.9113V81.5658ZM108.41 74.783C109.199 75.5234 115.698 85.1068 116.154 86.2013C116.339 86.6478 116.491 87.3872 116.491 87.8447V88.6764H109.741C104.802 88.6764 102.914 88.6006 102.709 88.3939C102.502 88.1866 102.427 86.2333 102.427 81.0737V74.0361L105.105 74.1152C107.581 74.1884 107.829 74.2384 108.41 74.783ZM16.4108 110.698C17.3069 111.164 17.8094 112.174 17.8094 113.511C17.8094 116.759 13.1423 117.573 11.9884 114.527C11.5271 113.309 11.806 112.086 12.7649 111.123C13.4234 110.461 13.7114 110.341 14.6333 110.341C15.2327 110.341 16.0325 110.502 16.4108 110.698ZM34.4595 110.698C35.3556 111.164 35.8581 112.174 35.8581 113.511C35.8581 116.759 31.191 117.573 30.0371 114.527C29.5758 113.309 29.8547 112.086 30.8136 111.123C31.472 110.461 31.7601 110.341 32.682 110.341C33.2814 110.341 34.0811 110.502 34.4595 110.698ZM52.5081 110.698C53.4043 111.164 53.9068 112.174 53.9068 113.511C53.9068 116.759 49.2397 117.573 48.0858 114.527C47.6245 113.309 47.9034 112.086 48.8623 111.123C49.5207 110.461 49.8088 110.341 50.7307 110.341C51.3301 110.341 52.1298 110.502 52.5081 110.698ZM108.498 110.682C109.926 111.423 110.45 113.127 109.718 114.647C108.497 117.18 105.16 117.058 104.166 114.444C103.83 113.561 103.809 113.235 104.039 112.465C104.582 110.645 106.755 109.776 108.498 110.682Z" fill="#FFC000"/>
</svg>
