<svg width="50" height="50" viewBox="0 0 50 50" fill="none" xmlns="http://www.w3.org/2000/svg">
<path fill-rule="evenodd" clip-rule="evenodd" d="M17.3825 0.0233433C15.5184 0.277565 13.6223 0.841445 12.1574 1.57723C11.0598 2.12855 10.8599 2.38463 11.1382 2.88268C11.4181 3.38366 11.6762 3.37582 12.9028 2.82911C15.3227 1.7506 17.309 1.35862 19.8574 1.45694C21.4426 1.51806 22.4591 1.69693 23.8827 2.16544C28.9236 3.82441 32.7633 8.10095 33.897 13.3195C34.4479 15.8553 34.3012 18.6494 33.4858 21.1516C31.7924 26.348 27.4444 30.1953 22.0439 31.2758C20.4832 31.588 17.9931 31.588 16.4324 31.2758C8.90883 29.7705 3.72462 22.9673 4.29977 15.3543C4.58398 11.5934 6.00746 8.53198 8.75842 5.76527C9.89692 4.62024 10.0576 4.4189 10.0576 4.13701C10.0576 3.65368 9.58644 3.31606 9.14655 3.48414C8.51192 3.72649 6.52109 5.84651 5.54707 7.31709C2.38122 12.097 1.90129 18.2506 4.29421 23.3806L4.67325 24.1933H3.31706C1.20942 24.1933 0.589342 24.4156 0.181586 25.3176C0.0112564 25.6942 0.00217343 26.2357 0.000122444 36.0931C-0.00173321 45.2147 0.0161397 46.5159 0.148184 46.8334C0.508084 47.6987 0.999344 47.9377 2.41902 47.9377H3.48055L3.71436 48.4391C4.37214 49.8501 6.12369 50.4078 7.5123 49.6485C8.0064 49.3783 8.51895 48.7895 8.76663 48.2075L8.88139 47.9377H9.94116H11.0008L11.2346 48.4391C11.5192 49.0493 12.1584 49.6355 12.7662 49.8436C14.1877 50.3301 15.6785 49.6373 16.2869 48.2075L16.4017 47.9377H17.4614H18.5211L18.7549 48.4391C18.8836 48.715 19.1792 49.1091 19.4119 49.3148C20.8302 50.5692 23.039 50.0343 23.7828 48.2565L23.9162 47.9377H27.3395C30.6326 47.9377 30.7702 47.9302 30.9581 47.7414C31.2213 47.477 31.2161 46.9458 30.948 46.7019C30.7555 46.5267 30.5263 46.5132 27.3038 46.4869L23.8652 46.4588L23.7493 46.1367C23.5668 45.63 22.9922 45.0296 22.4207 44.7486C21.7354 44.4118 20.8446 44.3947 20.1273 44.7048C19.5796 44.9414 18.9093 45.6064 18.6922 46.1284L18.5519 46.4659H17.4496H16.3475L16.2303 46.1402C16.0467 45.6302 15.4733 45.0302 14.9004 44.7486C14.2151 44.4118 13.3243 44.3947 12.6071 44.7048C12.0593 44.9414 11.3891 45.6064 11.1719 46.1284L11.0316 46.4659H9.92934H8.82718L8.70998 46.1402C8.52637 45.6302 7.95297 45.0302 7.38016 44.7486C6.69484 44.4118 5.80403 44.3947 5.08677 44.7048C4.53905 44.9414 3.86877 45.6064 3.65166 46.1284L3.51131 46.4659H2.54647C1.75665 46.4659 1.57079 46.4377 1.52225 46.3107C1.43572 46.0843 1.44949 33.2203 1.53621 33.2186C1.57655 33.2178 9.55333 35.5245 19.2626 38.3446L36.9157 43.4722V44.969V46.4659H35.2112C33.393 46.4659 33.1033 46.5238 32.9222 46.9228C32.7697 47.2591 32.7853 47.3842 33.0162 47.6791L33.2186 47.9377H37.5422H41.8658L42.1515 48.499C42.8457 49.8627 44.4205 50.3825 45.7838 49.6981C46.4428 49.3672 46.8132 48.9871 47.093 48.3546L47.2775 47.9377H47.9605C48.9692 47.9377 49.5295 47.6106 49.8528 46.8334C49.9817 46.5233 50.0025 45.732 49.9998 41.2443C49.9969 36.5405 49.9797 35.9672 49.8271 35.5258C49.6421 34.9907 46.831 30.7388 46.3135 30.2115C46.1375 30.0321 45.8078 29.7858 45.581 29.664C45.1816 29.4496 45.0616 29.441 41.799 29.3935L38.4296 29.3444L38.3807 27.3821C38.3294 25.317 38.3082 25.2167 37.8276 24.7694C37.3147 24.2921 37.1497 24.2535 35.4382 24.2112L33.8141 24.1712L34.2318 23.2731C36.1106 19.234 36.1742 14.2843 34.4014 10.0644C32.5783 5.72465 28.7702 2.20773 24.3168 0.750785C22.6735 0.2132 21.6278 0.049933 19.58 0.0115692C18.5594 -0.0076618 17.5705 -0.00236347 17.3825 0.0233433ZM15.5414 9.64208C15.3614 9.73117 15.0977 9.98078 14.9554 10.1968L14.6967 10.5895L14.667 16.1404C14.6507 19.1934 14.6647 21.8807 14.6981 22.1124C14.7692 22.606 15.2174 23.1742 15.6931 23.3739C16.0999 23.5446 27.1633 23.5705 27.6067 23.4018C27.9516 23.2706 28.2919 22.9557 28.5013 22.5743C28.6453 22.3122 28.6661 21.6806 28.6913 16.7953C28.7102 13.1169 28.6846 11.1457 28.6135 10.8102C28.4938 10.2451 28.3049 9.97489 27.8233 9.67995C27.4967 9.47989 27.3906 9.47645 21.6798 9.47832C16.4779 9.47999 15.8344 9.49716 15.5414 9.64208ZM19.2382 12.9513V14.9552L19.4886 15.2542C19.831 15.663 20.247 15.7549 21.7287 15.7491C23.2022 15.7433 23.587 15.6418 23.8983 15.1765C24.1121 14.8571 24.1215 14.7614 24.1215 12.8928V10.9424L25.6597 10.9695L27.198 10.9965V16.4911V21.9856H21.6798H16.1617L16.1363 16.5892C16.1223 13.6211 16.132 11.1376 16.1577 11.0701C16.1923 10.9792 16.5978 10.9474 17.7213 10.9474H19.2382V12.9513ZM22.6565 12.6154V14.2834H21.6798H20.7032V12.6154V10.9474H21.6798H22.6565V12.6154ZM9.53946 12.9207C9.08775 13.1847 9.15251 14.0075 9.63967 14.1935C9.76907 14.243 10.4375 14.2834 11.1251 14.2834C12.242 14.2834 12.4026 14.2617 12.6325 14.08C12.955 13.8252 12.9854 13.3001 12.6946 13.0079C12.5172 12.8297 12.3713 12.812 11.1075 12.8146C10.3181 12.8164 9.63947 12.8622 9.53946 12.9207ZM7.36737 15.9961C7.23552 16.1285 7.1276 16.3512 7.1276 16.4911C7.1276 16.6309 7.23552 16.8536 7.36737 16.9861L7.60704 17.2269H9.99117C12.2552 17.2269 12.3882 17.2167 12.6325 17.0235C12.955 16.7687 12.9854 16.2436 12.6946 15.9514C12.5096 15.7656 12.369 15.7552 10.0532 15.7552H7.60704L7.36737 15.9961ZM9.53946 18.8077C9.08863 19.0711 9.14362 19.8372 9.62931 20.0596C9.76898 20.1236 10.4009 20.1705 11.1233 20.1705C12.242 20.1705 12.4026 20.1488 12.6325 19.9671C12.955 19.7122 12.9854 19.1871 12.6946 18.8949C12.5172 18.7167 12.3713 18.699 11.1075 18.7016C10.3181 18.7034 9.63947 18.7492 9.53946 18.8077ZM6.06079 26.3764C6.78166 27.3575 8.47412 29.0479 9.47158 29.7832C9.92817 30.1198 10.3157 30.4083 10.3328 30.4243C10.3499 30.4403 9.80531 31.1445 9.12252 31.9891C8.22468 33.0998 7.839 33.5084 7.72873 33.4659C7.60929 33.4199 4.70323 32.5729 1.78038 31.7322L1.46296 31.641V28.748V25.855L1.68271 25.7662C1.80362 25.7174 2.72051 25.6746 3.72032 25.6712L5.53808 25.665L6.06079 26.3764ZM36.7515 25.7877C36.9058 25.9017 36.9157 26.4768 36.8922 33.9182L36.8669 41.926L29.6396 39.8264C25.6646 38.6716 19.5117 36.884 15.9664 35.8539C12.4211 34.8238 9.50508 33.9672 9.48623 33.9504C9.46748 33.9337 9.94907 33.3036 10.5566 32.5501L11.6612 31.1802L12.2022 31.4243C13.7964 32.1433 15.2222 32.5847 16.7965 32.8468C17.7602 33.0072 20.7379 33.0024 21.7287 32.8389C24.383 32.4006 26.9009 31.3412 29.0249 29.7688C30.0196 29.0324 31.7195 27.3331 32.4185 26.3764L32.9383 25.665H34.7618C36.067 25.665 36.6326 25.6999 36.7515 25.7877ZM41.2131 33.9858V37.1063L41.4929 37.5496C41.9965 38.3475 42.0883 38.3668 45.5348 38.4009L48.538 38.4308V42.2932C48.538 44.4174 48.5113 46.2253 48.4787 46.3107C48.4335 46.4291 48.2761 46.4659 47.8147 46.4659C47.2184 46.4659 47.2083 46.4613 47.0927 46.1402C46.9091 45.6302 46.3357 45.0302 45.7629 44.7486C44.4076 44.0825 42.5685 44.7619 42.0841 46.1076L41.9551 46.4659H40.1679H38.3807V38.6656V30.8652H39.7969H41.2131V33.9858ZM45.1707 31.1596C45.4995 31.4681 48.2077 35.4612 48.3974 35.9172C48.4747 36.1032 48.538 36.4113 48.538 36.602V36.9485H45.7252C43.6677 36.9485 42.881 36.9169 42.7952 36.8308C42.7093 36.7444 42.678 35.9305 42.678 33.7807V30.8484L43.7936 30.8813C44.8256 30.9118 44.9288 30.9326 45.1707 31.1596ZM6.83782 46.1241C7.2112 46.3181 7.42059 46.7393 7.42059 47.2965C7.42059 48.6495 5.47597 48.9887 4.99516 47.7195C4.80295 47.2121 4.91917 46.7026 5.31872 46.3012C5.59307 46.0255 5.7131 45.9753 6.09722 45.9753C6.34695 45.9753 6.68019 46.0423 6.83782 46.1241ZM14.3581 46.1241C14.7315 46.3181 14.9409 46.7393 14.9409 47.2965C14.9409 48.6495 12.9963 48.9887 12.5154 47.7195C12.3232 47.2121 12.4395 46.7026 12.839 46.3012C13.1134 46.0255 13.2334 45.9753 13.6175 45.9753C13.8672 45.9753 14.2005 46.0423 14.3581 46.1241ZM21.8784 46.1241C22.2518 46.3181 22.4612 46.7393 22.4612 47.2965C22.4612 48.6495 20.5165 48.9887 20.0357 47.7195C19.8435 47.2121 19.9597 46.7026 20.3593 46.3012C20.6336 46.0255 20.7537 45.9753 21.1378 45.9753C21.3875 45.9753 21.7208 46.0423 21.8784 46.1241ZM45.2077 46.1175C45.8025 46.4264 46.0209 47.1364 45.7158 47.7695C45.2072 48.8249 43.8166 48.7743 43.4026 47.6852C43.2627 47.317 43.2539 47.1812 43.3496 46.8604C43.5757 46.1021 44.4812 45.74 45.2077 46.1175Z" fill="black"/>
</svg>
