<svg width="134" height="134" viewBox="0 0 134 134" fill="none" xmlns="http://www.w3.org/2000/svg">
<path fill-rule="evenodd" clip-rule="evenodd" d="M60.8488 0.172473C60.5606 0.293974 60.089 0.655596 59.8008 0.975583C59.2999 1.53176 59.2734 1.98216 59.2021 11.2188L59.1275 20.8802H52.5735C45.5386 20.8802 44.8713 20.9894 44.161 22.2576C43.9488 22.6365 43.7973 24.3456 43.7334 27.0828L43.6346 31.3212L39.0816 31.4034L34.5283 31.4854L33.8026 32.2107L33.0768 32.9361L32.9943 37.3609L32.9118 41.7855L29.7901 41.8727C26.7807 41.9565 26.6421 41.9858 25.9426 42.6855L25.2169 43.4113L25.1364 55.1236L25.056 66.8358L18.8484 70.5785C15.4343 72.637 12.4538 74.4634 12.2251 74.6373C11.6877 75.0461 11.1999 75.968 11.1999 76.575C11.1999 76.9141 21.923 113.374 24.7269 122.568C24.8508 122.975 24.7953 123.007 24.3654 122.777C24.0858 122.628 22.6938 122.307 21.2717 122.065C15.0287 121.001 9.83145 122.457 3.92597 126.923C1.21192 128.975 0.265577 129.946 0.0580737 130.89C-0.185586 132 0.353609 133.107 1.37305 133.591C2.92933 134.329 2.92854 134.329 6.86011 131.356C11.8829 127.557 16.4674 126.217 20.6864 127.316C21.4972 127.527 23.3205 128.22 24.7379 128.857C29.0038 130.773 31.3332 131.393 34.9108 131.565C38.9315 131.758 41.0731 131.252 45.7183 129.012C54.5092 124.774 57.0878 124.672 64.7227 128.259C71.8282 131.598 75.0322 132.39 79.4327 131.894C82.2508 131.576 84.2367 130.893 88.4536 128.789C92.5277 126.756 94.5344 126.013 96.655 125.751C99.3085 125.423 103.04 126.318 107.393 128.326C114.233 131.483 120.822 131.329 126.611 127.88C128.157 126.958 131.762 124.191 132.946 123.017C134.466 121.511 134.323 119.5 132.639 118.702C131.041 117.944 131.002 117.961 126.989 121.22C124.454 123.278 122.442 124.405 120.312 124.96C118.562 125.415 115.905 125.471 114.166 125.088C112.362 124.692 109.188 123.441 109.188 123.127C109.188 122.973 112.253 112.544 116 99.9506C119.746 87.3574 122.812 76.8387 122.812 76.5755C122.812 75.968 122.324 75.0461 121.787 74.6373C121.558 74.4634 118.577 72.637 115.163 70.5785L108.956 66.8358L108.875 55.1236L108.795 43.4113L108.069 42.6855C107.369 41.9858 107.231 41.9565 104.222 41.8727L101.1 41.7855L101.017 37.3609L100.935 32.9361L100.209 32.2107L99.4833 31.4854L94.93 31.4034L90.3769 31.3212L90.2782 27.0828C90.2142 24.3456 90.0628 22.6365 89.8506 22.2576C89.1403 20.9894 88.473 20.8802 81.438 20.8802H74.8841L74.8095 11.1974L74.7348 1.51422L74.0088 0.788619L73.2828 0.062756L67.3278 0.00698086C64.0525 -0.0239181 61.137 0.0507107 60.8488 0.172473ZM69.6258 13.0246V20.8802H67.0058H64.3858V13.0246V5.16893H67.0058H69.6258V13.0246ZM84.8218 28.7359V31.3545H67.0058H49.1898V28.7359V26.1174H67.0058H84.8218V28.7359ZM95.8258 39.2101V41.8287H67.0058H38.1858V39.2101V36.5916H67.0058H95.8258V39.2101ZM57.1677 47.2967C56.9919 47.4599 36.5889 59.8488 30.5223 63.476C30.4144 63.5407 30.3258 59.8747 30.3258 55.3297V47.0658H43.8712C51.7024 47.0658 57.3115 47.1632 57.1677 47.2967ZM103.686 55.3297C103.686 59.8747 103.597 63.5407 103.489 63.476C97.4226 59.8488 77.0197 47.4599 76.8439 47.2967C76.7 47.1632 82.3092 47.0658 90.1404 47.0658H103.686V55.3297ZM64.3858 85.6643V122.168L63.1308 121.691C59.0502 120.142 53.7997 120 49.7646 121.331C49.0882 121.554 46.6484 122.67 44.3428 123.812C39.1943 126.362 36.9825 126.915 33.6805 126.479C32.5298 126.327 31.4891 126.102 31.3683 125.978C31.1045 125.708 16.8826 77.9587 17.0241 77.8173C17.146 77.6955 64.2294 49.1727 64.3203 49.1656C64.3562 49.163 64.3858 65.5873 64.3858 85.6643ZM94.111 63.9371C106.641 71.5194 116.936 77.7662 116.989 77.8186C117.041 77.8712 114.196 87.6175 110.665 99.4769C106.04 115.011 104.149 121.014 103.9 120.946C102.639 120.605 99.2595 120.356 97.2667 120.457C94.2773 120.608 91.4904 121.523 86.311 124.054C81.8075 126.255 80.4414 126.665 77.6168 126.66C75.2129 126.656 73.8851 126.4 71.3943 125.459L69.6258 124.791V86.9544V49.1179L70.4773 49.6346C70.9457 49.9187 81.5808 56.3548 94.111 63.9371ZM56.3885 61.0478C54.6528 61.8038 54.4974 64.1594 56.098 65.4553C57.3194 66.4441 59.6352 65.5645 60.0387 63.9583C60.2761 63.0133 59.5794 61.5699 58.6553 61.0923C57.7064 60.6019 57.425 60.5964 56.3885 61.0478ZM76.6542 61.3924C75.1487 62.3259 74.9884 63.9994 76.2806 65.2909C77.4266 66.4363 78.4567 66.4766 79.6371 65.4223C80.3403 64.7944 80.487 64.4739 80.487 63.5627C80.487 62.6514 80.3403 62.3309 79.6371 61.703C78.6716 60.8407 77.7061 60.7401 76.6542 61.3924ZM45.9028 67.5685C37.2861 72.891 30.3562 77.3459 29.8673 77.8772C29.2299 78.5696 29.0785 79.9833 29.5477 80.8595C29.9499 81.611 31.323 82.23 32.1991 82.0549C32.6134 81.9721 36.9102 79.4104 41.748 76.3621C48.9034 71.8538 50.6195 70.6613 50.9502 69.9684C51.4435 68.9346 51.2463 67.9508 50.3701 67.0752C49.3711 66.0767 48.0881 66.2187 45.9028 67.5685ZM85.6366 66.8086C84.1178 67.6499 83.8961 69.4376 85.1493 70.7393C86.0542 71.6794 101.765 81.445 103.147 81.9266C105.578 82.7739 107.402 79.645 105.585 77.7416C105.01 77.1388 90.3188 67.9233 88.0486 66.7411C87.3019 66.3522 86.4155 66.3771 85.6366 66.8086Z" fill="#E30D16"/>
</svg>
