<svg width="129" height="129" viewBox="0 0 129 129" fill="none" xmlns="http://www.w3.org/2000/svg">
<path fill-rule="evenodd" clip-rule="evenodd" d="M117.393 0.0614831C111.039 0.870384 104.952 3.24207 100.132 6.78634C98.9137 7.68231 94.0303 12.3222 88.1819 18.1405L78.2915 27.9798L74.7964 27.685C69.8405 27.2673 70.1885 27.4076 70.4779 25.9455C70.8977 23.8237 69.7367 20.6106 67.9839 19.0423C67.7248 18.8103 66.8876 18.3038 66.1236 17.9164C64.9682 17.3306 64.4161 17.2127 62.8404 17.215C59.9271 17.2188 59.0755 17.7182 54.8606 21.8942L51.2799 25.442L48.4101 25.1621C46.8316 25.0082 45.0746 24.8227 44.5056 24.7502L43.4706 24.6185L43.5832 22.7985C43.781 19.6036 42.3381 16.9502 39.5696 15.4177C38.3492 14.7423 37.9926 14.6689 35.9431 14.6704C32.8731 14.6729 32.221 15.0513 27.8525 19.3661L24.3081 22.8672L19.0277 22.3551C16.1235 22.0734 13.4523 21.9076 13.0911 21.9869C12.6751 22.0782 10.1867 24.3787 6.30214 28.263C0.753735 33.8112 0.15745 34.4894 0.0377383 35.3846C-0.0632842 36.1425 0.0288988 36.5299 0.431473 37.0402C0.753735 37.4486 3.91498 39.2501 8.6004 41.695C17.2153 46.1908 17.6356 46.3205 18.9214 44.8822C19.3239 44.4321 19.6533 43.7759 19.6533 43.4244C19.6533 41.9169 19.1093 41.4676 14.1731 38.8991C11.5614 37.5402 8.81609 36.0887 8.07231 35.6733L6.71987 34.9184L10.6822 30.9529C13.7263 27.9066 14.7714 27.0068 15.1916 27.0707C15.4924 27.1166 28.5811 28.3579 44.2775 29.829C59.9739 31.3002 72.9813 32.5563 73.1828 32.6207C73.4184 32.6956 69.2025 37.0816 61.3564 44.9238L49.1634 57.1106L42.6796 53.7258C35.2663 49.8559 34.5152 49.6243 33.3034 50.8352C32.4723 51.6661 32.3104 52.6443 32.8198 53.7614C33.1001 54.3762 34.1982 55.0112 42.5394 59.3813L45.3476 60.8525L41.7287 64.5903C37.8381 68.6091 35.3052 71.6349 32.813 75.2415C31.2845 77.4535 31.2123 77.5173 30.0576 77.6801C29.4052 77.7722 26.144 77.8686 22.8102 77.8946C19.4765 77.9209 14.7898 78.016 12.3956 78.1061L8.04225 78.2702L4.62921 81.6741C2.58578 83.7122 1.11211 85.3938 0.956285 85.8653C0.637054 86.8324 0.935575 87.7294 1.80437 88.4124C2.14835 88.6829 6.95854 90.4191 12.4938 92.2709C18.0288 94.1224 22.5966 95.668 22.6438 95.7053C22.6913 95.7427 22.3253 97.4001 21.8306 99.3887C20.465 104.877 20.2445 106.498 20.758 107.282C21.6144 108.588 22.2309 108.784 24.3955 108.44C25.4684 108.269 27.9159 107.731 29.8343 107.244C31.753 106.757 33.3547 106.399 33.3938 106.448C33.433 106.497 34.9837 111.071 36.84 116.613C38.9493 122.909 40.4313 126.945 40.7915 127.372C41.4918 128.204 42.5048 128.435 43.5198 127.993C43.9365 127.812 45.755 126.174 47.5607 124.354L50.844 121.043L51.0106 116.314C51.1023 113.713 51.1955 108.689 51.2177 105.149C51.24 101.61 51.3354 98.5215 51.4299 98.2868C51.5243 98.0523 52.6245 97.1538 53.8746 96.2904C57.4897 93.7935 60.5148 91.2643 64.5388 87.3735L68.285 83.7515L79.8503 105.911C86.2112 118.099 91.6467 128.28 91.929 128.536C92.2634 128.838 92.8291 129 93.5504 129H94.6587L100.84 122.827C104.757 118.915 107.074 116.414 107.165 115.998C107.244 115.637 107.078 112.967 106.797 110.065L106.284 104.788L109.788 101.246C114.105 96.8807 114.484 96.229 114.486 93.161C114.488 91.1129 114.414 90.7565 113.739 89.537C112.206 86.7726 109.549 85.3284 106.359 85.5256L104.543 85.6379L104.407 84.7303C104.333 84.2311 104.146 82.4737 103.993 80.8249L103.715 77.8272L107.261 74.2527C111.449 70.0313 111.944 69.1858 111.925 66.2818C111.908 63.6035 110.682 61.2217 108.618 59.8606C107.171 58.906 104.701 58.3536 103.204 58.6494C101.742 58.9381 101.886 59.2922 101.454 54.3426L101.15 50.8587L110.996 40.9661C122.167 29.7407 123.073 28.6678 125.546 23.7298C128.16 18.508 129.003 14.7269 129 8.23277C128.997 1.78983 128.725 0.905466 126.586 0.385801C125.496 0.121046 118.785 -0.115945 117.393 0.0614831ZM123.908 5.2546C124.328 5.67407 124.295 9.55023 123.847 12.5244C123.154 17.1183 121.669 20.9354 118.993 25.0014C117.458 27.3339 114.927 29.9333 87.8715 56.9662C69.7195 75.1027 57.3751 87.2415 55.6956 88.6062C47.7562 95.0567 38.3109 99.8733 28.9047 102.267C27.5338 102.616 26.3634 102.853 26.3038 102.794C25.8831 102.373 28.9203 93.025 30.7865 88.9966C34.3844 81.2299 38.0967 75.8195 44.5124 68.9924C50.2302 62.9076 101.008 12.4226 102.618 11.2218C106.85 8.06518 111.853 5.95119 116.801 5.2286C119.139 4.88738 123.557 4.90353 123.908 5.2546ZM37.2956 19.9498C38.546 20.596 39.0074 22.5646 38.153 23.6067C37.7186 24.1364 37.6547 24.1407 34.4278 23.8447C32.622 23.6791 31.0943 23.5032 31.0332 23.4537C30.8594 23.3131 33.5807 20.5985 34.4278 20.0672C35.3322 19.5001 36.345 19.4587 37.2956 19.9498ZM63.9824 22.5121C65.0088 22.9989 65.7208 24.3548 65.4935 25.3895C65.2116 26.6719 64.9533 26.7358 61.3965 26.4021C59.6208 26.2355 58.1178 26.0516 58.0562 25.993C57.8504 25.7971 60.9364 22.8207 61.7039 22.4752C62.6916 22.0303 62.9757 22.0348 63.9824 22.5121ZM85.5982 40.1335C83.4088 41.3462 84.3248 44.8289 86.8332 44.8289C88.1129 44.8289 89.3588 43.596 89.3588 42.3295C89.3588 40.4346 87.2633 39.211 85.5982 40.1335ZM25.0107 45.714C24.1058 46.1067 23.3396 47.4969 23.5934 48.2851C24.0861 49.8168 24.8019 50.3814 26.251 50.3814C26.76 50.3814 27.2633 50.1343 27.7545 49.6437C29.0486 48.3505 28.6039 46.1905 26.9231 45.605C25.974 45.2744 26.0303 45.2711 25.0107 45.714ZM78.4989 47.245C77.4391 47.9635 57.7814 67.6225 57.394 68.3514C56.8033 69.4624 56.9452 70.2842 57.8903 71.2286C58.8351 72.1728 59.6567 72.3146 60.7694 71.7258C61.8438 71.1572 81.72 51.104 82.0311 50.2744C82.8274 48.1523 80.3256 46.0065 78.4989 47.245ZM99.3608 85.1682L102.165 114.362L98.2321 118.332C96.0689 120.515 94.2079 122.211 94.0965 122.099C93.9848 121.988 88.9681 112.478 82.9476 100.967L72.0016 80.0369L84.142 67.8693C90.8191 61.177 96.3437 55.7631 96.4192 55.8383C96.4947 55.9132 97.8184 69.1118 99.3608 85.1682ZM105.402 63.9036C106.576 64.4608 107.187 65.7975 106.823 67.0122C106.568 67.8587 103.419 71.3386 103.156 71.063C102.947 70.8427 102.451 64.5328 102.622 64.2566C102.813 63.9475 103.685 63.5467 104.221 63.5214C104.409 63.5129 104.94 63.6847 105.402 63.9036ZM27.9876 83.0719C27.9876 83.1448 27.603 83.9681 27.133 84.9017C26.3665 86.4236 25.2633 88.9181 24.6842 90.4388C24.4736 90.9918 24.3975 90.9726 17.453 88.6244C13.5932 87.3193 9.88516 86.0599 9.21336 85.8262L7.99174 85.4009L9.06889 84.304L10.1458 83.2074L12.9423 83.1274C18.241 82.9757 27.9876 82.9396 27.9876 83.0719ZM108.264 90.8706C109.478 91.4983 109.909 93.1618 109.204 94.4987C108.817 95.2306 105.848 98.2537 105.698 98.0682C105.648 98.0066 105.472 96.4799 105.306 94.6753C105.01 91.4506 105.014 91.3867 105.544 90.9526C106.197 90.4178 107.322 90.384 108.264 90.8706ZM46.0873 109.997L45.9211 118.883L44.8569 119.967C44.1232 120.714 43.7388 120.952 43.6193 120.735C43.5236 120.561 42.2432 116.866 40.7735 112.523L38.1015 104.628L38.7902 104.368C39.9934 103.915 43.9911 102.116 44.9089 101.615C45.3951 101.349 45.8964 101.128 46.0232 101.122C46.1608 101.116 46.1866 104.689 46.0873 109.997Z" fill="#E30D16"/>
</svg>
