<svg width="50" height="32" viewBox="0 0 50 32" fill="none" xmlns="http://www.w3.org/2000/svg">
<path fill-rule="evenodd" clip-rule="evenodd" d="M25.379 0.129884C24.9301 0.4783 24.8901 0.999441 25.2821 1.39564L25.5682 1.6848H27.9506H30.3329L30.8951 2.89664C31.2042 3.5632 31.4569 4.14191 31.4564 4.18267C31.456 4.22343 29.749 4.25736 27.663 4.25805C23.5037 4.25934 23.3486 4.27635 22.1622 4.86338C21.3758 5.25245 20.241 6.36012 19.8699 7.10098L19.6098 7.62034H12.3726C5.19362 7.62034 5.13088 7.62202 4.56968 7.83431C2.60304 8.57804 1.76673 11.4017 3.22522 12.3734C3.38357 12.479 3.59028 12.5656 3.68443 12.5659C4.00144 12.5672 3.856 12.7134 3.29226 12.9603C2.56527 13.2787 1.06088 14.2782 0.926304 14.5323C0.761096 14.8445 0.802986 15.3176 1.01498 15.5319C1.36673 15.8875 1.6623 15.8867 2.22095 15.5287C3.91022 14.4461 5.11189 13.9286 6.55315 13.6627C7.3284 13.5197 9.11534 13.5116 9.93952 13.6473C13.4119 14.2193 16.3554 16.6722 17.6576 20.0791C18.1068 21.2547 18.2554 22.144 18.3031 23.9431C18.3436 25.474 18.3739 25.7251 18.5651 26.1143C18.6839 26.3563 18.9055 26.6456 19.0574 26.7573C19.3264 26.955 19.4677 26.961 24.4318 26.9876C30.0446 27.0177 30.0691 27.0155 30.7918 26.4134C31.4201 25.8899 31.6242 25.2832 31.6894 23.7452C31.7206 23.0107 31.793 22.1426 31.8505 21.8162C32.1915 19.879 33.2352 17.8834 34.6191 16.5226C35.2544 15.8978 36.4178 14.9445 36.548 14.9419C36.6071 14.9407 37.3532 16.4376 37.3083 16.4672C36.3317 17.1093 35.1337 18.3308 34.6038 19.2249C33.7219 20.7132 33.3607 22.1945 33.4426 23.986C33.5074 25.4004 33.6679 26.0549 34.2494 27.2739C35.317 29.5122 37.2546 31.1162 39.6769 31.7671C40.8269 32.0761 42.6142 32.0778 43.7385 31.771C46.7093 30.96 48.9851 28.6924 49.7739 25.7571C50.0564 24.7055 50.0781 22.6299 49.8169 21.6183C49.0165 18.5176 46.6566 16.1539 43.6377 15.4292C42.2916 15.106 40.1854 15.1934 39.0799 15.6183C38.8404 15.7103 38.815 15.6834 38.4657 14.9697C38.2651 14.5603 38.1143 14.2128 38.1304 14.1977C38.2099 14.1233 39.5366 13.7522 40.0776 13.6531C40.4154 13.5912 41.1791 13.5431 41.7747 13.5463C43.3399 13.5547 44.4804 13.8091 45.9772 14.4838C46.6809 14.801 46.9329 14.8082 47.2565 14.5204C47.6063 14.2093 47.6729 13.7694 47.4195 13.4437C46.9575 12.8501 44.4339 12.0311 42.6088 11.8825C41.0173 11.753 38.9087 12.0292 37.7483 12.5192C37.5457 12.6048 37.3681 12.6393 37.3538 12.596C37.3394 12.5527 37.0405 11.9208 36.6896 11.192C36.3385 10.4633 36.0663 9.8518 36.0846 9.83321C36.103 9.81471 36.4233 9.86486 36.7963 9.94479C37.1694 10.0247 37.7439 10.0908 38.0731 10.0918C38.5902 10.0933 38.7064 10.0582 38.9295 9.83271L39.1875 9.57184V5.97926C39.1875 3.55697 39.152 2.30803 39.0788 2.14549C38.931 1.81785 38.5988 1.6845 37.935 1.68648C36.5228 1.69083 34.6796 2.43149 33.7218 3.37949L33.2158 3.88035L32.345 2.04914C31.819 0.942855 31.3956 0.175489 31.2756 0.110495C30.9818 -0.0483796 25.586 -0.030672 25.379 0.129884ZM37.5236 5.92584V8.38622L37.1077 8.30609C36.4452 8.17848 35.8939 7.95055 35.3255 7.56929C34.8894 7.27667 34.7446 7.10127 34.4966 6.56549C34.3313 6.20847 34.196 5.8188 34.196 5.6996C34.196 5.40678 34.6944 4.63061 35.0407 4.38379C35.6935 3.91874 36.7432 3.49682 37.3034 3.47426L37.5236 3.46546V5.92584ZM33.2434 8.46328L34.4912 10.988L28.038 10.9612C21.6607 10.9346 21.5815 10.9319 21.3085 10.727C20.2778 9.9537 21.1185 7.4119 22.7185 6.46419C23.5606 5.96531 23.6929 5.95225 27.982 5.94523L31.9956 5.9386L33.2434 8.46328ZM19.1237 10.1429V10.9838H11.6365C4.29858 10.9838 4.14932 10.98 4.14932 10.7924C4.14932 10.5007 4.33411 10.0704 4.57184 9.80887C5.03389 9.30029 4.88395 9.31009 12.2482 9.30593L19.1237 9.30207V10.1429ZM20.8159 12.3935L21.228 12.6161L28.3801 12.6433L35.5322 12.6705L35.7003 13.0265C35.7926 13.2223 35.8553 13.3921 35.8396 13.4036C35.8238 13.4153 35.5576 13.5923 35.2479 13.7969C34.9383 14.0015 34.6605 14.2091 34.6304 14.258C34.599 14.3094 32.1091 14.3473 28.7619 14.3473C23.1471 14.3473 22.9298 14.3542 22.4137 14.5494C21.8251 14.772 21.2631 15.3172 21.0047 15.9162C20.8988 16.162 20.8474 16.5928 20.8429 17.2724C20.837 18.1922 20.8592 18.3135 21.1322 18.8552C21.4814 19.5475 22.0812 20.0096 22.8461 20.1754C23.1515 20.2416 24.7114 20.2828 26.9093 20.2828C28.8715 20.2828 30.475 20.3162 30.4727 20.357C30.4705 20.3979 30.3891 20.7651 30.2919 21.1732L30.1152 21.9151L27.3699 21.9646C24.8472 22.01 24.6081 22.0293 24.4189 22.2025C24.2898 22.3206 24.2131 22.5113 24.2131 22.7137C24.2131 23.607 24.3489 23.6463 27.4379 23.6463H29.9875V24.1823C29.9875 25.3831 30.243 25.328 24.6733 25.328H20.0344L19.9728 23.671C19.9327 22.5962 19.8444 21.7185 19.7215 21.1732C18.9122 17.5832 16.7495 14.741 13.5854 13.1091L12.7254 12.6655H16.105H19.4844L19.9158 12.4256C20.153 12.2936 20.3598 12.1823 20.3755 12.1782C20.3911 12.1742 20.5893 12.271 20.8159 12.3935ZM7.51563 15.2546C4.11105 15.5401 1.29685 17.8976 0.273499 21.3215C0.0408572 22.0998 0.00650418 22.3862 0.000533997 23.5968C-0.0050447 24.7427 0.0309722 25.1126 0.209197 25.7393C0.772352 27.7198 1.82095 29.2607 3.41528 30.4508C4.19845 31.0354 4.94003 31.4042 5.97982 31.7261C6.74156 31.9619 7.00434 31.993 8.25994 31.9968C9.43783 32.0003 9.80651 31.9641 10.4285 31.7835C12.8113 31.0919 14.6959 29.5302 15.7753 27.3525C17.1263 24.6273 16.8104 21.0454 15.0062 18.6299C13.2099 16.2248 10.5013 15.0043 7.51563 15.2546ZM31.9924 17.1195C31.5959 17.7192 31.2434 18.2998 31.2089 18.4096C31.1472 18.6063 31.0854 18.6089 27.0945 18.5804L23.0428 18.5516L22.7938 18.2998C22.3024 17.803 22.3963 16.4349 22.9407 16.1569C23.1277 16.0614 24.3088 16.0316 27.9493 16.0305L32.7131 16.029L31.9924 17.1195ZM9.96203 17.1144C11.8772 17.6096 13.3964 18.8812 14.279 20.728C14.785 21.7867 14.9408 22.4923 14.9372 23.707C14.9294 26.2547 13.5332 28.4987 11.245 29.6412C10.1017 30.2121 9.18101 30.4087 7.96633 30.3413C6.19612 30.243 4.87495 29.6412 3.60408 28.354C3.16953 27.9139 2.67733 27.309 2.51016 27.0098C1.72787 25.6091 1.44189 23.8749 1.74451 22.3657C2.27576 19.7155 4.14864 17.7282 6.74293 17.0619C7.52003 16.8623 9.08539 16.8878 9.96203 17.1144ZM43.69 17.192C45.6107 17.886 46.8864 19.0112 47.6992 20.728C48.1975 21.7809 48.3331 22.4028 48.3352 23.6463C48.3383 25.5618 47.7803 26.9255 46.43 28.3025C45.5249 29.2256 44.8871 29.6353 43.7146 30.0475C43.0526 30.2801 42.8053 30.3142 41.7811 30.3133C40.9648 30.3126 40.4152 30.2592 39.9788 30.138C35.8647 28.9957 33.8576 24.3891 35.7924 20.5301C36.0956 19.9252 36.3913 19.5347 37.047 18.8731C37.5187 18.3971 37.9442 18.0075 37.9924 18.0075C38.1365 18.0075 39.5062 21.0132 39.4158 21.1309C38.7176 22.0399 38.4781 22.6727 38.4825 23.5968C38.494 26.0079 40.976 27.5061 43.1591 26.4197C44.2661 25.8689 44.8919 24.8376 44.9043 23.5437C44.9105 22.8928 44.8706 22.7143 44.5905 22.1392C44.0072 20.9416 42.9678 20.2839 41.655 20.2817L40.9981 20.2806L40.2884 18.7814C39.8981 17.9569 39.5995 17.2613 39.6248 17.2357C39.6502 17.2101 39.9035 17.1294 40.1877 17.0564C40.9512 16.8603 42.9906 16.9392 43.69 17.192ZM7.0661 20.5194C6.38335 20.8032 5.95702 21.1518 5.55721 21.7533C5.13372 22.3904 4.99161 22.8865 4.99533 23.7155C5.0011 25.0015 5.74356 26.119 6.97586 26.6969C7.76314 27.066 8.85853 27.0641 9.65168 26.6923C10.3117 26.3829 10.9534 25.7492 11.2923 25.0718C11.6456 24.3658 11.6852 23.2206 11.3844 22.4104C11.0862 21.6072 10.2853 20.7925 9.5034 20.4968C8.72718 20.2032 7.80611 20.2117 7.0661 20.5194ZM9.21224 22.2265C9.66166 22.5656 9.85574 22.9176 9.90165 23.4765C10.0056 24.7443 8.87614 25.6305 7.72351 25.1856C6.97224 24.8956 6.5325 24.1327 6.65827 23.3374C6.72756 22.8998 7.19881 22.2907 7.61614 22.0994C8.02916 21.91 8.88309 21.9781 9.21224 22.2265ZM42.3516 22.0995C43.0524 22.3955 43.4954 23.3013 43.2993 24.0375C43.086 24.838 42.2448 25.4219 41.4843 25.2973C40.405 25.1202 39.7362 23.8897 40.213 22.9581C40.3448 22.7003 40.3927 22.6801 40.7552 22.7292C41.0804 22.7733 41.1965 22.7415 41.3935 22.5545C41.5259 22.4286 41.6343 22.2445 41.6343 22.1452C41.6343 21.9262 41.9009 21.9092 42.3516 22.0995Z" fill="#161921"/>
</svg>
