<svg width="120" height="120" viewBox="0 0 120 120" fill="none" xmlns="http://www.w3.org/2000/svg">
<path opacity="0.15" fill-rule="evenodd" clip-rule="evenodd" d="M54.5484 0.219075C43.2517 1.2275 32.267 5.60127 22.8796 12.8284C18.3095 16.3467 12.3746 22.9587 8.94493 28.3524C7.46373 30.6818 4.58038 36.5847 3.54748 39.4017C2.39259 42.5518 1.16169 47.3655 0.555979 51.1007C-0.185326 55.6724 -0.185326 64.3523 0.555979 68.924C1.16169 72.6592 2.39259 77.4729 3.54748 80.623C4.58038 83.44 7.46373 89.3429 8.94493 91.6723C13.7336 99.2034 20.7418 106.209 28.2752 110.997C30.6054 112.477 36.51 115.36 39.3279 116.392C48.8314 119.874 60.004 120.897 69.915 119.193C87.1283 116.233 101.527 106.605 110.836 91.8318C112.201 89.6667 113.761 86.7568 113.623 86.6339C113.582 86.5976 112.785 86.1858 111.852 85.7188L110.156 84.8697L109.536 86.0922C108.129 88.8673 105.298 93.1181 103.007 95.8937C101.57 97.6343 97.4744 101.713 95.7199 103.151C93.7547 104.761 90.7534 106.916 90.4759 106.916C90.3668 106.916 89.6801 106.019 88.9501 104.922L87.6228 102.928L85.9877 104.015C85.0228 104.656 84.4157 105.209 84.5062 105.364C84.5907 105.508 85.1781 106.4 85.8113 107.345C86.4447 108.291 86.9209 109.107 86.8695 109.158C86.8184 109.209 85.4634 109.879 83.8585 110.646C77.6717 113.602 70.0278 115.548 63.2875 115.884L62.056 115.945V114.01L62.0562 112.075H59.9449H57.8336V114.058V116.04L56.602 115.925C49.2375 115.236 45.1061 114.319 39.5355 112.136C37.3386 111.275 33.3419 109.439 33.0057 109.136C32.9623 109.097 33.4451 108.291 34.0785 107.345C34.7116 106.4 35.299 105.508 35.3835 105.364C35.474 105.209 34.8669 104.656 33.9021 104.015L32.267 102.928L30.9397 104.922C30.2096 106.019 29.5399 106.916 29.4512 106.916C29.2422 106.916 26.9589 105.294 24.8736 103.664C22.7597 102.012 17.9328 97.1861 16.2801 95.0728C14.6495 92.9882 13.0268 90.7056 13.0268 90.4967C13.0268 90.408 13.9243 89.7385 15.0215 89.0087L17.016 87.6818L15.9289 86.0472C15.2871 85.0826 14.7342 84.4757 14.5793 84.5662C14.435 84.6506 13.5431 85.2378 12.5973 85.8708C11.6512 86.504 10.8453 86.9866 10.8064 86.9433C10.5031 86.6072 8.66624 82.6117 7.80529 80.4155C5.6229 74.8484 4.70307 70.7085 4.01595 63.361L3.90147 62.1368L6.88077 62.0712L9.85983 62.0058V60.0123V58.0189L6.88077 57.9535L3.90147 57.8878L4.01595 56.6637C4.70307 49.3162 5.6229 45.1762 7.80529 39.6092C8.66624 37.413 10.5031 33.4175 10.8064 33.0814C10.8453 33.038 11.6512 33.5207 12.5973 34.1539C13.5431 34.7868 14.435 35.3741 14.5793 35.4585C14.7342 35.549 15.2871 34.9421 15.9289 33.9775L17.016 32.3429L15.0215 31.016C13.9243 30.2862 13.0268 29.6167 13.0268 29.528C13.0268 29.3191 14.6495 27.0365 16.2801 24.9519C17.9328 22.8386 22.7597 18.0132 24.8736 16.361C26.9589 14.7308 29.2422 13.1087 29.4512 13.1087C29.5399 13.1087 30.2096 14.0059 30.9397 15.1028L32.267 17.0967L33.9021 16.0099C34.8669 15.3683 35.474 14.8155 35.3835 14.6607C35.299 14.5165 34.7116 13.6248 34.0785 12.6793C33.4451 11.7335 32.9623 10.9279 33.0057 10.889C33.3419 10.5857 37.3386 8.74945 39.5355 7.88876C45.1061 5.7061 49.2375 4.7889 56.602 4.09989L57.8336 3.9845V5.96689V7.94927H59.9449H62.0562L62.056 6.01449V4.07972L63.2875 4.14093C70.0278 4.47629 77.6717 6.42279 83.8585 9.37913C85.4634 10.146 86.8184 10.8153 86.8695 10.8667C86.9209 10.918 86.4447 11.7335 85.8113 12.6793C85.1781 13.6248 84.5907 14.5165 84.5062 14.6607C84.4157 14.8155 85.0228 15.3683 85.9877 16.0099L87.6228 17.0967L88.9501 15.1028C89.6801 14.0059 90.3935 13.1106 90.5355 13.1129C90.9453 13.1197 95.3047 16.4428 97.362 18.3169C102.297 22.8121 106.878 28.6877 109.536 33.9325L110.156 35.155L111.852 34.3059C112.785 33.8389 113.582 33.4271 113.623 33.3908C113.761 33.2679 112.201 30.358 110.836 28.1929C103.407 16.4025 92.7343 7.85851 79.825 3.36655C71.9331 0.620336 62.7968 -0.517313 54.5484 0.219075ZM54.432 18.3853C45.0573 19.7099 36.8837 23.7635 30.2842 30.3608C13.8474 46.7925 13.8474 73.2322 30.2842 89.6639C38.6197 97.9968 49.5462 102.308 61.3524 101.921C68.7451 101.679 75.1041 99.8291 81.4099 96.0867C82.7001 95.321 84.0617 94.4464 84.4359 94.1434L85.1157 93.5926L83.9801 92.0462C83.3553 91.1956 82.8156 90.4997 82.7804 90.4997C82.7452 90.4997 81.7911 91.1025 80.6604 91.8393C76.6484 94.4537 71.9228 96.3852 67.2526 97.3195C64.6716 97.8359 59.2922 98.1525 57.31 97.9051L55.9749 97.7384L55.9073 89.9939L55.8395 82.2496L55.3033 81.8158C55.0084 81.577 54.1639 81.2088 53.4265 80.9975C52.6892 80.7862 51.1552 80.1465 50.0175 79.5763C48.8797 79.006 47.6709 78.5393 47.3312 78.5393C46.8385 78.5393 45.6079 79.6408 41.2569 83.9759L35.8006 89.4127L34.4433 88.1386C33.6966 87.4381 32.514 86.2517 31.8151 85.5024L30.5448 84.1398L35.9784 78.6899C40.3113 74.344 41.4122 73.1147 41.4122 72.6222C41.4122 72.2826 40.9454 71.0741 40.3749 69.9367C39.8046 68.7993 39.1646 67.2658 38.9533 66.5287C38.7419 65.7916 38.3736 64.9473 38.1348 64.6525L37.7008 64.1164L29.9675 64.0489L22.2342 63.9811L22.0904 63.1108C21.9044 61.9865 21.9044 58.0382 22.0904 56.9139L22.2342 56.0436L29.9675 55.9758L37.7008 55.9083L38.1348 55.3722C38.3736 55.0774 38.7419 54.2331 38.9533 53.496C39.1646 52.7589 39.8046 51.2254 40.3749 50.088C40.9454 48.9506 41.4122 47.7421 41.4122 47.4025C41.4122 46.91 40.3113 45.6807 35.9784 41.3348L30.5448 35.8849L31.8151 34.5223C32.514 33.773 33.6966 32.5866 34.4433 31.8861L35.8006 30.612L41.2569 36.0488C45.6079 40.3839 46.8385 41.4854 47.3312 41.4854C47.6709 41.4854 48.8797 41.0187 50.0175 40.4484C51.1552 39.8782 52.6892 39.2385 53.4265 39.0272C54.1639 38.8159 55.0084 38.4477 55.3033 38.2089L55.8395 37.7751L55.9073 30.0308L55.9749 22.2863L57.31 22.1196C59.2922 21.8722 64.6716 22.1888 67.2526 22.7052C71.9228 23.6395 76.6484 25.571 80.6604 28.1854C81.7911 28.9222 82.7452 29.525 82.7804 29.525C82.8156 29.525 83.3553 28.8291 83.9801 27.9785L85.1157 26.4321L84.4359 25.8812C83.2587 24.9275 79.152 22.5849 76.8985 21.5816C74.2324 20.3947 70.1777 19.1539 67.2172 18.6189C64.1898 18.072 57.5133 17.9501 54.432 18.3853ZM51.9648 29.1146L51.9608 35.2707L49.8807 36.121L47.8006 36.9714L43.4363 32.6033L39.072 28.2351L41.0045 27.1423C44.2168 25.3259 46.4641 24.3651 49.6625 23.4408C52.2154 22.7031 51.9693 22.0966 51.9648 29.1146ZM70.321 32.5946C65.046 33.702 60.6172 36.0277 56.6381 39.7802C54.661 41.6449 52.7284 44.1434 51.6232 46.2639C50.7222 47.9926 50.7137 48.4679 51.5674 49.4004L52.0507 49.9281H62.5097H72.9686L78.0083 54.9702L83.048 60.0123L78.0083 65.0545L72.9686 70.0966H62.5097H52.0507L51.5674 70.6243C50.7137 71.5568 50.7222 72.0321 51.6232 73.7608C53.827 77.9894 58.0508 82.1401 62.7907 84.7355C69.0845 88.1815 77.7737 88.9238 84.7047 86.6072C87.1325 85.7955 90.1374 84.2742 92.2304 82.797C94.4759 81.2119 97.4141 78.214 98.9333 75.9577L100.177 74.1109L109.522 74.0384L118.868 73.9662L119.434 73.3081L120 72.6501V60.0123V47.3746L119.434 46.7166L118.868 46.0585L109.522 45.9863L100.177 45.9138L98.9333 44.067C94.9528 38.1557 88.0164 33.6966 80.8619 32.4492C78.029 31.9555 73.0376 32.0242 70.321 32.5946ZM81.8028 36.7474C86.4137 37.9983 90.1376 40.2129 93.329 43.6019C94.4245 44.7654 95.7652 46.4652 96.3085 47.3793C97.9795 50.191 96.8661 49.9281 107.098 49.9281H116.012V60.0123V70.0966H107.098C96.8661 70.0966 97.9795 69.8337 96.3085 72.6454C94.9181 74.9852 91.7542 78.2593 89.2931 79.9047C85.4402 82.4813 81.6776 83.6928 76.9644 83.8746C73.7758 83.9975 71.8083 83.7726 69.0939 82.975C64.8178 81.7187 60.6836 79.0508 57.8594 75.7251L56.5647 74.2007L65.5858 74.0835C74.3628 73.9695 74.6258 73.9526 75.3105 73.4594C75.6976 73.1806 78.68 70.266 81.9377 66.9825C87.8198 61.0543 87.8611 61.0055 87.8611 60.0123C87.8611 59.0192 87.8198 58.9704 81.9377 53.0422C78.68 49.7587 75.6976 46.8441 75.3105 46.5653C74.6258 46.0721 74.3628 46.0552 65.5858 45.9412L56.5647 45.824L57.8594 44.2996C61.3383 40.2031 65.8469 37.6503 71.909 36.345C73.7552 35.9472 79.753 36.1914 81.8028 36.7474ZM36.0462 49.9513L35.1956 52.0308L29.0376 52.0347C25.1324 52.0373 22.8796 51.9538 22.8796 51.8068C22.8796 51.3127 23.8485 48.0791 24.5154 46.3479C25.336 44.2175 25.6065 43.6587 27.0656 41.0778L28.1579 39.1458L32.5274 43.5088L36.8968 47.8718L36.0462 49.9513ZM58.8484 54.1724C54.188 55.034 52.3847 60.8611 55.7403 64.2156C59.4628 67.9372 65.8566 65.2806 65.8566 60.0123C65.8566 56.2676 62.5261 53.4923 58.8484 54.1724ZM61.2788 58.646C62.4885 59.7823 61.6433 61.8885 59.9777 61.8885C58.8564 61.8885 58.0681 61.1277 58.0681 60.0452C58.0681 58.3402 60.0385 57.4814 61.2788 58.646ZM36.0462 70.0734L36.8968 72.1529L32.5274 76.5159L28.1579 80.8789L27.0656 78.9469C25.6065 76.366 25.336 75.8072 24.5154 73.6768C23.8485 71.9456 22.8796 68.712 22.8796 68.2179C22.8796 68.0709 25.1324 67.9874 29.0376 67.99L35.1956 67.9939L36.0462 70.0734ZM51.9648 90.9101C51.9674 94.8142 51.8839 97.0663 51.7368 97.0663C51.2425 97.0663 48.008 96.0977 46.2762 95.431C44.1452 94.6106 43.5862 94.3402 41.0045 92.8815L39.072 91.7896L43.4363 87.4214L47.8006 83.0533L49.8807 83.9037L51.9608 84.754L51.9648 90.9101Z" fill="#FFC000"/>
</svg>
