<svg width="36" height="50" viewBox="0 0 36 50" fill="none" xmlns="http://www.w3.org/2000/svg">
<path fill-rule="evenodd" clip-rule="evenodd" d="M20.9996 0.467215C20.6309 0.72514 20.1029 1.13388 19.8263 1.37556C18.6128 2.43542 17.3997 4.46406 16.9144 6.24492C16.6148 7.34445 16.5087 9.34248 16.6884 10.5061C17.1176 13.2872 18.6709 15.7905 20.9384 17.3553C21.3924 17.6686 21.6223 17.8909 21.6223 18.0166C21.6223 18.1982 21.528 18.206 19.3226 18.2074C16.7567 18.209 16.2323 18.2871 15.1805 18.8246C14.2681 19.2908 13.5024 20.1003 12.3073 21.8625L11.2484 23.4235H9.90426H8.56007L8.51332 22.6671C8.47197 21.9988 8.43688 21.8844 8.21108 21.6827L7.9555 21.4546H4.21057H0.465544L0.23282 21.6963L0 21.9379V31.6311C0 36.9624 0.026554 41.396 0.0588926 41.4836C0.213853 41.9027 0.476545 41.9311 4.20924 41.9311C6.33449 41.9311 7.8638 41.8917 8.01193 41.8332C8.33475 41.7058 8.53513 41.1977 8.53513 40.5068V39.9622H9.96439H11.3936L12.4538 40.9631C13.9019 42.3302 14.366 42.7013 15.0397 43.0306C16.0253 43.5126 16.6802 43.601 19.2752 43.6029L21.6223 43.6046L21.6239 44.5644C21.6271 46.3725 22.0329 47.5363 23.016 48.5568C24.9032 50.5159 27.8689 50.4754 29.6798 48.4659C30.6429 47.3971 31.0087 46.3011 31.0102 44.4797L31.011 43.6321L31.4778 43.5747C32.3861 43.463 33.1486 42.9043 33.5867 42.0295C33.786 41.6315 33.8086 41.4566 33.8086 40.3067C33.8086 39.2751 33.776 38.9611 33.6406 38.6875C33.495 38.3936 33.4912 38.3372 33.6118 38.2672C33.9542 38.0683 34.3544 37.641 34.5929 37.22C34.8282 36.8045 34.8549 36.6557 34.8859 35.5901C34.9233 34.3063 34.8407 33.8632 34.4493 33.2493L34.2052 32.8664L34.4154 32.5712C34.7836 32.0542 34.8992 31.5388 34.8992 30.413C34.8992 28.938 34.5997 28.1677 33.8198 27.6371L33.5158 27.4302L33.6952 26.8789C33.8405 26.4326 33.8675 26.1213 33.8372 25.2447C33.8049 24.3102 33.7653 24.0928 33.548 23.6578C33.1414 22.8437 32.3869 22.3127 31.4464 22.1789L31.011 22.1169L31.0144 19.9399L31.0177 17.7629L31.6472 17.3692C32.4164 16.8881 33.7716 15.5238 34.3245 14.674C34.9043 13.7829 35.5083 12.3975 35.7675 11.364C36.075 10.1387 36.078 7.62945 35.7735 6.47381C35.0853 3.86158 33.5158 1.64136 31.4403 0.344061C30.6836 -0.128965 30.4892 -0.119613 29.9467 0.415926C29.9352 0.427345 29.9032 2.25182 29.8756 4.47036L29.8255 8.50403L28.1185 9.4615C27.1797 9.98818 26.3688 10.4199 26.3167 10.4209C26.2645 10.4219 25.4537 9.99162 24.5148 9.46455L22.8078 8.50639L22.7603 4.50393L22.7129 0.501572L22.4831 0.247585C22.1364 -0.135167 21.7865 -0.0832865 20.9996 0.467215ZM21.4327 9.47912C21.7387 9.78026 26.0607 12.1024 26.3152 12.1024C26.583 12.1024 31.1337 9.63112 31.2715 9.4108C31.3107 9.34799 31.3642 7.70869 31.3903 5.76776L31.4377 2.23882L31.8969 2.65849C32.9026 3.57767 33.9265 5.3601 34.2964 6.83559C34.5621 7.89535 34.5419 10.1252 34.2575 11.1473C33.6879 13.1938 32.4443 14.9426 30.7492 16.0808L30.0769 16.5324H26.328H22.5791L22.04 16.2029C20.3209 15.1521 18.864 13.1322 18.3369 11.0687C18.068 10.016 18.0886 7.69491 18.376 6.65987C18.7859 5.18399 19.6534 3.69895 20.6919 2.69541L21.1956 2.2087L21.243 5.77387C21.2828 8.77022 21.3131 9.36148 21.4327 9.47912ZM29.4936 20.1256V22.1437H26.3167H23.1397V20.1256V18.1075H26.3167H29.4936V20.1256ZM21.6223 20.9624V22.1437H20.0576H18.4928V22.9293V23.7149L25.082 23.7415L31.6712 23.768L31.9812 24.0899L32.2912 24.4117V25.4331C32.2912 26.3154 32.2654 26.4847 32.1016 26.6754C31.7132 27.1275 31.4629 27.1644 28.7814 27.1644H26.2613L26.289 27.9273L26.3167 28.6903L29.5726 28.7395L32.8286 28.7887L33.1052 29.1102C33.3675 29.4151 33.3818 29.4776 33.3818 30.321C33.3818 30.9234 33.3355 31.3036 33.238 31.4992C32.9537 32.0699 32.8444 32.0866 29.4035 32.0866H26.2692V32.8742V33.6617L29.4225 33.6621C33.4547 33.6626 33.3818 33.6298 33.3818 35.4385C33.3818 36.2695 33.367 36.3339 33.1052 36.6381L32.8286 36.9596L29.5726 37.0088L26.3167 37.0581L26.289 37.821L26.2613 38.5839H28.7814C31.4629 38.5839 31.7132 38.6209 32.1016 39.0729C32.2652 39.2634 32.2912 39.4329 32.2912 40.3067C32.2912 41.1805 32.2652 41.35 32.1016 41.5405C31.675 42.0372 31.7963 42.0296 24.257 42.0278C15.5561 42.0257 15.985 42.0886 14.3345 40.5732C13.8831 40.159 13.1627 39.4975 12.7334 39.1035L11.9528 38.3871H10.244H8.53513V31.6928V24.9986L10.1236 24.9971C11.2019 24.9961 11.7882 24.9562 11.9492 24.8727C12.0796 24.8051 12.7461 23.9308 13.4302 22.9299C14.835 20.8749 15.3923 20.3284 16.4316 19.9865C16.9504 19.8159 17.3047 19.7914 19.3226 19.7866L21.6223 19.781V20.9624ZM7.01777 29.1333V35.2368H4.26757H1.51736V29.1333V23.0297H4.26757H7.01777V29.1333ZM6.99625 38.5593L6.97036 40.3067L4.24386 40.3328L1.51736 40.359V38.5854V36.8119H4.26975H7.02214L6.99625 38.5593ZM3.76077 37.8095C3.66461 37.8675 3.52539 38.0654 3.45132 38.2494C3.09598 39.1323 4.10104 39.8632 4.80547 39.2343C5.38159 38.7198 5.00216 37.6934 4.23855 37.7009C4.07192 37.7026 3.85693 37.7514 3.76077 37.8095ZM24.4911 44.2199C24.4623 44.7599 24.4932 44.8971 24.7432 45.3411C24.9639 45.7329 25.1402 45.905 25.5251 46.104C26.4929 46.6046 27.4532 46.346 28.0543 45.4229C28.3466 44.9742 28.3673 44.8904 28.3388 44.2716L28.3082 43.6041L28.9126 43.6044L29.517 43.6046L29.4765 44.7613C29.4424 45.7367 29.3982 46.0036 29.1945 46.464C28.8633 47.2121 28.4693 47.6479 27.7662 48.0437C27.2137 48.3547 27.1079 48.3792 26.3167 48.3792C25.5254 48.3792 25.4196 48.3547 24.8671 48.0437C24.164 47.6479 23.77 47.2121 23.4388 46.464C23.2351 46.0036 23.1909 45.7367 23.1568 44.7613L23.1163 43.6046H23.82H24.5238L24.4911 44.2199ZM26.6548 43.9034C26.8627 44.0189 26.9047 44.4807 26.7244 44.6678C26.6619 44.7328 26.521 44.7859 26.4115 44.7859C25.9721 44.7859 25.826 44.2234 26.1955 43.9548C26.4456 43.773 26.4242 43.7753 26.6548 43.9034Z" fill="#161921"/>
</svg>
