<svg width="50" height="50" viewBox="0 0 50 50" fill="none" xmlns="http://www.w3.org/2000/svg">
<path fill-rule="evenodd" clip-rule="evenodd" d="M22.7285 0.0912812C18.0215 0.51146 13.4446 2.33386 9.53316 5.34518C7.62898 6.81111 5.1561 9.56612 3.72705 11.8135C3.10989 12.7841 1.90849 15.2436 1.47811 16.4174C0.996911 17.7299 0.484038 19.7356 0.231658 21.2919C-0.0772193 23.1968 -0.0772193 26.8135 0.231658 28.7184C0.484038 30.2747 0.996911 32.2804 1.47811 33.5929C1.90849 34.7667 3.10989 37.2262 3.72705 38.1968C5.72234 41.3348 8.64241 44.2539 11.7813 46.2486C12.7522 46.8656 15.2125 48.0666 16.3866 48.4968C20.3464 49.9476 25.0017 50.3738 29.1312 49.6637C36.3034 48.4302 42.3029 44.4189 46.1818 38.2632C46.7502 37.3611 47.4002 36.1487 47.3428 36.0975C47.3259 36.0823 46.9939 35.9107 46.6051 35.7162L45.8983 35.3624L45.64 35.8717C45.054 37.028 43.8741 38.7992 42.9196 39.9557C42.321 40.6809 40.6143 42.3806 39.8833 42.9795C39.0645 43.6504 37.8139 44.5483 37.6983 44.5483C37.6528 44.5483 37.3667 44.1745 37.0625 43.7175L36.5095 42.8867L35.8282 43.3395C35.4262 43.6068 35.1732 43.8372 35.2109 43.9017C35.2461 43.9618 35.4909 44.3333 35.7547 44.7273C36.0186 45.1213 36.217 45.4611 36.1956 45.4825C36.1743 45.5039 35.6097 45.7828 34.9411 46.1023C32.3632 47.3341 29.1782 48.1452 26.3698 48.2849L25.8566 48.3104V47.5043L25.8567 46.6981H24.977H24.0973V47.5241V48.3501L23.5841 48.302C20.5156 48.0149 18.7942 47.6327 16.4731 46.7233C15.5577 46.3647 13.8924 45.5996 13.7524 45.4732C13.7343 45.457 13.9354 45.1213 14.1994 44.7273C14.4632 44.3333 14.7079 43.9618 14.7431 43.9017C14.7809 43.8372 14.5279 43.6068 14.1259 43.3395L13.4446 42.8867L12.8915 43.7175C12.5873 44.1745 12.3083 44.5483 12.2713 44.5483C12.1842 44.5483 11.2329 43.8724 10.364 43.1932C9.48322 42.5048 7.472 40.4942 6.78337 39.6137C6.10394 38.7451 5.42783 37.794 5.42783 37.707C5.42783 37.67 5.80181 37.391 6.25897 37.0869L7.09 36.5341L6.63705 35.853C6.36962 35.4511 6.13923 35.1982 6.07472 35.2359C6.0146 35.2711 5.64297 35.5158 5.24886 35.7795C4.85465 36.0433 4.51889 36.2444 4.50267 36.2264C4.37628 36.0863 3.61093 34.4215 3.2522 33.5064C2.34287 31.1869 1.95961 29.4619 1.67331 26.4004L1.62561 25.8904L2.86699 25.863L4.10826 25.8357V25.0051V24.1746L2.86699 24.1473L1.62561 24.1199L1.67331 23.6099C1.95961 20.5484 2.34287 18.8234 3.2522 16.5039C3.61093 15.5887 4.37628 13.924 4.50267 13.7839C4.51889 13.7659 4.85465 13.967 5.24886 14.2308C5.64297 14.4945 6.0146 14.7392 6.07472 14.7744C6.13923 14.8121 6.36962 14.5592 6.63705 14.1573L7.09 13.4762L6.25897 12.9233C5.80181 12.6193 5.42783 12.3403 5.42783 12.3033C5.42783 12.2163 6.10394 11.2652 6.78337 10.3966C7.472 9.51609 9.48322 7.50548 10.364 6.81707C11.2329 6.13785 12.1842 5.46195 12.2713 5.46195C12.3083 5.46195 12.5873 5.83581 12.8915 6.29283L13.4446 7.12361L14.1259 6.67079C14.5279 6.40344 14.7809 6.17312 14.7431 6.10863C14.7079 6.04854 14.4632 5.67702 14.1994 5.28303C13.9354 4.88894 13.7343 4.55329 13.7524 4.53707C13.8924 4.41072 15.5577 3.6456 16.4731 3.28698C18.7942 2.37754 20.5156 1.99538 23.5841 1.70829L24.0973 1.66021V2.4862V3.3122H24.977H25.8567L25.8566 2.50604V1.69988L26.3698 1.72539C29.1782 1.86512 32.3632 2.67616 34.9411 3.90797C35.6097 4.2275 36.1743 4.50638 36.1956 4.52778C36.217 4.54918 36.0186 4.88894 35.7547 5.28303C35.4909 5.67702 35.2461 6.04854 35.2109 6.10863C35.1732 6.17312 35.4262 6.40344 35.8282 6.67079L36.5095 7.12361L37.0625 6.29283C37.3667 5.83581 37.664 5.46273 37.7231 5.46371C37.8939 5.46654 39.7103 6.85118 40.5675 7.63202C42.6237 9.50504 44.5324 11.9532 45.64 14.1385L45.8983 14.6479L46.6051 14.2941C46.9939 14.0996 47.3259 13.928 47.3428 13.9128C47.4002 13.8616 46.7502 12.6492 46.1818 11.747C43.0861 6.83437 38.6393 3.27438 33.2604 1.40273C29.9721 0.258473 26.1653 -0.215547 22.7285 0.0912812ZM22.68 7.66056C18.7739 8.21246 15.3682 9.90148 12.6184 12.6503C5.76975 19.4969 5.76975 30.5134 12.6184 37.36C16.0915 40.832 20.6442 42.6281 25.5635 42.4671C28.6438 42.3661 31.2934 41.5955 33.9208 40.0361C34.4584 39.7171 35.0257 39.3527 35.1816 39.2264L35.4649 38.9969L34.9917 38.3526C34.7314 37.9981 34.5065 37.7082 34.4918 37.7082C34.4772 37.7082 34.0796 37.9594 33.6085 38.2664C31.9368 39.3557 29.9678 40.1605 28.0219 40.5498C26.9465 40.765 24.7051 40.8969 23.8791 40.7938L23.3229 40.7243L23.2947 37.4974L23.2665 34.2707L23.043 34.0899C22.9202 33.9904 22.5683 33.837 22.2611 33.749C21.9538 33.6609 21.3147 33.3944 20.8406 33.1568C20.3665 32.9192 19.8629 32.7247 19.7213 32.7247C19.5161 32.7247 19.0033 33.1837 17.1904 34.99L14.9169 37.2553L14.3514 36.7244C14.0402 36.4325 13.5475 35.9382 13.2563 35.626L12.727 35.0583L14.991 32.7874C16.7964 30.9767 17.2551 30.4644 17.2551 30.2592C17.2551 30.1177 17.0606 29.6142 16.8229 29.1403C16.5852 28.6664 16.3186 28.0274 16.2305 27.7203C16.1425 27.4132 15.989 27.0614 15.8895 26.9386L15.7087 26.7152L12.4865 26.687L9.26427 26.6588L9.20435 26.2962C9.12683 25.8277 9.12683 24.1826 9.20435 23.7141L9.26427 23.3515L12.4865 23.3233L15.7087 23.2951L15.8895 23.0717C15.989 22.9489 16.1425 22.5971 16.2305 22.29C16.3186 21.9829 16.5852 21.3439 16.8229 20.87C17.0606 20.3961 17.2551 19.8925 17.2551 19.7511C17.2551 19.5459 16.7964 19.0336 14.991 17.2228L12.727 14.952L13.2563 14.3843C13.5475 14.0721 14.0402 13.5777 14.3514 13.2859L14.9169 12.755L17.1904 15.0203C19.0033 16.8266 19.5161 17.2856 19.7213 17.2856C19.8629 17.2856 20.3665 17.0911 20.8406 16.8535C21.3147 16.6159 21.9538 16.3494 22.2611 16.2613C22.5683 16.1733 22.9202 16.0199 23.043 15.9204L23.2665 15.7396L23.2947 12.5128L23.3229 9.28596L23.8791 9.21649C24.7051 9.1134 26.9465 9.24531 28.0219 9.46049C29.9678 9.84979 31.9368 10.6546 33.6085 11.7439C34.0796 12.0509 34.4772 12.3021 34.4918 12.3021C34.5065 12.3021 34.7314 12.0121 34.9917 11.6577L35.4649 11.0134L35.1816 10.7839C34.6911 10.3864 32.98 9.41036 32.041 8.99233C30.9302 8.49779 29.2407 7.98077 28.0072 7.75788C26.7457 7.53001 23.9639 7.4792 22.68 7.66056ZM21.652 12.1311L21.6503 14.6961L20.7836 15.0504L19.9169 15.4047L18.0984 13.5847L16.28 11.7646L17.0852 11.3093C18.4236 10.5525 19.3601 10.1521 20.6927 9.76702C21.7564 9.45961 21.6539 9.20691 21.652 12.1311ZM29.3004 13.5811C27.1025 14.0425 25.2572 15.0115 23.5992 16.5751C22.7754 17.352 21.9702 18.3931 21.5097 19.2766C21.1342 19.9969 21.1307 20.195 21.4864 20.5835L21.6878 20.8034H26.0457H30.4036L32.5035 22.9043L34.6033 25.0051L32.5035 27.106L30.4036 29.2069H26.0457H21.6878L21.4864 29.4268C21.1307 29.8153 21.1342 30.0134 21.5097 30.7336C22.4279 32.4956 24.1878 34.225 26.1628 35.3065C28.7852 36.7423 32.4057 37.0516 35.2936 36.0863C36.3052 35.7481 37.5572 35.1143 38.4293 34.4987C39.3649 33.8383 40.5892 32.5892 41.2222 31.6491L41.7405 30.8795L45.6344 30.8493L49.5284 30.8192L49.7641 30.5451L50 30.2709V25.0051V19.7394L49.7641 19.4652L49.5284 19.191L45.6344 19.1609L41.7405 19.1308L41.2222 18.3612C39.5637 15.8982 36.6735 14.0402 33.6925 13.5205C32.5121 13.3148 30.4323 13.3434 29.3004 13.5811ZM34.0845 15.3114C36.0057 15.8326 37.5573 16.7554 38.8871 18.1675C39.3435 18.6522 39.9022 19.3605 40.1285 19.7414C40.8248 20.9129 40.3609 20.8034 44.624 20.8034H48.3383V25.0051V29.2069H44.624C40.3609 29.2069 40.8248 29.0974 40.1285 30.2689C39.5492 31.2438 38.2309 32.608 37.2054 33.2936C35.6001 34.3672 34.0323 34.872 32.0685 34.9477C30.7399 34.999 29.9201 34.9052 28.7891 34.5729C27.0074 34.0494 25.2848 32.9378 24.1081 31.5521L23.5686 30.917L27.3274 30.8681C30.9845 30.8206 31.0941 30.8136 31.3794 30.6081C31.5407 30.4919 32.7833 29.2775 34.1407 27.9094C36.5916 25.4393 36.6088 25.419 36.6088 25.0051C36.6088 24.5913 36.5916 24.571 34.1407 22.1009C32.7833 20.7328 31.5407 19.5184 31.3794 19.4022C31.0941 19.1967 30.9845 19.1897 27.3274 19.1422L23.5686 19.0933L24.1081 18.4582C25.5576 16.7513 27.4362 15.6876 29.9621 15.1437C30.7313 14.978 33.2304 15.0797 34.0845 15.3114ZM15.0193 20.813L14.6648 21.6795L12.099 21.6811C10.4718 21.6822 9.53316 21.6474 9.53316 21.5862C9.53316 21.3803 9.93686 20.033 10.2147 19.3116C10.5567 18.424 10.6694 18.1911 11.2773 17.1158L11.7324 16.3108L13.5531 18.1287L15.3737 19.9466L15.0193 20.813ZM24.5202 22.5718C22.5783 22.9308 21.827 25.3588 23.2251 26.7565C24.7762 28.3072 27.4402 27.2002 27.4402 25.0051C27.4402 23.4448 26.0525 22.2884 24.5202 22.5718ZM25.5328 24.4359C26.0369 24.9093 25.6847 25.7869 24.9907 25.7869C24.5235 25.7869 24.1951 25.4699 24.1951 25.0188C24.1951 24.3084 25.016 23.9506 25.5328 24.4359ZM15.0193 29.1973L15.3737 30.0637L13.5531 31.8816L11.7324 33.6995L11.2773 32.8945C10.6694 31.8192 10.5567 31.5863 10.2147 30.6987C9.93686 29.9773 9.53316 28.63 9.53316 28.4241C9.53316 28.3629 10.4718 28.3281 12.099 28.3291L14.6648 28.3308L15.0193 29.1973ZM21.652 37.8792C21.6531 39.5059 21.6183 40.4443 21.557 40.4443C21.351 40.4443 20.0033 40.0407 19.2818 39.7629C18.3938 39.4211 18.1609 39.3084 17.0852 38.7006L16.28 38.2457L18.0984 36.4256L19.9169 34.6055L20.7836 34.9599L21.6503 35.3142L21.652 37.8792Z" fill="#161921"/>
</svg>
