<svg width="86" height="120" viewBox="0 0 86 120" fill="none" xmlns="http://www.w3.org/2000/svg">
<path opacity="0.15" fill-rule="evenodd" clip-rule="evenodd" d="M50.1656 1.12132C49.285 1.74034 48.0236 2.72132 47.3627 3.30135C44.464 5.845 41.566 10.7137 40.4065 14.9878C39.6908 17.6267 39.4376 22.422 39.8666 25.2146C40.892 31.8892 44.6027 37.8972 50.0195 41.6527C51.104 42.4047 51.6534 42.9382 51.6534 43.2399C51.6534 43.6756 51.4279 43.6945 46.1595 43.6978C40.03 43.7016 38.7772 43.8892 36.2645 45.1789C34.0849 46.2979 32.2557 48.2407 29.4007 52.4699L26.8713 56.2164H23.6602H20.4491L20.3374 54.4011C20.2386 52.7971 20.1548 52.5226 19.6154 52.0385L19.0048 51.491H10.0586H1.11213L0.55618 52.0711L0 52.6509V75.9146C0 88.7097 0.0634344 99.3504 0.140688 99.5607C0.51087 100.566 1.13841 100.635 10.0554 100.635C15.1324 100.635 18.7857 100.54 19.1396 100.4C19.9108 100.094 20.3895 98.8746 20.3895 97.2162V95.9092H23.8038H27.2181L29.7507 98.3113C33.2102 101.593 34.3189 102.483 35.9281 103.273C38.2826 104.43 39.8472 104.642 46.0462 104.647L51.6534 104.651L51.6572 106.955C51.6647 111.294 52.6341 114.087 54.9827 116.536C59.4911 121.238 66.5757 121.141 70.9017 116.318C73.2025 113.753 74.0763 111.123 74.08 106.751L74.0818 104.717L75.1969 104.579C77.3668 104.311 79.1882 102.97 80.2349 100.871C80.7111 99.9156 80.765 99.4957 80.765 96.7361C80.765 94.2603 80.6871 93.5066 80.3636 92.85C80.0158 92.1445 80.0067 92.0094 80.2949 91.8412C81.1128 91.3639 82.0688 90.3385 82.6386 89.328C83.2006 88.3307 83.2645 87.9737 83.3386 85.4164C83.4279 82.3352 83.2305 81.2718 82.2956 79.7984L81.7124 78.8793L82.2147 78.171C83.0942 76.9301 83.3703 75.693 83.3703 72.9913C83.3703 69.4511 82.6549 67.6025 80.7917 66.3291L80.0654 65.8324L80.494 64.5093C80.8411 63.4383 80.9057 62.691 80.8334 60.5873C80.7562 58.3444 80.6615 57.8228 80.1424 56.7787C79.1712 54.8248 77.3688 53.5506 75.1219 53.2293L74.0818 53.0806L74.0899 47.8558L74.0979 42.631L75.6017 41.686C77.4393 40.5313 80.6766 37.2571 81.9974 35.2177C83.3826 33.079 84.8255 29.754 85.4446 27.2737C86.1791 24.3329 86.1863 18.3107 85.4589 15.5371C83.8148 9.2678 80.0654 3.93927 75.1074 0.825747C73.2997 -0.309515 72.8353 -0.28707 71.5394 0.998221C71.5118 1.02563 71.4355 5.40436 71.3695 10.7289L71.2499 20.4097L67.172 22.7076C64.9292 23.9716 62.9922 25.0077 62.8676 25.0103C62.743 25.0126 60.806 23.9799 58.5631 22.7149L54.4852 20.4153L54.3719 10.8094L54.2587 1.20377L53.7095 0.594205C52.8815 -0.3244 52.0455 -0.199888 50.1656 1.12132ZM51.2003 22.7499C51.9313 23.4726 62.2561 29.0457 62.8642 29.0457C63.5039 29.0457 74.3749 23.1147 74.7041 22.5859C74.7979 22.4352 74.9257 18.5009 74.988 13.8426L75.1013 5.37317L76.1982 6.38038C78.6008 8.5864 81.0466 12.8643 81.9304 16.4054C82.5649 18.9488 82.5167 24.3005 81.8373 26.7534C80.4766 31.6652 77.5059 35.8622 73.4565 38.5939L71.8503 39.6777H62.8948H53.939L52.6511 38.8869C48.5444 36.365 45.0639 31.5173 43.8048 26.5649C43.1625 24.0385 43.2117 18.4678 43.8983 15.9837C44.8775 12.4416 46.9497 8.87748 49.4307 6.46898L50.6339 5.30088L50.7472 13.8573C50.8423 21.0485 50.9146 22.4676 51.2003 22.7499ZM70.457 48.3014V53.1449H62.8676H55.2781V48.3014V43.458H62.8676H70.457V48.3014ZM51.6534 50.3097V53.1449H47.9153H44.1772V55.0303V56.9157L59.9181 56.9795L75.659 57.0433L76.3996 57.8157L77.1402 58.588V61.0395C77.1402 63.157 77.0784 63.5633 76.6871 64.021C75.7594 65.1059 75.1613 65.1945 68.7556 65.1945H62.7353L62.8014 67.0256L62.8676 68.8567L70.6457 68.9748L78.4238 69.0929L79.0847 69.8646C79.7113 70.5963 79.7455 70.7463 79.7455 72.7704C79.7455 74.2161 79.6347 75.1286 79.4018 75.5981C78.7227 76.9677 78.4617 77.0079 70.2418 77.0079H62.7543V78.898V80.7881L70.2871 80.7891C79.9195 80.7903 79.7455 80.7116 79.7455 85.0525C79.7455 87.0468 79.71 87.2014 79.0847 87.9314L78.4238 88.7031L70.6457 88.8212L62.8676 88.9393L62.8014 90.7704L62.7353 92.6015H68.7556C75.1613 92.6015 75.7594 92.6901 76.6871 93.775C77.0779 94.2322 77.1402 94.639 77.1402 96.7361C77.1402 98.8332 77.0779 99.2401 76.6871 99.6973C75.6681 100.889 75.9578 100.871 57.9474 100.867C37.1619 100.862 38.1863 101.013 34.2435 97.3757C33.1653 96.3815 31.4442 94.794 30.4186 93.8485L28.5539 92.1289H24.4717H20.3895V76.0628V59.9966L24.1842 59.9931C26.7601 59.9907 28.1608 59.8948 28.5453 59.6945C28.8568 59.5321 30.449 57.4339 32.0833 55.0317C35.4392 50.0997 36.7704 48.7881 39.2534 47.9676C40.4926 47.5581 41.339 47.4993 46.1595 47.4877L51.6534 47.4745V50.3097ZM16.7647 69.9199V84.5684H10.1947H3.6248V69.9199V55.2713H10.1947H16.7647V69.9199ZM16.7133 92.5424L16.6514 96.7361L10.1381 96.7988L3.6248 96.8616V92.605V88.3487H10.2H16.7751L16.7133 92.5424ZM8.98406 90.7428C8.75434 90.8819 8.42176 91.357 8.24483 91.7986C7.39594 93.9175 9.79692 95.6718 11.4797 94.1622C12.856 92.9275 11.9496 90.4642 10.1254 90.4822C9.72737 90.4862 9.21378 90.6034 8.98406 90.7428ZM58.5065 106.128C58.4378 107.424 58.5115 107.753 59.1089 108.819C59.6361 109.759 60.0572 110.172 60.9766 110.65C63.2885 111.851 65.5825 111.23 67.0186 109.015C67.7169 107.938 67.7663 107.737 67.6983 106.252L67.6251 104.65L69.0689 104.651L70.5129 104.651L70.4162 107.427C70.3346 109.768 70.2291 110.409 69.7424 111.514C68.9513 113.309 68.01 114.355 66.3304 115.305C65.0105 116.051 64.7577 116.11 62.8676 116.11C60.9775 116.11 60.7246 116.051 59.4048 115.305C57.7251 114.355 56.7838 113.309 55.9927 111.514C55.5061 110.409 55.4005 109.768 55.3189 107.427L55.2222 104.651H56.9034H58.5846L58.5065 106.128ZM63.6754 105.368C64.172 105.645 64.2724 106.754 63.8417 107.203C63.6922 107.359 63.3558 107.486 63.0941 107.486C62.0445 107.486 61.6954 106.136 62.5783 105.491C63.1757 105.055 63.1245 105.061 63.6754 105.368Z" fill="#FFC000"/>
</svg>
