<svg width="32" height="25" viewBox="0 0 32 25" fill="none" xmlns="http://www.w3.org/2000/svg">
<path d="M7.27312 10.5692C6.91737 10.5692 6.57599 10.6237 6.2362 10.6734C6.34627 10.3015 6.45954 9.9231 6.6414 9.58322C6.82325 9.08943 7.10721 8.66137 7.38957 8.23011C7.62567 7.76358 8.04203 7.44775 8.34831 7.04855C8.66896 6.66057 9.10606 6.40245 9.45223 6.08021C9.79202 5.74354 10.2371 5.5752 10.5912 5.33793C10.9613 5.1247 11.2836 4.88903 11.6282 4.7768L12.488 4.42089L13.2441 4.10506L12.4704 0.998047L11.5181 1.22891C11.2134 1.30586 10.8417 1.39564 10.419 1.50306C9.98664 1.58322 9.52561 1.80286 9.01194 2.00326C8.50465 2.23091 7.9176 2.38482 7.37202 2.75035C6.82325 3.09985 6.18994 3.39163 5.6316 3.85977C5.09081 4.34233 4.43835 4.76077 3.95659 5.3748C3.43015 5.94875 2.9101 6.55155 2.5065 7.23773C2.03909 7.89183 1.72164 8.61007 1.38664 9.32029C1.08354 10.0305 0.839465 10.7568 0.640059 11.4622C0.261984 12.8762 0.0928871 14.2197 0.0274818 15.3692C-0.0267568 16.5203 0.00514828 17.4774 0.0721489 18.17C0.0960776 18.497 0.140745 18.8145 0.17265 19.0341L0.212531 19.3035L0.254007 19.2938C0.537741 20.6258 1.1909 21.8499 2.13794 22.8244C3.08498 23.7989 4.28719 24.484 5.6055 24.8006C6.92381 25.1171 8.30436 25.0521 9.58743 24.613C10.8705 24.1739 12.0037 23.3788 12.8559 22.3195C13.7081 21.2603 14.2444 19.9802 14.403 18.6274C14.5615 17.2746 14.3357 15.9043 13.7516 14.675C13.1676 13.4458 12.2492 12.4078 11.1028 11.6812C9.95627 10.9547 8.62853 10.5691 7.27312 10.5692ZM24.8209 10.5692C24.4651 10.5692 24.1238 10.6237 23.784 10.6734C23.894 10.3015 24.0073 9.9231 24.1892 9.58322C24.371 9.08943 24.655 8.66137 24.9373 8.23011C25.1734 7.76358 25.5898 7.44775 25.8961 7.04855C26.2167 6.66057 26.6538 6.40245 27 6.08021C27.3398 5.74354 27.7849 5.5752 28.139 5.33793C28.5091 5.1247 28.8313 4.88903 29.1759 4.7768L30.0358 4.42089L30.7919 4.10506L30.0182 0.998047L29.0658 1.22891C28.7612 1.30586 28.3895 1.39564 27.9667 1.50306C27.5344 1.58322 27.0734 1.80286 26.5597 2.00326C26.054 2.23252 25.4654 2.38482 24.9198 2.75195C24.371 3.10145 23.7377 3.39324 23.1794 3.86137C22.6386 4.34394 21.9861 4.76238 21.5044 5.3748C20.9779 5.94875 20.4579 6.55155 20.0543 7.23773C19.5869 7.89183 19.2694 8.61007 18.9344 9.32029C18.6313 10.0305 18.3872 10.7568 18.1878 11.4622C17.8098 12.8762 17.6407 14.2197 17.5753 15.3692C17.521 16.5203 17.5529 17.4774 17.6199 18.17C17.6438 18.497 17.6885 18.8145 17.7204 19.0341L17.7603 19.3035L17.8018 19.2938C18.0855 20.6258 18.7387 21.8499 19.6857 22.8244C20.6327 23.7989 21.835 24.484 23.1533 24.8006C24.4716 25.1171 25.8521 25.0521 27.1352 24.613C28.4183 24.1739 29.5514 23.3788 30.4036 22.3195C31.2558 21.2603 31.7922 19.9802 31.9507 18.6274C32.1092 17.2746 31.8834 15.9043 31.2994 14.675C30.7154 13.4458 29.797 12.4078 28.6505 11.6812C27.504 10.9547 26.1763 10.5691 24.8209 10.5692Z" fill="white"/>
</svg>
