<svg width="32" height="40" viewBox="0 0 32 40" fill="none" xmlns="http://www.w3.org/2000/svg">
<path fill-rule="evenodd" clip-rule="evenodd" d="M6.12826 0.124626C5.41449 0.37885 4.8909 0.935751 4.67534 1.6699C4.61291 1.88262 4.56626 2.36778 4.56626 2.80456V3.56755L3.13704 3.59318C1.5027 3.62249 1.25543 3.69189 0.67879 4.28309C0.0487907 4.92901 -0.104803 5.69309 0.0634258 7.34519C0.352852 10.1881 1.29896 12.3857 2.90029 13.9345C3.73373 14.7405 4.75088 15.3651 5.71177 15.6608C6.02261 15.7565 6.07841 15.8119 6.2724 16.2185C6.89798 17.5293 7.95926 19.1226 8.98708 20.2941C9.57157 20.9603 10.6867 21.98 11.5408 22.6293C12.3128 23.2162 12.5135 23.4271 12.7348 23.8832C12.9081 24.2407 12.9135 24.3155 12.9367 26.6785L12.9606 29.1063L12.3891 29.3959C11.4809 29.8561 10.9181 30.624 10.7326 31.6558L10.6412 32.1649L9.9857 32.1986C9.19731 32.2393 8.75696 32.419 8.30128 32.8862C7.66176 33.5419 7.65642 33.572 7.63073 36.6906L7.60802 39.4401L7.83402 39.6994L8.06011 39.9588L15.9533 39.9795L23.8464 40L24.0965 39.7709L24.3466 39.5417V36.7415C24.3466 34.0413 24.3408 33.9283 24.1828 33.5779C24.0927 33.3781 23.8749 33.0668 23.6987 32.8862C23.2439 32.4199 22.8024 32.2393 22.0185 32.1989L21.3672 32.1653L21.2722 31.6516C21.0787 30.6056 20.4743 29.811 19.5205 29.3488L19.0393 29.1156L19.0632 26.6831C19.0865 24.3153 19.0918 24.2408 19.2652 23.8832C19.4864 23.4272 19.6871 23.2163 20.4592 22.6292C22.6757 20.9435 24.4156 18.8527 25.6189 16.429C25.9302 15.802 25.9653 15.7619 26.2904 15.661C27.2624 15.3594 28.3341 14.6978 29.1352 13.905C30.7238 12.3328 31.6494 10.1653 31.9366 7.34519C32.1048 5.69309 31.9512 4.92901 31.3212 4.28309C30.7452 3.69251 30.4964 3.62249 28.8708 3.59326L27.4494 3.56778L27.4196 2.65545C27.3963 1.94053 27.3551 1.66458 27.2289 1.37988C27.024 0.917307 26.528 0.407453 26.073 0.191836L25.7187 0.0238903L16.1143 0.00630646C7.16004 -0.0101052 6.48416 -0.0021338 6.12826 0.124626ZM25.6598 1.80369L25.8711 2.02048L25.8691 6.14105C25.8668 10.6651 25.8528 10.8494 25.3696 12.7155C24.9708 14.2554 24.1945 16.034 23.3706 17.2952C22.417 18.7549 20.9888 20.2729 19.5034 21.4053C18.5779 22.111 18.2612 22.4547 17.9485 23.0929C17.5525 23.9013 17.5245 24.1753 17.5245 27.2354V30.0703L17.7341 30.3068C17.8959 30.4895 18.0481 30.5623 18.4011 30.6263C19.1405 30.7604 19.6604 31.2382 19.7762 31.8898L19.8282 32.1828H16H12.1718L12.2238 31.8898C12.3393 31.2399 12.8915 30.7256 13.5613 30.6443C13.8511 30.609 14.0335 30.5337 14.202 30.3795L14.4374 30.1639L14.4592 27.2982C14.4828 24.1879 14.457 23.9208 14.0528 23.0957C13.7387 22.4545 13.4231 22.1117 12.4966 21.4053C11.0103 20.2721 9.57805 18.7496 8.63012 17.2952C7.82091 16.0536 7.02002 14.2208 6.63241 12.7234C6.14701 10.8484 6.13322 10.6671 6.13093 6.14753C6.12895 2.14185 6.13291 2.02876 6.28132 1.85957C6.36517 1.76391 6.50237 1.65669 6.58622 1.62121C6.67007 1.58581 10.9483 1.56353 16.0935 1.57182L25.4485 1.5869L25.6598 1.80369ZM15.8475 4.73066C15.4466 4.84554 15.3599 4.97324 14.6145 6.54657C14.1967 7.42818 13.8433 8.16147 13.829 8.17616C13.8147 8.19086 13.1054 8.30449 12.2527 8.42875C11.4 8.55301 10.5775 8.69118 10.4249 8.7358C10.0867 8.83474 9.90201 9.10319 9.90201 9.4962C9.90201 9.77403 9.97732 9.86812 11.192 11.1079L12.482 12.4245L12.1883 14.1917C11.9263 15.7681 11.9057 15.9861 11.9971 16.2105C12.0535 16.3488 12.1689 16.5 12.2535 16.5465C12.6203 16.7477 12.9185 16.6487 14.4555 15.8152L15.9594 14.9996L17.4939 15.8152C19.1852 16.7143 19.4398 16.7844 19.7735 16.4422C19.8747 16.3384 19.9772 16.1714 20.0013 16.071C20.0254 15.9706 19.9137 15.1073 19.7531 14.1524L19.4611 12.4164L20.7347 11.1123C21.5508 10.2766 22.022 9.73519 22.0462 9.60507C22.1052 9.28879 21.9121 8.91094 21.6258 8.78253C21.4872 8.7204 20.7393 8.57817 19.9637 8.46649C19.1881 8.35489 18.4579 8.244 18.3409 8.22016C18.1511 8.18148 18.0429 8.00189 17.3337 6.54891C16.8966 5.65354 16.5024 4.89783 16.4577 4.86938C16.3102 4.77599 15.964 4.69729 15.8475 4.73066ZM4.56626 7.23922C4.56626 10.0389 4.73479 11.6697 5.18414 13.2193C5.26951 13.5135 5.32432 13.7696 5.30595 13.7885C5.23323 13.863 4.11874 13.0216 3.71376 12.5863C2.3764 11.1488 1.59616 8.92383 1.56567 6.46092C1.5566 5.73138 1.57398 5.60861 1.70783 5.45527C1.94854 5.17948 2.09162 5.15299 3.36572 5.14767L4.56626 5.14275V7.23922ZM30.2335 5.3994C30.4394 5.61158 30.4444 5.63744 30.4343 6.45443C30.4041 8.92367 29.6251 11.1471 28.2862 12.5863C27.8813 13.0216 26.7668 13.863 26.694 13.7885C26.6757 13.7696 26.7305 13.5135 26.8159 13.2193C27.2654 11.6689 27.4337 10.039 27.4337 7.23406V5.13243L28.728 5.15713L30.0223 5.18183L30.2335 5.3994ZM16.5336 8.40765C16.8069 8.95204 17.1145 9.45689 17.2196 9.53387C17.3753 9.64782 19.1099 9.97941 19.6058 9.99004C19.6559 9.99113 19.2938 10.3911 18.8013 10.8789C17.764 11.9061 17.8056 11.7723 18.0581 13.2704C18.1414 13.7647 18.2098 14.2299 18.21 14.3041C18.2104 14.4114 18.0017 14.3271 17.1941 13.8938C16.635 13.594 16.0819 13.3486 15.9649 13.3486C15.8479 13.3486 15.2934 13.5971 14.7327 13.9008C14.172 14.2045 13.7133 14.4165 13.7133 14.3719C13.7133 14.3272 13.7982 13.7942 13.902 13.1875C14.067 12.2229 14.0779 12.0532 13.9886 11.8372C13.9324 11.7013 13.5368 11.2435 13.1094 10.8197C12.682 10.396 12.3453 10.036 12.3611 10.0198C12.3769 10.0036 12.8848 9.91689 13.4898 9.82702C14.0948 9.73722 14.6635 9.61523 14.7534 9.55591C14.8434 9.4966 15.1443 8.96673 15.4222 8.37842C15.7001 7.7901 15.9524 7.33401 15.9828 7.3648C16.0133 7.39567 16.2611 7.86497 16.5336 8.40765ZM22.6108 34.0015L22.8221 34.218L22.8447 36.3265L22.8673 38.4349H16H9.13274L9.15531 36.3329C9.1765 34.3587 9.18717 34.2203 9.33032 34.0573C9.41417 33.9618 9.55137 33.8546 9.63522 33.819C9.71907 33.7834 12.6253 33.7612 16.0936 33.7696L22.3995 33.7849L22.6108 34.0015ZM12.6757 35.3854C12.4357 35.4849 12.1888 35.8471 12.1888 36.0997C12.1888 36.2353 12.2757 36.4222 12.411 36.5776L12.6333 36.8328L14.4255 36.8563L16.2176 36.8798L16.4692 36.6494C16.6782 36.4579 16.7207 36.3634 16.7207 36.0904C16.7207 35.8184 16.678 35.7227 16.4734 35.5353L16.2262 35.3089L14.5314 35.3138C13.5993 35.3165 12.7643 35.3488 12.6757 35.3854ZM18.7737 35.3854C18.5337 35.4849 18.2867 35.8471 18.2867 36.0997C18.2867 36.4125 18.6371 36.7879 18.9814 36.844C19.2135 36.8818 19.297 36.8519 19.5132 36.6539C19.7273 36.4577 19.7697 36.3647 19.7697 36.0904C19.7697 35.8184 19.727 35.7227 19.5224 35.5353C19.272 35.3059 19.0655 35.2645 18.7737 35.3854Z" fill="white"/>
</svg>
