<svg width="40" height="40" viewBox="0 0 40 40" fill="none" xmlns="http://www.w3.org/2000/svg">
<path fill-rule="evenodd" clip-rule="evenodd" d="M9.78962 0.067064C8.68325 0.267323 7.80779 0.716676 6.96696 1.51576C6.50955 1.9505 6.21999 2.30789 6.01726 2.68809C5.49466 3.66837 5.41951 3.97818 5.42082 5.14934C5.4218 6.095 5.44442 6.26346 5.63964 6.77727C5.94399 7.57823 6.31155 8.13049 6.94156 8.73322C7.9451 9.6931 9.0161 10.1478 10.4223 10.211C11.5077 10.2597 12.0956 10.1469 13.0569 9.70537C13.7076 9.40651 13.9403 9.24524 14.4988 8.70572C15.6173 7.62527 16.1409 6.33464 16.0529 4.87586C15.8902 2.18233 13.7231 0.130509 10.9332 0.028778C10.5064 0.0132292 9.99179 0.0304188 9.78962 0.067064ZM28.1679 0.113945C27.8759 0.173952 27.3429 0.36296 26.9835 0.533919C25.5949 1.19455 24.6648 2.22569 24.195 3.62571C23.9323 4.40839 23.9002 5.60439 24.1206 6.39949C24.6142 8.18081 26.1234 9.62161 27.9683 10.0729C29.8146 10.5247 31.7305 10.0261 33.0712 8.7451C34.1187 7.74411 34.6397 6.55701 34.649 5.14934C34.655 4.24438 34.5364 3.73861 34.1271 2.9225C33.0524 0.779574 30.5859 -0.382836 28.1679 0.113945ZM11.4415 1.98176C13.9749 2.49526 14.943 5.45648 13.1854 7.31632C12.15 8.41216 10.3493 8.66774 8.9987 7.91062C7.48205 7.06036 6.91518 5.2206 7.70112 3.69939C8.26504 2.60793 9.3795 1.92839 10.6881 1.87823C10.8004 1.87393 11.1394 1.9205 11.4415 1.98176ZM29.8331 1.94394C32.0648 2.29351 33.3078 4.54996 32.3487 6.51052C31.3683 8.5146 28.585 8.9788 26.9466 7.41149C26.2691 6.76352 25.9543 6.04367 25.9572 5.14934C25.9604 4.15671 26.2828 3.43733 27.0201 2.77764C27.4861 2.36063 28.14 2.04192 28.7217 1.94816C29.2673 1.86026 29.2984 1.86018 29.8331 1.94394ZM5.71414 11.7535C4.04253 12.1061 2.75237 12.8451 1.64232 14.0858C1.11801 14.6718 0.454024 15.9118 0.214535 16.7523C0.0450459 17.3469 0.0349175 17.5631 0.00722752 21.1802C-0.0120493 23.6941 0.00730919 25.087 0.0644044 25.2898C0.195421 25.7553 0.576219 26.2013 1.02195 26.4111L1.41729 26.5973H5.50136C9.38375 26.5973 9.59824 26.5899 9.84451 26.4474C10.4609 26.0905 10.4788 25.2498 9.87825 24.8594C9.69447 24.7399 9.41561 24.7189 7.72717 24.6975L5.78724 24.6728V21.55C5.78724 18.2283 5.76347 18.0041 5.39109 17.8134C5.18255 17.7067 4.76222 17.7046 4.55753 17.8095C4.16766 18.0091 4.15361 18.1377 4.15361 21.5147V24.683H3.04512H1.93654L1.96766 21.1084C2.00221 17.1404 1.99086 17.2324 2.58452 16.1273C3.00044 15.353 3.99033 14.4228 4.80707 14.0386C5.95011 13.501 6.00092 13.4969 11.0467 13.5371C13.5225 13.5569 15.6189 13.578 15.7054 13.5843C16.3962 13.6338 16.8444 12.6935 16.3921 12.1435C16.0011 11.6679 16.0814 11.6751 10.9332 11.6585C7.1474 11.6463 6.1352 11.6648 5.71414 11.7535ZM24.4107 11.7205C23.7334 11.8473 23.3997 12.2227 23.4584 12.7919C23.523 13.418 23.9992 13.6918 24.8118 13.5699C25.0558 13.5333 27.2064 13.514 29.591 13.527C33.8122 13.5501 33.9405 13.5552 34.4586 13.7231C35.9879 14.2183 37.2019 15.3738 37.7606 16.8661L38.0105 17.5337L38.0354 21.1084L38.0604 24.683H36.9558H35.8511L35.8281 21.3946L35.8051 18.106L35.5759 17.9176C35.1491 17.5665 34.4795 17.7225 34.3001 18.2146C34.2432 18.3708 34.2123 19.5487 34.2123 21.5631V24.6706L32.2724 24.6964C30.5852 24.7187 30.3049 24.74 30.1213 24.8594C29.5208 25.2498 29.5387 26.0905 30.1551 26.4474C30.4013 26.5899 30.6158 26.5973 34.4982 26.5973H38.5823L38.9776 26.4111C39.4233 26.2013 39.8041 25.7553 39.9352 25.29C39.9921 25.0874 40.0119 23.679 39.9932 21.1413L39.9649 17.2993L39.7391 16.6009C39.0532 14.4785 37.5682 12.8957 35.5121 12.0953C34.3671 11.6496 34.1475 11.6337 29.2536 11.6431C26.7921 11.6478 24.6128 11.6826 24.4107 11.7205ZM19.4265 13.2893C17.4222 13.4641 15.5527 14.9182 14.9242 16.7914C14.6809 17.5163 14.6298 18.7106 14.8089 19.481C15.2211 21.2527 16.6594 22.7401 18.4716 23.2682C21.5118 24.154 24.7281 22.2656 25.3023 19.2578C25.7113 17.1149 24.594 14.9293 22.5319 13.8385C21.6649 13.3797 20.5832 13.1885 19.4265 13.2893ZM21.0151 15.278C22.6385 15.8071 23.6377 17.3231 23.3593 18.8348C22.9232 21.2031 20.2209 22.3537 18.1632 21.0471C15.7898 19.5401 16.3222 16.0924 19.056 15.2661C19.538 15.1204 20.5506 15.1266 21.0151 15.278ZM15.2085 25.1081C12.8416 25.531 10.9727 26.9138 9.95813 28.9926C9.33972 30.2596 9.35532 30.1234 9.32086 34.5632C9.28655 38.9685 9.28279 38.9303 9.80645 39.4426C10.3765 40.0003 9.5414 39.9561 19.9266 39.9791L29.2877 40L29.7271 39.7804C30.048 39.62 30.2331 39.4578 30.4129 39.1796L30.6592 38.7984L30.6586 34.6903L30.658 30.5822L30.4244 29.918C29.5427 27.4116 27.6929 25.7645 25.1011 25.1781C24.3197 25.0013 16.1305 24.9434 15.2085 25.1081ZM25.0364 27.1222C25.9217 27.3744 26.5343 27.7306 27.2394 28.4031C27.6746 28.8181 27.9075 29.1245 28.1597 29.6142C28.7112 30.6842 28.7367 30.9099 28.7383 34.7429L28.7397 38.1222H27.637H26.5343V34.8519V31.5817L26.337 31.3781C25.9686 30.9979 25.4307 31.0218 25.1098 31.4327C24.9471 31.6411 24.9408 31.7562 24.9185 34.8852L24.8954 38.1222H19.9998H15.1041L15.0811 34.8852C15.0588 31.7562 15.0524 31.6411 14.8897 31.4327C14.5689 31.0218 14.0309 30.9979 13.6625 31.3781L13.4653 31.5817V34.8519V38.1222H12.3626H11.2599V34.6968C11.2599 30.877 11.2869 30.6406 11.8497 29.5397C12.4038 28.456 13.8034 27.3819 15.0581 27.0778C15.8607 26.8833 15.8774 26.8827 20.204 26.908C24.3426 26.9321 24.3741 26.9335 25.0364 27.1222Z" fill="white"/>
</svg>
