<svg width="44" height="50" viewBox="0 0 44 50" fill="none" xmlns="http://www.w3.org/2000/svg">
<path fill-rule="evenodd" clip-rule="evenodd" d="M18.8584 0.118142C18.2362 0.392856 17.9535 0.901036 17.8774 1.88089C17.8529 2.19594 17.8082 2.23588 17.243 2.44685C15.2199 3.20222 13.2404 4.70497 12.1375 6.3229C11.3578 7.46663 10.6125 9.33638 10.6125 10.1488C10.6125 10.2719 10.5555 10.3893 10.486 10.4099C10.4164 10.4305 10.1317 10.5059 9.85325 10.5776C9.47279 10.6756 9.2204 10.8346 8.83742 11.2178C8.08784 11.9677 7.88122 12.8874 8.26977 13.7446L8.45261 14.148L8.12186 14.6288C6.44646 17.0642 7.40458 20.5223 10.0276 21.5071C10.5479 21.7024 10.5632 21.7292 10.6652 22.6183C10.9038 24.7002 12.1271 27.1589 13.7593 28.8372L14.4261 29.5229L14.1138 29.6208C13.9421 29.6746 12.5943 30.0881 11.1187 30.5397C9.64318 30.9912 8.16256 31.5029 7.82847 31.6767C6.90375 32.1581 5.94118 33.1659 5.4606 34.1558C5.24101 34.6081 5.03185 35.1523 4.99571 35.3652C4.93668 35.7136 4.88789 35.7646 4.50642 35.877C2.90857 36.3476 1.19925 37.766 0.411614 39.2749C-0.0820263 40.2207 -0.117055 40.531 0.231004 40.8776L0.479444 41.1252H3.01193H5.54442L6.05375 41.877C6.33378 42.2905 6.56298 42.6783 6.56298 42.7388C6.56298 42.7993 6.33378 43.1871 6.05375 43.6006L5.54442 44.3524H3.01193H0.479444L0.231004 44.6C-0.118371 44.9479 -0.082026 45.2668 0.412526 46.1913C1.42947 48.0926 3.20267 49.3981 5.36918 49.8406C6.06064 49.9818 7.93518 50 21.8369 50C38.8102 50 38.2773 50.0161 39.6519 49.4597C41.1608 48.849 42.5225 47.6218 43.2962 46.1753C43.7822 45.2667 43.8173 44.9468 43.4691 44.6L43.2206 44.3524H40.6882H38.1557L37.6463 43.6006C37.3663 43.1871 37.1371 42.7993 37.1371 42.7388C37.1371 42.6783 37.3663 42.2905 37.6463 41.877L38.1557 41.1252H40.6882H43.2206L43.4691 40.8776C43.798 40.5501 43.7825 40.2391 43.3999 39.4835C42.5621 37.8286 41.1189 36.5516 39.4182 35.9603C38.7948 35.7436 38.764 35.7172 38.7008 35.3445C38.6645 35.1304 38.4495 34.5849 38.2229 34.1323C37.726 33.1395 36.7763 32.1477 35.8716 31.6767C35.5375 31.5029 34.0569 30.9912 32.5814 30.5397C31.1058 30.0881 29.7548 29.6736 29.579 29.6184L29.2595 29.5182L29.9439 28.8199C31.5768 27.1541 32.7953 24.7095 33.0349 22.6183C33.1369 21.7292 33.1521 21.7024 33.6725 21.5071C36.2955 20.5223 37.2536 17.0642 35.5782 14.6288L35.2475 14.148L35.4303 13.7446C35.799 12.9312 35.6174 12.023 34.9348 11.2666C34.5049 10.7903 34.3593 10.7176 33.2141 10.4068C33.1446 10.3879 33.0876 10.2719 33.0876 10.1488C33.0876 9.3868 32.3432 7.46381 31.662 6.466C30.4745 4.72635 28.753 3.37245 26.6589 2.53106L25.849 2.20562L25.7878 1.58974C25.7233 0.939963 25.5379 0.599395 25.0509 0.237043C24.7865 0.0401854 24.6218 0.0277808 21.9694 0.00549312C19.7935 -0.0128615 19.0982 0.0123509 18.8584 0.118142ZM24.1785 1.63471C24.1785 1.65801 24.0419 2.88696 23.8748 4.36561C23.7078 5.84427 23.5711 7.09591 23.5711 7.14694C23.5711 7.19989 22.831 7.23982 21.85 7.23982C20.869 7.23982 20.129 7.19989 20.129 7.14694C20.129 7.09591 19.9923 5.84427 19.8253 4.36561C19.6582 2.88696 19.5216 1.65801 19.5216 1.63471C19.5216 1.61132 20.5694 1.59226 21.85 1.59226C23.1307 1.59226 24.1785 1.61132 24.1785 1.63471ZM18.4118 6.23133C18.533 7.3684 18.6738 8.3771 18.7248 8.47291C18.9102 8.82104 19.1799 8.85341 21.8986 8.85341H24.5927L24.8411 8.60583C24.9778 8.46968 25.0893 8.29955 25.0889 8.22764C25.0875 8.01374 25.499 4.28393 25.5509 4.03977L25.5988 3.81478L26.1794 4.06932C28.1944 4.95286 29.7004 6.2523 30.685 7.95686C31.0046 8.51032 31.4677 9.84184 31.4677 10.2074V10.467H21.85H12.2324V10.2074C12.2324 9.78415 12.7182 8.46928 13.1389 7.75425C13.969 6.34287 15.2452 5.20972 16.9879 4.33657C17.942 3.85854 18.0595 3.82194 18.1218 3.9836C18.1601 4.08273 18.2905 5.09425 18.4118 6.23133ZM33.7502 12.3282C33.9069 12.4842 33.9987 12.6909 33.9987 12.8874C33.9987 13.0838 33.9069 13.2906 33.7502 13.4466L33.5017 13.6942H21.85H10.1984L9.94993 13.4466C9.79321 13.2906 9.70139 13.0838 9.70139 12.8874C9.70139 12.6909 9.79321 12.4842 9.94993 12.3282L10.1984 12.0806H21.85H33.5017L33.7502 12.3282ZM10.1949 15.27L10.5113 15.333V17.6399C10.5113 18.9087 10.4739 19.9468 10.4283 19.9468C10.3826 19.9468 10.153 19.783 9.91804 19.5826C8.81494 18.642 8.59181 16.9427 9.40405 15.667C9.71779 15.1742 9.71678 15.1747 10.1949 15.27ZM34.296 15.667C35.1083 16.9427 34.8851 18.642 33.782 19.5826C33.5471 19.783 33.3175 19.9468 33.2718 19.9468C33.2261 19.9468 33.1888 18.9062 33.1888 17.6344V15.3218L33.4166 15.2781C33.9317 15.1793 34.0067 15.2125 34.296 15.667ZM31.5419 18.9131C31.4961 22.7894 31.4687 23.0244 30.8962 24.4721C30.393 25.7447 29.7546 26.6932 28.6823 27.7614C27.2952 29.1431 25.8884 29.9389 24.0118 30.4032C23.0199 30.6487 20.741 30.6486 19.724 30.403C16.0896 29.5254 13.4203 26.9296 12.4095 23.2896C12.2142 22.5865 12.1919 22.2005 12.1554 18.9131L12.1154 15.3078H21.85H31.5847L31.5419 18.9131ZM15.5126 31.8219C15.9251 33.9202 17.2679 35.6228 19.21 36.5095C22.9835 38.2327 27.3788 35.9357 28.1884 31.8174C28.325 31.1228 28.3948 30.9429 28.511 30.9872C28.5924 31.0184 28.8621 31.0948 29.1103 31.1571C29.3584 31.2193 29.584 31.3288 29.6115 31.4003C29.6391 31.4718 29.564 31.8848 29.4447 32.318C28.4312 35.9982 26.1607 38.5857 23.307 39.3127C19.9267 40.1739 16.3967 37.9191 14.7752 33.8631C14.415 32.9623 14.024 31.5857 14.0804 31.4171C14.1116 31.3241 14.9208 31.0082 15.279 30.9493C15.312 30.9439 15.4172 31.3366 15.5126 31.8219ZM17.859 31.5008C19.3023 32.0418 20.161 32.1902 21.85 32.1902C23.5391 32.1902 24.3978 32.0418 25.8411 31.5008C26.2206 31.3584 26.5665 31.242 26.6096 31.242C26.74 31.242 26.5168 32.0593 26.2025 32.7333C25.4585 34.3282 23.6355 35.4776 21.85 35.4776C20.0646 35.4776 18.2416 34.3282 17.4976 32.7333C17.1832 32.0593 16.9601 31.242 17.0905 31.242C17.1336 31.242 17.4795 31.3584 17.859 31.5008ZM12.7018 32.7842C13.34 35.1788 14.5012 37.163 16.1914 38.747L17.0074 39.5116L15.1514 39.5086L13.2954 39.5057L12.9424 38.892C12.4973 38.118 11.1603 36.8456 10.3275 36.4033L9.70139 36.0709V34.368V32.6651L10.8909 32.3008C11.5452 32.1004 12.1261 31.9202 12.1817 31.9002C12.4051 31.82 12.478 31.944 12.7018 32.7842ZM32.8091 32.3002L33.9987 32.6651V34.368V36.0709L33.3725 36.4033C32.5397 36.8456 31.2028 38.118 30.7576 38.892L30.4047 39.5057L28.5504 39.5086L26.696 39.5116L27.5424 38.7136C29.1785 37.1708 30.359 35.1636 30.964 32.8955C31.2564 31.7994 31.2433 31.8271 31.4419 31.8843C31.5396 31.9123 32.1549 32.0995 32.8091 32.3002ZM8.08157 34.5224V35.5841L7.39821 35.5171C7.02231 35.4803 6.69966 35.4373 6.68103 35.4218C6.57756 35.3351 7.12233 34.4039 7.53144 33.9682C7.79354 33.6891 8.02457 33.4607 8.04482 33.4607C8.06507 33.4607 8.08157 33.9385 8.08157 34.5224ZM36.801 34.8507C36.9451 35.1437 37.0455 35.3985 37.0241 35.4167C37.0028 35.4351 36.6777 35.4803 36.3019 35.5171L35.6185 35.5841V34.5014V33.4187L36.0788 33.8683C36.332 34.1156 36.6569 34.5576 36.801 34.8507ZM8.00635 37.2392C9.01155 37.4514 10.0403 38.0237 10.815 38.8017C13.9273 41.9277 12.3616 47.2244 8.02437 48.243C6.72892 48.5472 5.12155 48.2988 3.93888 47.6118C3.46427 47.3361 2.20972 46.2036 2.20972 46.0508C2.20972 46.0042 3.10112 45.966 4.19056 45.966C5.36837 45.966 6.25107 45.9234 6.3681 45.8611C6.47632 45.8034 6.97442 45.1466 7.47505 44.4014C8.1254 43.4334 8.38528 42.9588 8.38528 42.7388C8.38528 42.5188 8.1254 42.0442 7.47505 41.0762C6.97442 40.331 6.47632 39.6742 6.3681 39.6165C6.25107 39.5542 5.36837 39.5116 4.19056 39.5116C3.10112 39.5116 2.20972 39.4734 2.20972 39.4268C2.20972 39.2748 3.46315 38.1422 3.93412 37.8686C5.16741 37.1521 6.56835 36.9356 8.00635 37.2392ZM38.6982 37.3876C39.0278 37.5025 39.5062 37.7176 39.7612 37.8658C40.2358 38.1415 41.4904 39.274 41.4904 39.4268C41.4904 39.4734 40.599 39.5116 39.5095 39.5116C38.3317 39.5116 37.449 39.5542 37.332 39.6165C37.2238 39.6742 36.7257 40.331 36.225 41.0762C35.5747 42.0442 35.3148 42.5188 35.3148 42.7388C35.3148 42.9588 35.5747 43.4334 36.225 44.4014C36.7257 45.1466 37.2238 45.8034 37.332 45.8611C37.449 45.9234 38.3317 45.966 39.5095 45.966C40.599 45.966 41.4904 46.0042 41.4904 46.0508C41.4904 46.2036 40.2358 47.3361 39.7612 47.6118C37.5471 48.8981 34.7012 48.5127 32.8842 46.6808C30.7073 44.486 30.7073 40.982 32.8842 38.801C33.6386 38.0452 34.6772 37.4571 35.6465 37.2369C36.4921 37.0447 37.9157 37.1151 38.6982 37.3876ZM29.6961 42.7388V44.3524H21.85H14.004V42.7388V41.1252H21.85H29.6961V42.7388ZM30.7469 46.5673C30.9351 46.8947 31.362 47.438 31.6957 47.7745L32.3023 48.3864H21.8524H11.4024L12.1012 47.6411C12.4855 47.2311 12.9113 46.6865 13.0474 46.4309L13.2951 45.966L21.8498 45.969L30.4047 45.9719L30.7469 46.5673Z" fill="#F02801"/>
</svg>
