<svg width="40" height="40" viewBox="0 0 40 40" fill="none" xmlns="http://www.w3.org/2000/svg">
<path fill-rule="evenodd" clip-rule="evenodd" d="M18.8375 0.0512881C16.7955 0.416267 15.3651 1.66656 14.7739 3.6031C14.6087 4.14416 14.582 4.38959 14.5778 5.40243C14.5743 6.26483 14.6112 6.75116 14.7171 7.23983C15.0279 8.67292 15.6939 10.1697 16.4652 11.1687L16.8928 11.7225L16.859 12.3681C16.8311 12.8987 16.7886 13.0688 16.6207 13.3229C16.298 13.8108 15.9753 13.9647 15.1019 14.0474C13.4863 14.2004 12.5277 14.6317 11.4751 15.6795C10.915 16.2371 10.7421 16.4725 10.438 17.0914C9.94381 18.0976 9.84223 18.6859 9.84223 20.5425C9.84223 22.1575 9.88872 22.3756 10.2698 22.5493C10.5605 22.6819 16.547 22.6819 16.8377 22.5493C17.2181 22.3759 17.3631 21.886 17.1539 21.4813C16.9541 21.0946 16.8321 21.079 14.0189 21.079H11.405V20.1055C11.405 19.57 11.4438 18.9456 11.4913 18.7176C11.6908 17.7606 12.3769 16.7612 13.1954 16.2357C13.7689 15.8674 14.3787 15.6845 15.3012 15.6038C16.0089 15.5419 16.2147 15.4905 16.6878 15.2569C17.3618 14.9242 17.8128 14.4577 18.151 13.7434C18.3922 13.2338 18.3983 13.1943 18.3983 12.1177V11.0142L18.0647 10.6518C16.9873 9.48138 16.2281 7.60129 16.1183 5.83246C15.9531 3.16924 17.4294 1.53489 20.0001 1.53489C22.5708 1.53489 24.047 3.16924 23.8819 5.83246C23.7721 7.60129 23.0128 9.48138 21.9355 10.6518L21.6019 11.0142V12.1177C21.6019 13.1943 21.6079 13.2338 21.8492 13.7434C22.1874 14.4577 22.6384 14.9242 23.3124 15.2569C23.7854 15.4905 23.9912 15.5419 24.6989 15.6038C25.6214 15.6845 26.2312 15.8674 26.8047 16.2357C27.6232 16.7612 28.3094 17.7606 28.5088 18.7176C28.5563 18.9456 28.5952 19.57 28.5952 20.1055V21.079H25.9813C23.1681 21.079 23.046 21.0946 22.8462 21.4813C22.6371 21.886 22.7821 22.3759 23.1624 22.5493C23.4532 22.6819 29.4396 22.6819 29.7304 22.5493C30.1119 22.3753 30.1579 22.1582 30.1579 20.5323C30.1579 18.7011 30.0563 18.1152 29.5628 17.1039C28.9915 15.9331 27.9638 14.9632 26.7515 14.451C26.2294 14.2304 25.7596 14.1289 24.8697 14.0447C24.027 13.965 23.699 13.8061 23.3794 13.3229C23.2118 13.0693 23.169 12.8986 23.1414 12.3721L23.1078 11.7305L23.5477 11.1466C24.3398 10.0956 24.9745 8.6662 25.2824 7.23983C25.4992 6.23536 25.4845 4.50789 25.252 3.69724C24.7247 1.8582 23.5246 0.674988 21.6685 0.164425C21.1182 0.0130546 19.4291 -0.0544211 18.8375 0.0512881ZM19.618 21.1881C18.9406 21.5638 19.224 22.6427 20.0001 22.6427C20.396 22.6427 20.7815 22.2608 20.7815 21.8684C20.7815 21.2814 20.1331 20.9024 19.618 21.1881ZM6.16079 22.7911C6.05812 22.8728 5.5925 23.7086 5.12368 24.6529L4.27284 26.3664L2.38887 26.6333C0.528346 26.8967 0.501623 26.9032 0.250881 27.1483C-0.0298665 27.4227 -0.0718263 27.6814 0.10914 28.022C0.170868 28.1381 0.815422 28.8019 1.54155 29.4969L2.86176 30.7608L2.56601 32.4681C2.40333 33.4071 2.26854 34.3229 2.26659 34.5033C2.2619 34.9214 2.50295 35.2184 2.89794 35.2813C3.14938 35.3214 3.37481 35.2242 4.90028 34.4184L6.61923 33.5103L8.3284 34.4093C9.34379 34.9434 10.128 35.3085 10.2603 35.3087C10.5162 35.3092 11.0143 34.8648 11.0143 34.636C11.0143 34.5582 10.8713 33.6641 10.6966 32.6489L10.379 30.8032L11.7908 29.4009C13.1304 28.0704 13.2028 27.9832 13.2024 27.7002C13.2021 27.3426 13.1027 27.1365 12.8683 27.0065C12.7725 26.9535 11.8515 26.7843 10.8214 26.6306L8.94865 26.3511L8.11462 24.6656C7.57445 23.574 7.2051 22.9207 7.06625 22.8115C6.80129 22.6029 6.40833 22.594 6.16079 22.7911ZM32.9854 22.7404C32.8576 22.8019 32.5456 23.3454 31.9225 24.592L31.0404 26.3566L29.1732 26.6329C28.1462 26.7848 27.2276 26.9527 27.1319 27.0061C26.8974 27.1367 26.7982 27.3426 26.7972 27.7002C26.7965 27.9836 26.8672 28.0686 28.2093 29.3978L29.6223 30.797L29.304 32.6459C29.1291 33.6627 28.9859 34.5582 28.9859 34.636C28.9859 34.8657 29.484 35.3093 29.7399 35.3076C29.8696 35.3067 30.6791 34.9322 31.6788 34.4106L33.3951 33.5151L35.1102 34.4202C36.6236 35.2189 36.8582 35.3201 37.1054 35.2808C37.497 35.2185 37.7383 34.9199 37.7336 34.5033C37.7316 34.3229 37.5968 33.4071 37.4341 32.4681L37.1384 30.7608L38.4595 29.497C39.1861 28.8019 39.8307 28.1381 39.892 28.022C40.0715 27.6813 40.0295 27.4226 39.7493 27.1443C39.4967 26.8934 39.4853 26.8906 37.611 26.6287L35.7268 26.3654L34.8762 24.6524C34.4076 23.7084 33.942 22.8728 33.8394 22.7911C33.634 22.6276 33.2651 22.6057 32.9854 22.7404ZM7.21526 26.3762C7.53296 27.0105 7.86411 27.5937 7.95115 27.6722C8.0668 27.7764 8.45397 27.8655 9.38607 28.0025C10.0882 28.1056 10.6928 28.1909 10.7297 28.192C10.7666 28.1931 10.3757 28.5977 9.86098 29.0912C9.34637 29.5845 8.882 30.0927 8.8291 30.2204C8.748 30.4163 8.76691 30.6489 8.94998 31.7071C9.0693 32.3971 9.14829 32.9802 9.12556 33.0029C9.10274 33.0258 8.61298 32.7939 8.03718 32.4876C7.46139 32.1814 6.86239 31.9129 6.70604 31.8907C6.46295 31.8564 6.25636 31.9378 5.27534 32.4544C4.6447 32.7865 4.1143 33.0438 4.09664 33.0261C4.07898 33.0085 4.1511 32.4857 4.2569 31.8645C4.54851 30.1523 4.61196 30.3643 3.45834 29.1976C2.91255 28.6456 2.49944 28.1936 2.54023 28.1929C2.92138 28.1875 5.1254 27.7882 5.2569 27.7009C5.35074 27.6385 5.69025 27.0555 6.0114 26.4053C6.33262 25.755 6.60485 25.2229 6.61649 25.2229C6.62813 25.2229 6.89755 25.7418 7.21526 26.3762ZM34.773 27.7276C34.9025 27.7969 37.148 28.1854 37.4599 28.1924C37.5007 28.1932 37.0876 28.6456 36.5418 29.1976C35.3851 30.3674 35.4441 30.169 35.744 31.8804C35.8512 32.4911 35.9245 33.0051 35.9072 33.0224C35.8898 33.0398 35.3601 32.7831 34.7301 32.4519C33.7404 31.9316 33.5456 31.8555 33.2973 31.8919C33.1393 31.915 32.5395 32.1846 31.9645 32.4907C31.3894 32.7969 30.8997 33.028 30.8761 33.0045C30.8525 32.9809 30.9309 32.3971 31.0502 31.7071C31.2324 30.6538 31.2519 30.4158 31.1718 30.2224C31.1195 30.0959 30.6572 29.5876 30.1446 29.0931C29.6321 28.5986 29.2407 28.1931 29.275 28.192C29.3094 28.1909 29.9119 28.1056 30.6141 28.0025C31.5462 27.8655 31.9334 27.7764 32.049 27.6722C32.136 27.5937 32.4714 27.0021 32.7942 26.3576L33.3811 25.1858L33.9952 26.4128C34.3587 27.139 34.6761 27.6757 34.773 27.7276ZM19.5557 27.4725C19.4617 27.5469 18.9998 28.3834 18.5292 29.3316L17.6736 31.0556L15.7478 31.3338C14.0726 31.5759 13.7973 31.6351 13.6333 31.7894C13.4126 31.9967 13.3253 32.3128 13.4187 32.5654C13.455 32.6638 14.1044 33.3653 14.8618 34.1244L16.2388 35.5045L15.9172 37.381C15.7157 38.5577 15.6164 39.3386 15.6512 39.475C15.7138 39.7199 16.1112 39.9996 16.3976 40C16.5004 40.0002 17.3541 39.5956 18.2947 39.101L20.0047 38.2017L21.7089 39.101C22.6461 39.5956 23.4977 40.0002 23.6013 40C23.8888 39.9996 24.2863 39.7204 24.349 39.475C24.3837 39.3386 24.2845 38.5577 24.0829 37.381L23.7614 35.5045L25.1384 34.1244C25.8958 33.3653 26.5452 32.6638 26.5815 32.5654C26.6746 32.3136 26.5877 31.9969 26.3692 31.7915C26.2106 31.6424 25.9237 31.5772 24.4394 31.3524C23.4804 31.2073 22.6163 31.0881 22.519 31.0877C22.3666 31.087 22.2225 30.8458 21.4787 29.3473C21.0038 28.3904 20.5384 27.5469 20.4444 27.4725C20.3504 27.3982 20.1505 27.3374 20.0001 27.3374C19.8497 27.3374 19.6497 27.3982 19.5557 27.4725ZM20.5987 31.0839C20.9727 31.8615 21.2253 32.291 21.3607 32.3798C21.4852 32.4614 22.0511 32.5855 22.829 32.7016C23.5251 32.8056 24.1069 32.9029 24.1218 32.9179C24.1368 32.9328 23.7435 33.3259 23.2478 33.7915C22.7521 34.257 22.2942 34.7484 22.2302 34.8834C22.1235 35.1082 22.1324 35.2369 22.3358 36.4114C22.4579 37.1167 22.5468 37.7065 22.5334 37.7221C22.5199 37.7377 21.9994 37.4826 21.3766 37.1552C20.6804 36.7893 20.152 36.5601 20.0046 36.5601C19.8575 36.5601 19.3254 36.7902 18.6282 37.1555C18.003 37.4829 17.4795 37.738 17.4649 37.7223C17.4502 37.7066 17.5393 37.1172 17.6629 36.4125C17.8711 35.2253 17.8788 35.1128 17.768 34.8792C17.7022 34.7405 17.2441 34.2485 16.75 33.7859C16.2558 33.3233 15.8636 32.9326 15.8785 32.9177C15.8933 32.9029 16.4751 32.8056 17.1712 32.7016C17.9491 32.5855 18.5149 32.4614 18.6395 32.3798C18.7749 32.291 19.0275 31.8615 19.4015 31.0839C19.7093 30.4443 19.9786 29.9209 20.0001 29.9209C20.0216 29.9209 20.2909 30.4443 20.5987 31.0839Z" fill="white"/>
</svg>
