<svg width="56" height="50" viewBox="0 0 56 50" fill="none" xmlns="http://www.w3.org/2000/svg">
<path fill-rule="evenodd" clip-rule="evenodd" d="M28.0459 0.0630247C28.0155 0.112954 27.3158 1.61253 26.491 3.39531C25.6662 5.17809 24.9573 6.67027 24.916 6.71122C24.8541 6.7724 18.2085 7.37599 17.5963 7.37599C17.4723 7.37599 17.3563 7.56342 17.2446 7.94489L17.0779 8.51378L17.8897 9.29036C18.3362 9.71754 19.5457 10.8546 20.5774 11.8175C21.6091 12.7803 22.4675 13.5993 22.4848 13.6374C22.5105 13.6939 21.0377 20.2069 20.866 20.7966C20.8357 20.9001 21.0075 21.1082 21.303 21.326L21.7897 21.6847L24.3383 20.2668C25.7402 19.4869 27.2196 18.6694 27.626 18.45L28.365 18.0513L31.5774 19.991L34.7898 21.9307L35.2395 21.6195C35.4868 21.4484 35.691 21.2316 35.6932 21.1378C35.6954 21.0439 35.3899 19.3892 35.0144 17.4608C34.6387 15.5322 34.3603 13.9076 34.3956 13.8505C34.4309 13.7933 35.7049 12.6693 37.2268 11.3525L39.9939 8.95837L39.8166 8.4038C39.6062 7.7454 40.0688 7.86448 35.5842 7.31412C33.7396 7.08779 32.2139 6.8684 32.1938 6.82654C32.1737 6.78469 31.5086 5.24064 30.7158 3.39531L29.2745 0.0401642L28.6878 0.00615787C28.3651 -0.0126082 28.0762 0.0129819 28.0459 0.0630247ZM29.8425 5.8573C30.8443 8.24378 30.9757 8.49513 31.2479 8.5471C31.4131 8.5785 32.7393 8.74568 34.1948 8.91856C35.6504 9.09132 36.8271 9.27148 36.8096 9.31868C36.7922 9.36587 35.9082 10.1553 34.8452 11.0728C33.7822 11.9903 32.7986 12.8517 32.6592 12.9872L32.406 13.2334L32.972 16.124C33.2832 17.7138 33.5251 19.0254 33.5095 19.0385C33.4938 19.0517 32.3411 18.373 30.948 17.5304L28.415 15.9983L25.8364 17.4255C24.4181 18.2105 23.2391 18.8341 23.2162 18.8113C23.1742 18.7693 24.4263 13.2951 24.5084 13.1623C24.5329 13.1226 23.5618 12.1754 22.3504 11.0577C21.1389 9.93978 20.1636 9.00795 20.1829 8.9868C20.2023 8.96576 21.3861 8.85021 22.8137 8.72988C24.2411 8.60966 25.5668 8.48546 25.7596 8.45384C26.0946 8.39891 26.1649 8.27767 27.3443 5.72401C28.0232 4.25423 28.6142 3.09062 28.6579 3.13816C28.7015 3.18581 29.2346 4.40936 29.8425 5.8573ZM14.1213 6.09205C13.9506 6.12469 13.8035 6.28551 13.6931 6.55995C13.6007 6.78981 13.023 8.0527 12.4094 9.36633L11.2938 11.7547L9.76814 11.8855C8.9289 11.9575 7.51383 12.0792 6.62354 12.156L5.00463 12.2957L4.80977 12.9141L4.61491 13.5325L5.00759 13.8364C5.22348 14.0035 6.19312 14.8778 7.16231 15.7792C8.13149 16.6805 8.99484 17.4827 9.08078 17.5618C9.21243 17.6828 9.12433 18.19 8.52178 20.7812L7.80646 23.857L8.08124 24.083C8.74757 24.6311 8.60375 24.6738 11.5215 23.0619C13.8077 21.7991 14.2694 21.5828 14.4767 21.6776C14.6119 21.7393 15.8376 22.4636 17.2003 23.287L19.678 24.7841L20.1644 24.4347L20.6506 24.0853L20.0487 20.9991L19.4466 17.9131L19.9186 17.5066C20.1782 17.2831 20.4691 17.0418 20.5651 16.9702C20.7151 16.8585 20.6631 16.7508 20.195 16.2025C19.8954 15.8518 19.6107 15.5648 19.5623 15.5648C19.5138 15.5648 19.0573 15.9258 18.5479 16.367C17.9473 16.887 17.6216 17.2515 17.6216 17.4036C17.6216 17.5325 17.8006 18.5839 18.0195 19.7399C18.2383 20.8959 18.4174 21.8674 18.4174 21.8986C18.4174 21.9695 17.7252 21.5688 15.9906 20.4938C15.1625 19.9806 14.5223 19.6592 14.3281 19.6592C14.1412 19.6592 13.2295 20.096 12.0937 20.7296C11.0385 21.3183 10.1609 21.7861 10.1436 21.7691C10.1263 21.7522 10.3182 20.8534 10.57 19.7719C10.8217 18.6903 11.0277 17.6165 11.0277 17.3856C11.0277 16.9908 10.9289 16.8745 9.3791 15.4432C8.08943 14.2521 7.77395 13.9056 7.92958 13.8507C8.03907 13.8122 8.97278 13.7165 10.0045 13.6382C11.0362 13.5598 12.0082 13.4596 12.1646 13.4156C12.4745 13.3284 12.7074 12.9202 13.8511 10.4601L14.5058 9.05174L15.4442 11.2726L16.3826 13.4935L17.5421 13.6284C18.1799 13.7027 18.7861 13.7867 18.8893 13.8151C19.0407 13.857 19.0914 13.7507 19.1511 13.2658C19.1919 12.9352 19.2511 12.5282 19.2829 12.3616C19.3398 12.063 19.3298 12.0576 18.5664 11.9835C18.1405 11.9421 17.7497 11.8979 17.6978 11.8854C17.6461 11.8728 17.1733 10.8402 16.6472 9.59084C15.135 5.99901 15.1401 6.00846 14.73 6.02665C14.5383 6.03518 14.2644 6.06464 14.1213 6.09205ZM42.2046 6.14983C42.1306 6.23899 41.5108 7.5036 40.8273 8.96019C40.1437 10.4167 39.5414 11.651 39.4886 11.7031C39.4359 11.7553 39.1369 11.8139 38.8243 11.8332L38.2558 11.8685L38.294 12.6646C38.315 13.1025 38.3668 13.4973 38.4092 13.5418C38.5433 13.6831 40.498 13.4274 40.6805 13.2446C40.7737 13.1516 41.271 12.1729 41.7859 11.0699C42.3009 9.96696 42.7475 9.10679 42.7785 9.15854C43.0541 9.61916 44.3381 12.904 44.3381 13.1484V13.464L46.6403 13.735C47.9064 13.8839 49.0274 14.0367 49.1313 14.0745C49.2722 14.1257 48.8763 14.528 47.5681 15.6625C46.6045 16.4982 45.816 17.2598 45.816 17.355C45.816 17.4502 45.9987 18.4699 46.2221 19.6211C46.4454 20.7723 46.6117 21.7583 46.5916 21.8121C46.5715 21.8658 45.7135 21.4035 44.685 20.7845C43.5665 20.1114 42.6935 19.6592 42.5128 19.6592C42.3466 19.6592 41.7813 19.9059 41.2564 20.2074C38.9402 21.5382 38.2845 21.8612 38.3529 21.6373C38.5103 21.123 39.3358 17.4749 39.3358 17.2939C39.3358 17.1177 38.5537 16.2927 37.4301 15.2839L37.0591 14.9508L36.4922 15.5094C36.1803 15.8166 35.9252 16.1179 35.9252 16.1789C35.9252 16.2398 36.2703 16.6056 36.6919 16.9917L37.4586 17.6938L36.7471 20.7522L36.0355 23.8105L36.4635 24.1784C36.699 24.3808 36.9338 24.5472 36.9852 24.5481C37.0368 24.549 38.2834 23.879 39.7556 23.0591C42.0035 21.8071 42.471 21.5863 42.6746 21.6802C42.808 21.7416 44.0366 22.4657 45.4049 23.2894L47.8929 24.787L48.3374 24.4789C48.5818 24.3095 48.8002 24.1409 48.8226 24.1044C48.845 24.0679 48.5951 22.6644 48.2672 20.9855L47.6711 17.933L49.8652 16.011C51.072 14.9538 52.1177 13.9801 52.1889 13.847C52.2863 13.6649 52.2847 13.4847 52.1826 13.1201L52.047 12.6353L51.12 12.5168C50.6101 12.4517 49.212 12.2826 48.0129 12.1411L45.8329 11.8838L44.678 9.1466C44.0429 7.64099 43.4578 6.34135 43.3779 6.25833C43.1556 6.02768 42.3665 5.95466 42.2046 6.14983ZM0 28.0187V28.8717H4.43381H8.86762V38.2547V47.6377H4.43381H0V48.4907V49.3437L4.68961 49.3433C9.16855 49.3429 9.39581 49.3327 9.74972 49.1168C9.95356 48.9925 10.2219 48.7241 10.3461 48.5202C10.567 48.1578 10.5721 47.928 10.5721 38.2547C10.5721 28.5814 10.567 28.3516 10.3461 27.9892C10.2219 27.7853 9.95356 27.5169 9.74972 27.3926C9.39581 27.1767 9.16855 27.1665 4.68961 27.1661L0 27.1657V28.0187ZM12.5814 29.4025C12.5397 29.4441 12.5056 29.8535 12.5056 30.3123V31.1463L15.2625 31.148C17.2501 31.1492 18.2117 31.195 18.7084 31.3123C19.0873 31.4017 20.5965 32.0211 22.0622 32.6887C23.5278 33.3564 25.0851 34.0629 25.5228 34.2589L26.3186 34.6152L30.6388 34.6721C34.8304 34.7272 34.9707 34.7363 35.3568 34.977C35.8926 35.311 36.1526 35.7874 36.1526 36.435C36.1526 37.0826 35.8926 37.5589 35.3568 37.8929C34.9664 38.1363 34.8671 38.1415 30.0987 38.1739L25.2386 38.207V39.0598V39.9127L30.3261 39.8786L35.4136 39.8445L42.178 36.9455L48.9424 34.0465L50.0793 34.0489C51.0517 34.0511 51.2985 34.0917 51.7846 34.3296C52.4059 34.6338 53.4758 35.6243 53.4068 35.8314C53.3495 36.0033 32.0109 47.347 30.9504 47.7692C29.8323 48.2145 28.5658 48.377 27.4922 48.2131C27.0343 48.1433 25.4063 47.6822 23.8744 47.1886C22.3424 46.695 19.8754 45.9004 18.3922 45.4229L15.6953 44.5547L14.1005 44.4865L12.5056 44.4183V45.3455V46.2729H13.8802H15.2549L20.5698 47.9813C23.4931 48.9209 26.2637 49.7701 26.727 49.8684C27.7388 50.0831 29.608 50.0283 30.6388 49.7535C31.5928 49.4993 32.6565 48.955 44.8497 42.4813C54.7902 37.2036 55.6477 36.7255 55.621 36.4773C55.6051 36.3288 55.4077 35.8309 55.1824 35.3706C54.0331 33.0228 51.3468 31.7391 48.8288 32.3346C48.4536 32.4233 45.9012 33.4461 43.1569 34.6076C40.4125 35.769 38.1301 36.7193 38.0849 36.7193C38.0398 36.7193 37.9694 36.4344 37.9285 36.0862C37.7905 34.9108 37.0081 33.8088 35.9366 33.2808C35.428 33.03 35.2951 33.0214 31.0935 32.9661L26.7734 32.9092L23.5901 31.4517C19.879 29.7526 19.3798 29.5696 18.0799 29.4328C16.953 29.3141 12.6932 29.2905 12.5814 29.4025ZM4.67369 43.8158C4.31194 44.0163 4.10173 44.4192 4.09673 44.9212C4.08865 45.752 4.9479 46.3275 5.71666 46.0062C6.23394 45.79 6.48075 45.4164 6.47768 44.8543C6.47245 43.9203 5.49758 43.359 4.67369 43.8158Z" fill="#F02801"/>
</svg>
