<svg width="40" height="40" viewBox="0 0 40 40" fill="none" xmlns="http://www.w3.org/2000/svg">
<path fill-rule="evenodd" clip-rule="evenodd" d="M9.20905 0.103762C8.11145 0.39977 7.27625 1.36242 7.09238 2.5434C7.04972 2.81737 7.02791 4.41478 7.04206 6.22052C7.06628 9.29649 7.07347 9.42863 7.23851 9.83349C7.58539 10.6842 8.14419 11.2401 9.00213 11.5882C9.39238 11.7465 9.55968 11.7548 12.8873 11.7805L16.3647 11.8074L17.7322 13.1605C19.1658 14.5791 19.3261 14.6871 19.9984 14.6871C20.6707 14.6871 20.831 14.5791 22.2646 13.1605L23.6321 11.8074L27.1095 11.7805C30.4379 11.7548 30.6044 11.7465 30.995 11.588C31.8243 11.2517 32.4308 10.6532 32.7513 9.85513C32.924 9.42495 32.9294 9.32837 32.9544 6.21068C32.9812 2.84613 32.9442 2.30413 32.6441 1.66562C32.3831 1.11041 31.8464 0.575749 31.2642 0.290916L30.7431 0.036012L28.6312 0.0110061C26.5717 -0.0132965 26.5139 -0.00978005 26.3064 0.153462C26.0147 0.382891 26.0115 0.780563 26.2995 1.0071C26.4951 1.16097 26.6018 1.16909 28.4289 1.16987C30.2906 1.17058 30.3652 1.17659 30.7523 1.35679C31.2159 1.5727 31.5307 1.94654 31.6874 2.46737C31.8253 2.92552 31.8487 8.58319 31.7153 9.20537C31.6163 9.66696 31.2221 10.1621 30.7543 10.4122C30.4371 10.5819 30.3588 10.5862 26.875 10.6245C24.0741 10.6552 23.278 10.6862 23.1241 10.7704C23.0167 10.829 22.3287 11.4708 21.5953 12.1965C20.4003 13.3787 20.2344 13.5158 19.9984 13.5158C19.7624 13.5158 19.5965 13.3787 18.4015 12.1965C17.6681 11.4708 16.9801 10.829 16.8727 10.7704C16.7188 10.6862 15.9227 10.6552 13.1218 10.6245C9.63806 10.5862 9.55968 10.5819 9.2425 10.4122C8.77473 10.1621 8.3805 9.66696 8.28149 9.20537C8.17912 8.72791 8.17232 2.97921 8.2736 2.54239C8.38659 2.05516 8.7341 1.62506 9.2096 1.38399L9.63337 1.16909H16.8781C23.84 1.16909 24.1298 1.16339 24.3033 1.02289C24.5542 0.819713 24.5542 0.34632 24.3033 0.143147C24.1296 0.00256662 23.8435 -0.00282528 16.8445 0.0021759C11.3368 0.00623936 9.47935 0.0309327 9.20905 0.103762ZM11.1842 2.48417C10.3105 2.79674 9.81084 3.47034 9.8124 4.3339C9.81295 4.65429 9.86444 4.9017 9.97517 5.11534C10.2611 5.66719 10.4833 5.81035 11.9696 6.40088C13.1307 6.86224 13.4375 7.25381 13.0368 7.76323C12.7979 8.0669 12.4806 8.20201 12.0065 8.20201C11.4555 8.20201 10.9477 8.02228 10.5593 7.68986C10.0139 7.22303 9.44903 7.37275 9.44903 7.98414C9.44903 8.21053 9.50873 8.31594 9.77153 8.55326C9.94884 8.71354 10.3269 8.95367 10.6116 9.08698C11.3194 9.41847 12.3101 9.47395 12.9842 9.21998C14.3414 8.70853 14.7937 7.1845 13.8818 6.1952C13.495 5.77557 13.3623 5.70048 12.1059 5.19106C10.9919 4.73931 10.8483 4.59522 11.0135 4.09447C11.2313 3.43471 12.2095 3.32851 13.0134 3.87731C13.4153 4.15175 13.7183 4.14847 13.9603 3.86708C14.2029 3.58506 14.1498 3.32445 13.783 2.99648C13.1724 2.45041 11.9514 2.20973 11.1842 2.48417ZM17.9145 2.4569C17.7269 2.58834 15.3098 8.53599 15.3098 8.86631C15.3098 9.29086 15.931 9.54334 16.2548 9.25038C16.33 9.18232 16.5037 8.84825 16.6409 8.50802L16.8902 7.88943H18.2366H19.583L19.8016 8.45597C20.0717 9.15645 20.2574 9.37416 20.5845 9.37416C20.8626 9.37416 21.1706 9.1041 21.1706 8.86021C21.1706 8.58686 18.7486 2.62225 18.579 2.478C18.3825 2.31077 18.1343 2.30295 17.9145 2.4569ZM22.5346 2.53309L22.3427 2.72485V5.84364C22.3427 8.88045 22.3469 8.96774 22.5047 9.16825L22.6666 9.37416H24.1066C25.4424 9.37416 25.5579 9.36283 25.7029 9.21787C25.9003 9.02048 25.9035 8.66485 25.71 8.42558C25.5692 8.25147 25.5032 8.23959 24.5378 8.21537L23.5149 8.18958V5.45722V2.72485L23.323 2.53309C23.2175 2.42759 23.0401 2.34125 22.9288 2.34125C22.8174 2.34125 22.64 2.42759 22.5346 2.53309ZM27.3629 2.43681C27.0491 2.5881 27.0208 2.91255 27.0463 6.06447C27.069 8.86724 27.0793 9.05518 27.2193 9.20975C27.3605 9.36572 27.4434 9.37416 28.8286 9.37416C30.4699 9.37416 30.5478 9.34876 30.5478 8.81356C30.5478 8.32391 30.3715 8.24499 29.2114 8.21537L28.2035 8.18958V7.33626V6.48285H29.1697C30.0289 6.48285 30.1588 6.46488 30.3419 6.32086C30.5765 6.13628 30.621 5.75354 30.4371 5.50145C30.3399 5.36829 30.1994 5.345 29.2845 5.3107L28.2425 5.27163L28.2204 4.39251L28.1983 3.5134H29.2168C30.131 3.5134 30.2512 3.49738 30.3915 3.35711C30.6242 3.1244 30.5999 2.70618 30.3419 2.50324C30.1517 2.35359 30.0373 2.34164 28.8376 2.34656C28.0735 2.34968 27.4667 2.3868 27.3629 2.43681ZM19.0607 6.65586C19.0607 6.68962 18.6772 6.71728 18.2086 6.71728H17.3565L17.7937 5.6221L18.2309 4.52692L18.6457 5.56068C18.874 6.12925 19.0607 6.6221 19.0607 6.65586ZM12.2748 17.1135C10.4672 17.3582 8.76918 18.6414 8.08441 20.2803C8.01549 20.4452 7.69534 21.4961 7.37292 22.6157C6.73894 24.8168 6.62876 25.0446 6.04284 25.3656C5.84318 25.475 5.18177 25.6321 4.13527 25.8188C2.15567 26.1719 1.78511 26.275 1.27303 26.6149C0.799875 26.9289 0.534109 27.2543 0.24279 27.8758L0.0327405 28.324L0.00906297 30.8165C-0.0130516 33.1481 -0.00422143 33.3424 0.145736 33.825C0.347893 34.4759 0.735563 35.0037 1.27397 35.3611C1.91225 35.7849 2.2789 35.8648 3.58507 35.8648H4.72917L4.82497 36.3287C4.95164 36.9419 5.44848 37.9153 5.8921 38.4193C6.35017 38.9398 7.19819 39.5023 7.91148 39.759C8.39667 39.9337 8.5986 39.9609 9.40996 39.9609C10.2213 39.9609 10.4232 39.9337 10.9084 39.759C12.4505 39.2041 13.6571 37.8618 13.9795 36.3426L14.0808 35.8648H17.4637H20.8467L21.0086 35.6589C21.2105 35.4022 21.2147 35.1552 21.0212 34.9162L20.8719 34.7317L17.4832 34.7098L14.0946 34.688L13.9589 34.1704C13.7293 33.295 13.3768 32.6807 12.7316 32.0316C11.7754 31.0695 10.7326 30.6292 9.40996 30.6292C8.07378 30.6292 7.08972 31.0387 6.1234 31.9967C5.43011 32.6841 5.01345 33.4094 4.83286 34.2433L4.73557 34.6927H3.63023C2.60405 34.6927 2.49653 34.6785 2.12769 34.4947C1.70345 34.2833 1.37126 33.8861 1.24217 33.4361C1.2002 33.2897 1.16582 32.5983 1.16582 31.8996V30.6292L1.69329 30.6276C2.95437 30.6239 3.79973 30.3437 4.41925 29.7241C5.00884 29.1346 5.30743 28.3232 5.30743 27.3108V26.8131L5.71768 26.7265C6.60297 26.5396 7.40871 25.9419 7.79427 25.1862C7.88061 25.0169 8.21796 23.9528 8.54405 22.8215C8.87007 21.6901 9.23343 20.5869 9.35151 20.3699C9.82529 19.4991 10.7535 18.7368 11.7152 18.4287C12.118 18.2996 12.5034 18.2574 13.5782 18.2243C14.8136 18.1863 14.9464 18.1685 15.0825 18.0225C15.2731 17.8178 15.2731 17.4916 15.0825 17.2558C14.9396 17.0792 14.8868 17.0707 13.8517 17.0589C13.2568 17.0521 12.5473 17.0766 12.2748 17.1135ZM17.1355 17.1203C16.9687 17.2044 16.7945 17.4952 16.7945 17.6896C16.7945 17.7462 16.8674 17.8852 16.9565 17.9985L17.1184 18.2044L20.3753 18.2059C22.1665 18.2068 23.8782 18.2419 24.1791 18.284C24.9669 18.3943 25.878 18.8609 26.479 19.4619C26.9167 19.8995 27.0562 20.1419 28.3308 22.6786C29.4639 24.9339 29.7735 25.4863 30.0709 25.7837C30.6084 26.3212 31.1209 26.5353 32.2625 26.6994L33.2348 26.8392L33.7863 28.0433C34.415 29.4162 34.7421 29.8438 35.4536 30.223C36.0139 30.5216 36.6469 30.6255 37.919 30.6276L38.8434 30.6292L38.8176 32.0553C38.7898 33.5993 38.76 33.7241 38.3108 34.178C37.8855 34.6077 37.577 34.6891 36.3695 34.6903L35.2755 34.6915L35.0978 34.0537C34.8602 33.2009 34.5371 32.6555 33.874 31.988C32.967 31.075 31.8886 30.6292 30.5869 30.6292C29.2894 30.6292 28.2258 31.0706 27.2997 31.9935C26.64 32.651 26.315 33.1968 26.0759 34.0493L25.8982 34.6829L24.4651 34.7073C23.0671 34.7311 23.0282 34.7363 22.8827 34.9162C22.6893 35.1553 22.6935 35.4023 22.8954 35.6589L23.0573 35.8648H24.4871H25.917L26.0062 36.3182C26.3535 38.0835 27.9588 39.6124 29.8021 39.9334C31.8359 40.2876 33.9136 39.2021 34.8193 37.3121C34.9637 37.0107 35.1237 36.5618 35.1748 36.3144L35.2676 35.8648H36.4117C37.1702 35.8648 37.6791 35.8277 37.9214 35.7548C38.8101 35.4873 39.5357 34.7636 39.8479 33.8331C40.006 33.3618 40.0158 33.2125 39.9842 31.7623C39.9549 30.4158 39.9259 30.1237 39.7744 29.6524C39.2584 28.0466 37.9426 26.6923 36.3898 26.1684C36.1106 26.0743 35.0455 25.8895 33.908 25.738C31.4835 25.4149 31.5823 25.4356 31.151 25.162C30.814 24.9483 30.7438 24.8284 29.4244 22.2133C27.9154 19.2226 27.5927 18.7358 26.6933 18.094C26.1177 17.6832 25.5536 17.4102 24.8824 17.2176C24.4758 17.1009 23.9414 17.08 20.858 17.0597C18.4298 17.0436 17.2496 17.0629 17.1355 17.1203ZM11.7543 19.6838C11.5394 19.809 11.2863 20.0284 11.1919 20.1714C10.9424 20.5496 9.8403 24.2514 9.83998 24.7123C9.83952 25.4656 10.3473 26.1658 11.0443 26.3727C11.5938 26.536 25.8911 26.5391 26.3477 26.3761C27.084 26.1134 27.5398 25.4633 27.5298 24.6903C27.5249 24.31 27.4184 24.0357 26.6048 22.3069C26.0991 21.2324 25.5899 20.2317 25.4731 20.0829C25.3563 19.9341 25.1086 19.7319 24.9225 19.6335L24.5843 19.4547L18.3647 19.4554L12.145 19.4562L11.7543 19.6838ZM18.2011 22.9711V25.3154H14.8124C11.5025 25.3154 11.4189 25.3117 11.2178 25.1534C11.0779 25.0434 11.0119 24.9171 11.0119 24.7592C11.0119 24.4186 12.073 20.949 12.2304 20.7751C12.3576 20.6346 12.5164 20.6268 15.2828 20.6268H18.2011V22.9711ZM24.4731 20.7245C24.5796 20.8055 26.0975 23.8984 26.3401 24.5288C26.4399 24.7883 26.2914 25.123 26.0283 25.2317C25.8855 25.2907 24.8132 25.3112 22.6162 25.297L19.4123 25.2764L19.3916 22.9516L19.3709 20.6268H21.8578C23.7266 20.6268 24.3765 20.6511 24.4731 20.7245ZM4.13527 27.4111C4.13527 28.0036 3.94476 28.5235 3.61015 28.8442C3.14559 29.2893 2.88678 29.3831 1.98117 29.4344L1.16582 29.4806L1.16629 29.1367C1.16692 28.6111 1.30437 28.2268 1.61444 27.8835C1.99195 27.4658 2.21341 27.3633 3.10527 27.1938C4.19967 26.9858 4.13527 26.9722 4.13527 27.4111ZM35.9816 27.2756C36.805 27.5299 37.6472 28.1738 38.1592 28.9405C38.5122 29.4691 38.4908 29.4831 37.3966 29.4409C35.8808 29.3826 35.5657 29.1678 34.9471 27.772L34.6123 27.0167L35.0583 27.0724C35.3036 27.1031 35.7191 27.1945 35.9816 27.2756ZM19.0181 27.8516C18.9126 27.9571 18.8263 28.1345 18.8263 28.2458C18.8263 28.3572 18.9126 28.5346 19.0181 28.6401C19.2072 28.8292 19.2292 28.8319 20.5845 28.8319C21.9397 28.8319 21.9618 28.8292 22.1509 28.6401C22.2564 28.5346 22.3427 28.3572 22.3427 28.2458C22.3427 28.1345 22.2564 27.9571 22.1509 27.8516C21.9618 27.6625 21.9397 27.6597 20.5845 27.6597C19.2292 27.6597 19.2072 27.6625 19.0181 27.8516ZM10.505 31.9579C12.9896 32.8128 13.7418 35.9311 11.9063 37.7666C10.4936 39.1793 8.32033 39.1801 6.90351 37.7686C5.07292 35.9447 5.81075 32.8488 8.28837 31.9575C8.87085 31.7479 9.89515 31.7481 10.505 31.9579ZM32.0716 32.1108C33.487 32.7943 34.3255 34.3567 34.0689 35.8325C33.7082 37.9075 31.7149 39.2315 29.73 38.7145C27.9732 38.2569 26.8146 36.5191 27.1077 34.7812C27.3313 33.4556 28.1908 32.4245 29.4653 31.9533C29.8051 31.8275 30.0374 31.8031 30.7041 31.8226C31.4505 31.8445 31.574 31.8705 32.0716 32.1108ZM8.64439 33.0815C7.86241 33.3728 7.34807 33.9497 7.13755 34.7713C6.86905 35.8193 7.37362 36.879 8.3941 37.4101C8.93219 37.6902 9.77294 37.7014 10.3654 37.4364C11.2003 37.0629 11.7289 36.2357 11.7289 35.3027C11.7289 34.369 11.2548 33.6143 10.3868 33.1664C10.0249 32.9797 9.04581 32.932 8.64439 33.0815ZM29.8209 33.0816C28.8461 33.4447 28.2679 34.2774 28.2679 35.3178C28.2679 37.3863 30.7524 38.4022 32.2429 36.9433C33.3316 35.8776 33.0714 34.0141 31.7288 33.2608C31.3847 33.0676 31.1996 33.0197 30.713 32.9978C30.3295 32.9805 30.0123 33.0103 29.8209 33.0816ZM10.2023 34.4717C10.6981 34.9675 10.6903 35.6728 10.1839 36.1504C9.55695 36.7417 8.6322 36.5083 8.3154 35.6789C8.21101 35.4055 8.20272 35.2831 8.27196 35.0364C8.37831 34.6578 8.47997 34.5239 8.82529 34.3075C9.04011 34.1728 9.18491 34.1435 9.51327 34.1678C9.86319 34.1936 9.97236 34.2418 10.2023 34.4717ZM31.2694 34.3462C31.7499 34.7039 31.8902 35.2698 31.6257 35.7821C31.3734 36.2707 31.0971 36.4509 30.6007 36.4509C29.905 36.4509 29.4241 35.9548 29.4348 35.248C29.4407 34.8587 29.605 34.5911 30.008 34.3145C30.2235 34.1666 30.3498 34.1378 30.6705 34.1635C30.8965 34.1816 31.1537 34.2601 31.2694 34.3462Z" fill="#161921"/>
</svg>
