<svg width="40" height="40" viewBox="0 0 40 40" fill="none" xmlns="http://www.w3.org/2000/svg">
<path fill-rule="evenodd" clip-rule="evenodd" d="M9.97539 0.0525974C8.76903 0.2164 7.32353 0.662849 6.21651 1.21352C4.13974 2.24661 2.12795 4.29535 1.13035 6.39319C0.366097 8.00009 0.0651421 9.32615 0.0597467 11.1098C0.0553827 12.5748 0.125444 12.9363 0.782975 14.8405C1.12138 15.8204 1.23675 16.276 1.28372 16.8175C1.40575 18.2261 2.11756 19.0558 3.42817 19.3171L3.86457 19.4041L3.92162 19.8533C4.21781 22.1874 5.963 24.4848 8.20854 25.4967L8.90154 25.809L8.90225 26.7577L8.90297 27.7063L6.78446 28.6342C4.36643 29.6932 3.54743 30.179 2.59085 31.1216C1.46169 32.2342 0.706248 33.5466 0.273898 35.1466C0.0914846 35.8219 0.0681572 36.0765 0.0357845 37.7476L0 39.6001L0.202885 39.8L0.405849 40H10.4899H20.5739L20.7686 39.8081C21.0263 39.5542 21.0263 39.1948 20.7686 38.941L20.5739 38.749H17.2869H13.9998L13.9615 37.2439C13.9274 35.9084 13.8996 35.6615 13.7136 35.0522C13.5984 34.6745 13.3591 34.0812 13.1818 33.7337L12.8594 33.1019L13.1278 32.704L13.3961 32.3062L13.9078 32.3009C14.8635 32.2909 15.3444 31.8271 15.5381 30.7286C15.6057 30.345 15.6742 29.9884 15.6902 29.9363C15.7099 29.8723 15.9854 29.9573 16.5363 30.1972C17.6242 30.6709 18.0656 30.9254 18.8357 31.5234C19.5639 32.0887 19.8138 32.1484 20.1338 31.833C20.4198 31.5512 20.3827 31.2975 19.9954 30.8832C19.3831 30.2287 18.283 29.5953 16.0638 28.6195L13.981 27.7037L13.9811 26.7563L13.9812 25.809L14.5621 25.5517C15.7129 25.0418 16.7432 24.2406 17.4785 23.2837C18.227 22.3094 18.8266 20.9235 18.9624 19.8533L19.0194 19.4041L19.458 19.3175C20.7117 19.0701 21.488 18.1986 21.573 16.9434C21.6028 16.5025 21.7432 15.9534 22.1147 14.8237C22.7981 12.7457 22.8287 12.5827 22.8198 11.0707C22.8139 10.0732 22.7744 9.60895 22.6453 9.02356C22.1373 6.71892 21.1442 4.90818 19.4993 3.28736C17.8378 1.65004 15.8519 0.602097 13.5784 0.162998C12.7813 0.00904716 10.7535 -0.0531117 9.97539 0.0525974ZM13.5843 1.44542C16.1925 2.03136 18.4228 3.53724 19.9079 5.71491C20.8773 7.13651 21.4612 8.87039 21.5684 10.6459C21.6366 11.7756 21.5181 12.5552 21.0734 13.9007L20.7195 14.9714L20.4527 14.7931C20.3059 14.6949 20.0752 14.5695 19.9399 14.5143L19.6939 14.4138V11.7614V9.10894L19.4991 8.91707C19.2376 8.65937 19.034 8.67446 18.3063 9.00581C16.1495 9.98777 13.9312 10.4566 11.442 10.4566C9.02928 10.4566 6.94997 10.033 4.85638 9.11488C3.86727 8.6811 3.6547 8.65116 3.39302 8.90902L3.19014 9.10894V11.7672V14.4254L2.81619 14.5885C2.61045 14.6781 2.3813 14.8058 2.30687 14.8721C2.18119 14.9842 2.14636 14.9165 1.81422 13.9114C1.366 12.5554 1.24722 11.7776 1.31562 10.6459C1.50549 7.50149 3.16348 4.66259 5.84819 2.88477C7.06487 2.07913 8.82521 1.43972 10.2915 1.27091C10.9778 1.19186 12.9118 1.29437 13.5843 1.44542ZM36.1579 6.54737C36.0706 6.59413 34.8871 7.72393 33.5279 9.05804L31.0565 11.4838L30.8138 11.3135C30.0171 10.7545 29.0555 10.6466 28.2198 11.0227C27.815 11.2048 27.4204 11.5563 25.4626 13.4791C22.7579 16.1351 22.6729 16.2549 22.7213 17.3402C22.7679 18.3862 22.836 18.4815 25.2011 20.8122C27.5663 23.1428 27.663 23.2098 28.7245 23.2558C29.8258 23.3035 29.9474 23.2197 32.6428 20.5545C34.5941 18.6252 34.9512 18.236 35.1388 17.8339C35.5203 17.0166 35.4096 16.069 34.8406 15.2816L34.6679 15.0426L36.024 13.7017C36.7698 12.9642 37.4175 12.2618 37.4633 12.1407C37.509 12.0197 37.5465 11.7256 37.5465 11.4873C37.5465 11.1054 37.563 11.0607 37.6853 11.1101C37.7616 11.141 37.9744 11.1843 38.1579 11.2065C38.4799 11.2453 38.5102 11.2291 39.0189 10.7482C39.3088 10.4741 39.596 10.1548 39.657 10.0387C39.7406 9.87987 39.7681 9.46657 39.7681 8.37117V6.91477L39.5362 6.68623L39.3043 6.45769L37.8104 6.46004C36.8904 6.46152 36.2557 6.49507 36.1579 6.54737ZM38.4986 8.59322C38.4986 9.469 38.4963 9.47986 38.2664 9.69699L38.0342 9.91615L37.5369 9.7507C36.9084 9.54147 36.6904 9.54241 36.4605 9.75516C36.29 9.9131 36.2769 9.98699 36.2769 10.7921V11.6589L35.0072 12.9084L33.7374 14.1578L32.8455 13.2789L31.9536 12.4L34.333 10.0543L36.7123 7.70869H37.6055H38.4986V8.59322ZM5.77813 10.8041C7.66447 11.4352 9.34984 11.7026 11.442 11.7026C13.5597 11.7026 15.0579 11.469 16.9961 10.8368C17.6289 10.6304 18.2091 10.4365 18.2855 10.4059C18.4159 10.3537 18.4243 10.4967 18.4243 12.7738C18.4243 15.5826 18.403 15.498 19.1412 15.613C19.6007 15.6846 19.8626 15.8363 20.1253 16.183C20.3547 16.4857 20.3547 17.2274 20.1253 17.5302C19.7953 17.9658 19.5837 18.0583 18.8131 18.1041C17.8988 18.1585 17.8338 18.2225 17.7652 19.1373C17.6814 20.2571 17.3562 21.2237 16.7615 22.1214C14.8691 24.9781 11.0639 25.8274 8.12983 24.0481C6.36385 22.9772 5.27318 21.1984 5.11877 19.1373C5.05022 18.2225 4.98524 18.1585 4.07095 18.1041C3.30035 18.0583 3.08866 17.9658 2.75866 17.5302C2.52928 17.2274 2.52928 16.4857 2.75866 16.183C3.02137 15.8363 3.28329 15.6846 3.74278 15.613C4.481 15.498 4.45966 15.5826 4.45966 12.7738C4.45966 10.4977 4.46807 10.3535 4.59851 10.4031C4.67492 10.4322 5.20574 10.6126 5.77813 10.8041ZM29.85 12.2081C29.9591 12.2643 30.9288 13.1836 32.0049 14.2511C34.145 16.3742 34.2196 16.4791 34.0481 17.1277C33.9778 17.3935 33.6198 17.7845 31.7685 19.6178C30.5605 20.814 29.4759 21.8431 29.3581 21.9048C29.0832 22.0486 28.4754 22.0489 28.1996 21.9055C27.8271 21.7115 24.0745 17.9348 24.014 17.6929C23.9838 17.5722 23.9765 17.2957 23.9977 17.0782L24.0363 16.6827L26.3359 14.4166C28.7458 12.0419 28.8449 11.9661 29.4136 12.0647C29.5445 12.0874 29.7409 12.1519 29.85 12.2081ZM8.463 15.172C8.29281 15.3397 8.26821 15.434 8.26821 15.9183C8.26821 16.4027 8.29281 16.497 8.463 16.6646C8.58575 16.7857 8.7484 16.8566 8.90297 16.8566C9.05753 16.8566 9.22019 16.7857 9.34293 16.6646C9.51313 16.497 9.53773 16.4027 9.53773 15.9183C9.53773 15.434 9.51313 15.3397 9.34293 15.172C9.22019 15.051 9.05753 14.9801 8.90297 14.9801C8.7484 14.9801 8.58575 15.051 8.463 15.172ZM13.5411 15.172C13.3709 15.3397 13.3463 15.434 13.3463 15.9183C13.3463 16.4027 13.3709 16.497 13.5411 16.6646C13.6638 16.7857 13.8265 16.8566 13.981 16.8566C14.1356 16.8566 14.2983 16.7857 14.421 16.6646C14.5912 16.497 14.6158 16.4027 14.6158 15.9183C14.6158 15.434 14.5912 15.3397 14.421 15.172C14.2983 15.051 14.1356 14.9801 13.981 14.9801C13.8265 14.9801 13.6638 15.051 13.5411 15.172ZM31.9491 15.7975C31.5554 16.1854 31.8343 16.8566 32.389 16.8566C32.7152 16.8566 33.0238 16.5525 33.0238 16.2311C33.0238 15.9097 32.7152 15.6056 32.389 15.6056C32.2345 15.6056 32.0718 15.6765 31.9491 15.7975ZM26.1208 15.7757C25.7245 15.8866 25.3518 16.19 25.1622 16.5562C24.9591 16.9485 24.9455 17.5994 25.1328 17.9639C25.3089 18.3063 27.7464 20.7061 28.1044 20.8894C28.5372 21.1109 29.1764 21.0836 29.6252 20.8244C30.0615 20.5725 30.4054 19.982 30.4054 19.4852C30.4054 18.9346 30.151 18.5893 28.7197 17.1968C27.5054 16.0155 27.3085 15.8547 26.9783 15.7744C26.5501 15.6702 26.4971 15.6703 26.1208 15.7757ZM30.6796 17.0485C30.2859 17.4363 30.5648 18.1076 31.1195 18.1076C31.4457 18.1076 31.7543 17.8035 31.7543 17.4821C31.7543 17.1607 31.4457 16.8566 31.1195 16.8566C30.965 16.8566 30.8023 16.9275 30.6796 17.0485ZM27.8985 18.1783C29.1926 19.4553 29.2584 19.5594 28.895 19.751C28.7389 19.8333 28.6213 19.7399 27.502 18.6452C26.7012 17.862 26.2795 17.3931 26.2795 17.286C26.2795 17.1105 26.4169 16.9348 26.5542 16.9348C26.6005 16.9348 27.2054 17.4944 27.8985 18.1783ZM25.6817 24.4709C25.5942 24.5314 25.175 25.359 24.7353 26.3398L23.9459 28.1004L22.9843 28.1275C22.0979 28.1525 21.9976 28.1711 21.7012 28.3644C21.0487 28.7901 20.8029 29.573 21.1084 30.2534C21.1986 30.4544 21.3826 30.7179 21.5171 30.8391L21.7618 31.0593L21.5981 31.2644C21.5082 31.3771 21.3374 31.6735 21.2188 31.9231L21.0031 32.3767L20.9779 34.7085C20.9505 37.2509 20.967 37.3588 21.4008 37.4662L21.5981 37.515V38.5656C21.5981 39.5768 21.6054 39.6234 21.7929 39.8081L21.9876 40H24.1372H26.2867L26.4814 39.8081C26.6691 39.6232 26.6762 39.5773 26.6762 38.5571V37.498H30.4848H34.2933V38.5571C34.2933 39.5773 34.3005 39.6232 34.4881 39.8081L34.6828 40H36.8324H38.9819L39.1766 39.8081C39.3641 39.6234 39.3714 39.5768 39.3714 38.5656V37.515L39.5687 37.4662C40.0026 37.3588 40.0191 37.2509 39.9916 34.7085L39.9665 32.3767L39.7507 31.9231C39.6321 31.6735 39.4628 31.3788 39.3745 31.2682L39.2139 31.0671L39.52 30.7655C40.2398 30.0561 40.1208 28.9205 39.2683 28.3644C38.9719 28.1711 38.8716 28.1525 37.9852 28.1275L37.0237 28.1004L36.2343 26.3398C35.7945 25.359 35.3753 24.5314 35.2878 24.4709C35.0547 24.31 25.9148 24.31 25.6817 24.4709ZM35.4741 27.7442C36.0034 28.916 36.4363 29.9011 36.4361 29.9334C36.4359 29.9657 33.7577 29.992 30.4848 29.992C27.2118 29.992 24.5337 29.9657 24.5334 29.9334C24.5332 29.9011 24.9661 28.916 25.4954 27.7442L26.4579 25.6136H30.4848H34.5117L35.4741 27.7442ZM12.7115 27.0227V27.8456L12.0768 28.4674L11.442 29.0892L10.8072 28.4674L10.1725 27.8456V27.0227V26.2H11.442H12.7115V27.0227ZM9.95468 29.4254L10.4865 29.9534L9.76243 30.52C9.3642 30.8317 8.99897 31.0861 8.95081 31.0855C8.73158 31.0824 8.64843 30.901 8.51815 30.1416L8.37842 29.3274L8.81926 29.1192C9.06166 29.0046 9.29668 28.9078 9.34151 28.9041C9.38634 28.9005 9.66222 29.135 9.95468 29.4254ZM14.0271 29.0988L14.5097 29.3006L14.3774 30.0725C14.2476 30.8298 14.1377 31.0867 13.9436 31.0867C13.89 31.0867 13.5212 30.8316 13.1241 30.5198L12.4021 29.9529L12.9315 29.4252C13.2227 29.135 13.4798 28.8973 13.5028 28.8972C13.5258 28.8971 13.7618 28.9878 14.0271 29.0988ZM23.3437 29.403C23.3437 29.423 23.2836 29.5637 23.21 29.7157C23.089 29.9659 23.0454 29.992 22.7498 29.992C22.4059 29.992 22.2329 29.8873 22.2329 29.6793C22.2329 29.4544 22.4157 29.3665 22.8835 29.3665C23.1366 29.3665 23.3437 29.383 23.3437 29.403ZM38.6883 29.5425C38.8341 29.7713 38.6537 29.9495 38.2491 29.9761C37.9144 29.9981 37.8899 29.9853 37.7612 29.7193C37.6867 29.5654 37.6258 29.4214 37.6258 29.3992C37.6258 29.3772 37.8453 29.3696 38.1135 29.3823C38.474 29.3995 38.6239 29.4413 38.6883 29.5425ZM7.3444 30.7662C7.54125 31.8246 8.03724 32.2911 8.9762 32.3009L9.4879 32.3062L9.75624 32.704L10.0246 33.1019L9.70221 33.7337C9.52487 34.0812 9.28557 34.6745 9.17036 35.0522C8.98446 35.6615 8.9566 35.9084 8.92249 37.2439L8.88416 38.749H5.07513H1.26619L1.30879 37.3612C1.35838 35.744 1.49264 35.1278 2.0371 34.0187C2.44858 33.1804 2.98091 32.4692 3.67557 31.8294C4.37714 31.1834 4.95889 30.8194 6.12249 30.2985C7.26251 29.7881 7.15476 29.7468 7.3444 30.7662ZM11.956 31.1924L12.3799 31.5327L12.0594 32.0134C11.7614 32.4602 11.718 32.494 11.442 32.494C11.166 32.494 11.1226 32.4602 10.8248 32.0136L10.5044 31.5333L10.9137 31.1967C11.1388 31.0116 11.37 30.8584 11.4275 30.8561C11.485 30.8539 11.7228 31.0053 11.956 31.1924ZM37.4182 31.3381C37.8541 31.465 38.5114 32.1127 38.6401 32.5422C38.7028 32.7514 38.7366 33.456 38.7366 34.5555V36.247H30.4848H22.2329V34.5555C22.2329 33.456 22.2667 32.7514 22.3294 32.5422C22.4488 32.1439 23.113 31.4662 23.5024 31.3452C23.9185 31.2161 36.9759 31.2093 37.4182 31.3381ZM23.0625 32.686C22.8728 32.8728 22.8677 32.9093 22.8677 34.0578C22.8677 35.2063 22.8728 35.2428 23.0625 35.4296L23.2572 35.6215H25.0893H26.9215L27.1162 35.4296C27.2995 35.2489 27.311 35.187 27.311 34.3705C27.311 33.1724 27.3991 33.2385 25.248 32.8232C24.3098 32.6421 23.478 32.4939 23.3997 32.4939C23.3213 32.494 23.1696 32.5804 23.0625 32.686ZM35.6062 32.8453C34.226 33.1239 33.9194 33.2105 33.8011 33.3544C33.6834 33.4976 33.6586 33.6767 33.6586 34.3827C33.6586 35.1862 33.6703 35.2493 33.8534 35.4296L34.0481 35.6215H35.8802H37.7124L37.9071 35.4296C38.0967 35.2428 38.1019 35.2063 38.1019 34.0578C38.1019 32.9093 38.0967 32.8728 37.9071 32.686C37.7864 32.567 37.6281 32.497 37.4905 32.5019C37.3686 32.5061 36.5206 32.6607 35.6062 32.8453ZM12.0822 34.3499C12.5492 35.2544 12.6564 35.7822 12.6939 37.3612L12.7269 38.749H11.4497H10.1725V37.5729C10.1725 35.9755 10.3831 35.0119 10.9376 34.0731C11.1264 33.7533 11.1526 33.7378 11.4633 33.7603C11.7826 33.7836 11.7969 33.7972 12.0822 34.3499ZM25.3075 34.106C25.7111 34.1822 26.0415 34.2729 26.0415 34.3075C26.0415 34.3421 25.613 34.3705 25.0893 34.3705H24.1372V34.1262C24.1372 33.9014 24.1546 33.8853 24.3554 33.9247C24.4753 33.9482 24.9039 34.0299 25.3075 34.106ZM36.8324 34.136V34.3705H35.8802C35.3565 34.3705 34.9281 34.3439 34.9281 34.3113C34.9281 34.2636 36.3407 33.9506 36.7332 33.9113C36.7927 33.9054 36.8324 33.9951 36.8324 34.136ZM25.4067 38.1235V38.749H24.1372H22.8677V38.1235V37.498H24.1372H25.4067V38.1235ZM38.1019 38.1235V38.749H36.8324H35.5628V38.1235V37.498H36.8324H38.1019V38.1235Z" fill="#161921"/>
</svg>
