<svg width="40" height="50" viewBox="0 0 40 50" fill="none" xmlns="http://www.w3.org/2000/svg">
<path fill-rule="evenodd" clip-rule="evenodd" d="M7.60848 0.155783C6.7223 0.473563 6.07225 1.16969 5.80462 2.08737C5.72711 2.35328 5.66919 2.95973 5.66919 3.50571V4.45944L3.89476 4.49148C1.86567 4.52811 1.55867 4.61486 0.842744 5.35387C0.0605756 6.16126 -0.130117 7.11636 0.0787456 9.18149C0.438079 12.7352 1.6127 15.4822 3.60082 17.4181C4.63557 18.4256 5.8984 19.2063 7.09138 19.576C7.47731 19.6956 7.54658 19.7649 7.78743 20.2731C8.56411 21.9116 9.88173 23.9033 11.1578 25.3676C11.8835 26.2003 13.268 27.475 14.3284 28.2867C15.2868 29.0203 15.5361 29.2839 15.8107 29.8541C16.0259 30.3009 16.0326 30.3944 16.0615 33.3481L16.0911 36.3829L15.3815 36.7449C14.254 37.3202 13.5552 38.28 13.325 39.5697L13.2114 40.2061L12.3976 40.2483C11.4188 40.2991 10.8721 40.5238 10.3064 41.1077C9.51237 41.9273 9.50574 41.9651 9.47385 45.8633L9.44565 49.3001L9.72624 49.6243L10.0069 49.9485L19.8066 49.9743L29.6063 50L29.9168 49.7136L30.2273 49.4272V45.9269C30.2273 42.5516 30.22 42.4103 30.0239 41.9724C29.9121 41.7226 29.6416 41.3335 29.4229 41.1077C28.8582 40.5248 28.3101 40.2991 27.3368 40.2486L26.5282 40.2066L26.4103 39.5645C26.17 38.257 25.4196 37.2638 24.2355 36.686L23.6381 36.3945L23.6677 33.3538C23.6966 30.3941 23.7033 30.301 23.9186 29.8541C24.1931 29.284 24.4423 29.0204 25.4008 28.2865C28.1528 26.1793 30.3129 23.5659 31.8069 20.5363C32.1934 19.7525 32.2369 19.7024 32.6405 19.5763C33.8473 19.1992 35.1779 18.3723 36.1724 17.3812C38.1448 15.4159 39.294 12.7067 39.6505 9.18149C39.8594 7.11636 39.6687 6.16126 38.8865 5.35387C38.1713 4.61564 37.8624 4.52811 35.8442 4.49157L34.0796 4.45973L34.0425 3.31932C34.0136 2.42567 33.9624 2.08073 33.8058 1.72485C33.5514 1.14663 32.9355 0.509317 32.3707 0.239795L31.9307 0.0298629L20.0066 0.00788307C8.88947 -0.0126314 8.05033 -0.00266725 7.60848 0.155783ZM31.8576 2.25461L32.12 2.5256L32.1175 7.67631C32.1146 13.3314 32.0972 13.5617 31.4973 15.8944C31.0022 17.8193 30.0384 20.0426 29.0155 21.6189C27.8316 23.4437 26.0585 25.3411 24.2142 26.7567C23.0651 27.6388 22.672 28.0683 22.2838 28.8661C21.7922 29.8766 21.7573 30.2191 21.7573 34.0443V37.5878L22.0176 37.8835C22.2185 38.1118 22.4074 38.2029 22.8457 38.2829C23.7636 38.4505 24.4092 39.0478 24.5529 39.8622L24.6175 40.2285H19.8646H15.1117L15.1763 39.8622C15.3197 39.0498 16.0054 38.407 16.8369 38.3054C17.1967 38.2613 17.4232 38.1671 17.6323 37.9744L17.9246 37.7049L17.9516 34.1227C17.981 30.2349 17.9489 29.901 17.4471 28.8697C17.0571 28.0681 16.6654 27.6397 15.515 26.7567C13.6697 25.3402 11.8915 23.437 10.7146 21.6189C9.70997 20.067 8.71563 17.776 8.2344 15.9042C7.63176 13.5605 7.61463 13.3338 7.61179 7.68442C7.60933 2.67731 7.61425 2.53596 7.79851 2.32446C7.90261 2.20489 8.07295 2.07086 8.17705 2.02651C8.28115 1.98226 13.5928 1.95442 19.9807 1.96477L31.5953 1.98363L31.8576 2.25461ZM19.6754 5.91333C19.1776 6.05693 19.0699 6.21655 18.1444 8.18321C17.6258 9.28523 17.187 10.2018 17.1692 10.2202C17.1515 10.2386 16.2708 10.3806 15.2122 10.5359C14.1535 10.6913 13.1324 10.864 12.9429 10.9197C12.523 11.0434 12.2937 11.379 12.2937 11.8703C12.2937 12.2175 12.3872 12.3352 13.8953 13.8849L15.4969 15.5306L15.1322 17.7397C14.807 19.7101 14.7813 19.9827 14.8949 20.2631C14.9649 20.436 15.1081 20.625 15.2133 20.6831C15.6686 20.9346 16.0389 20.8109 17.947 19.769L19.8143 18.7495L21.7193 19.769C23.8192 20.8929 24.1353 20.9805 24.5496 20.5528C24.6752 20.423 24.8025 20.2143 24.8324 20.0888C24.8624 19.9632 24.7236 18.8841 24.5242 17.6905L24.1617 15.5205L25.743 13.8903C26.7562 12.8458 27.3412 12.169 27.3713 12.0063C27.4445 11.611 27.2047 11.1387 26.8492 10.9782C26.6772 10.9005 25.7486 10.7227 24.7857 10.5831C23.8228 10.4436 22.9162 10.305 22.7709 10.2752C22.5354 10.2268 22.401 10.0024 21.5205 8.18614C20.9778 7.06693 20.4884 6.12228 20.4328 6.08672C20.2498 5.96999 19.82 5.87162 19.6754 5.91333ZM5.66919 9.04902C5.66919 12.5486 5.87843 14.5872 6.43631 16.5241C6.5423 16.8919 6.61035 17.212 6.58754 17.2356C6.49726 17.3288 5.11358 16.277 4.61078 15.7328C2.95039 13.936 1.98169 11.1548 1.94384 8.07614C1.93257 7.16423 1.95415 7.01076 2.12033 6.81909C2.41919 6.47435 2.59683 6.44124 4.17867 6.43459L5.66919 6.42844V9.04902ZM37.536 6.74925C37.7918 7.01447 37.7979 7.0468 37.7854 8.06804C37.7478 11.1546 36.7808 13.9339 35.1185 15.7328C34.6157 16.277 33.232 17.3288 33.1417 17.2356C33.1189 17.212 33.1869 16.8919 33.2929 16.5241C33.8511 14.5861 34.0601 12.5487 34.0601 9.04257V6.41554L35.667 6.44641L37.2739 6.47728L37.536 6.74925ZM20.5271 10.5096C20.8664 11.1901 21.2483 11.8211 21.3788 11.9173C21.5721 12.0598 23.7257 12.4743 24.3414 12.4875C24.4036 12.4889 23.954 12.9889 23.3425 13.5987C22.0547 14.8827 22.1064 14.7153 22.4198 16.588C22.5232 17.2059 22.6081 17.7873 22.6084 17.8801C22.609 18.0143 22.3498 17.9089 21.3471 17.3673C20.6529 16.9924 19.9663 16.6857 19.821 16.6857C19.6757 16.6857 18.9873 16.9963 18.2912 17.376C17.5951 17.7557 17.0255 18.0206 17.0255 17.9648C17.0255 17.909 17.131 17.2428 17.2599 16.4844C17.4647 15.2786 17.4783 15.0665 17.3674 14.7965C17.2976 14.6266 16.8065 14.0544 16.2758 13.5246C15.7452 12.9949 15.3272 12.545 15.3468 12.5248C15.3664 12.5045 15.9969 12.3961 16.7482 12.2838C17.4993 12.1715 18.2053 12.019 18.3169 11.9449C18.4286 11.8707 18.8022 11.2084 19.1473 10.473C19.4923 9.73763 19.8055 9.16752 19.8432 9.20601C19.8811 9.24459 20.1888 9.83121 20.5271 10.5096ZM28.0722 42.5018L28.3346 42.7725L28.3626 45.4081L28.3906 48.0436H19.8646H11.3387L11.3667 45.4161C11.393 42.9484 11.4062 42.7754 11.584 42.5716C11.6881 42.4522 11.8584 42.3183 11.9625 42.2737C12.0666 42.2293 15.6748 42.2016 19.9808 42.212L27.8098 42.2312L28.0722 42.5018ZM15.7373 44.2318C15.4394 44.3561 15.1328 44.8089 15.1328 45.1246C15.1328 45.2941 15.2408 45.5277 15.4088 45.7219L15.6847 46.041L17.9098 46.0704L20.1348 46.0998L20.4471 45.8117C20.7066 45.5724 20.7594 45.4543 20.7594 45.113C20.7594 44.773 20.7064 44.6534 20.4524 44.4192L20.1455 44.1361L18.0414 44.1422C16.8841 44.1456 15.8473 44.186 15.7373 44.2318ZM23.3082 44.2318C23.0103 44.3561 22.7037 44.8089 22.7037 45.1246C22.7037 45.5156 23.1387 45.9849 23.5661 46.055C23.8543 46.1022 23.958 46.0649 24.2264 45.8174C24.4922 45.5722 24.5449 45.4559 24.5449 45.113C24.5449 44.773 24.4919 44.6534 24.2379 44.4192C23.927 44.1324 23.6706 44.0807 23.3082 44.2318Z" fill="#F02801"/>
</svg>
