<svg width="40" height="40" viewBox="0 0 40 40" fill="none" xmlns="http://www.w3.org/2000/svg">
<path fill-rule="evenodd" clip-rule="evenodd" d="M13.5094 0.0515015C12.5285 0.173238 11.4623 0.512629 10.4646 1.02074C7.64112 2.45839 5.77209 5.25478 5.51374 8.42764C5.37543 10.1268 5.66306 11.7211 6.38365 13.2484C8.53213 17.8024 13.9327 19.7629 18.409 17.6139C21.4768 16.141 23.4777 13.1387 23.6603 9.73475C23.877 5.69322 21.4427 1.94291 17.7037 0.558089C16.4715 0.101788 14.7653 -0.104352 13.5094 0.0515015ZM15.6783 1.82981C18.4058 2.2762 20.6866 4.21494 21.5639 6.83253C22.0251 8.20863 22.0572 10.0784 21.6422 11.3906C20.7503 14.2107 18.53 16.1849 15.7359 16.6423C14.877 16.7829 13.4084 16.703 12.6055 16.4721C7.94761 15.1326 5.79403 9.78994 8.17901 5.49106C8.65835 4.62705 9.89772 3.3428 10.7328 2.84476C12.2729 1.92623 14.0455 1.56246 15.6783 1.82981ZM12.8003 20.672C9.19899 21.2105 6.29013 22.73 3.97155 25.2839C1.6116 27.8833 0.176686 31.4099 0.0218585 34.9912C-0.0188505 35.9329 -0.00516962 36.2477 0.0838397 36.4164C0.339272 36.9009 -0.322584 36.8757 12.0547 36.8709L23.4495 36.8665L23.9534 37.34C25.0036 38.3267 26.289 39.1051 27.5657 39.5276C31.7891 40.9253 36.4776 39.1366 38.6902 35.2837C40.884 31.4633 40.2773 26.6819 37.2051 23.5806C36.0183 22.3825 34.4927 21.4962 32.886 21.0713C31.7758 20.7777 29.981 20.7045 28.9109 20.9093C27.0038 21.2742 25.4577 22.0476 24.0791 23.3261L23.6182 23.7536L22.9225 23.243C22.0655 22.614 20.1604 21.6453 19.0985 21.2987C17.5854 20.8049 16.8112 20.6888 14.8441 20.6604C13.8577 20.6463 12.938 20.6514 12.8003 20.672ZM15.911 22.4008C17.4437 22.57 19.01 23.0274 20.3081 23.6848C21.006 24.0382 22.2563 24.8439 22.4228 25.0473C22.4989 25.1405 22.4389 25.3264 22.141 25.9185C21.4104 27.3714 21.0706 28.8126 21.0751 30.4385C21.0792 31.8948 21.3984 33.3444 21.9645 34.4781C22.0858 34.7209 22.1851 34.959 22.1851 35.0072C22.1851 35.0669 18.9388 35.0946 11.9546 35.0946H1.72413L1.78144 34.4385C1.86077 33.5287 2.12788 32.232 2.42211 31.3274C2.77022 30.2572 3.55445 28.6699 4.17877 27.7718C4.87307 26.773 6.35453 25.2791 7.29518 24.629C9.86127 22.8557 12.904 22.0689 15.911 22.4008ZM31.3799 22.5667C35.4427 23.0391 38.4654 26.6284 38.2586 30.7348C38.1538 32.8173 37.3636 34.589 35.8939 36.0374C34.4417 37.4685 32.9187 38.123 30.8533 38.2036C29.1559 38.2698 27.8919 37.9576 26.5281 37.1354C25.8272 36.7128 24.7198 35.6702 24.2262 34.9682C22.041 31.8605 22.372 27.5769 25.0069 24.8662C26.4222 23.41 28.2532 22.6053 30.402 22.4949C30.5396 22.4879 30.9797 22.5202 31.3799 22.5667ZM31.4765 29.3379C30.2912 30.3157 29.2977 31.1157 29.269 31.1157C29.2403 31.1157 28.8685 30.6954 28.4429 30.1816C28.0174 29.6678 27.6015 29.2107 27.5186 29.1657C27.4359 29.1208 27.2225 29.084 27.0446 29.084C26.4791 29.084 26.0853 29.6918 26.3091 30.219C26.4338 30.5128 28.4123 32.8885 28.7064 33.0975C28.9291 33.2558 29.2969 33.2719 29.5499 33.1346C29.7717 33.0141 34.4383 29.1592 34.6507 28.921C34.7486 28.8113 34.8043 28.6197 34.8043 28.3929C34.8043 27.9188 34.4385 27.5601 33.9551 27.5601C33.6583 27.5601 33.4549 27.706 31.4765 29.3379Z" fill="#161921"/>
</svg>
