<svg width="40" height="40" viewBox="0 0 40 40" fill="none" xmlns="http://www.w3.org/2000/svg">
<path fill-rule="evenodd" clip-rule="evenodd" d="M18.8285 0.115687C16.805 0.531033 15.2652 1.71964 14.3772 3.55175C13.9114 4.5126 13.7364 5.25954 13.7366 6.28634C13.7371 9.14181 15.4897 11.4799 18.2817 12.3499C18.7822 12.5058 19.0324 12.5325 20 12.5325C20.9676 12.5325 21.2178 12.5058 21.7183 12.3499C24.0084 11.6363 25.6683 9.86538 26.1441 7.62832C26.3019 6.88631 26.2967 5.65301 26.1326 4.91904C25.9566 4.13164 25.3406 2.88568 24.8193 2.26258C23.3661 0.52572 20.986 -0.327239 18.8285 0.115687ZM21.2825 1.45494C22.6034 1.7852 23.8577 2.80942 24.5041 4.08546C24.7964 4.66246 24.9987 5.56261 24.9987 6.28634C24.9987 8.45933 23.6065 10.3821 21.5398 11.0635C20.9923 11.244 20.7664 11.2751 20 11.2751C19.2336 11.2751 19.0077 11.244 18.4602 11.0635C15.9553 10.2376 14.5024 7.59887 15.1525 5.05624C15.8429 2.35556 18.5422 0.769803 21.2825 1.45494ZM18.1466 7.1668C17.925 7.20306 17.6569 7.5405 17.6569 7.7831C17.6569 8.04766 18.1936 8.59918 18.7009 8.85592C19.8033 9.41386 21.2296 9.17814 22.0342 8.30502C22.3892 7.91968 22.4248 7.67505 22.1674 7.38885C21.8864 7.07641 21.5223 7.08734 21.1442 7.41948C20.4576 8.0225 19.5148 8.03922 18.9066 7.45917C18.6748 7.23814 18.387 7.12742 18.1466 7.1668ZM18.2427 14.0256C15.7905 14.4401 13.504 15.7077 11.8497 17.5697C10.2076 19.4179 9.1496 22.0818 9.14491 24.3797C9.14374 24.98 9.16241 25.0674 9.32432 25.2196C9.49716 25.382 9.57191 25.3894 11.029 25.3894C12.521 25.3894 12.5565 25.3856 12.7228 25.2086C12.9704 24.9449 12.9533 24.5109 12.6868 24.3013C12.5021 24.1559 12.3748 24.1393 11.4427 24.1393H10.4046L10.4477 23.6901C10.5206 22.9315 10.9177 21.528 11.2771 20.7585C12.5783 17.9733 15.0806 15.9928 18.1292 15.3356C19.045 15.1382 20.9551 15.1382 21.8708 15.3356C24.9194 15.9928 27.4218 17.9733 28.7229 20.7585C29.0823 21.528 29.4795 22.9315 29.5523 23.6901L29.5955 24.1393H22.0996H14.6037L14.4121 24.3312C14.1584 24.5848 14.1584 24.9439 14.4121 25.1976L14.6037 25.3894H22.5603H30.5168L30.6866 25.2086C30.8336 25.0522 30.8563 24.9389 30.8551 24.3687C30.8543 24.0062 30.8039 23.4108 30.743 23.0455C29.9661 18.385 26.3425 14.7755 21.6816 14.0192C20.8176 13.879 19.091 13.8823 18.2427 14.0256ZM5.95055 28.1546C5.8273 28.223 5.47528 28.8095 4.9088 29.8903C4.43822 30.7882 4.04747 31.5286 4.04044 31.5358C4.03349 31.5429 3.20184 31.6911 2.19235 31.8651C0.510772 32.155 0.342146 32.1984 0.181174 32.3838C-0.189116 32.8103 -0.120073 32.9205 1.62867 34.6957L2.6762 35.7591L2.40221 37.5804C2.22374 38.7666 2.15134 39.4623 2.19446 39.5757C2.27779 39.795 2.56514 40 2.78914 40C2.88357 40 3.70162 39.6315 4.60724 39.1809L6.25374 38.3619L7.90025 39.1809C8.80587 39.6315 9.63337 40 9.73928 40C10.021 40 10.3151 39.671 10.3151 39.3559C10.3151 39.2125 10.2078 38.3814 10.0765 37.509C9.94524 36.6366 9.84855 35.8769 9.86167 35.8207C9.87479 35.7646 10.4781 35.097 11.2023 34.3373C12.4543 33.0239 12.5167 32.9437 12.4696 32.7084C12.3764 32.242 12.2784 32.204 10.3099 31.8723C9.30331 31.7028 8.47299 31.5635 8.46479 31.5629C8.45651 31.5623 8.07677 30.8421 7.6208 29.9624C6.64668 28.0829 6.45463 27.8751 5.95055 28.1546ZM19.7138 28.1383C19.5634 28.2111 19.0533 29.1038 18.1371 30.8977C18.0054 31.1555 17.8685 31.4092 17.8329 31.4615C17.7972 31.5139 16.9476 31.6969 15.9356 31.8701C14.2602 32.1569 14.0881 32.2011 13.9274 32.385C13.5565 32.8099 13.6024 32.8798 15.5747 34.8937L16.4275 35.7646L16.1818 37.433C15.8777 39.4994 15.8757 39.6266 16.1444 39.838C16.2576 39.9271 16.4305 40 16.5286 40C16.6267 40 17.4479 39.6315 18.3535 39.1809L20 38.3619L21.6465 39.1809C22.5521 39.6315 23.3733 40 23.4714 40C23.5695 40 23.7424 39.9271 23.8556 39.838C24.1244 39.6266 24.1223 39.4994 23.8182 37.433L23.5726 35.7646L24.4254 34.8937C26.3977 32.8798 26.4436 32.8099 26.0726 32.385C25.9119 32.2011 25.7398 32.1569 24.0644 31.8701C23.0525 31.6969 22.2029 31.5139 22.1672 31.4615C22.1315 31.4092 21.9946 31.1555 21.8629 30.8977C20.406 28.0452 20.2692 27.8696 19.7138 28.1383ZM33.4097 28.2044C33.2944 28.2951 32.8536 29.0471 32.3792 29.9624C31.9233 30.8421 31.5435 31.5623 31.5352 31.5629C31.527 31.5635 30.6967 31.7028 29.6901 31.8723C27.7217 32.204 27.6236 32.242 27.5304 32.7084C27.4834 32.9437 27.5457 33.0239 28.7977 34.3373C29.5219 35.097 30.1252 35.7646 30.1384 35.8207C30.1515 35.8769 30.0548 36.6366 29.9236 37.509C29.7923 38.3814 29.6849 39.2125 29.6849 39.3559C29.6849 39.671 29.979 40 30.2607 40C30.3667 40 31.1942 39.6315 32.0998 39.1809L33.7463 38.3619L35.3928 39.1809C36.2984 39.6315 37.1224 40 37.2239 40C37.3254 40 37.5053 39.9166 37.6238 39.8147C37.8934 39.5828 37.893 39.5631 37.5746 37.4296L37.3252 35.7578L38.3721 34.695C40.12 32.9206 40.1891 32.8102 39.8189 32.3838C39.6579 32.1984 39.4893 32.155 37.8077 31.8651C36.7982 31.6911 35.9665 31.5429 35.9596 31.5358C35.9526 31.5286 35.5618 30.7882 35.0912 29.8903C34.1015 28.002 33.9104 27.8104 33.4097 28.2044ZM6.87858 31.2937C7.20075 31.9183 7.53863 32.4993 7.62939 32.585C7.75451 32.7032 8.10887 32.7939 9.09485 32.9597C9.81005 33.08 10.4089 33.1927 10.4256 33.2101C10.4423 33.2274 10.0201 33.7065 9.4874 34.2747C8.36778 35.4688 8.43729 35.2266 8.70769 36.9919C8.80641 37.6365 8.87835 38.1748 8.86757 38.1881C8.85671 38.2014 8.31733 37.9466 7.66891 37.6217C6.97956 37.2763 6.39191 37.031 6.25374 37.031C6.11558 37.031 5.52793 37.2763 4.83858 37.6217C4.19016 37.9466 3.64703 38.1997 3.63164 38.1843C3.61626 38.1689 3.6896 37.5955 3.79457 36.9101C3.89954 36.2245 3.98616 35.5787 3.98709 35.4749C3.98827 35.3363 3.71592 35.0104 2.963 34.2498L1.93726 33.2135L2.20148 33.1655C2.34684 33.1392 2.94613 33.0372 3.53331 32.9388C4.12057 32.8404 4.68878 32.7025 4.79602 32.6321C4.91536 32.5539 5.22621 32.0481 5.59634 31.3298C5.92922 30.6839 6.22203 30.1562 6.24718 30.1569C6.27226 30.1577 6.5564 30.6693 6.87858 31.2937ZM20.643 31.3146C20.9751 31.9515 21.3137 32.5331 21.3953 32.6071C21.4954 32.6976 21.9677 32.8128 22.8426 32.96C23.5569 33.0801 24.1594 33.1964 24.1813 33.2183C24.2032 33.2402 23.781 33.719 23.243 34.2823C22.465 35.097 22.2654 35.3509 22.2668 35.5241C22.2678 35.6439 22.3521 36.2868 22.4542 36.9529C22.5562 37.6189 22.6295 38.1748 22.6169 38.1881C22.6044 38.2014 22.0636 37.9466 21.4152 37.6217C20.7258 37.2763 20.1382 37.031 20 37.031C19.8618 37.031 19.2742 37.2763 18.5849 37.6217C17.9364 37.9466 17.3956 38.2014 17.3831 38.1881C17.3706 38.1748 17.4438 37.6189 17.5458 36.9529C17.6479 36.2868 17.7322 35.6439 17.7332 35.5241C17.7346 35.3509 17.5351 35.097 16.757 34.2823C16.219 33.719 15.7969 33.2402 15.8187 33.2183C15.8407 33.1964 16.4431 33.0801 17.1574 32.96C18.0323 32.8128 18.5046 32.6976 18.6047 32.6071C18.6863 32.5331 19.0249 31.9515 19.3571 31.3146C19.6892 30.6777 19.9785 30.1565 20 30.1565C20.0215 30.1565 20.3108 30.6777 20.643 31.3146ZM34.4037 31.3298C34.7738 32.0481 35.0847 32.5539 35.204 32.6321C35.3113 32.7025 35.8795 32.8404 36.4667 32.9388C37.0539 33.0372 37.6532 33.1392 37.7985 33.1655L38.0628 33.2135L37.037 34.2498C36.2841 35.0104 36.0118 35.3363 36.0129 35.4749C36.0139 35.5787 36.1005 36.2245 36.2055 36.9101C36.3104 37.5955 36.3838 38.1689 36.3684 38.1843C36.353 38.1997 35.8099 37.9466 35.1614 37.6217C34.4721 37.2763 33.8845 37.031 33.7463 37.031C33.6081 37.031 33.0205 37.2763 32.3311 37.6217C31.6827 37.9466 31.1433 38.2014 31.1325 38.1881C31.1217 38.1748 31.1936 37.6365 31.2923 36.9919C31.5627 35.2266 31.6322 35.4688 30.5126 34.2747C29.9799 33.7065 29.5577 33.2274 29.5744 33.2101C29.5912 33.1927 30.19 33.08 30.9052 32.9597C31.8912 32.7939 32.2455 32.7032 32.3706 32.585C32.4614 32.4993 32.7993 31.9183 33.1215 31.2937C33.4436 30.6693 33.7278 30.1577 33.7528 30.1569C33.778 30.1562 34.0708 30.6839 34.4037 31.3298Z" fill="#161921"/>
</svg>
