<svg width="50" height="50" viewBox="0 0 50 50" fill="none" xmlns="http://www.w3.org/2000/svg">
<path fill-rule="evenodd" clip-rule="evenodd" d="M24.4675 0.0943064C24.2516 0.199259 24.0564 0.686205 24.0554 1.12243C24.0545 1.47765 23.7107 2.28551 23.3832 2.7021C22.8913 3.32781 21.8231 3.88414 21.1139 3.88414C20.4553 3.88414 20.0884 4.3703 20.3229 4.9322C20.4583 5.25664 20.5472 5.29934 21.2903 5.39765C22.7493 5.59065 23.8453 6.6905 24.0528 8.17001C24.0976 8.48897 24.1831 8.84194 24.2428 8.95442C24.4507 9.34579 25.2108 9.34579 25.4188 8.95442C25.4784 8.84194 25.564 8.48897 25.6087 8.17001C25.8163 6.6905 26.9123 5.59065 28.3712 5.39765C29.1143 5.29934 29.2033 5.25664 29.3387 4.9322C29.5731 4.3703 29.2063 3.88414 28.5476 3.88414C27.8384 3.88414 26.7703 3.32781 26.2784 2.7021C25.9508 2.28551 25.607 1.47765 25.6062 1.12243C25.604 0.248609 25.0953 -0.21078 24.4675 0.0943064ZM25.4726 3.95743L26.1402 4.61705L25.4855 5.27354L24.8308 5.93004L24.176 5.27354L23.5213 4.61705L24.1518 3.97043C24.4985 3.61482 24.7874 3.31804 24.7936 3.31081C24.7999 3.30367 25.1055 3.59469 25.4726 3.95743ZM3.52642 10.2505C3.2816 10.3725 3.10351 10.7272 3.10215 11.0957C3.1006 11.534 2.67051 12.3255 2.22538 12.7094C1.8143 13.0639 1.33436 13.2637 0.891557 13.2648C0.595615 13.2656 0.134679 13.5119 0.059408 13.7095C-0.152146 14.2649 0.206846 14.6648 1.04792 14.8108C2.17262 15.006 2.90592 15.7768 3.09138 16.9591C3.18916 17.5824 3.41536 17.8583 3.82877 17.8583C4.19629 17.8583 4.55781 17.5164 4.55868 17.168C4.5613 15.9984 5.51683 14.9513 6.74056 14.7771C7.31246 14.6956 7.66205 14.4163 7.66205 14.0409C7.66205 13.6074 7.38706 13.3691 6.77209 13.2695C5.51149 13.0653 4.7262 12.2863 4.58691 11.1018C4.55528 10.8329 4.45945 10.53 4.37399 10.4286C4.17825 10.1966 3.79598 10.1162 3.52642 10.2505ZM45.522 10.2367C45.2521 10.3463 45.1453 10.5599 45.0702 11.1402C44.9198 12.3022 44.1359 13.0676 42.8894 13.2695C42.2745 13.3691 41.9995 13.6074 41.9995 14.0409C41.9995 14.4151 42.3493 14.6954 42.9187 14.7777C44.1072 14.9496 44.9173 15.7669 45.0685 16.9464C45.1439 17.5345 45.4152 17.8583 45.8328 17.8583C46.2462 17.8583 46.4724 17.5824 46.5701 16.9591C46.7556 15.7768 47.4889 15.006 48.6136 14.8108C49.4547 14.6648 49.8137 14.2649 49.6021 13.7095C49.5269 13.5119 49.0659 13.2656 48.77 13.2648C48.3272 13.2637 47.8472 13.0639 47.4361 12.7094C46.991 12.3255 46.5609 11.534 46.5594 11.0957C46.558 10.7107 46.3767 10.3708 46.1067 10.2468C45.8339 10.1216 45.8067 10.1212 45.522 10.2367ZM4.25692 14.4254L3.8472 14.8381L3.4334 14.429L3.01961 14.0198L3.42506 13.6019L3.83061 13.1839L4.24867 13.5982L4.66664 14.0126L4.25692 14.4254ZM46.228 14.4195L45.8168 14.8406L45.407 14.4278L44.9973 14.015L45.4035 13.5981L45.8096 13.1813L46.2244 13.5897L46.6393 13.9983L46.228 14.4195ZM13.0086 13.3755C11.8854 13.5635 10.7655 14.4435 10.2634 15.5328C10.1323 15.8176 9.24574 18.2834 8.29341 21.0127C7.34098 23.7418 6.53163 25.9406 6.49477 25.8987C6.45791 25.8568 6.35402 25.5148 6.26391 25.1386C5.91908 23.699 5.92665 23.716 5.57396 23.5676C5.17035 23.3977 1.65416 23.3683 1.19099 23.531C1.03036 23.5874 0.849266 23.7434 0.788545 23.8777C0.625782 24.2375 0.644405 27.5286 0.81037 27.7488C1.04637 28.0617 1.44775 28.1191 3.40042 28.1191C4.46391 28.1191 5.33408 28.1444 5.33408 28.1753C5.33408 28.2063 4.79788 28.9869 4.14256 29.9099C3.48723 30.833 2.85597 31.7446 2.73977 31.9358C2.25652 32.7307 2.22994 33.0699 2.23246 38.4248C2.23392 41.359 2.27437 43.5851 2.33092 43.8318C2.48359 44.4987 2.80504 45.099 3.3041 45.6491L3.76717 46.1596L3.79889 47.5888C3.83342 49.1432 3.88221 49.2946 4.49825 49.7583C4.75132 49.9489 4.91408 49.9614 7.48376 49.9886C10.0557 50.0159 10.2238 50.0067 10.6115 49.8176C11.2622 49.5002 11.445 49.0733 11.445 47.8699V46.8816H24.7338H38.0225V47.8699C38.0225 49.0733 38.2053 49.5002 38.8561 49.8176C39.2438 50.0067 39.4119 50.0159 41.9838 49.9886C44.5535 49.9614 44.7162 49.9489 44.9693 49.7583C45.5853 49.2946 45.6341 49.1432 45.6686 47.5888L45.7004 46.1596L46.1634 45.6491C46.6625 45.099 46.9839 44.4987 47.1366 43.8318C47.2676 43.26 47.2643 33.5832 47.133 33.0092C46.976 32.3227 46.6763 31.8066 45.3619 29.9588C44.6862 29.0089 44.1334 28.2063 44.1334 28.1753C44.1334 28.1444 44.9999 28.1191 46.059 28.1191C48.1295 28.1191 48.505 28.0547 48.679 27.6698C48.8279 27.3406 48.8279 24.2069 48.679 23.8777C48.6183 23.7434 48.4372 23.5874 48.2765 23.531C47.8134 23.3683 44.2972 23.3977 43.8936 23.5676C43.5409 23.716 43.5485 23.699 43.2036 25.1386C43.1135 25.5148 43.0096 25.8568 42.9728 25.8987C42.9359 25.9406 42.1266 23.7418 41.1741 21.0127C40.2218 18.2834 39.3352 15.8176 39.2041 15.5328C38.6835 14.4034 37.5904 13.5688 36.3703 13.3694C35.5894 13.2417 13.7739 13.2475 13.0086 13.3755ZM36.2766 14.8362C36.8463 14.9668 37.3801 15.3272 37.6784 15.7826C37.9016 16.1234 41.5145 26.2397 41.5145 26.5239C41.5145 26.6276 41.0531 26.6532 39.1865 26.6532C36.9879 26.6532 36.8478 26.6641 36.6646 26.8487C36.4555 27.0593 36.4129 27.437 36.5655 27.7244C36.7458 28.0635 37.197 28.1191 39.7731 28.1191H42.2706L43.8309 30.3195C44.6892 31.5298 45.4683 32.6622 45.5626 32.8359C45.7182 33.1228 45.7364 33.5701 45.7618 37.7202L45.7897 42.2887H39.1416H32.4936L32.4917 39.5769C32.4906 38.0855 32.4504 36.5906 32.4022 36.2551C32.1842 34.737 31.1379 33.4883 29.721 33.0553C29.0164 32.84 20.4511 32.84 19.7465 33.0553C18.3296 33.4883 17.2833 34.737 17.0654 36.2551C17.0172 36.5906 16.9769 38.0855 16.9758 39.5769L16.9739 42.2887H10.3259H3.67784L3.70577 37.7202C3.73109 33.5701 3.74932 33.1228 3.90491 32.8359C3.99919 32.6622 4.77799 31.5304 5.63565 30.3209L7.1951 28.1217L20.7631 28.096L34.3313 28.0702L34.5441 27.8558C34.8054 27.5924 34.8225 27.1196 34.5803 26.8499C34.4048 26.6546 34.3086 26.6532 21.1783 26.6532C10.2719 26.6532 7.95304 26.6306 7.95304 26.5239C7.95304 26.2823 11.5424 16.1707 11.7459 15.8388C12.0227 15.3876 12.5333 15.0149 13.0766 14.8675C13.6638 14.7083 35.5896 14.6785 36.2766 14.8362ZM13.2475 15.7556C12.5294 16.0134 12.489 16.0976 10.9009 20.6343C10.0798 22.9799 9.40802 24.9615 9.40802 25.0378C9.40802 25.1141 9.51336 25.2999 9.64208 25.4507L9.87623 25.7249H24.7338H39.5913L39.8255 25.4507C39.9542 25.2999 40.0595 25.1141 40.0595 25.0378C40.0595 24.9615 39.3857 22.9741 38.5622 20.6215C36.9342 15.9708 36.9193 15.9408 36.112 15.715C35.8625 15.6452 32.1627 15.6131 24.6853 15.6155C15.4769 15.6186 13.5639 15.6421 13.2475 15.7556ZM35.7916 17.1049C35.7916 17.1204 36.3372 18.6873 37.0041 20.5867C37.6709 22.4862 38.2165 24.0785 38.2165 24.1252C38.2165 24.173 32.3086 24.2102 24.7338 24.2102C17.159 24.2102 11.251 24.173 11.251 24.1252C11.251 24.0785 11.7966 22.4862 12.4635 20.5867C13.1303 18.6873 13.6759 17.1204 13.6759 17.1049C13.6759 17.0892 18.652 17.0765 24.7338 17.0765C30.8156 17.0765 35.7916 17.0892 35.7916 17.1049ZM4.92194 25.7696C5.02854 26.1975 5.09217 26.5712 5.06327 26.6003C5.03436 26.6294 4.36332 26.6532 3.57191 26.6532H2.13314V25.8226V24.992H3.43059H4.72814L4.92194 25.7696ZM47.314 25.7982L47.2859 26.6044L45.9326 26.6317C45.1883 26.6467 44.5269 26.6388 44.4629 26.6139C44.3759 26.5803 44.3962 26.3689 44.5429 25.7805L44.7394 24.992H46.0408H47.3423L47.314 25.7982ZM7.86312 32.3831C7.63207 32.6789 7.61801 32.8009 7.77505 33.148C7.95877 33.5543 8.35976 33.6074 10.993 33.5736C13.3911 33.5427 13.4033 33.5415 13.5877 33.3119C13.8279 33.0128 13.8241 32.568 13.579 32.3211C13.3944 32.1351 13.2557 32.1256 10.7246 32.1256H8.06411L7.86312 32.3831ZM35.8886 32.3211C35.6435 32.568 35.6396 33.0128 35.8799 33.3119C36.0643 33.5415 36.0765 33.5427 38.4746 33.5736C41.1078 33.6074 41.5088 33.5543 41.6925 33.148C41.8495 32.8009 41.8355 32.6789 41.6044 32.3831L41.4034 32.1256H38.743C36.2119 32.1256 36.0732 32.1351 35.8886 32.3211ZM29.6869 34.642C30.2038 34.9061 30.8447 35.5999 30.8447 35.8955C30.8447 36.0142 29.9526 36.0345 24.7338 36.0345C19.515 36.0345 18.6229 36.0142 18.6229 35.8955C18.6229 35.5999 19.2637 34.9061 19.7806 34.642L20.3067 34.3732H24.7338H29.1609L29.6869 34.642ZM9.03855 34.6688C7.25436 35.1398 6.17409 36.226 6.17409 37.5492C6.17409 39.2942 8.10756 40.5634 10.766 40.5634C12.3677 40.5634 13.6603 40.1167 14.5358 39.2608C15.8851 37.9416 15.4497 36.0612 13.5731 35.1032C12.339 34.4732 10.4613 34.2933 9.03855 34.6688ZM37.0877 34.6645C35.7331 35.0224 34.778 35.6929 34.3708 36.572C33.6334 38.1641 34.7839 39.7914 37.0792 40.4026C37.8943 40.6197 39.5211 40.6163 40.3505 40.3958C41.677 40.0433 42.6591 39.3749 43.0911 38.5308C43.5346 37.6643 43.2911 36.5414 42.49 35.758C41.3416 34.6353 38.9961 34.1605 37.0877 34.6645ZM12.5416 36.2257C13.2982 36.5183 13.8699 37.0676 13.8699 37.502C13.8699 38.2155 12.676 38.9487 11.2399 39.1169C9.5315 39.3172 7.39423 38.3077 7.61539 37.405C7.74634 36.8708 8.44667 36.3607 9.43236 36.0818C10.1882 35.868 11.8107 35.943 12.5416 36.2257ZM40.4905 36.2307C41.1307 36.4781 41.7682 37.0267 41.8556 37.405C42.0649 38.3117 39.9345 39.317 38.2276 39.1169C36.821 38.9522 35.5976 38.2141 35.5976 37.5302C35.5976 36.9625 36.3009 36.3821 37.3459 36.0875C38.1319 35.8659 39.7355 35.9389 40.4905 36.2307ZM31.0183 38.3065L30.9902 39.1127H24.7338H18.4774L18.4492 38.3065L18.421 37.5003H24.7338H31.0465L31.0183 38.3065ZM31.0387 41.458V42.2887H24.7338H18.4289V41.458V40.6274H24.7338H31.0387V41.458ZM45.5884 43.8934C45.5884 44.168 44.9478 44.8719 44.4746 45.1172L43.9931 45.3669H24.7338H5.47444L4.99294 45.1172C4.51969 44.8719 3.87911 44.168 3.87911 43.8934C3.87911 43.7737 6.76763 43.7545 24.7338 43.7545C42.6999 43.7545 45.5884 43.7737 45.5884 43.8934ZM9.99001 47.7122V48.5428H7.61355H5.23709V47.7122V46.8816H7.61355H9.99001V47.7122ZM44.2304 47.7122V48.5428H41.854H39.4775V47.7122V46.8816H41.854H44.2304V47.7122Z" fill="#F02801"/>
</svg>
