<svg width="50" height="40" viewBox="0 0 50 40" fill="none" xmlns="http://www.w3.org/2000/svg">
<path fill-rule="evenodd" clip-rule="evenodd" d="M23.4311 4.83148C18.7302 7.48861 14.7852 9.77852 14.6643 9.92015C14.4626 10.1565 14.4445 10.2766 14.4445 11.38V12.5823H8.62502H2.80555L2.52003 12.8765C2.21517 13.1907 2.13595 13.7142 2.33512 14.0977C2.59309 14.5946 2.60521 14.5955 8.72534 14.5955H14.4445V16.4074V18.2193H11.4577H8.47098L8.18546 18.5135C7.88061 18.8277 7.80139 19.3512 8.00056 19.7347C8.24065 20.1972 8.49267 20.2325 11.5581 20.2325H14.4445V22.8496V25.4668H10.2394C5.67831 25.4668 5.6199 25.4734 5.37932 26.0176C5.18073 26.4668 5.23934 26.7716 5.5947 27.1378L5.92681 27.48H10.1776H14.4286L14.4609 28.7357C14.4892 29.834 14.5179 30.0157 14.6887 30.1849C14.7961 30.2912 18.7082 32.5428 23.3822 35.1884C29.9869 38.9267 31.9566 39.9987 32.2222 40C32.4913 40.0013 34.3748 38.9768 41.0623 35.1919C45.7363 32.5464 49.6483 30.2941 49.7558 30.1864C49.9417 30.0004 49.9512 29.8586 49.9512 27.2672V24.5434L49.6771 24.3004C49.3055 23.9711 48.7411 23.971 48.3693 24.3003L48.0952 24.543L48.0657 26.7423L48.0361 28.9415L41.2281 32.7926C37.4837 34.9107 34.1451 36.8012 33.809 36.9936L33.198 37.3434L33.2229 28.9683L33.2479 20.5931L35.4945 19.3109C36.7302 18.6056 37.7741 18.0262 37.8144 18.0233C37.8548 18.0204 37.8877 18.9624 37.8877 20.1168C37.8877 21.3538 37.9308 22.3431 37.9927 22.526C38.1922 23.1158 38.8448 23.3191 39.4799 22.9893C40.7908 22.3082 43.1955 20.8721 43.3122 20.7003C43.4298 20.5273 43.4554 19.9826 43.4554 17.6535V14.8174L45.6916 13.5488C46.9215 12.8512 47.9545 12.2803 47.9871 12.2803C48.0197 12.2803 48.0464 13.4027 48.0464 14.7744C48.0464 17.5446 48.0591 17.6055 48.6941 17.8789C48.9771 18.0007 49.0693 18.0007 49.3523 17.8789C50.0097 17.5959 50 17.6582 50 13.7098V10.151L49.7314 9.87798C49.5837 9.72789 47.7485 8.63573 45.6532 7.45096C43.558 6.26619 39.7355 4.10502 37.1588 2.64837C34.4998 1.14511 32.3666 -0.000100653 32.226 6.63525e-09C32.083 0.000100667 28.36 2.04531 23.4311 4.83148ZM39.576 6.30706C43.5632 8.55812 46.859 10.4295 46.9001 10.4658C46.9412 10.5022 45.983 11.0901 44.7707 11.7723C42.7688 12.8988 42.5439 13.0021 42.3208 12.8973C42.11 12.7983 36.7205 9.7596 29.8445 5.86305C28.7784 5.25889 27.8993 4.73173 27.8909 4.69146C27.8727 4.6051 32.018 2.22811 32.2011 2.21996C32.2702 2.21684 35.5889 4.0561 39.576 6.30706ZM33.1329 10.0155C37.1436 12.2854 40.4255 14.1652 40.4261 14.1929C40.4267 14.2206 40.0823 14.4351 39.6608 14.6695L38.8944 15.0959L34.2641 12.4742C31.7173 11.0323 28.4145 9.1645 26.9244 8.32348C25.4343 7.48247 24.2145 6.76939 24.2138 6.73889C24.2121 6.66742 25.708 5.83547 25.7837 5.86566C25.8151 5.87815 29.1223 7.74559 33.1329 10.0155ZM25.3847 9.74853C27.1307 10.7363 30.3834 12.5752 32.613 13.8347C34.8425 15.0943 36.7019 16.1591 36.745 16.2009C36.8171 16.2709 32.4165 18.8232 32.2238 18.8232C32.155 18.8232 17.587 10.6142 17.4946 10.5234C17.4459 10.4756 21.9138 7.96996 22.0635 7.961C22.1441 7.95627 23.6386 8.76065 25.3847 9.74853ZM23.76 16.3717C27.7427 18.6218 31.0564 20.5148 31.1239 20.5783C31.2208 20.6695 31.2413 22.4359 31.2216 28.9974L31.1966 37.3009L27.2406 35.063C25.0648 33.8322 21.7359 31.9508 19.8432 30.8823L16.4018 28.9396L16.4 20.6099C16.3989 16.0286 16.4253 12.2803 16.4585 12.2803C16.4917 12.2803 19.7773 14.1214 23.76 16.3717ZM41.5005 17.7411L41.4991 19.5782L40.727 20.006C40.3024 20.2412 39.9294 20.4338 39.8981 20.4338C39.8669 20.4338 39.8413 19.6285 39.8413 18.6444V16.8549L40.6471 16.3898C41.0904 16.134 41.464 15.9201 41.4774 15.9144C41.4908 15.9087 41.5013 16.7308 41.5005 17.7411ZM4.27827 18.5135C3.55954 19.2543 4.27504 20.4862 5.23397 20.1591C5.384 20.1079 5.60886 19.911 5.7336 19.7214C6.02078 19.2854 5.9611 18.8781 5.55436 18.4961C5.14498 18.1117 4.66176 18.1183 4.27827 18.5135ZM48.3904 20.2576C47.8396 20.7509 47.9982 21.6058 48.6965 21.9064C49.0054 22.0394 49.0727 22.0362 49.397 21.8728C50.3481 21.3937 50.0658 20.0312 49.0155 20.0312C48.7696 20.0312 48.5576 20.1081 48.3904 20.2576ZM0.487017 25.6073C-0.0892948 25.9365 -0.165778 26.6372 0.319984 27.1378C0.651803 27.4797 0.652975 27.48 1.59471 27.48C2.9256 27.48 3.30899 27.2434 3.30899 26.422C3.30899 26.1509 3.23456 25.9786 3.02347 25.761C2.7442 25.4732 2.71588 25.4669 1.72921 25.4703C1.08062 25.4726 0.637151 25.5216 0.487017 25.6073Z" fill="white"/>
</svg>
