<svg width="145" height="108" viewBox="0 0 145 108" fill="none" xmlns="http://www.w3.org/2000/svg">
<path opacity="0.1" d="M121.713 9.52068C121.713 9.50248 121.703 9.47518 121.694 9.45698C121.694 9.47518 121.685 9.48428 121.685 9.50248C121.694 9.50248 121.713 9.52068 121.713 9.52068L121.694 9.50248C121.685 9.51158 121.685 9.52068 121.676 9.52068C121.685 9.52068 121.703 9.52068 121.713 9.52068ZM143.621 67.6692C143.973 67.3689 144.287 67.0959 144.602 66.8229C144.445 66.7046 144.158 66.559 144.176 66.4953C144.278 66.1222 144.445 65.7673 144.602 65.3851C143.945 64.9938 143.39 64.375 142.482 64.4023C142.26 64.4114 141.89 64.2112 141.825 64.0201C141.575 63.3103 140.807 62.9736 140.576 62.2729C141.835 61.099 142.732 59.8068 142.075 57.9686C142.001 57.7503 142.159 57.4591 142.159 57.2043C142.177 56.5673 141.723 55.8666 141.15 55.6755C140.576 55.4844 140.02 55.4571 139.669 56.0759C139.336 55.8575 138.984 55.6573 138.669 55.4298C137.836 54.8292 137.336 54.8474 136.448 55.5026C136.494 55.7119 136.531 55.903 136.568 56.085C136.207 56.0759 135.846 55.8757 135.865 55.812C136.105 55.175 135.42 54.629 135.735 53.9829C135.855 53.7372 135.717 53.3732 135.698 53.0638C134.995 54.4743 134.152 55.6573 132.403 55.8848C132.19 55.4662 132.135 55.1022 132.449 54.7109C133.023 54.0102 133.264 53.2003 133.366 52.3176C133.421 51.7989 133.69 51.3985 134.263 51.262C134.56 51.1892 134.846 51.0709 135.106 50.9071C135.42 50.7069 135.624 50.4339 135.235 49.988C134.884 50.0972 134.495 50.2155 134.115 50.3338C134.032 50.1882 133.949 50.0426 133.847 49.8697C133.541 50.0972 133.31 50.2792 133.079 50.4521C132.431 49.7605 131.431 49.351 131.672 48.2135C131.283 48.1771 130.83 48.987 130.663 47.9496C131.477 47.6948 132.347 47.5856 133.023 47.167C133.717 46.7302 134.356 46.7211 135.096 46.9305C135.124 46.8577 135.161 46.7939 135.189 46.7211C134.763 46.5028 134.347 46.2844 133.921 46.066C133.967 45.9477 134.013 45.8385 134.06 45.7202C132.838 46.3117 131.616 46.9031 130.33 47.531C130.052 47.076 129.811 46.7121 129.571 46.3117C129.432 47.0578 128.978 47.4036 128.256 47.5219C127.812 46.7666 128.59 46.621 128.83 46.257C128.59 45.8567 128.358 45.4745 128.108 45.065C128.765 45.1105 128.83 43.9457 129.636 44.4189C129.959 45.7839 129.959 45.7839 130.607 46.0933C131.459 45.0104 130.552 44.1186 130.219 43.2177C129.978 42.5898 129.858 42.3623 130.432 41.971C130.968 41.5979 131.274 40.9609 131.228 40.2147C130.783 40.5332 130.385 40.8244 129.922 41.1611C129.719 40.5514 129.913 40.1601 130.246 39.8143C131.718 38.2673 133.134 36.6657 134.68 35.1916C135.587 34.3271 135.883 33.0076 136.994 32.3251C137.105 31.3969 137.892 30.8236 138.243 30.0046C138.382 29.677 138.614 29.2857 138.91 29.1401C140.076 28.585 140.048 27.4839 140.418 26.3828C140.094 26.6012 139.9 26.7377 139.715 26.8651C139.659 26.0279 139.502 25.1725 140.104 24.4172C139.882 24.1806 139.734 23.8804 139.521 23.8349C139.289 23.7803 138.771 23.9531 138.771 24.035C138.762 24.4081 138.512 24.8267 139.012 25.1543C139.548 25.5092 139.548 25.9096 139.086 26.2645C138.854 26.4465 138.567 26.5739 138.336 26.7559C137.558 27.402 136.809 28.0936 136.003 28.7124C135.772 28.8944 135.402 28.9035 134.874 29.0582C135.004 28.5122 135.133 28.2028 135.133 27.9025C135.133 27.5749 135.004 27.2382 134.93 26.9106C134.976 26.9197 135.013 26.9379 135.059 26.947C135.217 26.2827 135.374 25.6184 135.596 24.7175C135.855 24.4354 136.818 24.399 136.781 23.4709C136.781 23.4709 136.781 23.4709 136.79 23.4709C136.79 23.4709 136.79 23.4709 136.781 23.4618V23.4709C136.503 24.4354 135.772 23.9622 134.985 24.0805C135.652 23.0614 136.216 22.2242 136.753 21.3688C136.994 20.9866 137.327 20.5771 137.336 20.1767C137.364 19.3759 137.207 18.5751 137.123 17.8016C137.364 17.6378 137.586 17.4922 137.799 17.3557C138.104 17.1555 138.743 17.0918 138.114 16.5367C138.095 16.5185 138.234 16.3729 138.253 16.2728C138.345 15.8815 138.475 15.4902 138.475 15.0989C138.475 14.4164 137.827 13.4063 136.698 12.2234C136.772 12.5782 136.809 12.7875 136.855 13.015C135.744 12.7875 135.42 11.8958 135.032 11.1314C134.55 10.9949 134.115 10.8675 133.68 10.7401C133.514 10.6673 133.356 10.5399 133.18 10.5217C131.302 10.2578 129.534 10.6582 127.803 11.3498C126.776 11.7593 125.683 12.0323 124.674 12.4782C124.128 12.7147 123.342 12.5509 123.036 13.3062C123.018 13.3517 122.573 13.3335 122.472 13.2243C122.268 13.0059 122.157 12.6966 122 12.4236C121.481 12.7966 121.481 12.7966 121.713 13.5974C121.398 13.6975 121.074 13.7976 120.75 13.8977C120.63 13.6793 120.528 13.4973 120.445 13.3517C120.102 13.3881 119.824 13.4063 119.482 13.4427C119.75 11.7957 120.722 10.6491 121.694 9.51158C121.361 9.55708 121.028 9.60258 120.704 9.64808C120.371 8.92918 120.778 8.39229 121.083 7.82809C121.426 7.2002 121.879 6.5541 121.944 5.87161C122.018 5.16182 121.777 4.38832 121.546 3.67853C121.287 2.87774 120.907 2.14064 119.871 2.03144C118.695 1.90404 118.464 1.64925 118.205 0.320661C117.612 0.211462 116.992 0.0112618 116.363 0.00216186C115.409 -0.016038 114.447 0.0840634 113.494 0.175063C111.763 0.338861 110.069 0.693757 108.477 1.42175C108.273 1.51275 108.033 1.52185 107.811 1.58555C106.33 1.99505 104.849 2.39544 103.368 2.80494C102.914 2.93234 102.322 2.91414 102.044 3.20533C101.581 3.68763 101.156 3.58753 100.637 3.49653C100.443 3.46013 100.23 3.56933 99.9987 3.62393C100.128 3.88783 100.212 4.06983 100.35 4.36102C99.6285 4.63402 98.9621 4.88882 98.2494 5.16182C98.2587 4.95252 98.2679 4.81602 98.2772 4.62492C97.3701 4.78872 96.8055 5.46211 96.2316 6.01721C95.7133 6.5086 95.3246 6.6269 94.7415 6.24471C94.6304 6.17191 94.4638 6.16281 94.2972 6.10821C94.1028 6.3994 93.9362 6.6542 93.7511 6.9363C94.0843 6.9181 94.325 6.8999 94.6304 6.8908C93.964 7.90089 92.1406 8.89278 90.8633 9.00198C90.8356 8.71078 90.8078 8.41959 90.78 8.12839C89.9655 8.73808 89.1418 9.34778 88.281 9.99387C88.5401 10.1213 88.679 10.185 88.8363 10.2669C88.1051 11.2497 87.0685 10.4216 86.3373 10.9403C86.18 10.367 86.7723 9.80278 86.217 9.30228C85.6154 9.96657 84.9212 10.3761 84.0419 10.64C83.792 9.46608 84.699 8.81088 84.9952 8.09199C84.8194 7.63699 84.4954 7.2275 84.588 6.9363C84.6713 6.6542 85.1803 6.4995 85.4302 6.3357C85.6061 5.45301 85.1618 4.78872 84.699 4.10623C84.1344 4.00613 83.5883 3.76953 82.959 4.04253C82.7368 4.14263 82.2926 3.96063 82.0519 3.76953C81.5336 3.36003 81.0523 3.29633 80.4599 3.62393C79.9971 3.87873 79.4696 3.85143 79.053 3.54203C78.6643 3.25993 78.2571 3.15074 77.8776 3.36003C77.5536 3.54203 77.3315 3.87873 77.1927 4.02433C76.7484 4.05163 76.3596 3.97883 76.1005 4.11533C75.6655 4.36102 75.3415 4.78872 74.9157 5.06172C74.4807 5.34382 73.9717 5.52581 73.4996 5.75331C72.861 6.06271 72.3982 6.50861 72.2964 7.2548C72.2779 7.4095 72.0742 7.54599 71.9354 7.71889C71.4171 7.3458 70.9543 7.3731 70.4915 7.78259C69.8899 8.31039 69.2605 8.81088 68.6219 9.29318C67.9925 9.76637 67.3446 10.2305 66.6967 10.6673C66.3357 10.9039 65.9562 10.9676 65.6971 10.4853C65.0677 11.9686 65.0677 11.9686 64.5956 11.9231C64.4846 11.4772 65.3731 11.2133 64.9473 10.7401C64.3735 11.4863 63.7996 12.2234 63.3183 12.8512C62.837 12.6055 62.4853 12.4327 62.1336 12.2598C61.8559 12.551 61.6245 12.7966 61.3839 13.0514C61.6893 13.5428 61.5042 13.9705 61.1895 14.38C60.5416 13.9159 60.5694 14.7531 60.2084 14.8805C59.903 14.9897 59.6531 15.2445 59.1255 15.6085C59.3199 14.926 59.4032 14.4983 59.579 14.0979C59.6346 13.9796 60.0325 14.0251 60.1344 13.8977C60.3287 13.6338 60.4213 13.2971 60.5971 12.9058C59.1995 12.9968 59.1533 12.9513 59.1348 11.7411C59.1348 11.641 59.0977 11.5045 59.033 11.4408C58.4498 10.9312 58.8201 10.5308 59.1718 9.99387C59.5513 10.2487 60.1714 10.2032 59.8197 10.9312C59.7826 11.0131 59.866 11.2406 59.9215 11.2497C60.0418 11.277 60.2177 11.2406 60.301 11.1587C60.6434 10.8038 60.9489 10.4307 61.3284 9.99387C61.2265 9.52978 61.097 8.90188 60.9304 8.12839C60.6064 8.55609 60.412 8.82909 60.1992 9.11118C59.4217 8.35589 59.4402 8.37409 59.8845 7.57329C60.0788 7.2275 60.1714 6.818 60.2455 6.62691C59.5698 5.48032 58.6627 6.02631 57.6446 6.09001C58.0241 5.67141 58.2647 5.40752 58.5516 5.09812C58.1629 4.70682 58.274 4.25182 58.4221 3.80593C58.5424 3.44193 58.9774 3.05063 58.5331 2.73214C58.2277 2.51374 57.7557 2.50464 57.3484 2.45004C57.1726 2.43184 56.9874 2.56834 56.8023 2.60474C56.0341 2.77764 55.2844 2.80494 54.7753 2.12244C54.1459 2.25894 53.9423 3.36913 53.1 2.65934C53.0353 3.09614 52.9057 3.47833 52.3873 3.35093C51.4618 3.12343 50.7398 3.53293 50.0364 4.01523C47.7132 5.62591 45.39 7.2275 43.0668 8.83818C42.7244 9.07478 42.3912 9.32048 42.0302 9.58438C42.2708 9.71178 42.4375 9.80278 42.7151 9.94837C42.4652 10.0758 42.3079 10.2214 42.2153 10.1941C41.5119 9.93927 41.0398 10.1759 40.6789 10.7856C40.6141 10.8948 40.4567 10.9585 40.3271 11.0222C37.6985 12.2416 35.579 14.1525 33.3854 15.9634C32.9781 16.3001 32.8485 16.9189 32.2099 17.1282C32.6819 17.2374 33.1447 17.3557 33.7926 17.5104C33.191 17.8016 32.7837 17.9927 32.3487 18.2111C31.7749 17.7106 31.2658 17.8107 30.6734 18.3203C29.8127 19.0665 28.8501 19.6944 27.9338 20.3769C27.3692 20.7955 27.3043 20.7864 26.8786 20.1221C26.388 20.2768 25.8975 20.4315 25.4069 20.5953C25.4625 20.6772 25.518 20.75 25.5735 20.8319C25.1663 22.0968 24.1944 22.8612 22.9912 23.389V24.3808C21.9823 24.8267 22.0194 24.8358 21.6028 26.0188C21.501 26.31 21.0845 26.5557 20.7606 26.6831C20.4274 26.8105 20.0294 26.765 19.5758 26.8105C19.0853 27.5931 18.5762 28.4212 18.0394 29.222C17.8543 29.5041 17.5859 29.7316 17.3174 29.9591C16.8547 30.3504 16.3734 30.7144 15.9013 31.0966C15.7532 30.3595 15.5126 29.677 14.7814 29.2948C15.4293 28.3575 15.4293 28.3575 16.4937 28.6669C17.373 27.9935 17.6877 26.8287 18.6688 26.2281C18.8539 26.1189 19.0298 25.9005 19.0853 25.7003C19.3074 24.9723 19.8443 24.581 20.5014 24.2898C20.6032 24.2444 20.705 24.1989 20.8531 24.1261C20.4551 23.8804 19.9553 23.9349 20.0664 23.6438C20.5847 23.1706 20.9272 22.8703 21.2604 22.5609C21.8064 22.0604 22.1489 21.4052 22.8709 21.0139C23.4262 20.7136 23.963 20.0675 24.1389 19.476C24.3055 18.9027 24.5647 18.475 24.9626 18.1474C24.3795 17.4103 24.5739 16.6823 24.6943 15.9452C25.5643 15.836 25.9067 16.382 26.1381 16.9735C26.6565 16.3183 27.1192 15.7359 27.4895 15.2627C27.2951 14.8805 27.1192 14.6348 27.0822 14.38C27.0637 14.2344 27.2303 13.9978 27.3784 13.9068C27.943 13.561 28.017 13.3881 27.5728 13.0878C27.0822 12.7602 26.5547 12.4873 25.9993 12.1597C25.8605 12.4327 25.7309 12.6783 25.6106 12.9058C24.4443 12.5964 24.2685 12.6602 23.6299 13.561C23.5003 13.743 23.3614 13.9341 23.1948 14.0888C21.7417 15.4811 20.2885 16.8734 18.9464 18.1474C18.9464 18.8208 19.7424 19.0301 19.3537 19.5488C19.0205 19.9947 18.5855 19.6307 18.1967 19.567C18.1319 19.5579 18.0579 19.5761 17.845 19.5852C16.6603 20.841 15.2904 22.0968 14.189 23.5346C13.5596 24.3626 12.2731 24.7903 12.3749 26.1553C12.3934 26.4283 11.9213 26.7286 11.7177 27.038C11.5511 27.2837 11.366 27.5476 11.329 27.8206C11.1346 29.1674 10.0702 29.9682 9.3205 30.9601C8.70962 31.77 7.76554 32.3797 7.92289 33.59C7.9414 33.7083 7.71002 33.8539 7.59895 33.9904C7.51565 34.0996 7.33979 34.2634 7.36755 34.3089C7.77481 34.955 7.18244 35.1642 6.85849 35.5009C6.72891 35.6283 6.51602 35.8103 6.53453 35.9377C6.66411 36.6293 6.13653 36.9023 5.76631 37.3209C5.3498 37.785 4.73892 38.1672 4.71115 38.9043C4.71115 39.0044 4.63711 39.1591 4.55381 39.1864C3.61898 39.4867 3.71155 40.1146 3.95219 40.8335C4.01698 41.0246 3.95219 41.2703 3.90591 41.4887C3.82261 41.9073 3.88739 42.2076 4.20209 42.5807C4.72966 43.1995 4.43349 43.8092 3.60047 43.9366C3.18396 44.0003 2.73969 43.9457 2.28616 43.9457C2.24914 44.3188 2.28615 44.7283 2.14732 45.0559C2.01774 45.3653 1.68454 45.5928 1.41612 45.8931C1.49942 46.0569 1.60124 46.248 1.72156 46.4664C1.49017 46.7211 1.26803 46.9759 1.11068 47.1397C1.2958 48.3591 0.546087 49.1053 0 49.9334C0.527576 50.3702 1.13845 50.7069 1.08292 51.6078C1.04589 52.2357 1.40687 52.809 2.26765 52.9455C2.16583 52.6088 2.07328 52.3176 2.00849 52.0901C2.39723 51.7443 2.71192 51.4622 3.04512 51.1619C2.8415 50.7706 2.24913 50.4521 2.65639 50.0153C3.24875 50.1609 3.74857 50.2792 4.23912 50.3975C4.14656 50.6341 4.08176 50.7797 3.9707 51.0709C4.67413 50.8707 5.08139 51.0618 5.32204 51.5623C5.21097 51.9809 5.09065 52.3995 4.97958 52.809L5.19246 52.7453C5.51641 53.264 5.84035 53.7827 6.18281 54.3287C6.56229 54.2832 6.96955 54.2377 7.34904 54.1922C7.49713 53.9556 7.64521 53.7281 7.87661 53.3459C8.14502 53.8828 8.33014 54.2559 8.51525 54.629C8.61707 54.6381 8.72813 54.6472 8.82994 54.6563C8.08949 53.5097 9.22794 52.7635 9.13538 51.8808C9.55189 51.5714 10.0517 51.3894 10.1813 51.0709C10.4404 50.4248 10.968 50.3247 11.4956 50.1154C12.0787 49.8879 12.6248 49.7241 12.995 49.0416C13.2912 48.4956 13.828 47.7585 14.7444 47.9223C15.0498 48.7322 14.0502 48.8778 13.9576 49.624C14.3371 49.5603 14.6981 49.6058 14.8832 49.4511C15.5126 48.9233 16.3549 48.5775 16.5677 47.6584C16.614 47.4582 16.7991 47.258 16.975 47.1215C17.7617 46.4755 18.6225 45.9113 19.3537 45.2015C19.7609 44.8102 20.3441 44.4917 20.4089 43.8274C20.6958 43.6909 21.1308 43.609 21.2326 43.3815C21.4918 42.7991 21.9361 42.6626 22.4729 42.608C22.3803 43.1449 22.2878 43.6727 22.1952 44.1914C22.6765 44.7283 23.1393 44.6919 23.6021 44.2278C23.8149 44.0094 24.0741 43.8183 24.2315 43.5635C24.8886 42.4351 25.9808 41.7253 26.8971 40.8426C26.9156 40.8244 27.0267 40.8972 27.147 40.9518C26.6842 41.7981 26.3047 42.699 25.7494 43.4816C25.0552 44.4644 24.1852 45.3198 23.4725 46.2934C23.019 46.9122 22.5469 47.4491 21.8712 47.8131C21.8342 47.8313 21.8435 47.9405 21.825 48.0497C22.1119 47.986 22.3803 47.9314 22.621 47.8859C22.5747 49.0052 21.5751 49.6786 21.5566 50.7433C21.5566 50.8616 21.3807 51.0709 21.2789 51.08C20.7698 51.0982 20.8439 51.4986 20.7143 51.7898C20.5569 52.1538 20.2978 52.4723 20.0942 52.8181C20.0201 52.9364 19.9183 53.0911 19.9368 53.2094C20.0941 54.0739 19.1501 54.4106 19.002 55.1204C18.1412 55.2023 18.4189 56.2397 17.7987 56.5127C17.3267 57.8503 17.1509 59.3154 16.0217 60.3528C15.9198 60.4529 15.8921 60.6258 15.8088 60.7532C15.5774 61.0899 15.3275 61.4175 15.1701 61.645C14.9665 62.2729 14.9202 62.8917 14.5963 63.3103C13.9946 64.0838 13.9113 64.9665 13.7447 65.8583C13.6799 66.2223 13.5689 66.5954 13.393 66.923C12.958 67.7511 12.4026 68.5337 12.0324 69.3891C11.6529 70.2535 11.4215 71.1726 11.1716 72.0826C11.1346 72.2191 11.3105 72.4193 11.4493 72.7378C11.7455 71.9734 12.0787 71.4729 12.7451 71.1726C12.8654 71.7186 12.6433 72.2191 13.0876 72.7014C13.5319 73.1928 14.6518 72.9926 14.513 74.0391C14.513 74.0482 14.5778 74.0664 14.6333 74.0937H15.5589V74.9218C15.8828 74.7398 16.1327 74.6033 16.3826 74.4577C16.5955 74.7671 16.7621 75.0219 16.9287 75.2676C16.9935 75.3586 17.0398 75.4678 17.0953 75.5588C16.2715 76.4324 16.2623 76.4506 16.7436 77.0603H16.7343C16.6603 78.0249 15.781 77.9885 15.0683 78.216C15.6977 78.7984 16.8547 77.7337 17.1138 79.0441H18.965C19.076 79.1897 19.2149 79.3899 19.3722 79.5992C20.0386 79.4263 20.6588 79.2625 21.1123 79.1442C21.3437 79.5082 21.464 79.9177 21.7324 80.0451C21.8898 80.1179 22.2785 79.7721 22.5377 79.5901C22.7413 79.4536 22.9172 79.2807 23.13 79.0987C23.5095 79.5355 23.5743 79.854 23.2318 80.2726C22.8709 80.7184 22.769 81.2735 22.9079 82.1016C23.9075 80.8731 24.2685 79.59 24.8146 78.2979C24.9442 78.307 25.2218 78.3252 25.7216 78.3525C25.0274 78.944 25.6753 80.0542 24.5276 80.1725C24.5276 81.1552 24.5184 81.1461 23.7964 82.411C23.6113 82.7477 23.3984 83.1754 23.4632 83.5212C23.6298 84.4676 23.2041 85.3412 22.2878 85.687C22.2322 85.7052 22.1952 85.7962 22.1119 85.9145C22.1489 86.1602 22.1952 86.4514 22.2415 86.8063C22.9727 86.0692 23.4355 85.232 24.3425 84.6587C24.4351 85.3139 24.5184 85.8417 24.5647 86.2057C24.3425 86.6607 24.1759 86.9974 24.0186 87.325C24.4443 87.052 24.7127 87.4888 24.9626 87.6071C25.6568 87.0702 26.2862 86.5879 27.1192 85.9509C26.8416 87.0338 25.6291 87.2704 25.7494 88.3169C26.0826 88.3624 26.4158 88.3988 26.7398 88.4443C26.6565 88.8993 26.6009 89.2633 26.5176 89.7365C27.2118 89.2633 27.2858 88.3715 28.2021 88.235C28.1188 88.7173 28.017 89.1086 28.0078 89.4908C27.9985 89.8457 28.2484 90.2916 28.1003 90.5555C27.8134 91.0742 28.2762 91.2744 28.4706 91.6384C28.1003 91.784 27.8042 91.9023 27.5265 92.0115C27.7671 92.2844 28.0171 92.5665 28.2855 92.8759C28.5169 92.794 28.7575 92.6666 29.0167 92.612C29.7201 92.4574 30.2106 92.8304 30.3495 93.5857C30.6549 93.3946 31.0159 93.2399 31.2658 92.9942C31.7101 92.5483 32.1451 92.612 32.5986 92.9214C32.8485 93.0943 33.0521 93.3127 33.2928 93.5311C34.2276 93.1034 35.3846 93.8951 36.1713 92.8304C36.3935 93.1489 36.5045 93.4583 36.7359 93.6039C37.2265 93.9133 37.1987 94.432 37.1802 94.8142C37.1524 95.615 36.9303 96.4067 36.8007 97.1984C36.7544 97.4805 36.7267 97.7717 36.6989 98.0265C37.0599 98.1448 37.319 98.2267 37.5875 98.3086C37.4301 99.0002 36.4953 99.3642 36.9951 100.192C37.245 100.165 37.4856 100.129 37.7633 100.101C37.8096 100.52 37.8466 100.866 37.9021 101.321C38.2168 101.148 38.4482 101.02 38.6704 100.902C38.5038 100.92 38.3279 100.948 38.1428 100.966C38.1891 99.4916 38.837 98.1266 39.9384 97.3895C39.8366 97.8809 39.7996 98.2176 39.6978 98.5361C39.4941 99.164 39.2535 99.7737 39.0313 100.402C39.1517 100.292 39.272 100.183 39.3923 100.065C39.4479 100.156 39.5034 100.256 39.5589 100.347C39.5219 100.738 39.4849 101.12 39.4479 101.503C39.5312 101.503 39.6052 101.503 39.6885 101.494C39.6515 101.111 39.6052 100.72 39.5682 100.338C39.8643 100.356 40.1605 100.365 40.4197 100.383C40.9936 101.403 39.9662 102.158 40.0587 103.359C40.466 102.64 40.8547 102.376 41.4656 102.367C41.771 102.367 42.1228 102.049 42.3634 101.794C42.6226 101.521 42.7521 101.139 42.9835 100.847C43.3075 100.438 43.5944 99.9557 44.3441 99.9375C44.3349 100.574 44.085 101.102 43.8813 101.657C43.687 102.185 43.1039 102.695 43.5852 103.523C43.8166 103.059 43.9276 102.704 44.1498 102.44C44.483 102.058 44.7236 101.685 44.7977 101.157C44.8625 100.647 45.1494 100.147 45.825 100.165C45.9639 100.547 46.0842 100.893 46.1397 101.048C45.5474 102.349 45.0013 103.486 44.5292 104.651C44.3164 105.17 44.0017 105.443 43.4741 105.57C42.8632 105.716 42.9187 105.124 42.6688 104.679C42.4467 105.297 42.5022 105.643 42.891 105.943C43.4093 106.335 43.9091 106.744 44.4737 107.19C45.1679 106.999 45.8991 106.799 46.6303 106.599C46.9172 106.526 47.2504 106.317 47.4725 106.408C47.815 106.535 48.0742 106.863 48.3981 107.136H50.3511C50.2678 107.436 50.2123 107.663 50.1197 108C50.4714 107.845 50.7398 107.627 50.9527 107.663C51.9616 107.864 52.6373 107.172 53.2759 106.699C54.4051 105.862 55.7472 105.443 56.9041 104.66C57.043 104.569 57.3947 104.606 57.5428 104.715C57.8667 104.979 58.1351 105.316 58.3758 105.579C58.9219 105.088 59.4679 104.497 60.1066 104.042C60.8748 103.496 61.2358 102.649 61.8374 101.985C62.8278 100.893 63.633 99.619 64.9103 98.7909C64.9381 98.7727 64.9751 98.7454 64.9936 98.709C65.6137 97.1711 67.2983 96.3157 67.7056 94.6413C67.7241 94.5776 67.7981 94.4866 67.8537 94.4775C68.085 94.432 68.5201 94.341 68.5386 94.3865C68.7329 94.9325 69.2883 94.7323 69.6307 94.978C69.5567 94.5321 69.1402 94.159 69.5659 93.7131C70.0657 93.1944 70.5193 92.6393 71.0839 91.9932C71.0561 92.9578 71.5282 93.6312 72.1205 93.9315C72.5278 94.1408 72.898 94.4047 73.2497 94.6868C73.4904 94.5412 73.6755 94.432 73.9254 94.2864C73.9902 94.6322 74.6381 94.796 74.166 95.2419C73.6477 95.7424 73.296 95.16 72.8702 94.9143C72.6111 95.1418 72.3612 95.3147 72.1761 95.5422C71.9539 95.8061 71.9354 96.1883 72.2501 96.3339C72.7869 96.5796 72.6296 96.8981 72.463 97.253C72.3241 97.5533 72.1668 97.8445 72.0187 98.1539C71.7133 98.0902 71.4448 98.0356 70.9543 97.9355C71.5374 98.6999 71.8243 99.3642 72.7036 99.5007C73.4811 99.6281 74.2401 99.8738 75.1379 100.101C75.3785 99.9921 75.7765 99.8101 76.2393 99.5917C76.3689 99.9557 76.4707 100.22 76.5448 100.438C77.1094 100.62 77.3963 100.347 77.711 100.028C77.9239 99.801 78.3219 99.5098 78.5533 99.5735C79.8676 99.9466 80.571 99.1822 81.2374 98.3086C81.441 98.0447 81.6076 97.7626 81.802 97.4623C82.2 97.4259 82.5795 97.3986 82.9312 97.3713C83.2089 97.6807 83.4403 97.9537 83.5513 98.072C83.7179 98.7272 82.8201 98.7818 83.1811 99.4734C83.9308 98.9274 84.6435 98.4815 84.4954 97.4259C85.1988 96.9527 86.1429 96.9163 86.726 96.1064C87.2721 95.342 88.0496 94.7414 88.7068 94.0498C89.3269 93.4037 89.9193 92.7303 90.4654 92.1297C90.2617 91.5655 90.1229 91.1833 89.9748 90.783C90.2617 90.601 90.5024 90.4463 90.743 90.3007C90.7152 90.5373 90.6875 90.7738 90.6505 91.065C90.8356 91.0924 91.0299 91.1743 91.1225 91.1105C92.5201 90.1733 93.5382 88.872 94.5564 87.5889C94.4083 87.2431 93.7419 87.2431 94.0473 86.688C94.288 86.2512 94.5286 85.8781 95.1395 85.8599C95.0377 86.2785 94.9544 86.6061 94.8341 87.1066C95.4264 86.8609 95.8707 86.4878 96.2224 86.5606C97.4812 86.8245 98.2309 86.142 99.0917 85.3412C98.7492 85.1865 98.4993 85.0682 98.1939 84.9226C98.4808 84.4039 98.7492 83.9216 99.0454 83.3756C99.3508 83.4302 99.6655 83.4848 99.971 83.5303C99.4712 83.8306 99.3971 84.2492 99.3693 84.7133C100.332 84.3766 100.545 85.2229 101.128 85.7507C100.656 85.9509 100.471 86.1875 100.582 86.688C100.665 87.0793 100.443 87.5252 100.332 88.0712C99.4249 88.3624 99.3693 89.2997 99.1287 90.1642C99.4804 90.1642 99.7766 90.1551 100.073 90.1642C100.517 90.1824 100.952 90.2188 101.396 90.2643C101.887 90.3098 102.405 90.4554 102.868 90.3735C103.303 90.2916 103.692 89.964 104.256 89.6546C104.201 90.1187 104.173 90.3553 104.155 90.5828C104.543 90.6465 104.876 90.7102 105.265 90.7739C105.506 89.7456 106.478 89.8093 107.172 89.3816C107.32 89.7547 107.431 90.0459 107.616 90.4918C108.745 89.7638 109.773 89.0904 110.782 88.4443C111.013 88.6445 111.143 88.7537 111.124 88.7355C111.754 88.4261 112.226 88.1713 112.716 87.962C113.318 87.7072 113.938 87.507 114.53 87.2249C114.66 87.1612 114.697 86.8973 114.808 86.6607C114.336 86.597 113.984 86.5515 113.447 86.4878C113.771 86.1056 113.947 85.8144 114.206 85.6142C115.9 84.2492 117.603 82.8842 119.315 81.5374C120.306 80.7548 121.352 80.036 122.324 79.2352C122.694 78.9349 122.851 78.3798 123.231 78.1068C123.573 77.852 124.082 77.8156 124.637 77.6427C124.304 77.2241 124.064 76.9147 123.767 76.5325C124.536 76.3505 124.656 76.9693 125.017 77.2969C125.544 76.851 126.072 76.4051 126.683 75.8955C126.757 76.3323 126.822 76.6963 126.905 77.1513C125.989 77.306 125.507 78.1614 124.554 78.2433C124.193 78.2797 123.971 78.6801 124.119 79.0987C125.137 79.0896 125.572 77.8975 126.637 77.9976C126.553 78.1887 126.498 78.3343 126.415 78.5345C126.683 78.4799 126.859 78.4435 127.099 78.398V79.2989C126.748 79.3262 126.461 79.3535 126.054 79.3808C126.859 80.4272 125.878 81.3736 126.072 82.4383C126.452 82.229 127.007 82.0652 126.998 81.9014C126.988 81.1188 127.627 81.137 128.044 80.7912C128.293 81.3736 127.858 82.2381 128.849 82.2199C129.608 81.774 129.848 81.1916 129.45 80.3908C129.358 80.2088 129.441 79.9359 129.441 79.7084C129.487 79.6993 129.543 79.6902 129.589 79.6811C129.7 79.8813 129.802 80.0815 129.913 80.2816C129.959 80.2635 130.006 80.2543 130.052 80.2362C130.024 79.9996 129.987 79.7721 129.959 79.5082C130.283 79.4536 130.617 79.4809 130.839 79.3444C131.089 79.1806 131.042 78.671 131.533 78.7165C131.69 79.5901 131.626 79.5537 131.218 80.1816C130.746 80.9186 130.385 81.7285 129.987 82.502C130.774 82.9115 131.672 82.9297 132.014 83.7851C131.052 84.6496 130.931 84.9408 131.005 86.4878C131.561 85.5232 132.014 84.7315 132.468 83.9307V83.9671C132.486 83.9671 132.505 83.958 132.523 83.958C132.514 83.9489 132.505 83.9489 132.486 83.9398C132.968 83.4302 133.56 83.0025 133.606 82.2108C133.615 82.0834 133.791 81.9742 133.856 81.8377C134.051 81.4282 134.143 80.9641 134.421 80.6274C134.68 80.309 135.115 80.136 135.476 79.8995C135.282 79.5992 135.133 79.3626 134.93 79.0623C135.356 79.0168 135.652 78.9804 135.939 78.9531C136.133 78.1432 136.281 78.0249 137.059 78.0249C136.985 78.2342 136.911 78.4344 136.836 78.6346C137.336 78.2615 138.04 77.9885 137.818 77.2787C137.577 76.4961 138.179 75.8864 138.132 75.1493C138.123 74.9946 138.54 74.8126 138.938 74.5214C138.845 75.2039 138.965 75.5497 139.521 75.486C139.474 75.8227 139.419 76.1685 139.345 76.6326C140.252 76.0047 141.353 75.941 141.798 75.0128C141.668 74.667 141.566 74.394 141.455 74.0755C142.121 73.757 142.344 73.3202 142.501 72.6104C142.668 71.8551 142.575 71.4365 142.066 71.0634C142.131 70.6448 142.186 70.2899 142.242 69.9441C142.186 69.9259 142.121 69.8986 142.066 69.8804C141.955 70.0988 141.844 70.3172 141.705 70.5811C140.965 69.3526 141.4 67.7056 142.455 67.2506C142.769 67.6146 143.029 68.0059 143.38 68.288C143.741 68.5882 144.176 68.7885 144.685 69.0979C144.787 68.7976 144.898 68.47 145 68.1788C144.445 67.9968 143.889 68.1333 143.621 67.6692ZM139.65 26.947C139.622 27.5203 139.178 27.7842 138.762 28.0845C138.558 27.22 138.558 27.2018 139.65 26.947ZM24.6757 13.2425C24.7868 13.2607 24.9071 13.2698 25.0182 13.288C24.9627 13.4882 24.9071 13.6975 24.8608 13.8977C24.7775 13.8795 24.6943 13.8613 24.611 13.8431C24.6387 13.6429 24.6572 13.4427 24.6757 13.2425ZM23.2874 14.4255C23.3244 14.4801 23.3614 14.5347 23.4077 14.6166C23.3429 14.6894 23.2781 14.7622 23.2133 14.8441C23.1578 14.7713 23.0467 14.6712 23.0652 14.6348C23.093 14.5438 23.2041 14.4892 23.2874 14.4255ZM16.0031 25.8459C16.0864 25.9915 16.179 26.1462 16.2623 26.2918C16.2067 26.3282 16.1512 26.3646 16.0957 26.4101C15.9846 26.2736 15.8736 26.1462 15.7532 26.0097C15.8458 25.9551 15.9291 25.9005 16.0031 25.8459ZM4.59084 50.352C4.47977 50.1245 4.3687 50.0062 4.39646 49.9152C4.42423 49.7969 4.55382 49.624 4.64637 49.624C4.75744 49.624 4.86851 49.7696 4.98883 49.8515C4.88702 49.9789 4.77595 50.1063 4.59084 50.352ZM15.0683 31.7427C15.0683 32.0703 14.9572 32.3524 14.5777 32.3251C14.4204 32.316 14.2816 32.0703 14.0964 31.8883C14.4482 31.5607 14.7536 31.6062 15.0683 31.7427ZM13.9669 41.061C13.6985 42.2986 13.6985 42.2986 12.6341 41.8254C12.7821 41.0883 13.5226 41.334 13.9669 41.061ZM12.8007 26.4283C13.0506 26.3191 13.3467 26.0552 13.5411 26.5011C13.2171 26.7832 12.9117 27.0562 12.523 27.402C12.5322 27.0107 12.3101 26.6467 12.8007 26.4283ZM12.2638 42.0711C12.2731 42.1712 12.125 42.2804 12.0509 42.3896C11.9491 42.3077 11.7918 42.2349 11.764 42.1348C11.7363 42.0347 11.8473 41.8982 11.9399 41.6889C12.1065 41.8618 12.2546 41.9619 12.2638 42.0711ZM10.1443 33.135H11.1161C10.8662 33.6173 10.6533 34.0359 10.4127 34.5C9.71849 34.136 10.1813 33.6446 10.1443 33.135ZM10.1443 35.4008C10.7551 35.1096 11.2827 34.8549 11.764 34.6183C11.8381 35.3462 11.5974 36.0014 10.6719 36.2107C10.894 37.0661 10.7829 37.2026 9.81106 37.3482C9.92213 36.693 10.0425 36.0287 10.1443 35.4008ZM8.30238 37.5666C8.2561 36.9478 8.33939 36.7567 9.2372 35.7648C9.36678 36.2198 9.4686 36.5838 9.56115 36.9114C9.07986 37.1571 8.69112 37.3664 8.30238 37.5666ZM9.44083 45.9659C9.32976 46.1388 9.22795 46.3116 9.11688 46.4845C9.04284 46.4208 8.96879 46.3572 8.88549 46.2934C9.01507 46.1479 9.1539 46.0023 9.28348 45.8567C9.33901 45.8931 9.38529 45.9295 9.44083 45.9659ZM8.83921 38.3947C8.62633 38.4584 8.4227 38.5312 8.20981 38.5949C8.18205 38.5312 8.14503 38.4675 8.11726 38.4129C8.20982 38.3492 8.30238 38.2582 8.40419 38.2309C8.52451 38.1945 8.6541 38.2036 8.78368 38.1854C8.80219 38.2491 8.8207 38.3219 8.83921 38.3947ZM8.14503 34.3908C8.5893 34.5182 8.94102 34.6183 9.37604 34.7457C8.95954 35.1734 8.63558 35.5919 7.88587 35.3918C7.97843 35.046 8.05247 34.7457 8.14503 34.3908ZM5.30352 40.9973C5.55342 40.8608 5.71077 40.7789 5.89588 40.6788C5.69226 40.424 5.47938 40.1692 5.16469 39.7779C5.60896 39.5777 5.95143 39.4139 6.57156 39.1227C6.07175 39.9872 7.13615 40.6879 6.20133 41.425C5.90514 41.2885 5.64598 41.1611 5.30352 40.9973ZM9.06134 51.262C8.78367 51.7716 7.86735 52.263 7.33977 52.2721C6.32165 52.2903 5.92365 51.7079 6.30314 50.7615C6.38644 50.5522 6.46974 50.352 6.54378 50.1427C7.2287 50.1063 6.79369 50.4885 6.92327 50.7706C7.03434 50.4339 7.15466 50.0972 7.22871 49.8515C8.11726 49.624 8.95953 49.4056 10.061 49.1144C9.66296 50.0062 9.39454 50.6523 9.06134 51.262ZM10.5145 49.4329C10.607 48.8778 11.1069 48.7595 11.3753 48.4592C11.3753 48.9415 11.3753 48.9506 10.5145 49.4329ZM12.0232 45.338C11.5511 45.52 11.292 46.2298 11.0143 46.8031C11.1624 46.7212 11.3382 46.6756 11.4308 46.5574C11.5419 46.4118 11.5882 46.2024 11.7918 46.1297C12.0324 46.7029 11.7455 47.0396 11.5511 47.4127C11.3845 47.7221 10.9402 48.0406 11.3753 48.4683C11.0513 48.5138 10.7181 48.5593 10.4034 48.5957C10.135 48.1043 9.88511 47.6584 9.60744 47.1488C9.93139 46.9122 10.3942 46.7485 10.2831 46.1479C10.2461 45.9204 10.4775 45.5837 10.6811 45.3835C11.2735 44.8011 11.8103 44.2096 12.1898 43.4452C12.4767 42.8719 13.0691 43.1995 13.5504 43.1449C13.7355 43.6545 13.8558 44.0003 13.3097 44.3643C12.8747 44.6737 12.6063 45.1196 12.0232 45.338ZM14.1057 46.4755C13.7633 46.066 13.4856 45.7293 13.1709 45.3471C13.4023 44.883 13.791 44.8648 14.1983 45.0741C14.5685 45.2561 14.5315 45.7839 14.1057 46.4755ZM14.0872 42.9174C13.8743 42.2622 14.3741 41.8618 14.7073 41.3704C14.9943 41.3977 15.2812 41.4341 15.6422 41.4705C15.0868 41.9892 14.5962 42.4442 14.0872 42.9174ZM15.0683 31.7154C14.9665 31.588 14.8739 31.4515 14.7536 31.3514C14.4019 31.0966 14.4019 30.8418 14.7536 30.4869C15.1146 30.6962 15.4756 30.8964 15.8458 31.1148C15.5866 31.3241 15.3275 31.5152 15.0683 31.7154ZM17.6784 77.0967C17.3637 77.0967 17.0398 77.0967 16.7158 77.0967C16.7066 76.9966 16.6973 76.8965 16.6881 76.7964C16.651 76.3869 16.7158 76.0047 17.2434 76.0138C17.6136 76.0138 17.771 76.4233 17.6784 77.0967ZM23.093 78.7893C23.019 78.762 22.9357 78.7438 22.8616 78.7165V76.8237C23.3707 76.9511 23.7316 77.033 24.2962 77.1695C23.8334 77.7883 23.4632 78.2888 23.093 78.7893ZM24.361 76.9056C23.7964 76.4688 23.9908 76.123 24.361 75.6862C24.6387 76.1321 24.5832 76.4779 24.361 76.9056ZM26.2492 67.4144C26.0548 67.378 25.8512 67.3507 25.6568 67.3143C25.6846 67.2142 25.7216 67.0322 25.7402 67.0322C25.9345 67.0504 26.1196 67.105 26.314 67.1414C26.2955 67.2415 26.277 67.3325 26.2492 67.4144ZM44.918 13.4245C44.483 13.7339 44.2146 13.6884 44.0757 13.0605C44.4552 13.2334 44.6866 13.3335 44.918 13.4245ZM41.9284 11.004C42.5393 11.2588 42.2708 11.7229 41.9191 12.187C41.5581 12.0596 41.2157 11.9322 40.7992 11.7775C41.0583 11.2315 41.3545 10.7674 41.9284 11.004ZM40.4382 17.7106L40.6418 17.7288L40.5863 18.2111C40.54 18.2111 40.4937 18.202 40.4382 18.202V17.7106ZM34.4405 20.7318C34.3387 21.1049 34.2276 21.4416 33.7186 21.0594C33.9592 20.9502 34.1999 20.841 34.4405 20.7318ZM30.8308 25.2271C30.9048 25.2271 30.9881 25.2271 31.0622 25.2271C31.2195 25.4455 31.3769 25.6548 31.5435 25.8914C31.2936 26.0734 31.0529 26.492 30.7475 26.0552C30.6271 25.8732 30.7938 25.5092 30.8308 25.2271ZM26.8046 29.7498C26.8879 29.7498 26.9712 29.8408 27.1007 29.9318C26.9712 30.0137 26.8878 30.1047 26.8138 30.0956C26.7305 30.0865 26.6657 29.9773 26.5917 29.9136C26.6657 29.8499 26.7398 29.7498 26.8046 29.7498ZM17.41 45.5928C17.1601 45.0104 17.6507 44.9467 18.0394 44.61C18.0394 45.2379 17.9468 45.5382 17.41 45.5928ZM25.3514 40.4149C25.0275 40.6788 24.6665 40.9336 24.4629 41.2794C24.0093 42.0438 23.2781 42.3623 22.4914 42.608C24.1019 40.4422 25.4625 39.0772 26.6194 38.4766C26.5639 38.9771 25.8697 39.9963 25.3514 40.4149ZM28.2762 88.2259C28.1837 87.9802 28.0911 87.8619 28.1188 87.7891C28.1744 87.6526 28.2762 87.5252 28.3965 87.416C28.415 87.3978 28.6372 87.5343 28.6372 87.5434C28.5631 87.7072 28.4798 87.8528 28.2762 88.2259ZM28.702 38.0853C28.304 37.8578 28.8408 37.2208 28.1466 37.3482C28.1559 37.1389 28.0726 36.8568 28.1836 36.7476C28.378 36.5474 28.6834 36.4564 29.0722 36.2562C29.2388 36.6839 29.3499 36.9933 29.5072 37.3937C29.2388 37.6212 28.9519 37.8669 28.702 38.0853ZM31.7378 31.8792C30.8678 32.8165 30.0255 33.7993 29.1 34.6911C28.0633 35.6829 26.786 36.4291 25.9808 37.6576C25.7864 37.9579 25.4162 38.1581 25.1293 38.3947C24.9256 38.5585 24.6942 38.7041 24.5091 38.8861C23.5188 39.8871 22.5469 40.8972 21.5658 41.9073C21.4362 42.0438 21.3344 42.2531 21.1771 42.3168C20.4551 42.608 20.2793 43.154 20.3441 43.8365C19.7887 43.2996 19.4277 43.9093 18.8631 44.2733C19.0483 43.4088 19.3815 42.7263 19.8813 42.4351C21.0938 41.7435 21.3992 40.7334 21.3344 39.4685C21.5195 39.4503 21.6769 39.4048 21.8157 39.4321C22.1397 39.4958 22.5284 39.7506 22.7505 39.6414C23.1485 39.4594 23.5188 39.1136 23.7594 38.7405C24.1852 38.1035 24.287 37.2299 25.194 36.966C25.3421 36.0287 26.0271 35.965 26.7953 35.9286C27.0267 35.9195 27.3229 35.7193 27.4524 35.5191C28.1096 34.5728 29.0259 33.9176 29.9145 33.226C30.3587 32.8802 30.6642 32.3888 31.0807 31.9975C31.2195 31.8701 31.4879 31.8701 31.7008 31.8064C31.6268 31.5698 31.562 31.3332 31.4694 31.042C32.0525 31.0147 32.3117 31.2422 32.3024 31.5971C32.3117 31.8428 32.0803 32.0885 31.7378 31.8792ZM32.8393 45.3198C32.5894 44.7556 32.8578 44.6191 33.3576 44.6555C33.2095 44.8466 33.0522 45.0377 32.8393 45.3198ZM35.0606 90.5555C34.7737 89.6182 35.4679 89.7365 35.9029 89.3179C35.977 90.2643 35.3198 90.1005 35.0606 90.5555ZM37.0969 93.0033C36.7822 92.5574 36.6156 92.3208 36.4398 92.066C36.4305 91.7203 37.3283 91.3472 38.2539 91.4018C37.8651 91.9387 37.5319 92.4027 37.0969 93.0033ZM37.4579 93.7404C37.643 93.0488 38.0225 92.8668 38.6796 92.8668C38.5778 93.1853 38.513 93.3946 38.4205 93.6858C38.152 93.704 37.8559 93.7131 37.4579 93.7404ZM38.6982 95.4967C38.8185 95.5695 38.9481 95.6332 39.1332 95.7424C38.874 96.2156 38.6056 96.6888 38.3094 97.2166C37.8188 96.9345 37.68 96.5796 37.7818 96.2065C38.0873 95.1327 38.3464 94.0134 39.5312 93.3309C39.9384 94.3501 38.8833 94.7505 38.6982 95.4967ZM43.8628 30.7144C43.724 30.5142 43.6222 30.4232 43.6037 30.3049C43.5944 30.2412 43.7425 30.0865 43.798 30.0956C43.9184 30.1047 44.0294 30.2048 44.1405 30.2685C44.0757 30.3868 44.0017 30.496 43.8628 30.7144ZM44.9365 29.3039C44.8439 29.1947 44.7144 29.0946 44.7329 29.0582C44.7791 28.9581 44.8902 28.8853 44.9735 28.8034C45.0291 28.8853 45.1494 28.9581 45.1401 29.04C45.1401 29.1128 45.029 29.1947 44.9365 29.3039ZM44.4459 17.9199C44.3256 17.9836 44.3997 18.384 44.3811 18.7116C44.2423 18.8299 44.0017 19.021 43.7703 19.2212C43.687 19.294 43.6314 19.4942 43.5944 19.4851C42.6133 19.2394 42.6411 20.2404 42.1598 20.6135C41.6785 20.9775 41.262 21.4234 40.7714 21.7692C40.6326 21.8693 40.3457 21.7601 39.9106 21.7237C39.9939 21.6509 39.8551 21.7237 39.7903 21.842C39.2813 22.7429 38.6241 23.4982 37.7448 24.0896C37.4857 24.2625 37.4486 24.7448 37.2728 25.0633C37.0321 25.5092 37.3283 25.6457 37.643 25.8368C37.7355 25.8914 37.6523 26.2008 37.6523 26.4738C37.0969 26.2554 36.6434 26.0734 36.1065 25.8641C36.0232 25.9642 35.9585 26.1462 35.8566 26.1553C34.6627 26.3373 34.0055 27.3383 33.1355 27.9662C32.4505 28.4576 31.8211 29.131 31.1362 29.6952C30.5716 30.1593 29.9793 30.5779 29.5813 31.2149C29.3962 31.5152 29.0167 31.6881 28.6464 31.9884V32.9257C28.341 32.6527 28.1651 32.498 27.9338 32.2978C27.7857 32.4343 27.619 32.5617 27.4895 32.7255C27.4154 32.8074 27.3969 33.0258 27.3599 33.0167C26.1844 32.9621 26.1011 34.2088 25.3421 34.6547C25.1293 34.7821 25.0367 35.0914 24.8608 35.3735C25.2218 35.4918 25.4347 35.5646 25.6476 35.6374C25.6198 35.7193 25.6198 35.8194 25.5735 35.8376C24.7405 36.1743 23.9723 36.7021 23.0282 36.7476C22.8616 36.7567 22.6487 36.8841 22.5562 37.0297C22.1952 37.6121 21.6861 37.5211 21.1493 37.4119C20.5847 38.6495 20.1867 39.9963 18.8169 40.7061C18.5762 40.8335 18.4096 41.152 18.2893 41.4159C17.9468 42.2349 17.2804 42.2986 16.2808 42.2804C16.5863 41.8436 16.7528 41.5251 16.9935 41.2703C17.4563 40.788 18.0024 40.4058 17.771 39.5777C17.7154 39.3957 17.9283 38.7405 18.5855 38.9407C18.7151 38.9771 19.1408 38.604 19.1131 38.5039C18.965 38.0034 19.474 37.7395 19.4925 37.4301C19.5388 36.8022 19.8535 36.693 20.4459 36.7476C20.1219 36.2744 19.8813 35.9286 19.5666 35.4827C19.8905 35.3826 20.0942 35.3372 20.2885 35.2553C20.6217 35.1097 21.1123 35.0187 21.2511 34.7548C21.8342 33.6992 22.7968 33.1077 23.7594 32.4889C24.0556 32.2978 24.3147 32.0612 24.759 31.9884C24.4813 32.4343 24.2037 32.8802 23.926 33.3261C24.5924 32.9985 25.2033 32.6436 25.3514 31.8974C25.4347 31.4788 25.6013 31.2149 26.0918 31.3423V31.3696C26.0918 31.3605 26.0918 31.3605 26.0918 31.3514C26.0918 31.3423 26.0826 31.3332 26.0826 31.3332C26.4066 31.2422 26.7212 31.1512 27.0729 31.0602C27.2025 30.5142 27.2118 29.8772 27.943 29.6588C28.017 29.6315 28.0818 29.4677 28.0911 29.3676C28.1929 28.6123 28.5909 27.3838 28.9241 26.9015C28.9611 26.856 29.0537 26.8469 29.248 26.7741C29.2018 27.0198 29.174 27.1927 29.137 27.3747C29.1 27.5567 29.0537 27.7387 28.9982 27.9298C29.3869 27.8479 29.7386 27.766 30.1921 27.675C30.3495 27.3656 30.5346 27.038 31.0159 26.765C31.8397 26.2918 32.9318 25.8732 33.0336 24.6629C32.8208 24.5082 32.6264 24.3626 32.3857 24.1897C32.5338 24.0624 32.6264 23.935 32.7004 23.9441C32.9503 23.9714 33.2002 24.0532 33.4409 24.1169C33.7556 22.5791 35.0144 21.569 36.2269 21.8966C36.051 22.2515 35.1995 21.9512 35.4494 22.7793C36.8377 22.6246 37.4116 21.114 38.7999 20.9502C38.6519 20.5134 38.5501 20.2131 38.3742 19.6944C39.4571 20.2404 40.1235 20.022 40.3086 19.1029C40.8362 18.6934 41.4841 19.3577 41.771 18.8845C41.4656 17.8835 41.1972 17.0281 40.9103 16.0817C41.9839 16.3365 41.6692 15.2172 42.3264 14.6712C42.2338 15.5266 42.4467 16.0453 43.1964 16.2C42.9835 16.6004 42.8169 16.9189 42.6318 17.2738C43.5574 17.201 43.7332 17.0918 43.6499 16.5458C43.5574 15.9907 43.3815 15.472 43.7518 14.9169C43.8813 14.7258 43.7055 14.3436 43.6499 13.8067C44.0017 14.1343 44.1683 14.4073 44.3996 14.4801C44.6033 14.5529 44.8902 14.4073 45.1309 14.3709C45.4733 14.8168 45.4826 15.1535 44.9272 15.3719C45.2049 15.5175 45.4826 15.6631 45.8158 15.836C45.2697 16.5185 45.2697 17.4467 44.4459 17.9199ZM49.5551 22.5882C49.5736 21.7874 50.1567 21.7601 50.564 21.4143C50.6843 21.66 50.7583 21.8238 50.8879 22.1059C50.4529 22.2606 50.0549 22.4062 49.5551 22.5882ZM57.5428 13.5701C58.0703 13.4882 58.3665 13.4518 58.672 13.4063C58.6905 13.5155 58.6997 13.6156 58.7182 13.7248C58.4406 14.0615 58.1351 14.0524 57.5428 13.5701ZM64.3457 95.2237C63.7256 95.8516 63.4109 96.6433 62.9481 97.344C62.6242 97.8263 62.2539 98.0629 61.8559 98.3541C61.7634 98.2904 61.6801 98.2176 61.5875 98.1539C61.7634 97.8081 61.8744 97.3895 62.1429 97.1256C63.2165 96.0518 63.994 94.7869 64.7345 93.4765C64.9566 93.0852 65.1787 92.6666 65.512 92.3846C65.7341 92.1935 66.1506 92.2207 66.4838 92.1479C66.5301 92.2298 66.5763 92.3117 66.6226 92.3936C65.8637 93.3491 65.188 94.3592 64.3457 95.2237ZM71.2505 42.7627C71.1764 42.7081 71.0931 42.6535 71.0191 42.5989C71.1672 42.4169 71.3153 42.244 71.5559 41.9528C71.7781 42.5352 71.5559 42.6717 71.2505 42.7627ZM76.1282 5.24372C76.0634 5.22552 76.0079 5.19822 75.9431 5.18002C75.9987 4.97982 76.0449 4.77962 76.1005 4.57942C76.2115 4.61582 76.3134 4.65222 76.4244 4.67952C76.3319 4.87062 76.23 5.06172 76.1282 5.24372ZM84.5417 95.8971C84.4677 95.8425 84.3936 95.7879 84.3103 95.7333C84.551 95.4603 84.7916 95.1873 85.023 94.9143C85.097 94.9689 85.1618 95.0235 85.2359 95.0781C85.0045 95.3511 84.7731 95.6241 84.5417 95.8971ZM89.9285 86.0328C90.3543 85.6506 90.5857 85.4413 90.9744 85.0955V86.3513C90.6412 86.2512 90.4005 86.1784 89.9285 86.0328ZM92.4368 87.9165C92.0018 88.4534 91.5575 88.9721 91.1595 89.5363C91.0577 89.6819 91.1873 89.9549 91.1225 90.146C91.0855 90.237 90.8726 90.2643 90.7338 90.3189C90.2432 89.4999 90.2802 89.236 90.9374 88.6172C91.104 88.4625 91.3261 88.3078 91.3817 88.1167C91.6501 87.234 92.4276 86.8791 93.168 86.3513C93.3161 87.0065 92.7145 87.6799 93.4827 88.0803C92.9088 88.5899 92.733 88.0803 92.4368 87.9165ZM95.7226 85.1501C95.6393 84.959 95.5375 84.8225 95.5652 84.7861C95.7133 84.6041 95.8892 84.4494 96.065 84.2856C96.1391 84.3493 96.2224 84.4221 96.2964 84.4858C96.1206 84.6951 95.9447 84.8953 95.7226 85.1501ZM96.5186 83.1117C96.9814 83.1754 97.3053 83.2209 97.62 83.2664C97.0369 83.9125 97.0369 83.9125 96.5186 83.1117ZM108.968 60.2709C108.884 60.1981 108.81 60.1253 108.727 60.0434C109.18 59.7249 109.208 58.9696 110.18 58.915C109.699 59.4519 109.328 59.8614 108.968 60.2709ZM110.634 57.823C110.578 57.7411 110.522 57.6684 110.43 57.5501C110.55 57.4955 110.661 57.3954 110.708 57.4227C110.782 57.4591 110.856 57.5864 110.846 57.6684C110.837 57.7138 110.708 57.7684 110.634 57.823ZM112.799 87.3614C112.772 87.4069 112.67 87.3978 112.605 87.416C112.577 87.3705 112.559 87.325 112.531 87.2795C112.642 87.2067 112.762 87.1339 112.873 87.0611C112.846 87.1612 112.846 87.2704 112.799 87.3614ZM117.973 6.7543C117.779 7.6643 117.779 7.6643 116.992 7.80989C117.353 7.4186 117.64 7.1092 117.973 6.7543ZM117.335 62.6733C117.483 62.2729 117.585 62.009 117.677 61.7451C117.76 61.7815 117.853 61.7906 117.872 61.827C118.094 62.2729 117.918 62.5004 117.335 62.6733ZM116.835 76.6417C116.826 75.8864 117.372 75.8773 117.807 75.7408C117.76 76.305 117.362 76.487 116.835 76.6417ZM118.862 75.5133C118.529 75.85 118.223 75.7863 117.872 75.7044C118.066 75.3768 117.955 74.8763 118.464 74.6943C118.547 74.667 118.492 74.3576 118.584 74.2211C119.001 73.575 119.389 72.9016 119.899 72.3374C120.028 72.1918 120.583 72.4284 120.972 72.4921C121.018 72.938 121.065 73.3202 121.093 73.5659C120.297 74.2393 119.538 74.8399 118.862 75.5133ZM119.639 79.0532C119.556 78.9349 119.547 78.671 119.621 78.5436C119.824 78.1978 120.111 78.2979 120.38 78.4799C120.426 78.6619 120.463 78.8348 120.509 79.0259C120.213 79.2443 119.917 79.4354 119.639 79.0532ZM120.445 78.4435C120.759 78.1341 121.065 77.8338 121.379 77.5244C121.509 78.4162 120.889 78.3161 120.445 78.4435ZM123.277 70.9997C123.129 71.1271 123.129 71.4001 123.045 71.664C122.749 71.6822 122.324 71.7186 121.898 71.755C121.713 70.7176 121.713 70.7176 122.435 70.2262C122.324 70.0988 122.111 69.9623 122.111 69.8258C122.111 69.6984 122.37 69.4436 122.444 69.4618C122.833 69.5619 123.332 69.6438 123.555 69.9168C123.832 70.2444 123.656 70.6812 123.277 70.9997ZM132.514 56.6856C132.44 56.7766 132.366 56.8585 132.283 56.9495C132.033 56.7311 131.792 56.5036 131.357 56.1214C132.061 56.1578 132.384 56.2852 132.514 56.6856ZM129.691 65.4124C130.135 65.3669 130.533 64.9574 131.005 65.103C131.033 65.2031 131.052 65.3032 131.079 65.4033C130.7 65.6308 130.33 65.8856 129.922 66.0676C129.774 66.1313 129.413 66.0676 129.358 65.9584C129.228 65.7036 129.33 65.4488 129.691 65.4124ZM128.247 57.6411C128.062 57.8867 127.877 58.1415 127.692 58.3872L127.46 58.2325L127.942 57.4318C128.044 57.5046 128.145 57.5683 128.247 57.6411ZM135.439 20.6954C135.467 21.0503 135.485 21.2778 135.504 21.5053C134.967 21.2869 135.078 21.0594 135.439 20.6954ZM136.355 14.2708C136.475 14.6803 136.587 14.9351 136.614 15.199C136.661 15.6904 136.707 16.1636 136.198 16.5458C135.282 17.2374 135.032 17.9108 135.198 18.9846H133.643V17.1464C135.43 17.019 135.568 15.3901 136.355 14.2708ZM133.662 10.7856C133.865 11.095 134.097 11.3862 134.236 11.7229C134.291 11.8503 134.134 12.0778 134.051 12.3235C133.366 11.8503 133.652 11.2861 133.662 10.7856ZM132.884 32.4798C132.931 32.5253 132.977 32.5708 133.023 32.6163L132.597 33.0804C132.533 33.0167 132.468 32.953 132.403 32.8893C132.56 32.7528 132.718 32.6163 132.884 32.4798ZM129.922 35.0551C130.385 35.6738 130.071 36.2289 130.098 36.8568C130.913 36.4109 131.422 35.7466 131.959 35.1006C133.125 33.7083 134.152 32.2068 135.568 31.0238C136.142 30.5506 136.716 30.0865 137.355 29.5678C137.734 30.0228 137.253 30.405 136.985 30.7144C135.578 32.3069 134.143 33.863 132.699 35.419C131.468 36.7567 130.209 38.0671 128.988 39.3684C128.516 39.2319 128.46 38.9953 128.636 38.6586C128.756 38.4129 128.849 38.1581 128.96 37.9033C128.96 37.9033 128.96 37.9033 128.951 37.9033C129.154 37.6758 129.367 37.4392 129.645 37.1389C129.228 36.9842 128.96 36.8841 128.534 36.7294C129.025 36.1379 129.441 35.6374 129.922 35.0551ZM128.997 37.2117C128.969 37.4574 128.951 37.6758 128.923 37.9033C128.34 38.0671 127.757 38.2309 127.109 38.4038C127.636 37.8396 127.96 37.1207 128.997 37.2117ZM124.952 58.9878C125.23 59.2881 125.461 59.552 125.702 59.8159C125.619 59.8978 125.545 59.9797 125.461 60.0707C125.165 59.8796 124.878 59.6976 124.554 59.4883C124.702 59.2972 124.795 59.1789 124.952 58.9878ZM125.406 67.3325C125.267 67.3962 125.165 67.469 125.091 67.4508C125.035 67.4417 124.989 67.3234 124.943 67.2506C125.026 67.196 125.109 67.105 125.193 67.105C125.248 67.1141 125.313 67.2233 125.406 67.3325ZM124.425 76.4051C124.332 76.2049 124.23 75.9956 124.11 75.7408C124.628 75.8591 124.628 75.8591 124.425 76.4051ZM124.952 75.5315C124.86 75.5315 124.776 75.5224 124.684 75.5224C124.61 75.3222 124.545 75.1311 124.443 74.849C124.674 74.8126 124.878 74.7762 125.221 74.7216C125.109 75.0583 125.026 75.2949 124.952 75.5315ZM125.896 74.212C125.73 74.0027 125.582 73.8935 125.591 73.8025C125.6 73.7115 125.757 73.6023 125.868 73.5659C125.924 73.5477 126.091 73.6842 126.091 73.757C126.1 73.8662 126.007 73.9754 125.896 74.212ZM127.905 68.843C127.155 69.5164 126.331 70.0988 125.637 70.8723C125.091 70.8996 124.554 70.936 123.795 70.9815C125.026 70.1079 126.507 69.753 126.683 68.0696C127.414 68.2789 127.914 68.015 128.007 67.4053C128.46 67.3234 128.812 67.3052 129.145 67.196C129.45 67.0959 129.728 66.9139 130.089 66.8502C129.663 67.8694 128.627 68.1879 127.905 68.843ZM132.19 79.7175C132.486 79.5264 132.773 79.3353 133.097 79.126C133.273 80.0087 133.227 80.036 132.19 79.7175ZM132.44 78.6437C131.959 78.307 131.718 77.2696 130.589 77.9339C130.95 76.9784 130.95 76.9784 131.542 77.3788C131.774 77.5335 131.959 77.8338 132.255 77.3879C132.32 77.2878 132.782 77.3788 133.014 77.4789C133.412 77.6518 133.782 77.9066 134.319 78.216C133.671 78.3707 133.106 78.4981 132.44 78.6437ZM133.208 64.6207C133.255 64.5934 133.43 64.7481 133.634 64.8755C133.44 65.0484 133.319 65.194 133.171 65.2577C133.116 65.2759 132.884 65.0666 132.894 65.0211C132.968 64.8664 133.079 64.7117 133.208 64.6207ZM133.18 63.647C133.366 63.2557 133.671 63.1738 134.152 63.2557C133.902 63.7744 133.541 63.7289 133.18 63.647ZM133.801 76.5689C133.486 76.7236 133.199 76.8601 132.912 77.0057C132.857 76.942 132.801 76.8874 132.745 76.8237C132.949 76.5871 133.143 76.3414 133.384 76.0593C133.56 76.2595 133.671 76.4051 133.801 76.5689ZM132.44 63.8654C132.671 63.8017 132.912 63.738 133.143 63.6743C133.171 64.2203 132.884 64.2021 132.44 63.8654ZM132.977 62.7552C132.866 62.6915 132.625 62.555 132.31 62.3821C133.014 61.7633 133.606 61.1718 134.819 61.2173C134.115 61.8088 133.597 62.2365 132.977 62.7552ZM134.587 73.4385C135.189 72.9016 135.596 73.0108 135.902 73.4294C136.003 73.5659 136.04 73.9299 135.948 74.0027C135.781 74.1392 135.42 74.2666 135.272 74.1756C135.004 74.03 134.828 73.7115 134.587 73.4385ZM135.837 77.0421C135.504 76.5143 135.032 76.0138 135.439 75.4769C135.837 74.94 136.309 75.7499 136.957 75.3859C136.457 76.1139 136.152 76.5689 135.837 77.0421ZM139.9 56.904C140.002 56.7857 139.798 56.4126 139.706 56.1305C140.122 56.4581 140.539 56.7857 141.094 57.2225C140.9 57.9959 140.659 58.8422 140.483 59.7067C140.437 59.916 140.604 60.1617 140.678 60.4347C139.835 60.5348 139.734 59.6794 139.15 59.3973C139.697 58.6147 139.271 57.6411 139.9 56.904ZM139.474 75.5315C139.391 75.2039 139.447 74.9309 139.835 74.758C140.132 75.2403 139.761 75.3677 139.474 75.5315ZM139.261 74.1301C139.16 73.484 139.456 73.3566 140.039 73.575C139.789 73.7479 139.539 73.9208 139.261 74.1301ZM139.521 71.8915C139.974 71.846 140.215 71.8278 140.455 71.8096C140.474 71.9461 140.52 72.0371 140.492 72.0826C140.233 72.4557 139.965 72.4193 139.521 71.8915ZM139.724 62.6096C139.826 62.0454 140.03 61.8361 140.409 61.8634C140.465 61.8634 140.502 62.1182 140.548 62.2729C140.317 62.373 140.085 62.464 139.724 62.6096ZM141.363 72.0189C141.723 72.7196 141.723 72.7196 140.863 73.2019C140.594 72.5831 141.353 72.4739 141.363 72.0189ZM142.168 65.5216C142.603 65.0302 142.603 65.0302 143.167 65.4397C142.788 65.4761 142.519 65.4943 142.168 65.5216ZM28.415 10.1486C29.0444 10.3397 29.609 10.5126 30.1736 10.6855V12.0869C30.7104 11.8048 31.2103 11.6501 31.5342 11.3225C31.7286 11.1223 31.6453 10.6582 31.6916 10.2396C32.4968 10.7583 32.8485 10.0576 33.3391 9.67538C33.9777 9.17488 33.9129 8.59249 33.5519 7.98279C34.6904 6.5814 35.8011 5.20732 37.0414 3.66943C36.9673 3.30543 36.6897 2.81404 37.0414 2.20434C37.3376 2.57744 37.5782 2.88684 37.7818 3.14163C37.7541 2.24074 37.717 1.33985 37.6893 0.393459C36.2454 1.01225 35.5419 2.60474 33.8759 2.63204C33.3668 3.21443 32.9504 3.86963 32.6819 4.57032C32.5524 4.92522 32.756 5.40752 32.8208 5.88981C32.7004 5.93531 32.5246 5.99901 32.3487 6.05361C32.2376 6.6451 32.6727 7.364 31.9878 7.80989C30.9604 7.455 31.7841 6.4722 31.1733 5.85341C30.7475 6.27201 30.3958 6.7179 29.9515 7.0364C29.211 7.57329 29.0537 8.21029 29.3776 9.02018C29.4147 9.10208 29.3499 9.22948 29.3221 9.38418C29.0537 9.34778 28.813 9.32048 28.6002 9.30228V8.61068C27.7024 8.87458 27.6653 8.98378 28.1374 9.57528C28.2762 9.77548 28.3502 10.0212 28.415 10.1486ZM132.894 85.7689C133.19 85.9145 133.412 86.0146 133.791 86.1966C133.458 86.5333 133.171 86.8154 132.875 87.1248C133.282 87.4615 133.569 87.2886 133.717 86.8609C134.171 85.5869 135.032 84.595 135.837 83.5394C136.364 82.8569 136.901 81.9833 136.707 81.0278C137.262 80.682 137.836 80.4272 138.262 80.0268C138.688 79.6356 139.002 79.1078 139.298 78.6073C139.567 78.1523 139.743 77.6427 139.983 77.1149C139.067 76.9784 138.503 77.215 138.095 77.8702C137.262 79.2261 136.448 80.591 135.541 81.9014C134.985 82.7022 134.745 83.7123 133.902 84.322C133.856 84.6132 133.893 84.959 133.736 85.1865C133.588 85.4322 133.245 85.5414 132.894 85.7689ZM29.4239 11.0586C29.1185 11.1132 28.7482 11.2679 28.6742 11.1769C28.304 10.7401 27.8597 10.8675 27.4617 10.9676C27.2673 10.6946 27.11 10.4853 26.9526 10.2669C26.7768 10.4671 26.5917 10.6764 26.3695 10.9312C27.2396 11.6228 28.0078 12.2234 28.7297 12.7966C29.7108 12.3599 29.2295 11.6137 29.4239 11.0586ZM134.106 36.9023C133.745 37.3118 133.412 37.7486 133.097 38.1945C133.014 38.3037 133.023 38.4766 132.995 38.6222C133.069 38.6677 133.143 38.7041 133.217 38.7496C134.449 37.3755 135.68 35.9923 136.92 34.6183C136.818 34.5273 136.716 34.4454 136.624 34.3544C136.17 34.7912 135.717 35.228 135.272 35.6738C134.874 36.0742 134.476 36.4746 134.106 36.9023ZM19.6406 13.4245C19.6314 13.4336 19.6314 13.4427 19.6314 13.4609C19.6499 13.4609 19.6591 13.4609 19.6776 13.4518L19.6406 13.4245ZM19.3907 13.8977C19.511 13.8067 19.5573 13.6156 19.6221 13.4518C19.076 13.5064 18.5299 13.561 17.9561 13.6247C18.3633 14.5256 17.4007 14.6712 17.0953 15.199C16.7713 15.108 16.4937 15.0352 16.1049 14.926C16.0216 15.381 15.9569 15.7541 15.8643 16.2637C16.2438 16.1181 16.4844 16.0817 16.651 15.9543C17.5766 15.29 18.4929 14.6075 19.3907 13.8977ZM116.168 85.4595C116.613 85.4231 116.798 85.4413 116.946 85.3867C117.927 85.0136 118.436 84.0581 119.269 83.503C119.464 83.3756 119.575 83.1208 119.843 82.7568C118.14 83.1481 117.353 84.3311 116.168 85.4595ZM120.408 82.2745C121.694 81.774 123.286 80.5273 123.656 79.7357C122.759 79.7084 121.472 80.7093 120.408 82.2745ZM18.8076 50.8343C20.2237 50.4612 21.4085 49.0416 20.7698 48.1498C20.4273 48.532 20.0479 48.9051 19.7424 49.3237C19.4092 49.7605 19.1501 50.261 18.8076 50.8343ZM60.338 2.94144C60.2084 3.64213 60.0973 4.20633 59.9955 4.75232C60.2084 5.15272 60.412 5.55311 60.6619 6.02631C61.134 4.58852 61.2265 4.09713 60.338 2.94144ZM14.1242 50.1245C13.1986 49.9243 12.7266 50.2246 12.3749 50.8525C12.162 51.2347 11.8288 51.5623 11.4216 52.081C12.7544 51.7352 13.3097 50.8707 14.1242 50.1245ZM16.5029 50.4794C17.0861 49.8242 17.0583 49.7423 16.1605 49.2145C15.2997 50.2155 15.2904 50.2701 15.8643 51.0891C16.0864 50.8798 16.3178 50.6978 16.5029 50.4794ZM20.0201 45.884C20.2237 46.1206 20.4181 46.348 20.6402 46.6119C21.0012 46.1934 21.3067 45.8385 21.7046 45.3835C20.5569 45.1014 20.5569 45.1014 20.0201 45.884ZM142.705 71.1726C143.13 71.3546 143.473 71.4911 144.01 71.7186C143.806 70.9451 143.862 70.2899 143.362 69.6074C143.093 70.2444 142.899 70.7085 142.705 71.1726ZM4.35018 56.2761C4.91478 55.6937 4.97032 54.9384 4.41498 54.265C4.09103 54.993 3.43387 55.6209 4.35018 56.2761ZM40.4937 103.878C40.1605 104.196 40.0217 104.706 39.7533 105.206C40.2438 105.143 40.5771 105.097 40.9843 105.043C40.7714 104.888 40.6141 104.779 40.466 104.66C40.8084 104.069 41.1324 103.523 41.5119 102.877C40.7436 102.913 40.8084 103.587 40.4937 103.878ZM21.0197 12.5146C20.8994 12.2143 20.7791 11.9231 20.6402 11.5955C19.8535 12.0141 19.9646 12.8148 19.6869 13.4154C20.2978 13.379 20.6773 13.0059 21.0197 12.5146ZM19.6406 13.4245L19.6684 13.4518C19.6776 13.4427 19.6777 13.4245 19.6869 13.4154C19.6684 13.4154 19.6591 13.4245 19.6406 13.4245ZM19.6221 46.8394C19.2611 46.8667 18.9094 46.8941 18.5022 46.9305C18.4652 47.4491 18.1412 47.8859 18.5392 48.3227C18.9465 47.895 19.3445 47.4582 19.7517 47.0305C19.7054 46.9577 19.6684 46.894 19.6221 46.8394ZM18.5577 48.35C18.5485 48.3409 18.5392 48.3318 18.5299 48.3227L18.5577 48.35ZM11.4956 74.0664C12.6896 73.6023 12.7173 73.5295 12.0139 72.4557C11.8288 73.029 11.6807 73.484 11.4956 74.0664ZM33.1355 14.6621C32.9874 14.0342 32.8763 13.5337 32.7097 12.8512C32.4968 13.2334 32.358 13.4791 32.2006 13.7612C32.4783 14.0342 32.5338 14.471 33.1355 14.6621ZM33.5149 12.7784C33.5705 12.8694 33.9962 12.8785 34.0888 12.7784C34.459 12.3963 34.1998 12.1142 33.7833 11.8594C33.4501 12.0869 33.2836 12.3963 33.5149 12.7784ZM54.6643 107.736C55.127 107.463 55.488 107.254 55.9878 106.954C54.9697 106.462 54.9049 106.508 54.6643 107.736ZM137.003 25.7185C137.114 25.1179 138.484 25.7276 138.114 24.5719C137.558 24.8176 137.049 25.0269 137.003 25.7185ZM139.641 30.3777C139.308 30.8509 139.039 31.2331 138.725 31.6881C139.465 31.6608 139.465 31.6608 139.641 30.3777ZM141.788 62.6551C142.121 62.7643 142.381 62.8553 142.621 62.9281C142.806 62.555 142.945 62.2638 143.093 61.9817V61.9908C142.473 61.7724 142.223 62.2456 141.788 62.6551ZM92.6127 7.4095C92.3998 7.3731 92.2239 7.4277 92.0573 7.5005C91.6223 7.7007 91.1873 7.91909 90.743 8.12839C91.502 8.22849 92.0944 7.90999 92.6127 7.4095ZM122.268 7.1274C122.018 7.79169 121.787 8.31949 121.629 8.87458C121.583 9.04748 121.657 9.25678 121.703 9.45698C121.787 8.70168 122.657 8.12839 122.268 7.1274ZM18.4929 48.3864C18.0209 48.6685 17.5396 48.9415 17.0305 49.2418C17.6136 49.5512 17.9931 49.2964 18.4929 48.3864ZM18.5577 48.35L18.5299 48.3227C18.5207 48.35 18.5022 48.3682 18.4929 48.3864C18.5114 48.3682 18.5392 48.3591 18.5577 48.35ZM129.423 84.0672C129.432 84.0672 129.432 84.0672 129.441 84.0672H129.423ZM128.886 84.9499C128.969 84.9499 129.052 84.9499 129.136 84.9499C129.228 84.6587 129.321 84.3675 129.413 84.0672C129.182 84.1127 128.812 84.1127 128.784 84.2037C128.719 84.4312 128.849 84.7042 128.886 84.9499ZM28.739 17.8107C29.2388 17.7743 29.5813 17.4649 29.8127 16.9553C29.4332 17.1555 29.0629 17.3648 28.6835 17.565C28.702 17.6469 28.7205 17.7288 28.739 17.8107ZM69.6955 97.6352C69.7973 97.6625 69.9084 97.6898 70.0102 97.7171C70.0843 97.4168 70.1583 97.1165 70.2323 96.8162C69.8251 97.0073 69.5104 97.2257 69.6955 97.6352ZM56.6542 106.99C57.2003 106.863 57.6446 106.972 57.8112 106.317C57.2744 106.235 56.9967 106.453 56.6542 106.99ZM61.8282 10.5126L61.4672 11.5409C61.9392 11.3134 62.1799 11.0131 61.8282 10.5126ZM23.9075 87.4342C23.6483 87.3705 23.3799 87.3068 23.0467 87.234C23.3707 87.8892 23.3799 87.8983 23.9075 87.4342ZM23.9075 87.4342C23.926 87.4342 23.9353 87.4433 23.9538 87.4433C23.963 87.4251 23.9723 87.3978 23.9908 87.3796C23.9723 87.3887 23.9538 87.3978 23.926 87.416C23.9168 87.4251 23.9168 87.4251 23.9075 87.4342ZM129.885 84.7679C130.357 84.2947 130.357 84.2947 130.089 83.7578C130.006 84.1491 129.941 84.4585 129.885 84.7679ZM133.893 84.3493C133.902 84.3402 133.912 84.3311 133.921 84.3311C133.921 84.322 133.921 84.322 133.921 84.3129C133.902 84.322 133.893 84.3311 133.875 84.3402C133.875 84.3493 133.884 84.3493 133.893 84.3493ZM133.875 84.3402C133.458 83.958 132.968 83.9398 132.459 84.049C132.903 84.2492 133.301 84.7315 133.875 84.3402ZM138.956 23.0068C138.614 23.1433 138.345 23.2434 137.882 23.4254C138.752 23.6074 138.752 23.6074 138.956 23.0068ZM30.3032 94.3137V93.7222C30.0626 93.886 29.8126 94.0407 29.3961 94.3137H30.3032ZM30.3032 93.7131C30.3125 93.704 30.3217 93.704 30.331 93.6949C30.331 93.6767 30.3217 93.6676 30.3217 93.6585C30.3125 93.6585 30.3125 93.6676 30.3032 93.6676V93.7131ZM22.621 84.4312C22.5654 84.413 22.4636 84.3766 22.4544 84.3948C22.3063 84.5768 22.1674 84.7679 22.0286 84.959L22.334 85.0955C22.4358 84.8771 22.5284 84.6587 22.621 84.4312ZM70.6118 98.9092C70.5378 99.0184 70.6859 99.2732 70.7414 99.4643C70.834 99.4279 70.9265 99.3915 71.0098 99.3551C70.9913 99.255 70.9635 99.1458 70.9543 99.0457C70.9265 98.7818 70.7599 98.6908 70.6118 98.9092ZM134.347 82.8842C134.504 82.6931 134.661 82.4929 134.819 82.3018C134.754 82.2472 134.689 82.1835 134.634 82.1289C134.449 82.3018 134.263 82.4747 134.069 82.6476C134.162 82.7204 134.254 82.8023 134.347 82.8842ZM143.093 61.9817C142.899 61.7178 143.093 61.0899 142.455 61.2264C142.658 61.4812 142.871 61.7269 143.093 61.9817C143.093 61.9817 143.084 61.9817 143.093 61.9817ZM4.07251 26.2008C3.98921 26.1644 3.91516 26.1007 3.8874 26.1189C3.8041 26.1735 3.73931 26.2554 3.66527 26.3282C3.73931 26.3646 3.83187 26.4374 3.87815 26.4192C3.96145 26.3737 4.00772 26.2736 4.07251 26.2008ZM115.474 86.051C115.372 86.1147 115.298 86.2239 115.206 86.324C115.289 86.3786 115.363 86.4332 115.511 86.5333C115.585 86.3968 115.659 86.2967 115.687 86.1784C115.696 86.1511 115.502 86.0328 115.474 86.051ZM29.0074 6.7634C28.9889 6.6633 28.9426 6.5814 28.9056 6.4813C28.8408 6.5086 28.7205 6.545 28.7297 6.5541C28.7482 6.6542 28.7945 6.7543 28.8408 6.8635C28.9056 6.8271 29.0167 6.7816 29.0074 6.7634ZM26.8971 20.1039C26.8601 20.1039 26.8323 20.0948 26.7953 20.0948C26.8045 20.113 26.8138 20.1221 26.8231 20.1403C26.8601 20.1221 26.8786 20.113 26.8971 20.1039ZM27.2303 19.9037C27.1192 19.9674 27.0082 20.0311 26.8971 20.0948C27.0267 20.1039 27.1655 20.1221 27.2951 20.1312C27.2766 20.0584 27.2581 19.9856 27.2303 19.9037ZM137.781 23.7257C137.318 23.6256 137.031 23.5619 136.753 23.4982C136.966 23.7985 137.197 24.035 137.781 23.7257ZM2.18435 28.5031C2.09179 28.4667 2.00848 28.4303 1.91593 28.3939C1.88816 28.4576 1.83263 28.5577 1.85114 28.585C1.90668 28.6578 2.00849 28.6942 2.08254 28.7397C2.1103 28.6669 2.13807 28.6032 2.18435 28.5031ZM12.0232 53.1548C12.088 53.1821 12.1435 53.2094 12.2453 53.264C12.3008 53.1912 12.3564 53.1184 12.4119 53.0456C12.3471 53.0092 12.2638 52.9364 12.236 52.9546C12.1527 53.0001 12.0972 53.0911 12.0232 53.1548ZM106.311 90.8012C106.376 90.8558 106.45 90.965 106.515 90.965C106.607 90.965 106.709 90.8922 106.811 90.8467C106.644 90.7102 106.58 90.6192 106.552 90.6283C106.459 90.6647 106.385 90.7375 106.311 90.8012ZM128.858 83.4575C129.089 83.6941 129.256 83.867 129.413 84.0399C129.404 83.594 129.358 83.5485 128.858 83.4575ZM129.413 84.0581C129.423 84.0581 129.441 84.0672 129.441 84.0672C129.432 84.0581 129.423 84.049 129.413 84.0399C129.413 84.049 129.413 84.049 129.413 84.0581ZM21.103 37.3846C21.103 37.3937 21.1123 37.4028 21.1123 37.4119C21.1216 37.4119 21.1215 37.4119 21.1308 37.4119C21.1401 37.4028 21.14 37.3846 21.1493 37.3755C21.1308 37.3755 21.1123 37.3755 21.103 37.3846ZM20.5014 37.5393C20.7791 37.4665 20.9457 37.4301 21.103 37.3846C21.0475 37.2117 20.992 37.0388 20.8809 36.6748C20.7143 37.057 20.631 37.2299 20.5014 37.5393ZM26.1381 32.2705C26.1196 31.9611 26.1011 31.6608 26.0826 31.3514C26.0178 31.6608 25.9623 31.9611 25.8975 32.2614C25.9715 32.2705 26.0548 32.2705 26.1381 32.2705Z" fill="#F02801"/>
</svg>
