<svg width="40" height="40" viewBox="0 0 40 40" fill="none" xmlns="http://www.w3.org/2000/svg">
<path fill-rule="evenodd" clip-rule="evenodd" d="M1.86481 0.0912803C1.17498 0.307915 0.485067 0.925194 0.169151 1.60835L0 1.97418V14.6484V27.3225L0.219717 27.792C0.499705 28.3901 1.08027 28.9437 1.65152 29.1572C2.06934 29.3135 2.22589 29.3176 7.86385 29.3176H13.6476L13.8097 29.1114C14.0248 28.8381 14.0149 28.5156 13.7831 28.2462L13.5943 28.0267L7.85383 27.9875L2.11341 27.9484L1.84986 27.7606C1.70498 27.6572 1.5208 27.4284 1.44064 27.2521C1.30061 26.9437 1.2949 26.4584 1.29325 14.673C1.29208 6.1982 1.3172 2.34666 1.37481 2.19441C1.4206 2.0733 1.55265 1.87302 1.66834 1.74941C2.06011 1.33053 2.19748 1.30918 4.49586 1.30918H6.60943L6.63142 7.16293L6.65334 13.0167L6.88894 13.4771C7.29456 14.2695 8.20701 14.7715 9.02044 14.6496C9.21628 14.6203 10.5073 14.1416 11.8895 13.5858C13.3092 13.0149 14.513 12.5752 14.6564 12.5752C14.8 12.5751 16.0239 13.0222 17.4742 13.6044C19.8536 14.5594 20.0749 14.6335 20.5471 14.632C20.8468 14.6311 21.1772 14.5772 21.3511 14.5007C21.75 14.3255 22.2434 13.8676 22.4509 13.4801C22.6211 13.1624 22.6213 13.1534 22.6428 7.23553L22.6643 1.30918L24.7953 1.3109C27.1857 1.31285 27.3875 1.35072 27.7561 1.86723L27.944 2.13065L27.9832 8.82332C28.0192 14.9752 28.0332 15.5325 28.1566 15.7208C28.3298 15.985 28.6825 16.0647 28.9855 15.908C29.1126 15.8423 29.2384 15.7316 29.2652 15.6619C29.2919 15.5923 29.3138 12.5117 29.3138 8.81636C29.3138 2.23564 29.3105 2.08856 29.1534 1.66898C28.9397 1.09802 28.3859 0.517743 27.7875 0.237894L27.3178 0.0182864L14.7548 0.00349985C4.57421 -0.00854844 2.12969 0.00811576 1.86481 0.0912803ZM21.3298 7.05347V12.7979L21.132 13.0328C20.7568 13.4784 20.7185 13.47 17.8257 12.3075C15.3884 11.328 15.143 11.2451 14.6798 11.2451C14.2197 11.2451 13.9635 11.33 11.6286 12.2559C10.2268 12.8119 9.00322 13.2887 8.90945 13.3155C8.81575 13.3424 8.612 13.3113 8.45655 13.2464C7.92843 13.0258 7.94487 13.2281 7.94487 6.94465V1.30918H14.6373H21.3298V7.05347ZM14.4302 16.7075C14.2615 16.7771 11.4766 19.3744 11.3828 19.5496C11.1962 19.898 11.4333 20.4223 11.8097 20.4942C12.1145 20.5524 12.3523 20.4032 13.1827 19.6327L13.9661 18.9058L13.9886 21.606C14.0101 24.1876 14.018 24.3132 14.1679 24.463C14.4358 24.7304 14.7672 24.7469 15.0526 24.5069L15.3006 24.2983L15.3212 21.5936L15.3418 18.8889L16.1866 19.6829C16.9258 20.3776 17.0657 20.4769 17.3056 20.4769C17.8163 20.4769 18.1666 19.8373 17.8637 19.4577C17.5911 19.1162 15.0415 16.7859 14.8683 16.7201C14.641 16.6337 14.6111 16.6329 14.4302 16.7075ZM27.4352 17.3954C24.6667 17.7361 21.9157 19.1714 20.1796 21.181C19.5406 21.9207 18.8399 22.9649 18.7792 23.2679C18.7163 23.5826 19.0542 23.9975 19.3735 23.9975C19.7449 23.9975 19.8341 23.9237 20.2885 23.2412C20.833 22.4233 21.5399 21.6297 22.2628 21.0246C23.1261 20.3018 23.0689 20.3046 23.4503 20.9652C23.975 21.8738 24.1731 22.0282 24.6168 21.8737C24.8415 21.7953 25.087 21.4686 25.087 21.2477C25.087 21.1939 24.907 20.8337 24.6871 20.447C24.3189 19.7997 24.2979 19.7362 24.4227 19.645C24.8031 19.367 26.5836 18.8542 27.6114 18.7266L27.9832 18.6805V19.2291C27.9832 19.9146 28.1198 20.2608 28.4432 20.3947C28.6407 20.4765 28.7333 20.477 28.9254 20.3974C29.2551 20.261 29.3138 20.1102 29.3138 19.3998C29.3138 19.0599 29.331 18.7647 29.3519 18.7437C29.4168 18.6789 30.4941 18.8326 31.1533 19.0005C31.8551 19.1794 32.9675 19.5905 33.032 19.6948C33.0552 19.7323 32.9114 20.038 32.7124 20.3742C32.254 21.1488 32.2083 21.3924 32.4658 21.6915C32.6119 21.8614 32.728 21.9165 32.9396 21.9165C33.3013 21.9165 33.4706 21.7575 33.8606 21.0512C34.0339 20.7374 34.2055 20.4623 34.2419 20.4398C34.4279 20.3249 36.4835 22.2541 36.8485 22.886L36.9861 23.1243L36.2902 23.5224C35.7958 23.8052 35.5676 23.9848 35.5023 24.1426C35.3187 24.5855 35.6097 25.0459 36.0732 25.0459C36.2349 25.0459 36.5657 24.9088 36.9781 24.6711C37.3356 24.465 37.6564 24.326 37.6909 24.3621C37.9464 24.6294 38.5195 26.5741 38.601 27.45L38.651 27.9875H38.1284C37.2592 27.9875 36.8119 28.3046 36.9432 28.8275C37.0423 29.2219 37.2437 29.3176 37.9747 29.3176H38.6514L38.6031 29.8848C38.5764 30.1968 38.4833 30.7336 38.3959 31.0779C38.2422 31.6843 37.804 32.8938 37.6941 33.0153C37.6643 33.0482 37.3252 32.8986 36.9406 32.683C36.5559 32.4673 36.1592 32.2908 36.059 32.2907C35.8192 32.2904 35.4192 32.6958 35.4192 32.9389C35.4192 33.2355 35.6785 33.4975 36.3615 33.8913C36.7696 34.1266 36.9708 34.2865 36.9359 34.3477C36.5784 34.9751 34.9903 36.5619 34.3465 36.9349C34.2848 36.9706 34.1266 36.772 33.8898 36.3617C33.4959 35.6791 33.2337 35.4199 32.937 35.4199C32.6923 35.4199 32.2883 35.8203 32.2883 36.0626C32.2883 36.1646 32.4668 36.5592 32.685 36.9395C32.9032 37.3199 33.0529 37.6573 33.0177 37.6894C32.8933 37.8026 31.6934 38.2385 31.075 38.3952C30.7306 38.4825 30.1935 38.5756 29.8813 38.6022L29.3138 38.6505V37.9741C29.3138 37.2435 29.2181 37.0422 28.8235 36.9432C28.3003 36.8119 27.9832 37.259 27.9832 38.1278V38.6501L27.4453 38.6001C26.5712 38.5189 24.6237 37.946 24.3571 37.6917C24.3216 37.6578 24.4743 37.3103 24.6966 36.9195C25.0238 36.3445 25.0912 36.165 25.0504 35.979C24.9587 35.562 24.5342 35.3382 24.1425 35.5003C23.9772 35.5687 23.804 35.7871 23.5158 36.2905L23.1175 36.9861L22.8697 36.8484C22.5464 36.6689 20.7053 34.8279 20.5252 34.5039L20.3857 34.2534L21.0019 33.8981C21.7595 33.4614 21.909 33.3037 21.909 32.9415C21.909 32.6227 21.601 32.2904 21.3059 32.2907C21.2114 32.2908 20.8203 32.4669 20.4367 32.6818C20.0531 32.8969 19.7253 33.0729 19.7084 33.0729C19.646 33.0729 19.3009 32.2163 19.1057 31.5766C18.8635 30.7827 18.6696 29.5552 18.669 28.8111L18.6685 28.2656L19.1988 28.7916C19.6534 29.2424 19.7688 29.3176 20.0071 29.3176C20.3853 29.3176 20.6253 29.0577 20.6253 28.6484C20.6253 28.3568 20.5668 28.2832 19.4633 27.1865C17.921 25.6537 18.0807 25.6582 16.6137 27.1074C16.0147 27.6991 15.4729 28.2817 15.4097 28.4022C15.1954 28.8101 15.5222 29.3176 15.9992 29.3176C16.2369 29.3176 16.3524 29.243 16.7954 28.8036L17.3136 28.2897L17.3597 29.2535C17.385 29.7835 17.4819 30.5673 17.5751 30.9952C18.5504 35.4789 21.9314 38.8422 26.4421 39.8158C27.5829 40.062 29.7776 40.0613 30.9332 39.8142C35.5028 38.8371 38.9425 35.3432 39.8539 30.7529C40.0634 29.6974 40.0446 27.5046 39.8168 26.4472C39.3359 24.2151 38.2796 22.2569 36.7057 20.6795C35.1454 19.1159 33.265 18.0949 30.9967 17.5796C30.3072 17.423 28.1273 17.3103 27.4352 17.3954ZM2.85099 21.5662L2.6222 21.7949V23.9563C2.6222 26.2155 2.65852 26.4864 2.97796 26.609C3.04762 26.6356 4.10088 26.6575 5.31852 26.6575C7.43968 26.6575 7.54105 26.6507 7.73861 26.4954C7.88804 26.3779 7.94487 26.261 7.94487 26.0715C7.94487 25.3735 7.8046 25.3275 5.67882 25.3275H3.95287L3.95036 23.5477C3.94778 21.6826 3.93611 21.6148 3.58623 21.4285C3.31054 21.2818 3.09521 21.3221 2.85099 21.5662ZM28.2419 21.6827L28.0223 21.8714L27.9832 23.9872L27.944 26.1031L27.4597 26.3448C26.9166 26.616 26.5971 26.9401 26.2809 27.5406C26.0906 27.902 26.0661 28.033 26.0658 28.6917C26.0654 29.3893 26.0818 29.4651 26.3322 29.9266C26.6455 30.5042 26.9902 30.8288 27.5882 31.1091C28.1884 31.3904 29.1563 31.3975 29.7647 31.125C30.2709 30.8982 30.9644 30.1749 31.1558 29.6739L31.292 29.3176H32.7737C33.5886 29.3176 34.3187 29.2837 34.3961 29.2423C34.6371 29.1134 34.7505 28.7321 34.6325 28.4473C34.4679 28.0501 34.1982 27.9875 32.6522 27.9875H31.2891L31.0804 27.5612C30.8076 27.004 30.2609 26.4735 29.7352 26.2556L29.3138 26.0811V23.9796V21.878L29.1217 21.6861C28.8729 21.4373 28.529 21.4361 28.2419 21.6827ZM29.317 27.5418C30.1127 27.9624 30.2442 29.0224 29.5778 29.645C29.1317 30.062 28.6044 30.1302 28.0583 29.8415C27.4139 29.5009 27.1738 28.6675 27.536 28.0282C27.8899 27.4038 28.6585 27.1938 29.317 27.5418Z" fill="#E30D16"/>
</svg>
