<svg width="36" height="36" viewBox="0 0 36 36" fill="none" xmlns="http://www.w3.org/2000/svg">
<path fill-rule="evenodd" clip-rule="evenodd" d="M1.24855 0.0456404C0.44805 0.303886 0.00534219 0.881613 4.80079e-05 1.67479C-0.0136167 3.71957 2.89396 4.0482 3.40299 2.05938C3.5752 1.3867 3.21948 0.599718 2.5756 0.228432C2.22775 0.0279032 1.58 -0.0613461 1.24855 0.0456404ZM15.2079 0.705508C15.1749 0.792645 14.9912 1.33152 14.7998 1.90305L14.4517 2.94216L14.0925 3.07624C13.8949 3.15001 13.5562 3.28825 13.3397 3.38341L12.9463 3.55642L11.8079 2.99586L10.6695 2.43538L8.31399 4.75284L5.95837 7.07036L6.52427 8.1821L7.09018 9.29385L6.76938 10.0464L6.44858 10.7989L5.26175 11.1858L4.07492 11.5727L4.05632 14.8521L4.03772 18.1314L5.24315 18.5267L6.44851 18.922L6.74627 19.6113C6.90996 19.9904 7.04396 20.3384 7.04396 20.3847C7.04396 20.4309 6.88091 20.7533 6.68167 21.101L6.31944 21.7333H4.60692H2.89446V27.4345V33.1358H4.93344H6.97242V32.2912V31.4465H9.17351H11.3745L12.2295 32.2898L13.0845 33.1332L14.6609 33.1521L16.2372 33.171L16.2747 33.7693C16.3187 34.4697 16.49 34.8766 16.9281 35.3206C17.6893 36.0924 18.8999 36.2219 19.8261 35.6306C20.4935 35.2045 20.8179 34.6227 20.895 33.7127L20.9439 33.1358H23.1537C25.5913 33.1358 25.6777 33.1229 26.1344 32.6923C26.5201 32.3285 26.677 31.9696 26.6789 31.4465C26.6802 31.0721 26.6429 30.9219 26.4735 30.6197C26.2793 30.2732 26.2739 30.2424 26.3853 30.1212C26.5829 29.9064 26.739 29.3539 26.6996 29.0093C26.6798 28.8363 26.5799 28.5361 26.4775 28.342C26.3022 28.0096 26.298 27.9791 26.4062 27.8168C26.4693 27.722 26.5593 27.5349 26.606 27.4011C26.6644 27.2339 27.3937 26.45 28.9355 24.8968L31.1799 22.6359L30.6183 21.524L30.0568 20.4121L30.3112 19.8234C30.4511 19.4995 30.5868 19.1655 30.6127 19.081C30.6514 18.9544 30.8737 18.8572 31.8734 18.5294L33.0871 18.1314L33.0685 14.8529L33.0499 11.5742L31.8795 11.1904L30.7091 10.8067L30.5704 10.4807C30.494 10.3015 30.346 9.97103 30.2413 9.74643L30.0509 9.33798L30.6024 8.2501C30.9058 7.65182 31.154 7.12273 31.154 7.07444C31.154 7.02616 30.1078 5.95777 28.8292 4.70033L26.5045 2.41398L25.3415 2.98143L24.1785 3.54889L23.4755 3.25326C23.0888 3.09067 22.7465 2.92998 22.7148 2.89613C22.6831 2.86234 22.4851 2.32002 22.2748 1.69091L21.8925 0.54714H18.5802H15.2678L15.2079 0.705508ZM1.96018 1.21369C2.22926 1.35052 2.33514 1.64952 2.21452 1.9317C2.11722 2.15947 1.98816 2.2364 1.70342 2.2364C1.10997 2.2364 0.931467 1.4661 1.4636 1.20131C1.69082 1.08827 1.71486 1.08883 1.96018 1.21369ZM21.4224 2.75916L21.7902 3.84493L22.3763 4.05496C22.6986 4.17046 23.2454 4.39366 23.5914 4.55097L24.2204 4.83702L25.2552 4.32946L26.2898 3.82191L28.0368 5.53954L29.7837 7.25716L29.2884 8.22997C29.016 8.76497 28.793 9.24739 28.793 9.30194C28.793 9.35649 28.9118 9.64712 29.0569 9.94773C29.202 10.2484 29.4193 10.7641 29.5398 11.0939L29.7589 11.6935L30.8508 12.0489L31.9427 12.4043L31.924 14.8643L31.9052 17.3241L30.8277 17.675L29.7503 18.0258L29.5874 18.4894C29.4977 18.7444 29.276 19.28 29.0946 19.6796L28.7647 20.4062L29.2708 21.4047L29.7768 22.4032L28.0758 24.127C27.1403 25.0751 26.3486 25.8256 26.3166 25.7947C26.2845 25.7638 26.298 25.6846 26.3466 25.6187C26.5155 25.3898 26.6664 25.0045 26.7006 24.715C26.7818 24.0286 26.2201 23.1783 25.5625 22.9923C25.3915 22.944 25.2386 22.8947 25.2228 22.8829C25.2069 22.871 25.5177 22.5455 25.9132 22.1595C27.9562 20.1665 29.009 17.6733 29.0062 14.8355C29.0047 13.3781 28.7847 12.2777 28.2258 10.9324C26.8669 7.6609 23.8649 5.32444 20.2079 4.69195C19.3359 4.54119 17.4603 4.57821 16.5592 4.76403C12.3533 5.63125 9.22359 8.68938 8.31843 12.8162C8.12834 13.683 8.09142 15.6553 8.2491 16.5247C8.64466 18.706 9.58474 20.4882 11.1915 22.103L11.9447 22.8598L9.49245 22.8597L7.04031 22.8595L7.16 22.6307C7.22589 22.5049 7.53324 21.9512 7.84302 21.4003L8.40628 20.3987L8.12898 19.8518C7.97645 19.551 7.74751 19.0162 7.62024 18.6631C7.39245 18.0315 7.38415 18.0199 7.09118 17.9337C6.92749 17.8855 6.43098 17.7195 5.98777 17.5649L5.18198 17.2837L5.2008 14.8454L5.21961 12.4072L6.29276 12.0487L7.3659 11.6903L7.6246 11.0281C7.76683 10.6639 7.99527 10.1284 8.13213 9.83807L8.38103 9.31018L7.87429 8.30655L7.36755 7.30292L9.12593 5.57297L10.8843 3.84303L11.9084 4.34776L12.9325 4.85243L13.6905 4.5024C14.1075 4.3099 14.6257 4.09761 14.8422 4.03068C15.0586 3.96381 15.2721 3.87322 15.3165 3.82937C15.361 3.78552 15.5343 3.33794 15.7017 2.83468C15.8692 2.33142 16.0351 1.8642 16.0705 1.79649C16.13 1.68282 16.3243 1.67331 18.5947 1.67331H21.0545L21.4224 2.75916ZM1.10589 5.68249V6.24839H1.71701H2.32813L2.30724 5.7029L2.28635 5.15741L1.69612 5.137L1.10589 5.11652V5.68249ZM19.3851 5.75731C20.8612 5.89217 22.3288 6.36875 23.4582 7.08014C26.2046 8.80988 27.8562 11.702 27.8618 14.7913C27.8663 17.3112 26.8677 19.6417 25.0201 21.4229L24.4044 22.0165L24.2023 21.6022C24.0911 21.3743 23.9509 21.1476 23.8907 21.0985C23.7959 21.021 23.8468 20.9464 24.2694 20.5428C26.7691 18.1557 27.4052 14.4742 25.8593 11.3414C24.7045 9.00097 22.3832 7.32269 19.7837 6.94873C18.8582 6.81563 17.328 6.8977 16.4901 7.12547C13.8815 7.83461 11.8607 9.66943 10.9056 12.196C10.6846 12.7804 10.5588 13.355 10.487 14.1077C10.3142 15.9181 10.7771 17.7293 11.8067 19.2717C12.1531 19.7906 13.21 20.901 13.6975 21.2581L13.9479 21.4415L13.5419 21.8453L13.1358 22.2491L12.9436 22.1252C12.8379 22.0571 12.4931 21.7588 12.1774 21.4626C9.75866 19.1928 8.76965 15.8965 9.54482 12.6887C10.2261 9.86954 12.3894 7.4237 15.142 6.36059C16.1188 5.98332 17.0899 5.78828 18.4551 5.69516C18.5338 5.68981 18.9523 5.71776 19.3851 5.75731ZM1.10589 8.57113V9.13421H1.714H2.32212V8.57113V8.00804H1.714H1.10589V8.57113ZM20.2997 8.20927C22.1318 8.69008 23.7053 9.88805 24.6714 11.5374C25.6554 13.2174 25.8027 15.5317 25.0433 17.3812C24.6042 18.4508 23.7334 19.5712 22.7808 20.2924L22.365 20.6071H21.6442H20.9233V19.2513V17.8956L22.0711 16.7702L23.2188 15.6449L23.1979 13.8149C23.1783 12.1122 23.1662 11.962 23.0223 11.6557C22.7891 11.1593 22.3472 10.7305 21.8353 10.504C21.4324 10.3257 21.3071 10.3057 20.5656 10.3009L19.7428 10.2956L19.7236 11.9089C19.7111 12.9545 19.6765 13.5551 19.6254 13.6158C19.5671 13.6848 19.3022 13.7093 18.6129 13.7093C17.8447 13.7093 17.6562 13.6887 17.5486 13.5928C17.429 13.4864 17.4177 13.3365 17.4177 11.8587V10.241L16.5601 10.2758C15.7797 10.3074 15.6611 10.3306 15.2426 10.5333C14.7131 10.7898 14.3977 11.1116 14.1339 11.6649C13.9512 12.0482 13.9474 12.0876 13.9245 13.8439L13.901 15.6325L15.0887 16.8025L16.2764 17.9724L16.2568 19.2722L16.2372 20.5719L15.5177 20.5918L14.7982 20.6118L14.3315 20.2642C13.1529 19.3864 12.2449 18.0437 11.823 16.5552C11.6895 16.0843 11.6645 15.8151 11.663 14.8355C11.6609 13.4646 11.7688 12.9852 12.3361 11.8441C13.252 10.002 14.9533 8.65862 16.9542 8.19759C17.7278 8.01937 17.7517 8.01733 18.777 8.04091C19.4688 8.05682 19.9009 8.10461 20.2997 8.20927ZM1.13708 10.9155C1.11605 10.9693 1.10846 11.232 1.12027 11.4991L1.14166 11.9848H1.714H2.28635V11.4218V10.8587L1.73082 10.8381C1.30764 10.8224 1.16613 10.8409 1.13708 10.9155ZM16.273 12.7044V13.9518L16.7181 14.3937L17.1631 14.8355H18.6027H20.0421L20.4827 14.3841L20.9233 13.9326V12.6948V11.4569H21.0916C21.299 11.4569 21.6824 11.7067 21.8826 11.9722C22.0214 12.1564 22.0338 12.2779 22.0543 13.6565L22.0762 15.1423L21.0536 16.1503L20.0309 17.1582H18.5624H17.0939L16.0699 16.149L15.046 15.1398L15.0692 13.7031C15.0903 12.4048 15.1067 12.2427 15.2395 12.0202C15.4227 11.7135 15.8004 11.4569 16.069 11.4569H16.273V12.7044ZM19.7071 19.4457V20.6071H18.5624H17.4177V19.4457V18.2844H18.5624H19.7071V19.4457ZM23.037 21.9061C23.1478 22.015 23.2127 22.1593 23.2127 22.2964C23.2127 22.4335 23.1478 22.5778 23.037 22.6867L22.8615 22.8595H19.7275H16.5935L15.343 24.0912L14.0925 25.323L14.5028 25.7266L14.913 26.1302L15.5931 25.464L16.273 24.7979V28.4038V32.0096H14.9304H13.5879L12.7316 31.165L11.8753 30.3204H9.42391H6.97242V27.153V23.9856H9.99597H13.0194L14.1625 22.8595L15.3055 21.7333H19.0835H22.8615L23.037 21.9061ZM5.75619 27.4345V32.0096H4.89767H4.03915V27.4345V22.8595H4.89767H5.75619V27.4345ZM18.5995 24.328C18.5438 24.7264 18.6502 25.1999 18.8604 25.4884L19.0065 25.689L18.8033 26.0515C18.5152 26.5654 18.5157 27.1784 18.8048 27.6939L19.0093 28.0589L18.8644 28.2402C18.7846 28.34 18.6799 28.5837 18.6315 28.7817C18.5263 29.2131 18.6275 29.7816 18.8616 30.0743L19.0093 30.2591L18.8048 30.6241C18.5392 31.0978 18.5204 31.7486 18.7593 32.1956C18.9223 32.5006 19.4502 32.995 19.6126 32.995C19.6828 32.995 19.7071 33.1368 19.7071 33.5477C19.7071 34.0032 19.6787 34.1425 19.546 34.3395C19.3208 34.6739 18.7924 34.9223 18.4332 34.8626C18.033 34.7961 17.7303 34.589 17.5636 34.2675C17.4208 33.992 17.4177 33.8801 17.4177 28.9858V23.9856H18.0325H18.6474L18.5995 24.328ZM25.1727 24.0836C25.6491 24.2795 25.6288 24.9351 25.1412 25.1024C24.8199 25.2125 20.4608 25.2125 20.1395 25.1024C19.6619 24.9385 19.6315 24.2839 20.0923 24.0866C20.4206 23.946 24.8316 23.9434 25.1727 24.0836ZM33.6892 24.0776C33.6681 24.1315 33.6605 24.3942 33.6723 24.6613L33.6937 25.147H34.2661H34.8384V24.5839V24.0208L34.2829 24.0003C33.8597 23.9846 33.7182 24.003 33.6892 24.0776ZM25.3584 26.4838C25.5928 26.7292 25.5813 27.058 25.3311 27.2697L25.1363 27.4345H22.6403H20.1443L19.9495 27.2697C19.6994 27.058 19.6879 26.7292 19.9223 26.4838L20.0898 26.3084H22.6403H25.1909L25.3584 26.4838ZM33.658 27.4345V27.9976H34.2661H34.8742V27.4345V26.8715H34.2661H33.658V27.4345ZM25.1727 28.6587C25.6491 28.8546 25.6288 29.5102 25.1412 29.6775C24.8199 29.7876 20.4608 29.7876 20.1395 29.6775C19.6619 29.5136 19.6315 28.859 20.0923 28.6616C20.4206 28.5211 24.8316 28.5185 25.1727 28.6587ZM33.6728 30.3028L33.6937 30.8483L34.284 30.8687L34.8742 30.8891V30.3232V29.7573H34.2631H33.652L33.6728 30.3028ZM25.3584 31.0588C25.5928 31.3043 25.5813 31.6331 25.3311 31.8448L25.1363 32.0096H22.6403H20.1443L19.9495 31.8448C19.6994 31.6331 19.6879 31.3043 19.9223 31.0588L20.0898 30.8834H22.6403H25.1909L25.3584 31.0588ZM33.8549 32.6464C33.2441 32.7941 32.741 33.3058 32.5771 33.9463C32.403 34.6266 32.7604 35.4053 33.4224 35.7881C33.8699 36.0469 34.6053 36.0669 35.0531 35.8324C36.5869 35.0293 36.1667 32.8074 34.4449 32.6172C34.2679 32.5976 34.0024 32.6108 33.8549 32.6464ZM34.5852 33.8382C34.6572 33.876 34.7514 34.0068 34.7946 34.1288C34.8946 34.411 34.7761 34.6795 34.4926 34.8132C33.9185 35.0839 33.4162 34.2376 33.9253 33.8572C34.066 33.7521 34.4032 33.7424 34.5852 33.8382Z" fill="white"/>
</svg>
