<svg width="40" height="40" viewBox="0 0 40 40" fill="none" xmlns="http://www.w3.org/2000/svg">
<path fill-rule="evenodd" clip-rule="evenodd" d="M19.1833 0.376151C18.8413 0.589548 14.448 3.45163 9.4204 6.73635C-0.358797 13.1254 -0.0983147 12.9383 0.0366925 13.477C0.0670847 13.5983 0.192951 13.7986 0.316317 13.9221C0.710401 14.3167 0.96057 14.2533 2.20611 13.4428C2.80122 13.0556 3.30507 12.7388 3.32577 12.7388C3.34656 12.7388 3.37273 18.4854 3.38398 25.5089L3.40445 38.2791L3.5836 38.615C3.85979 39.1329 4.27348 39.5437 4.75913 39.7825L5.20142 40H20.0069H34.8124L35.2547 39.7825C35.7403 39.5437 36.154 39.1329 36.4302 38.615L36.6094 38.2791L36.6298 25.5089C36.6411 18.4854 36.6795 12.7388 36.7152 12.7388C36.7509 12.7388 37.0406 12.922 37.3588 13.1461C38.8867 14.2213 39.2825 14.3412 39.7523 13.8708C40.0015 13.6214 40.0238 13.5639 39.9848 13.2722C39.9592 13.0815 39.8673 12.8769 39.7599 12.7718C39.5802 12.5961 20.8194 0.323897 20.3923 0.102757C20.0389 -0.0802105 19.844 -0.03617 19.1833 0.376151ZM27.5755 6.75458L35.0057 11.6045L35.0067 24.6523C35.0076 36.3446 34.995 37.7248 34.8854 37.9371C34.6739 38.3465 34.4202 38.3964 32.5491 38.3964H30.8669V30.4098C30.8669 21.5563 30.8948 22.0335 30.3607 21.7797C30.1284 21.6693 29.0374 21.6564 20.0069 21.6564C10.9764 21.6564 9.88542 21.6693 9.65307 21.7797C9.11898 22.0335 9.14695 21.5563 9.14695 30.4098V38.3964H7.46467C5.59363 38.3964 5.33995 38.3465 5.12845 37.9371C5.01883 37.7248 5.00633 36.3461 5.00837 24.6523L5.01063 11.6045L12.4502 6.74042C16.542 4.06522 19.9472 1.88276 20.0175 1.8905C20.0878 1.89832 23.489 4.08712 27.5755 6.75458ZM13.8642 11.756C13.5429 11.896 13.3659 12.1617 13.3659 12.5041C13.3659 12.8533 13.5455 13.1149 13.8815 13.2555C14.2683 13.4174 25.7455 13.4174 26.1323 13.2555C26.4683 13.1149 26.6479 12.8533 26.6479 12.5041C26.6479 12.1549 26.4683 11.8932 26.1323 11.7527C25.7515 11.5934 14.2303 11.5965 13.8642 11.756ZM13.5943 16.0964C13.2226 16.4685 13.3037 17.1128 13.7558 17.3802C13.9561 17.4987 14.5204 17.5105 20.0069 17.5105C25.4934 17.5105 26.0577 17.4987 26.258 17.3802C26.7101 17.1128 26.7912 16.4685 26.4195 16.0964L26.1911 15.8677H20.0069H13.8227L13.5943 16.0964ZM29.148 30.8868V38.3964H28.3277H27.5073V35.3808C27.5073 32.7965 27.4898 32.3315 27.385 32.1284C27.1835 31.7382 26.8904 31.6691 25.4394 31.6691H24.1478V28.6535C24.1478 25.3827 24.1383 25.3042 23.7202 25.1135C23.5711 25.0454 22.5581 25.02 19.9957 25.02C16.1615 25.02 16.1538 25.0209 15.9508 25.4668C15.8946 25.5905 15.8661 26.665 15.8661 28.6611V31.6691H14.5744C13.1234 31.6691 12.8303 31.7382 12.6289 32.1284C12.524 32.3315 12.5065 32.7965 12.5065 35.3808V38.3964H11.6861H10.8658V30.8868V23.3773H20.0069H29.148V30.8868ZM22.507 29.1659V31.6691H20.0069H17.5068V29.1659V26.6627H20.0069H22.507V29.1659ZM19.1475 35.8943V38.3986L16.6669 38.3779L14.1863 38.3573L14.1657 35.8737L14.145 33.39H16.6463H19.1475V35.8943ZM25.8482 35.8737L25.8275 38.3573L23.3469 38.3779L20.8663 38.3986V35.8943V33.39H23.3676H25.8688L25.8482 35.8737Z" fill="#E30D16"/>
</svg>
