<svg width="27" height="36" viewBox="0 0 27 36" fill="none" xmlns="http://www.w3.org/2000/svg">
<path fill-rule="evenodd" clip-rule="evenodd" d="M15.7497 0.336395C15.4732 0.522101 15.0772 0.816395 14.8697 0.990405C13.9596 1.7535 13.0498 3.21412 12.6858 4.49635C12.4611 5.288 12.3816 6.72659 12.5163 7.56439C12.8382 9.56675 14.0032 11.3692 15.7038 12.4958C16.0443 12.7214 16.2167 12.8815 16.2167 12.972C16.2167 13.1027 16.146 13.1083 14.4919 13.1093C12.5676 13.1105 12.1742 13.1667 11.3854 13.5537C10.7011 13.8894 10.1268 14.4722 9.23046 15.741L8.43634 16.8649H7.4282H6.42005L6.38499 16.3203C6.35398 15.8391 6.32766 15.7568 6.15831 15.6115L5.96663 15.4473H3.15793H0.349158L0.174615 15.6213L0 15.7953V22.7744C0 26.6129 0.0199155 29.8051 0.0441695 29.8682C0.160389 30.1699 0.357409 30.1904 3.15693 30.1904C4.75087 30.1904 5.89785 30.162 6.00895 30.1199C6.25106 30.0282 6.40135 29.6624 6.40135 29.1649V28.7728H7.47329H8.54523L9.34035 29.4934C10.4264 30.4778 10.7745 30.7449 11.2797 30.982C12.019 31.3291 12.5102 31.3927 14.4564 31.3941L16.2167 31.3953L16.218 32.0864C16.2203 33.3882 16.5247 34.2261 17.262 34.9609C18.6774 36.3715 20.9017 36.3423 22.2598 34.8955C22.9822 34.1259 23.2565 33.3368 23.2577 32.0254L23.2582 31.4151L23.6083 31.3738C24.2896 31.2933 24.8614 30.8911 25.19 30.2612C25.3395 29.9747 25.3565 29.8487 25.3565 29.0208C25.3565 28.2781 25.332 28.052 25.2304 27.855C25.1212 27.6434 25.1184 27.6028 25.2089 27.5523C25.4656 27.4092 25.7658 27.1016 25.9447 26.7984C26.1211 26.4992 26.1412 26.3921 26.1644 25.6249C26.1925 24.7006 26.1305 24.3815 25.837 23.9395L25.6539 23.6638L25.8116 23.4513C26.0877 23.079 26.1744 22.7079 26.1744 21.8974C26.1744 20.8353 25.9498 20.2808 25.3648 19.8987L25.1368 19.7497L25.2714 19.3528C25.3804 19.0315 25.4006 18.8073 25.3779 18.1762C25.3537 17.5033 25.3239 17.3468 25.161 17.0336C24.8561 16.4474 24.2902 16.0652 23.5848 15.9688L23.2582 15.9242L23.2608 14.3568L23.2633 12.7893L23.7354 12.5058C24.3123 12.1594 25.3287 11.1771 25.7434 10.5653C26.1782 9.9237 26.6312 8.92621 26.8256 8.18211C27.0562 7.29986 27.0585 5.4932 26.8301 4.66114C26.314 2.78034 25.1368 1.18178 23.5802 0.247724C23.0127 -0.0928546 22.8669 -0.086121 22.4601 0.299466C22.4514 0.307689 22.4274 1.62131 22.4067 3.21866L22.3692 6.1229L21.0889 6.81228C20.3847 7.19149 19.7766 7.5023 19.7375 7.50308C19.6984 7.50379 19.0902 7.19397 18.3861 6.81448L17.1058 6.1246L17.0703 3.24283L17.0347 0.361132L16.8623 0.178262C16.6023 -0.0973201 16.3399 -0.0599663 15.7497 0.336395ZM16.0745 6.82497C16.304 7.04179 19.5455 8.71371 19.7364 8.71371C19.9373 8.71371 23.3503 6.93441 23.4536 6.77578C23.4831 6.73055 23.5232 5.55026 23.5427 4.15279L23.5783 1.61195L23.9227 1.91411C24.677 2.57592 25.4449 3.85928 25.7223 4.92163C25.9216 5.68465 25.9064 7.29015 25.6931 8.02603C25.2659 9.49955 24.3332 10.7587 23.0619 11.5782L22.5576 11.9033H19.746H16.9343L16.53 11.6661C15.2407 10.9095 14.148 9.45518 13.7527 7.96947C13.551 7.21155 13.5665 5.54034 13.782 4.7951C14.0894 3.73247 14.74 2.66325 15.5189 1.94069L15.8967 1.59026L15.9322 4.15718C15.9621 6.31456 15.9848 6.74027 16.0745 6.82497ZM22.1202 14.4904V15.9435H19.7375H17.3548V14.4904V13.0374H19.7375H22.1202V14.4904ZM16.2167 15.0929V15.9435H15.0432H13.8696V16.5091V17.0747L18.8115 17.0939L23.7534 17.113L23.9859 17.3447L24.2184 17.5764V18.3119C24.2184 18.9471 24.199 19.069 24.0762 19.2063C23.7849 19.5318 23.5971 19.5584 21.5861 19.5584H19.696L19.7167 20.1077L19.7375 20.657L22.1795 20.6924L24.6214 20.7279L24.8289 20.9594C25.0256 21.1789 25.0364 21.2239 25.0364 21.8311C25.0364 22.2648 25.0016 22.5386 24.9285 22.6794C24.7153 23.0903 24.6333 23.1024 22.0526 23.1024H19.7019V23.6694V24.2364L22.0669 24.2367C25.091 24.2371 25.0364 24.2135 25.0364 25.5158C25.0364 26.1141 25.0252 26.1604 24.8289 26.3794L24.6214 26.6109L22.1795 26.6464L19.7375 26.6818L19.7167 27.2311L19.696 27.7804H21.5861C23.5971 27.7804 23.7849 27.807 24.0762 28.1325C24.1989 28.2697 24.2184 28.3917 24.2184 29.0208C24.2184 29.65 24.1989 29.772 24.0762 29.9092C23.7563 30.2668 23.8472 30.2613 18.1928 30.26C11.6671 30.2585 11.9887 30.3038 10.7509 29.2127C10.4124 28.9144 9.87202 28.4382 9.55003 28.1545L8.96459 27.6387H7.68297H6.40135V22.8188V17.999L7.59271 17.9979C8.40141 17.9972 8.84119 17.9684 8.96189 17.9083C9.05969 17.8596 9.55956 17.2302 10.0727 16.5095C11.1263 15.0299 11.5442 14.6364 12.3237 14.3903C12.7128 14.2674 12.9785 14.2498 14.4919 14.2463L16.2167 14.2424V15.0929ZM5.26333 20.976V25.3705H3.20067H1.13802V20.976V16.5814H3.20067H5.26333V20.976ZM5.24719 27.7627L5.22777 29.0208L3.18289 29.0396L1.13802 29.0585V27.7815V26.5046H3.20231H5.2666L5.24719 27.7627ZM2.82058 27.2228C2.74845 27.2646 2.64404 27.4071 2.58849 27.5396C2.32198 28.1752 3.07578 28.7015 3.6041 28.2487C4.03619 27.8783 3.75162 27.1393 3.17891 27.1446C3.05394 27.1459 2.8927 27.181 2.82058 27.2228ZM18.3683 31.8383C18.3468 32.2271 18.3699 32.3259 18.5574 32.6456C18.7229 32.9277 18.8552 33.0516 19.1438 33.1949C19.8696 33.5553 20.5899 33.3691 21.0407 32.7045C21.2599 32.3814 21.2755 32.3211 21.2541 31.8755L21.2311 31.395L21.6844 31.3952L22.1378 31.3953L22.1074 32.2282C22.0818 32.9304 22.0487 33.1226 21.8959 33.4541C21.6475 33.9927 21.352 34.3065 20.8247 34.5914C20.4103 34.8154 20.3309 34.833 19.7375 34.833C19.1441 34.833 19.0647 34.8154 18.6503 34.5914C18.123 34.3065 17.8275 33.9927 17.5791 33.4541C17.4263 33.1226 17.3932 32.9304 17.3676 32.2282L17.3372 31.3953H17.865H18.3929L18.3683 31.8383ZM19.9911 31.6104C20.147 31.6936 20.1785 32.0261 20.0433 32.1608C19.9964 32.2076 19.8908 32.2459 19.8086 32.2459C19.4791 32.2459 19.3695 31.8409 19.6467 31.6474C19.8342 31.5165 19.8181 31.5182 19.9911 31.6104Z" fill="white"/>
</svg>
