<svg width="40" height="40" viewBox="0 0 40 40" fill="none" xmlns="http://www.w3.org/2000/svg">
<path fill-rule="evenodd" clip-rule="evenodd" d="M24.9614 0.02967C20.0645 0.562853 15.9063 3.48934 13.8154 7.87383C13.0309 9.51887 12.5002 11.7897 12.5002 13.5016C12.5002 13.9023 12.5304 14.0073 12.692 14.1689C12.9401 14.4172 13.3049 14.4226 13.5456 14.1818C13.7041 14.0233 13.7301 13.9006 13.773 13.1072C14.0006 8.8969 16.2393 5.18322 19.861 3.00758C21.2916 2.14825 22.955 1.5742 24.6724 1.34723C29.9249 0.653045 35.1209 3.44784 37.4593 8.22499C37.9061 9.13754 38.3754 10.5642 38.5654 11.5863C38.7666 12.6699 38.767 14.7982 38.566 15.8849C37.6553 20.8089 34.092 24.6413 29.2974 25.8535C28.598 26.0304 28.36 26.1254 28.2231 26.2822C28.0161 26.5195 28.006 26.6373 28.166 26.9467C28.3299 27.2638 28.5936 27.3076 29.3755 27.1479C32.5452 26.5005 35.6148 24.4608 37.6218 21.6684C38.1934 20.8732 39.1069 19.0862 39.4179 18.1551C39.923 16.6422 39.9992 16.0707 40 13.7869C40.0008 11.4712 39.9257 10.8762 39.449 9.4175C39.118 8.40506 38.2247 6.64295 37.5989 5.7683C35.5298 2.87659 32.3624 0.859065 28.8677 0.20685C28.0284 0.0502251 25.7301 -0.0540354 24.9614 0.02967ZM24.5989 2.63024C24.4233 2.77225 24.4126 2.83626 24.3754 3.96508L24.3364 5.15071L23.9116 5.30022C22.5328 5.78526 21.3572 7.01099 20.8865 8.45391C20.6006 9.33051 20.5851 10.5365 20.8489 11.3909C21.2889 12.816 22.302 13.9706 23.6268 14.5567C24.3064 14.8573 24.701 14.9253 26.069 14.9772C27.179 15.0193 27.3591 15.0448 27.5486 15.1863C27.9585 15.4926 28.0864 15.7423 28.0864 16.2366C28.0864 16.7307 27.9586 16.9805 27.5487 17.2868C27.3434 17.4402 27.2055 17.4499 24.6629 17.4871C21.6449 17.5312 21.6583 17.5287 21.1058 18.1566C20.4234 18.9322 20.4636 19.9098 21.2087 20.6551C21.718 21.1646 21.9845 21.2386 23.3103 21.2386H24.3754V22.2972C24.3754 23.3171 24.3825 23.3629 24.5672 23.5477C24.7574 23.738 24.7711 23.7396 26.2505 23.7396C27.7299 23.7396 27.7435 23.738 27.9337 23.5477C28.1198 23.3616 28.1255 23.322 28.1255 22.2166C28.1255 21.2001 28.1403 21.0727 28.2622 21.0343C30.7976 20.2373 32.2909 17.7379 31.7591 15.1815C31.4032 13.4709 30.0052 11.9624 28.2817 11.4293C27.9881 11.3385 27.427 11.2804 26.5101 11.246C25.3231 11.2013 25.1431 11.1769 24.9523 11.0343C24.5424 10.7281 24.4145 10.4783 24.4145 9.98405C24.4145 9.48987 24.5423 9.24016 24.9522 8.93379C25.1575 8.78037 25.2954 8.77075 27.8381 8.73355C30.8573 8.68939 30.8424 8.69213 31.377 8.08454C32.078 7.28789 32.0454 6.31899 31.2923 5.56556C30.783 5.05606 30.5164 4.98205 29.1907 4.98205H28.1255V3.92342C28.1255 2.90356 28.1185 2.85768 27.9337 2.67292C27.7436 2.48269 27.7291 2.48104 26.2626 2.48104C24.9235 2.48104 24.7659 2.49519 24.5989 2.63024ZM26.8755 4.79017C26.8755 5.81004 26.8825 5.85591 27.0673 6.04067C27.2574 6.23099 27.2711 6.23255 28.7505 6.23255C30.2299 6.23255 30.2436 6.23411 30.4337 6.42442C30.6666 6.65725 30.6841 7.00254 30.4763 7.25945L30.3271 7.44397L27.6442 7.48321C24.985 7.52205 24.9579 7.52408 24.5707 7.7158C24.0702 7.96363 23.6023 8.43312 23.3619 8.92894C23.0991 9.47104 23.0907 10.4806 23.3448 11.0025C23.6146 11.5569 23.9321 11.8881 24.4668 12.1732C24.9546 12.4333 24.9769 12.4372 26.2891 12.4914C27.7931 12.5535 28.1739 12.6426 28.8761 13.0966C29.4729 13.4825 29.875 13.9481 30.2039 14.6344C31.2473 16.8116 29.9912 19.3535 27.5976 19.9087C26.937 20.0619 26.8755 20.1926 26.8755 21.4445V22.4891H26.2505H25.6254V21.4304C25.6254 20.4106 25.6184 20.3647 25.4336 20.1799C25.2435 19.9896 25.2298 19.9881 23.7504 19.9881C22.271 19.9881 22.2573 19.9865 22.0672 19.7962C21.8344 19.5634 21.8168 19.2181 22.0246 18.9612L22.1738 18.7766L24.8567 18.7376L27.5395 18.6985L28.0318 18.4314C28.5804 18.1339 28.8171 17.8884 29.1228 17.3C29.299 16.9608 29.3304 16.8011 29.3318 16.2366C29.3334 15.6277 29.3113 15.531 29.0671 15.0779C28.7771 14.5398 28.4428 14.2208 27.8935 13.9581C27.5935 13.8147 27.3368 13.78 26.2114 13.7316C24.7086 13.6669 24.325 13.5767 23.6248 13.124C23.028 12.7381 22.6259 12.2725 22.297 11.5863C21.2536 9.40906 22.5097 6.8671 24.9033 6.31196C25.564 6.15869 25.6254 6.02801 25.6254 4.77611V3.73155H26.2505H26.8755V4.79017ZM8.94195 7.04967C8.78445 7.20716 8.75015 7.31892 8.75015 7.67492V8.1083H8.31694C7.79561 8.1083 7.50013 8.33449 7.50013 8.73355C7.50013 9.13262 7.79561 9.3588 8.31694 9.3588H8.75015V9.79218C8.75015 10.3137 8.97625 10.6093 9.37516 10.6093C9.77408 10.6093 10.0002 10.3137 10.0002 9.79218V9.3588H10.4334C10.9547 9.3588 11.2502 9.13262 11.2502 8.73355C11.2502 8.33449 10.9547 8.1083 10.4334 8.1083H10.0002V7.67492C10.0002 7.15339 9.77408 6.8578 9.37516 6.8578C9.22297 6.8578 9.06281 6.92869 8.94195 7.04967ZM12.1295 15.106C11.9281 15.2471 11.8927 15.3586 10.4303 20.457C9.52673 23.6073 9.32274 24.2345 9.08328 24.5993C8.77187 25.0738 8.1185 25.7329 7.74248 25.9519L7.50013 26.0931V25.7334C7.50013 25.4557 7.45638 25.33 7.30833 25.1819L7.11661 24.9901H3.75007H0.383522L0.1918 25.1819L0 25.3737V32.4931V39.6124L0.1918 39.8042L0.383522 39.9961H3.75007H7.11661L7.30833 39.8042C7.4488 39.6638 7.50013 39.5277 7.50013 39.2962C7.50013 39.1223 7.52208 38.9801 7.54888 38.9801C7.57568 38.9801 8.38429 39.2095 9.34579 39.49L11.0939 40L16.7776 39.9785L22.4613 39.957L22.9069 39.7382C23.466 39.4635 24.0082 38.8725 24.1825 38.3479C24.4236 37.6216 24.3009 36.5979 23.9121 36.0919L23.7647 35.9L24.1202 35.587C24.6495 35.1209 24.9222 34.4907 24.9222 33.7334C24.9223 33.2158 24.8887 33.0703 24.6675 32.6306L24.4125 32.1239L24.7556 31.8254C25.2716 31.3763 25.5472 30.7346 25.5472 29.9819C25.5473 29.4647 25.5136 29.3187 25.2933 28.8807L25.0392 28.3757L25.4058 28.0483C25.6124 27.8639 25.8682 27.5259 25.9919 27.2739C26.178 26.8947 26.211 26.7317 26.2088 26.2015C26.2066 25.6422 26.1783 25.524 25.9409 25.0819C25.6546 24.5486 25.3264 24.2331 24.7685 23.955C24.4156 23.7792 24.4014 23.7786 20.0526 23.756L15.6907 23.7334L15.737 23.4434C16.0095 21.7347 16.2591 19.3277 16.2177 18.8074C16.0667 16.9102 14.9954 15.543 13.3173 15.1057C12.7338 14.9537 12.3467 14.9538 12.1295 15.106ZM13.4605 16.4716C14.0013 16.7259 14.3517 17.0685 14.6119 17.5971C15.056 18.4995 15.0627 18.8226 14.6972 21.7202C14.5201 23.1241 14.3753 24.3424 14.3753 24.4274C14.3753 24.5124 14.4424 24.665 14.5246 24.7665L14.6739 24.951L19.4409 24.9901C24.1025 25.0283 24.2126 25.0327 24.4236 25.1903C24.8335 25.4966 24.9614 25.7463 24.9614 26.2406C24.9614 26.7347 24.8336 26.9844 24.4237 27.2908C24.2232 27.4408 24.0723 27.4547 22.2534 27.4911C20.3152 27.5298 20.2975 27.5317 20.1495 27.7147C19.959 27.9503 19.959 28.2823 20.1495 28.518C20.2957 28.6988 20.3314 28.7033 21.9409 28.7416C23.7381 28.7843 23.7856 28.7966 24.1753 29.3188C24.4011 29.6214 24.4011 30.3628 24.1753 30.6654C23.7767 31.1994 23.7755 31.1997 21.6284 31.2426C19.6902 31.2813 19.6725 31.2832 19.5245 31.4662C19.334 31.7018 19.334 32.0338 19.5245 32.2695C19.6707 32.4503 19.7064 32.4548 21.3159 32.4931C23.1131 32.5358 23.1606 32.5481 23.5503 33.0703C23.7761 33.3729 23.7761 34.1143 23.5503 34.4169C23.1517 34.9509 23.1505 34.9512 21.0034 34.9941C19.0652 35.0329 19.0474 35.0347 18.8995 35.2177C18.709 35.4533 18.709 35.7853 18.8995 36.021C19.0456 36.2018 19.0813 36.2063 20.6909 36.2446C22.1934 36.2803 22.3516 36.2974 22.5488 36.4448C22.9585 36.7514 23.0863 37.001 23.0863 37.4951C23.0863 37.9893 22.9584 38.2391 22.5484 38.5454C22.336 38.7041 22.2492 38.7068 16.8309 38.7276L11.3291 38.7486L9.94197 38.3515C9.17907 38.1332 8.31757 37.8848 8.02748 37.7996L7.50013 37.6448L7.50224 32.5484L7.50435 27.452L8.12217 27.1595C8.88883 26.7966 9.53165 26.2146 10.1135 25.3569L10.5478 24.7165L11.7189 20.6133C12.363 18.3566 12.9067 16.4662 12.927 16.4124C12.9778 16.2785 13.0723 16.289 13.4605 16.4716ZM6.25011 32.4931V38.7456H3.75007H1.25002V32.4931V26.2406H3.75007H6.25011V32.4931ZM32.0674 30.184C31.9099 30.3414 31.8756 30.4532 31.8756 30.8092V31.2426H31.4423C30.921 31.2426 30.6255 31.4688 30.6255 31.8678C30.6255 32.2669 30.921 32.4931 31.4423 32.4931H31.8756V32.9265C31.8756 33.448 32.1017 33.7436 32.5006 33.7436C32.8995 33.7436 33.1256 33.448 33.1256 32.9265V32.4931H33.5588C34.0801 32.4931 34.3756 32.2669 34.3756 31.8678C34.3756 31.4688 34.0801 31.2426 33.5588 31.2426H33.1256V30.8092C33.1256 30.2877 32.8995 29.9921 32.5006 29.9921C32.3484 29.9921 32.1882 30.063 32.0674 30.184Z" fill="#E30D16"/>
</svg>
