<svg width="150" height="50" viewBox="0 0 150 50" fill="none" xmlns="http://www.w3.org/2000/svg">
<path fill-rule="evenodd" clip-rule="evenodd" d="M132.262 0.165946C132.129 0.256274 131.978 0.386744 131.925 0.455892C131.822 0.592607 130.288 2.71835 130.212 2.83114C130.18 2.87847 129.96 2.95811 129.515 3.0835C129.158 3.18425 127.597 3.62333 126.046 4.05921C122.491 5.05861 120.75 5.54882 119.025 6.03552C118.275 6.24733 117.023 6.60029 116.242 6.81988C115.462 7.03952 113.679 7.54134 112.28 7.93512C110.881 8.32887 109.731 8.64526 109.724 8.63815C109.717 8.63108 109.774 8.55072 109.851 8.4596C110.389 7.81797 112.335 5.32997 112.395 5.20853C112.586 4.81543 112.495 4.48797 112.155 4.34039C111.988 4.26823 111.861 4.27353 111.632 4.36209C111.389 4.456 111.306 4.54625 110.507 5.58516C108.608 8.05562 107.574 9.38959 107.527 9.42797C107.499 9.45167 107.369 9.50505 107.239 9.54663C107.109 9.58816 106.192 9.88465 105.202 10.2054C104.211 10.5262 103.295 10.8228 103.165 10.8646C103.035 10.9063 102.634 11.0364 102.273 11.1537C101.913 11.271 101.496 11.4062 101.346 11.4543C101.196 11.5024 100.647 11.68 100.127 11.8491C99.6069 12.0181 99.0585 12.1956 98.9084 12.2434C98.7584 12.2912 97.4242 12.7228 95.9436 13.2024C94.4631 13.6821 92.0485 14.4643 90.5779 14.9407C89.1073 15.4172 87.7813 15.846 87.6313 15.8938C87.4812 15.9415 87.1152 16.0593 86.818 16.1555C86.5207 16.2517 86.273 16.3252 86.2675 16.3188C86.262 16.3124 87.021 15.2811 87.9541 14.0271C89.106 12.479 89.6771 11.6812 89.7328 11.5422C89.8029 11.3674 89.8099 11.3103 89.7806 11.1512C89.7318 10.8854 89.6898 10.7902 89.5721 10.6785C89.2989 10.4195 88.8809 10.4385 88.4841 10.7279C88.2856 10.8727 88.0726 11.1411 86.862 12.7708C85.7819 14.2248 85.7021 14.3321 84.7928 15.5548C84.4851 15.9686 84.0316 16.5794 83.785 16.912L83.3368 17.5168L80.5094 18.5622C78.9543 19.1371 77.5284 19.6817 77.3408 19.7725C76.666 20.0987 75.7776 20.8528 75.3626 21.4514C74.7542 22.329 74.6325 23.0513 75.1069 22.9677C75.3404 22.9266 75.8247 22.5555 76.1891 22.1385C76.67 21.5881 76.9906 21.3098 77.2678 21.2023C77.5143 21.1067 81.5582 19.7119 81.589 19.7119C81.5989 19.7119 81.2636 20.0717 80.8439 20.5113C73.1311 28.5916 70.2181 31.63 70.0426 31.7779C69.9291 31.8734 69.8628 31.9005 69.7413 31.9008C69.5312 31.9013 69.3612 31.8217 69.2608 31.6759C69.182 31.5614 69.1796 31.5401 69.2163 31.27C69.2605 30.9438 69.3511 30.7436 69.7253 30.1447C70.181 29.4152 75.6292 19.9788 75.7084 19.7818C75.777 19.611 75.7812 19.5645 75.7465 19.3552C75.6769 18.9352 75.5151 18.7902 75.1257 18.7991C74.9411 18.8033 74.8587 18.8273 74.6928 18.9255C74.3354 19.137 73.746 19.7684 73.2653 20.4549C73.1602 20.6049 73.0715 20.7277 73.0681 20.7277C73.0647 20.7277 73.0681 20.5795 73.0757 20.3985C73.1024 19.7591 72.9425 18.9281 72.6814 18.3497C72.3131 17.534 71.5281 16.966 70.6012 16.8449C69.8536 16.7472 68.7666 16.9109 67.9006 17.2517C67.001 17.6056 65.4803 18.491 64.1521 19.4341C63.7335 19.7314 63.3845 19.968 63.3766 19.9599C63.3688 19.9518 63.4023 19.863 63.4511 19.7626C63.4999 19.6623 63.5691 19.4503 63.605 19.2915C63.6634 19.0331 63.6647 18.9878 63.6174 18.8589C63.5065 18.5571 63.2757 18.5632 62.6896 18.8831C62.1926 19.1543 61.7297 19.4877 61.2028 19.9542C60.9427 20.1845 60.5743 20.5107 60.3843 20.6791C60.0556 20.9705 59.0985 21.956 58.4733 22.6469C56.8207 24.473 54.5572 27.2839 53.2178 29.1736C52.5077 30.1753 51.8859 31.0866 51.7162 31.3744C51.4488 31.8276 51.1691 32.2554 50.7378 32.8705C50.2633 33.5471 49.9903 33.9703 49.5527 34.7073C48.6836 36.1708 48.4481 36.8815 48.6287 37.4963C48.6779 37.6639 48.7418 37.7905 48.8126 37.8606C48.9173 37.9643 48.9271 37.9666 49.0914 37.9238C49.1931 37.8973 49.3324 37.8178 49.4371 37.7265C49.7503 37.4534 50.2246 36.756 50.6356 35.9642C51.174 34.9273 51.5774 34.2362 52.0635 33.5188C52.3737 33.061 53.1537 32.0104 53.1705 32.0278C53.176 32.0335 53.1134 32.257 53.0315 32.5245C52.6267 33.8466 52.4716 34.9892 52.5545 36.0395C52.6106 36.7508 52.7106 37.1447 52.9805 37.7177C53.1599 38.0985 53.2056 38.1629 53.4952 38.443C54.1525 39.079 54.9986 39.3499 56.1452 39.2913C57.2569 39.2346 58.3969 38.9554 59.3657 38.5027C60.4469 37.9974 60.8842 37.7542 61.6475 37.2333C63.0598 36.2696 64.4858 34.9909 66.5824 32.8081C67.2604 32.1024 67.8172 31.5249 67.82 31.5249C67.8227 31.5249 67.8187 31.6534 67.811 31.8104C67.7958 32.1217 67.8729 32.5324 67.9921 32.7754C68.03 32.8528 68.1549 33.0157 68.2697 33.1376C68.8116 33.7127 69.615 33.7541 70.5555 33.2552C71.0455 32.9953 71.4232 32.6664 72.8437 31.2632C73.0438 31.0655 73.4857 30.6332 73.8259 30.3025C74.166 29.9718 74.6162 29.5315 74.8263 29.3242C75.0364 29.1168 75.773 28.3973 76.4633 27.7252C77.1535 27.0531 77.8984 26.3261 78.1185 26.1095C79.3384 24.9093 79.288 24.9454 79.0141 25.4679C78.6885 26.0892 78.0553 27.4345 77.9407 27.7484C77.7226 28.3458 77.5182 29.3151 77.5182 29.7518C77.5182 29.9171 77.5358 30.1833 77.5574 30.3434C77.7259 31.5964 78.6245 32.2005 79.7191 31.7967C80.0983 31.6569 80.8661 31.2709 81.3227 30.9905C82.5882 30.2135 83.4746 29.4534 85.6981 27.2387C86.1254 26.8131 86.4872 26.4601 86.5021 26.4542C86.517 26.4483 86.5402 26.5648 86.5535 26.7132C86.5957 27.1823 86.9306 27.7463 87.2597 27.9022C87.4648 27.9993 88.1068 27.9873 88.4862 27.8792C89.1584 27.6876 89.9526 27.1879 90.9235 26.3455L91.3236 25.9983L91.3964 26.1375C91.4364 26.2141 91.5837 26.3978 91.7238 26.5457C92.0132 26.8514 92.118 26.897 92.5313 26.8973C92.9795 26.8977 93.3266 26.7418 93.9792 26.247C94.6213 25.7602 94.782 25.6006 96.8644 23.38C97.7375 22.4488 98.7303 21.3907 99.0705 21.0286C99.4107 20.6665 99.9516 20.0909 100.272 19.7495C101.111 18.8572 103.834 15.9409 104.119 15.6304C104.251 15.4857 104.367 15.3757 104.376 15.3858C104.385 15.396 104.274 15.6751 104.129 16.0062C103.984 16.3373 103.682 17.0314 103.457 17.5487C103.232 18.066 103.011 18.5739 102.966 18.6773C101.939 21.024 101.834 21.2881 101.669 21.9638C101.503 22.641 101.539 23.194 101.777 23.6281C101.918 23.8852 102.254 24.1685 102.492 24.2304C102.741 24.2953 103.179 24.2555 103.444 24.144C103.797 23.9953 104.494 23.5068 104.897 23.126C105.441 22.6116 106.489 21.313 107.052 20.4549C107.184 20.2532 107.302 20.0881 107.314 20.0881C107.326 20.0881 107.355 20.1963 107.378 20.3287C107.424 20.5852 107.638 20.9702 107.794 21.0757C107.923 21.1626 108.27 21.2544 108.47 21.2544C108.573 21.2544 108.826 21.2003 109.047 21.131C109.687 20.9303 110.19 20.537 110.947 19.6461C111.074 19.4961 111.19 19.3733 111.204 19.3733C111.218 19.3733 111.275 19.4622 111.332 19.5708C111.594 20.0766 111.89 20.3468 112.29 20.4457C112.611 20.5252 112.831 20.5083 113.198 20.3754C113.551 20.2476 113.776 20.11 114.169 19.7799C114.854 19.2054 115.296 18.6271 116.177 17.1536C116.558 16.5157 117.198 15.4961 117.251 15.4419C117.293 15.4001 117.292 15.4027 117.176 15.9498C116.916 17.1736 116.873 17.8456 117.023 18.3952C117.15 18.8666 117.318 19.1198 117.645 19.3371C117.985 19.5623 118.433 19.518 118.934 19.2098C119.444 18.8959 119.608 18.7029 121.99 15.63C122.808 14.5747 123.676 13.4574 123.918 13.147C124.302 12.6557 125.298 11.3714 128.005 7.88005C128.373 7.40414 128.699 6.98937 128.727 6.95833C128.772 6.90905 128.774 6.91382 128.744 6.99595C128.717 7.07029 127.272 10.4328 126.305 12.6699L126.137 13.0581L125.793 13.247C124.763 13.8123 124.254 14.3633 124.065 15.1168C123.98 15.4575 124.056 15.8656 124.319 16.4712L124.414 16.6902L123.854 17.9471C123.164 19.4955 123.143 19.5513 123.113 19.9926C123.079 20.4921 123.173 20.7248 123.471 20.8821C123.782 21.046 124.176 20.9322 124.484 20.5903C124.705 20.3454 124.872 19.982 125.263 18.903C125.308 18.7789 125.503 18.2625 125.696 17.7556L126.047 16.8339L126.66 16.6182C128.191 16.079 129.319 15.4366 130.615 14.3653C130.664 14.325 131.817 14.4424 132.7 14.5777C133.836 14.7516 135.791 15.2623 136.81 15.6514C137.894 16.0652 139.074 16.5876 139.797 16.9745C140.581 17.3937 141.612 18.0215 142.089 18.3701C142.259 18.4944 142.505 18.6723 142.635 18.7653C142.905 18.9587 143.201 19.2005 143.8 19.7169C144.721 20.5099 145.709 21.7154 146.446 22.9452C146.772 23.4893 146.86 23.6751 147.141 24.4145C147.552 25.4938 147.558 25.5147 147.694 26.2768C147.9 27.4362 147.92 28.1984 147.76 28.7533C147.671 29.0638 147.433 29.5702 147.204 29.9364C146.862 30.4841 146.039 31.2799 145.163 31.9101C144.838 32.144 143.507 32.9688 143.253 33.0935C143.163 33.1377 142.811 33.3131 142.471 33.483C140.35 34.5429 136.581 35.8989 133.528 36.7005C133.004 36.838 132.298 37.026 131.958 37.1184C131.618 37.2109 131.143 37.3278 130.903 37.3784C130.663 37.4289 130.352 37.5025 130.212 37.5418C130.072 37.5812 129.761 37.6498 129.52 37.6943C129.28 37.7388 128.928 37.8145 128.738 37.8624C128.548 37.9104 128.188 37.9953 127.938 38.0511C127.688 38.1069 127.213 38.2288 126.883 38.322C126.17 38.5233 124.571 38.9466 123.554 39.2031C123.154 39.3041 122.418 39.4956 121.917 39.6287C121.417 39.7619 120.82 39.9164 120.59 39.9722C120.36 40.0279 119.688 40.1974 119.098 40.3489C118.508 40.5003 117.624 40.7197 117.134 40.8364C116.644 40.9531 115.874 41.1412 115.424 41.2543C114.974 41.3674 114.147 41.5691 113.587 41.7025C113.027 41.8358 111.761 42.1393 110.775 42.3769C109.139 42.771 105.966 43.4926 104.474 43.8097C104.144 43.8799 103.432 44.0322 102.892 44.148C101.704 44.4028 100.073 44.7396 98.8902 44.9741C98.4101 45.0694 97.8958 45.1726 97.7475 45.2036C97.4301 45.2698 96.7427 45.3991 95.98 45.536C95.6799 45.5899 94.9269 45.726 94.3066 45.8385C93.6864 45.9509 92.9006 46.0856 92.5605 46.1377C92.2204 46.1899 91.4019 46.3173 90.7416 46.421C89.3322 46.6423 88.0451 46.806 87.0311 46.8928C86.6309 46.9271 86.0743 46.9799 85.7942 47.0101C84.8937 47.1072 83.0527 47.1549 82.2474 47.1019C81.1734 47.0313 80.2963 46.8657 79.901 46.6587C79.7449 46.5771 79.4899 46.3568 79.44 46.2605C79.3324 46.0531 79.4658 45.6198 79.7316 45.3131C80.2906 44.6681 80.973 44.4303 83.1887 44.1088C84.1236 43.9732 85.8629 43.9417 88.0778 44.0203C89.4782 44.07 89.7882 44.0472 90.165 43.8665C90.4719 43.7194 90.687 43.4933 90.687 43.318C90.687 42.8851 90.2812 42.5057 89.4458 42.1577C89.058 41.9961 88.5937 41.8758 88.1869 41.8315C87.7704 41.7862 86.3326 41.7868 85.6851 41.8326C84.291 41.9311 82.1436 42.2644 81.4471 42.4904C80.2224 42.8876 79.6805 43.1411 79.0461 43.6135C78.7713 43.8181 78.3923 44.1905 78.26 44.3858C78.1595 44.5342 77.9603 44.9849 77.9001 45.2002C77.8014 45.5527 77.8068 46.2089 77.9116 46.611C78.0245 47.0437 78.1678 47.2761 78.555 47.6542C78.9165 48.0072 79.1635 48.1545 79.8804 48.4444C80.45 48.6747 80.8617 48.7737 81.7396 48.8913C82.4438 48.9855 82.5671 48.9909 84.0299 48.9903C86.0876 48.9895 87.31 48.903 89.1955 48.625C92.1015 48.1966 94.5211 47.7574 96.362 47.3243C96.5321 47.2842 97.5552 47.0666 98.6356 46.8405C99.716 46.6145 100.886 46.3692 101.237 46.2956C101.587 46.222 102.806 45.966 103.947 45.7268C105.726 45.3536 106.922 45.0845 108.203 44.769C108.582 44.6756 112.983 43.6318 113.714 43.4618C114.262 43.3346 123.941 40.8377 126.065 40.2761C127.75 39.8302 129.313 39.4183 130.721 39.0488C132.25 38.6474 134.071 38.1354 134.795 37.9031C135.715 37.608 138.859 36.5031 139.379 36.2921C141.304 35.5111 142.135 35.155 143.126 34.6865C143.306 34.6013 143.568 34.4776 143.708 34.4116C145.274 33.6732 146.836 32.7148 147.837 31.8784C148.375 31.4284 148.976 30.8007 149.25 30.4014C149.443 30.1208 149.481 30.034 149.598 29.6014C149.67 29.3345 149.762 28.887 149.803 28.607C149.867 28.1621 149.871 28.0319 149.84 27.5756C149.82 27.2884 149.762 26.8364 149.709 26.5711C149.249 24.2296 147.932 22.0505 145.448 19.5226C144.103 18.1545 142.648 17.0361 141.034 16.13C139.222 15.113 138.305 14.7098 136.341 14.0676C135.186 13.6897 133.861 13.3968 132.432 13.2035C132.113 13.1604 131.847 13.1206 131.842 13.1152C131.837 13.1098 131.922 12.9671 132.031 12.7981C132.794 11.6203 133.828 9.57206 134.097 8.70771C134.328 7.96515 134.38 7.21148 134.233 6.75141C134.021 6.09097 133.625 5.80754 132.71 5.66115C132.202 5.57978 131.787 5.68335 131.74 5.90328C131.685 6.16125 131.844 6.44664 132.325 6.94983C132.844 7.49439 132.927 7.64732 132.95 8.10717C132.966 8.41675 132.955 8.49718 132.854 8.85285C132.689 9.42929 132.399 10.0337 131.981 10.6705C131.593 11.2609 130.89 12.2145 130.537 12.6273L130.326 12.8747L129.85 12.8495C129.194 12.8147 127.741 12.7115 127.729 12.6987C127.723 12.6929 128.106 11.8095 128.578 10.7356C129.051 9.66163 129.598 8.41897 129.793 7.9741C129.989 7.52923 130.19 7.07213 130.24 6.95833C130.291 6.84452 130.589 6.16734 130.903 5.45348C131.586 3.90184 131.6 3.8734 131.664 3.8734C131.692 3.8734 132.416 3.69515 133.273 3.47725C134.13 3.25938 134.93 3.05638 135.05 3.02617C135.17 2.99596 135.54 2.95491 135.871 2.93494C136.794 2.87933 136.981 2.77493 136.975 2.31851C136.971 2.08391 136.897 1.88316 136.749 1.70544C136.573 1.49386 136.06 1.36787 135.613 1.42595C135.458 1.446 134.599 1.64938 133.704 1.87786C132.808 2.10637 132.061 2.29331 132.044 2.29331C132.026 2.29331 132.19 2.04926 132.409 1.751C132.633 1.44563 132.865 1.0804 132.941 0.914983C133.062 0.650732 133.074 0.599153 133.057 0.400401C133.03 0.0962714 132.939 -0.00218308 132.688 3.65643e-05C132.533 0.00142855 132.465 0.0276129 132.262 0.165946ZM128.659 4.80452C128.63 4.84075 128.311 5.23434 127.952 5.67921C126.287 7.73859 122.843 11.9934 121.299 13.8994C120.863 14.4374 120.106 15.3727 119.617 15.978C119.128 16.5832 118.721 17.0784 118.714 17.0784C118.706 17.0784 118.708 17.0573 118.716 17.0314C118.871 16.5839 119.134 15.6137 119.266 15.0093C119.471 14.0696 119.484 13.6645 119.33 13.0368C119.178 12.4152 118.99 12.1775 118.416 11.8835C118.13 11.7371 118.066 11.719 117.787 11.706C117.481 11.6919 117.473 11.6937 117.315 11.8182C117.113 11.9777 117.044 12.1663 117.009 12.6567C116.99 12.9333 116.999 13.1167 117.046 13.4049L117.109 13.7866L115.599 15.9498C113.986 18.2583 113.72 18.5933 113.371 18.7531C113.124 18.8661 113.054 18.8694 112.969 18.7722C112.836 18.6205 112.912 18.4101 113.542 17.1725C114.775 14.7504 114.766 14.774 114.554 14.5549C114.462 14.4603 114.42 14.4452 114.254 14.4465C114.038 14.4482 113.253 14.6055 113.204 14.6568C113.187 14.6748 113.056 14.9773 112.914 15.329C112.772 15.6808 112.617 16.0278 112.571 16.1003C112.525 16.1727 112.332 16.4774 112.142 16.7774C111.614 17.6141 110.954 18.2927 110.149 18.8273C109.668 19.1466 109.424 19.2182 109.258 19.0883C109.195 19.0388 109.186 18.9892 109.188 18.7039C109.19 18.3699 109.244 18.0911 109.463 17.28C109.603 16.7618 109.592 16.6166 109.402 16.5347C109.293 16.4876 109.253 16.4875 109.102 16.534C108.813 16.6228 108.716 16.7162 107.798 17.7974C105.269 20.7762 104.153 21.9677 103.718 22.1542C103.568 22.218 103.365 22.1788 103.293 22.0722C103.148 21.8581 103.325 21.1605 103.735 20.3326C103.877 20.0465 108.073 11.9739 108.311 11.5293C108.355 11.4465 108.5 11.1672 108.633 10.9085C108.767 10.6499 108.888 10.4186 108.903 10.3945C108.919 10.3704 110.281 9.96704 111.932 9.49813C113.582 9.02926 116.652 8.15701 118.753 7.55978C120.853 6.96258 123.383 6.24481 124.373 5.96475C125.363 5.68467 126.73 5.29563 127.411 5.10022C128.091 4.90482 128.662 4.7435 128.68 4.7418C128.698 4.74007 128.689 4.76829 128.659 4.80452ZM114.897 10.465C114.713 10.5317 114.457 10.7561 114.288 10.9982C113.934 11.5068 113.714 11.968 113.714 12.2018C113.714 12.3524 113.828 12.5882 113.932 12.6513C113.998 12.6917 114.114 12.7144 114.256 12.7144C114.445 12.7144 114.505 12.6959 114.668 12.5873C114.981 12.3803 115.359 11.864 115.499 11.4541C115.726 10.789 115.414 10.2772 114.897 10.465ZM112.306 11.2994C112.091 11.3721 111.758 11.5713 111.586 11.7302C111.251 12.0398 110.756 12.8242 110.659 13.1983C110.578 13.5132 110.676 13.7684 110.931 13.911C111.075 13.9912 111.555 13.9877 111.823 13.9044C112.122 13.8116 112.285 13.6736 112.587 13.259C112.798 12.9704 112.897 12.7894 113.018 12.4757C113.259 11.8476 113.258 11.6037 113.011 11.3653C112.896 11.2542 112.539 11.2208 112.306 11.2994ZM105.813 11.3919C105.773 11.4513 104.76 12.5851 102.564 15.0285C102.116 15.5274 101.057 16.7085 100.474 17.3591C100.363 17.4825 100.142 17.7283 99.9816 17.9054C99.8215 18.0825 99.2977 18.667 98.8175 19.2044C98.3373 19.7418 97.8216 20.3172 97.6716 20.483C97.5215 20.6489 97.2023 21.0043 96.9622 21.2728C96.7221 21.5413 96.4029 21.8969 96.2528 22.063C96.1028 22.2291 95.7918 22.5758 95.5617 22.8334C94.3913 24.1436 94.2801 24.257 93.9251 24.5023C93.7824 24.601 93.6861 24.6403 93.5868 24.6403C93.4628 24.6403 93.4424 24.6263 93.3953 24.5098C93.2849 24.2365 93.3526 23.7671 93.5528 23.4176C93.7325 23.1039 93.9027 22.9034 94.5593 22.2325C95.1859 21.5921 95.3955 21.2945 95.522 20.8648C95.6251 20.5148 95.6211 20.3479 95.5059 20.2063C95.3808 20.0526 95.2216 20.003 94.996 20.0475C94.7396 20.098 94.3012 20.2979 94.0884 20.4612C93.9883 20.5379 93.887 20.6128 93.8631 20.6274C93.8351 20.6447 93.7664 20.5613 93.6691 20.3918C93.3844 19.8962 93.0759 19.7077 92.4696 19.6585C92.0233 19.6224 91.4252 19.8108 90.7344 20.2051L90.4725 20.3546L90.4161 20.1581C90.385 20.05 90.3596 19.9487 90.3596 19.933C90.3596 19.9172 90.2927 19.794 90.211 19.6591C90.0797 19.4426 90.0396 19.4051 89.8691 19.3391C89.6043 19.2367 89.4819 19.2769 89.2219 19.552C88.9603 19.8287 88.4299 20.5538 88.2543 20.8747C88.1796 21.0111 88.0067 21.3512 87.87 21.6306C87.4667 22.455 87.1447 22.9868 86.5714 23.7757C86.0809 24.4507 85.7848 24.8137 85.0723 25.6133C84.7891 25.9312 84.4755 26.2901 84.3755 26.4109C83.0102 28.0592 82.0899 28.9955 81.006 29.839C80.5146 30.2215 80.1867 30.3886 79.8591 30.4236C79.4891 30.4632 79.3049 30.3676 79.2035 30.0834C79.1364 29.8951 79.1479 29.7217 79.2491 29.3983C79.3641 29.0309 79.5035 28.7381 80.1714 27.4618C80.4584 26.9135 80.9141 26.0416 81.1842 25.5244C81.4542 25.0071 81.7285 24.4823 81.7936 24.3581C82.0913 23.7904 83.6024 20.897 83.7682 20.5772C83.8701 20.3806 84.1655 19.8139 84.4245 19.3178L84.8956 18.4158L85.545 18.1959C88.3025 17.2621 89.6025 16.8225 91.6329 16.1372C92.5632 15.8232 93.439 15.5271 93.5791 15.4793C93.91 15.3661 95.2012 14.9295 97.3078 14.2185C98.2382 13.9045 99.114 13.6085 99.254 13.5606C99.5136 13.4718 100.009 13.3041 102.965 12.3051C103.885 11.994 104.908 11.6471 105.238 11.5342C105.568 11.4213 105.843 11.3275 105.85 11.3257C105.856 11.3238 105.839 11.3536 105.813 11.3919ZM129.197 14.0244C129.152 14.099 128.62 14.4902 128.33 14.6613C128.156 14.7643 127.853 14.9037 127.657 14.9711C127.245 15.1132 126.691 15.275 126.675 15.2582C126.665 15.2476 127.1 14.2124 127.179 14.0593C127.21 13.999 127.298 13.9935 128.214 13.9935C128.765 13.9935 129.207 14.0074 129.197 14.0244ZM42.7152 14.4196C42.6509 14.4439 42.5216 14.5302 42.4278 14.6114C42.2801 14.7392 42.2132 14.8526 41.9288 15.4578C41.5435 16.2777 41.1944 16.8745 40.7433 17.4843C40.3643 17.9967 40.0812 18.2907 39.085 19.2064C38.0591 20.1494 37.472 20.5973 33.5111 23.4591C32.9353 23.8752 31.5912 24.846 30.5241 25.6166L28.5839 27.0178L28.1715 26.9383C27.3647 26.7828 26.2571 26.672 25.5161 26.6725C24.5877 26.6731 22.5282 26.8851 21.6237 27.073C21.5104 27.0966 21.6213 26.9589 22.4772 26.0134C22.6083 25.8686 22.8955 25.5473 23.1154 25.2994C23.3353 25.0516 23.6299 24.7211 23.7699 24.565C23.91 24.409 24.2046 24.0786 24.4247 23.831C24.6448 23.5833 24.9395 23.253 25.0795 23.097C25.2196 22.9409 25.6943 22.4077 26.1345 21.9121C26.5747 21.4165 27.0494 20.8835 27.1894 20.7277C27.3295 20.5718 27.8042 20.0393 28.2444 19.5442C28.6846 19.0492 29.2664 18.3976 29.5374 18.0964C30.2726 17.2792 30.4578 16.9948 30.5386 16.5594C30.5779 16.3476 30.575 16.3022 30.5115 16.1294C30.4268 15.8987 30.1765 15.6524 29.9568 15.5835C29.6333 15.4821 29.1023 15.5449 28.7355 15.7279C28.2029 15.9937 27.8528 16.317 26.9701 17.3582C26.6906 17.688 26.1936 18.2721 25.8658 18.6561C24.8135 19.8889 24.7607 19.9509 23.4427 21.5018C23.1627 21.8313 22.8824 22.1601 22.8198 22.2325C22.6492 22.4299 21.5815 23.6828 21.0234 24.3405C20.7533 24.6588 20.4504 25.0138 20.3504 25.1293C20.2504 25.2449 19.9475 25.6001 19.6774 25.9187C18.4996 27.308 18.3315 27.4935 18.2309 27.5144C18.1762 27.5258 17.9758 27.5619 17.7858 27.5945C15.0865 28.0578 13.5743 28.5482 11.97 29.4804C11.4367 29.7903 11.3728 29.8363 10.8194 30.3089C10.1323 30.8956 9.44707 31.8086 9.28853 32.3489C9.17995 32.7188 9.25867 33.2306 9.48468 33.6241C9.81339 34.1963 10.6245 34.7084 11.4585 34.8704C11.8294 34.9424 11.8295 34.9428 11.5607 35.256C11.3067 35.552 9.99128 37.0962 9.13058 38.1086C8.84036 38.45 8.59408 38.7378 8.58335 38.7482C8.57262 38.7585 8.39197 38.97 8.18192 39.2181C7.97187 39.4663 7.74899 39.7287 7.68663 39.8013C7.45862 40.0667 6.14054 41.6129 5.21694 42.6984C4.43933 43.6124 4.12506 43.9809 2.89268 45.4238C2.41453 45.9836 1.91394 46.5771 1.78025 46.7427C1.26219 47.3842 1.02297 47.8205 0.924459 48.3035L0.874512 48.5485L0.989975 48.6723C1.14163 48.8349 1.42847 48.9231 1.70757 48.8929C2.08717 48.8519 1.99426 48.9418 4.12633 46.5522C4.34667 46.3052 4.91962 45.6638 5.39956 45.1268C5.87949 44.5898 6.37783 44.0311 6.50705 43.8853C6.68009 43.6899 8.61878 41.5158 8.92727 41.1712C9.4677 40.5674 11.4053 38.3966 12.3989 37.2817C12.6106 37.0442 12.8984 36.7223 13.0384 36.5662C13.1785 36.4102 13.5607 35.9824 13.8878 35.6155C14.2149 35.2486 14.4874 34.9485 14.4934 34.9485C14.4994 34.9485 14.9275 34.8803 15.4447 34.797C16.4674 34.6322 17.9993 34.286 18.7498 34.0499C19.0099 33.9681 19.4161 33.8398 19.6525 33.7648C21.1734 33.2821 24.0593 31.719 27.1383 29.7102C27.686 29.3529 29.0223 28.5905 29.1007 28.5906C29.2368 28.5909 30.5335 28.8399 30.8636 28.9292C31.9293 29.2175 32.2111 29.2988 32.8802 29.5116C33.6486 29.7559 34.7961 30.2418 35.3913 30.5749C36.5855 31.2432 37.5894 32.1589 38.2652 33.1965C38.6663 33.8124 39.0532 34.8078 39.2132 35.6357C39.4604 36.9147 39.4316 38.0452 39.1187 39.3501C38.602 41.505 37.5065 43.5514 36.0942 45.0001C34.7306 46.3987 33.4058 47.2412 31.8458 47.7019C31.0445 47.9385 30.388 48.018 29.5249 47.9832C29.0134 47.9626 28.854 47.9396 28.3172 47.8086C27.1764 47.5303 26.7036 47.2497 26.4637 46.7086C26.3798 46.5194 26.3493 46.0177 26.4025 45.7017C26.4252 45.5673 26.5665 45.1074 26.7165 44.6797C27.0185 43.8191 27.0436 43.6573 26.9075 43.4504C26.7931 43.2764 26.6054 43.2159 26.237 43.2342C25.9819 43.2468 25.9178 43.2643 25.7892 43.3566C25.5908 43.4988 25.3488 43.8175 25.1749 44.1656C25.0021 44.5116 24.9443 44.701 24.8419 45.2566C24.7669 45.6639 24.7647 45.7232 24.8055 46.2666C24.8551 46.9277 24.9057 47.1613 25.0804 47.537C25.2651 47.9343 25.4852 48.2125 25.9634 48.653C26.5373 49.1817 27.0807 49.4973 27.8079 49.7244C29.3459 50.2046 30.8145 50.0642 32.7826 49.249C34.6011 48.4957 36.5563 47.0869 38.3758 45.219C39.4928 44.0723 40.6504 42.4087 41.2082 41.1484C41.4005 40.714 41.4325 40.628 41.6677 39.9144C41.8639 39.3195 41.9115 39.1201 41.9957 38.5413C42.0844 37.932 42.0924 37.7943 42.0754 37.1681C42.0475 36.1454 41.9603 35.7364 41.5551 34.729C41.2342 33.931 40.8372 33.2618 40.3043 32.6205C39.935 32.176 39.2993 31.5229 38.8849 31.1621C38.1732 30.5425 37.0861 29.8132 36.0293 29.2466C34.8005 28.5877 33.6394 28.137 31.8665 27.6306L31.0504 27.3975L31.4299 27.1347C31.6386 26.9902 32.0468 26.7196 32.3369 26.5335C34.9847 24.8344 37.6321 22.9479 39.1396 21.6859C39.5097 21.3761 39.8861 21.0633 39.9759 20.9909C40.3001 20.7298 41.9081 19.0818 42.2333 18.6773C42.9173 17.8267 43.3263 17.1191 43.6095 16.2959C43.8386 15.6303 43.8329 15.195 43.5892 14.7467C43.4152 14.4266 43.054 14.2914 42.7152 14.4196ZM70.59 18.5605C70.9145 18.7141 71.1651 19.0631 71.2788 19.5199C71.4139 20.0622 71.2978 21.2986 71.0242 22.2325C70.6759 23.4211 70.4318 24.0628 70.0868 24.6967C70.0192 24.8208 69.7865 25.2525 69.5696 25.656C69.1167 26.4984 68.034 28.1827 67.5408 28.8119C66.6224 29.9836 66.3955 30.2522 65.6543 31.0444C64.1628 32.6387 62.1164 34.3175 60.2387 35.4869C59.2153 36.1243 57.2746 37.1541 56.7589 37.3334C56.1399 37.5486 55.47 37.5508 55.104 37.3387C54.6966 37.1026 54.403 36.5894 54.2696 35.8803C54.2094 35.5599 54.2052 35.4497 54.2362 34.9962C54.2798 34.3597 54.3439 33.9549 54.4921 33.3789C54.6346 32.8252 54.9553 31.8075 55.1861 31.1759C55.3528 30.7199 55.7773 29.7058 55.8353 29.6251C55.8501 29.6044 55.9488 29.4181 56.0546 29.2112C56.5485 28.2449 57.1743 27.2503 57.6878 26.6154C58.7929 25.2489 59.7499 24.2453 61.1482 22.9867C62.3823 21.8758 64.1511 20.6324 65.4226 19.982C67.2244 19.0604 68.0451 18.7623 69.6242 18.456C69.6743 18.4463 69.8639 18.4431 70.0457 18.4488C70.3133 18.4573 70.4171 18.4786 70.59 18.5605ZM92.4294 20.9861C92.5898 21.0936 92.7242 21.3268 92.7242 21.4977C92.7242 21.8499 92.5705 22.2067 91.9053 23.3988C91.4324 24.2461 91.416 24.2773 91.308 24.5392C91.1287 24.974 90.0717 25.8625 89.2073 26.3051C88.7011 26.5643 88.6853 26.5695 88.3504 26.5876C87.9495 26.6093 87.8317 26.5652 87.6985 26.3435C87.6224 26.2171 87.6134 26.1583 87.6158 25.8065C87.6191 25.3256 87.6692 25.1425 87.9446 24.6066C88.1847 24.1394 88.3858 23.8471 88.8921 23.2295C90.1368 21.7111 91.4047 20.8155 92.1785 20.9081C92.2686 20.9189 92.3814 20.954 92.4294 20.9861ZM25.8715 28.0889C26.4623 28.1396 26.617 28.1635 26.5808 28.1988C26.5554 28.2236 26.2236 28.4699 25.8435 28.746C23.6115 30.367 20.8211 31.8386 18.6952 32.516C18.1986 32.6742 17.361 32.804 16.8372 32.804H16.4701L16.5368 32.7136C16.5735 32.6639 16.8731 32.3126 17.2026 31.933C18.0331 30.9762 20.1098 28.5671 20.2214 28.4309C20.234 28.4156 20.481 28.3774 20.7702 28.3461C21.2811 28.2907 21.7301 28.2424 22.8605 28.1213C23.8707 28.013 24.8618 28.0023 25.8715 28.0889ZM16.5419 29.5236C16.5157 29.5608 16.1567 29.9968 15.744 30.4923C15.3313 30.9878 14.5857 31.8842 14.0871 32.4843L13.1805 33.5753L12.8912 33.5877C12.0916 33.6221 11.2916 33.2645 11.0468 32.7632C10.9217 32.5072 10.9083 32.1213 11.0163 31.8823C11.3103 31.2311 12.6222 30.2623 13.6569 29.9321C13.8169 29.8811 14.2434 29.7695 14.6046 29.6842C15.1444 29.5568 15.3646 29.5237 15.8415 29.4981C16.1605 29.481 16.4593 29.4644 16.5055 29.4614C16.5799 29.4564 16.584 29.4634 16.5419 29.5236ZM44.5287 33.0674C44.2875 33.1571 44.0073 33.4163 43.8201 33.723C43.6875 33.9402 43.6814 33.9638 43.6967 34.1998C43.7167 34.5106 43.8401 34.7591 44.1388 35.0905C44.3712 35.3482 44.4869 35.4255 44.7414 35.493C44.914 35.5388 45.2093 35.4933 45.3908 35.393C45.7214 35.2103 45.7497 34.202 45.4445 33.4825C45.3357 33.226 45.2711 33.1502 45.0874 33.0629C44.903 32.9754 44.7732 32.9764 44.5287 33.0674Z" fill="#E30D16"/>
</svg>
