<svg width="200" height="210" viewBox="0 0 200 210" fill="none" xmlns="http://www.w3.org/2000/svg">
<path d="M97.4019 6.5L99.134 5.5L99.634 6.36603L100 6.1547L100.366 6.36602L100.866 5.5L102.598 6.5L102.098 7.36602L103.83 8.36603L104.33 7.5L106.062 8.5L105.562 9.36602L107.294 10.366L107.794 9.5L109.526 10.5L109.026 11.366L110.758 12.366L111.258 11.5L112.99 12.5L112.49 13.366L114.222 14.366L114.722 13.5L116.454 14.5L115.954 15.366L117.687 16.366L118.187 15.5L119.919 16.5L119.419 17.366L121.151 18.366L121.651 17.5L123.383 18.5L122.883 19.366L124.615 20.366L125.115 19.5L126.847 20.5L126.347 21.366L128.079 22.366L128.579 21.5L130.311 22.5L129.811 23.366L131.543 24.366L132.043 23.5L133.775 24.5L133.275 25.366L135.007 26.366L135.507 25.5L137.239 26.5L136.739 27.366L138.471 28.366L138.971 27.5L140.703 28.5L140.203 29.366L141.935 30.366L142.435 29.5L144.167 30.5L143.667 31.366L145.399 32.366L145.899 31.5L147.631 32.5L147.131 33.366L148.863 34.366L149.363 33.5L151.096 34.5L150.596 35.366L152.328 36.366L152.828 35.5L154.56 36.5L154.06 37.366L155.792 38.366L156.292 37.5L158.024 38.5L157.524 39.366L159.256 40.366L159.756 39.5L161.488 40.5L160.988 41.366L162.72 42.366L163.22 41.5L164.952 42.5L164.452 43.366L166.184 44.366L166.684 43.5L168.416 44.5L167.916 45.366L169.648 46.366L170.148 45.5L171.88 46.5L171.38 47.366L173.112 48.366L173.612 47.5L175.344 48.5L174.844 49.366L176.576 50.366L177.076 49.5L178.808 50.5L178.308 51.366L180.04 52.366L180.54 51.5L182.272 52.5L181.772 53.366L183.504 54.366L184.004 53.5L185.737 54.5L185.237 55.366L185.603 55.5774V56H186.603V58H185.603V60H186.603V62H185.603V64H186.603V66H185.603V68H186.603V70H185.603V72H186.603V74H185.603V76H186.603V78H185.603V80H186.603V82H185.603V84H186.603V86H185.603V88H186.603V90H185.603V92H186.603V94H185.603V96H186.603V98H185.603V100H186.603V102H185.603V104H186.603V106H185.603V108H186.603V110H185.603V112H186.603V114H185.603V116H186.603V118H185.603V120H186.603V122H185.603V124H186.603V126H185.603V128H186.603V130H185.603V132H186.603V134H185.603V136H186.603V138H185.603V140H186.603V142H185.603V144H186.603V146H185.603V148H186.603V150H185.603V152H186.603V154H185.603V154.423L185.237 154.634L185.737 155.5L184.004 156.5L183.504 155.634L181.772 156.634L182.272 157.5L180.54 158.5L180.04 157.634L178.308 158.634L178.808 159.5L177.076 160.5L176.576 159.634L174.844 160.634L175.344 161.5L173.612 162.5L173.112 161.634L171.38 162.634L171.88 163.5L170.148 164.5L169.648 163.634L167.916 164.634L168.416 165.5L166.684 166.5L166.184 165.634L164.452 166.634L164.952 167.5L163.22 168.5L162.72 167.634L160.988 168.634L161.488 169.5L159.756 170.5L159.256 169.634L157.524 170.634L158.024 171.5L156.292 172.5L155.792 171.634L154.06 172.634L154.56 173.5L152.828 174.5L152.328 173.634L150.595 174.634L151.095 175.5L149.363 176.5L148.863 175.634L147.131 176.634L147.631 177.5L145.899 178.5L145.399 177.634L143.667 178.634L144.167 179.5L142.435 180.5L141.935 179.634L140.203 180.634L140.703 181.5L138.971 182.5L138.471 181.634L136.739 182.634L137.239 183.5L135.507 184.5L135.007 183.634L133.275 184.634L133.775 185.5L132.043 186.5L131.543 185.634L129.811 186.634L130.311 187.5L128.579 188.5L128.079 187.634L126.347 188.634L126.847 189.5L125.115 190.5L124.615 189.634L122.883 190.634L123.383 191.5L121.651 192.5L121.151 191.634L119.419 192.634L119.919 193.5L118.187 194.5L117.687 193.634L115.954 194.634L116.454 195.5L114.722 196.5L114.222 195.634L112.49 196.634L112.99 197.5L111.258 198.5L110.758 197.634L109.026 198.634L109.526 199.5L107.794 200.5L107.294 199.634L105.562 200.634L106.062 201.5L104.33 202.5L103.83 201.634L102.098 202.634L102.598 203.5L100.866 204.5L100.366 203.634L100 203.845L99.634 203.634L99.134 204.5L97.4019 203.5L97.9019 202.634L96.1699 201.634L95.6699 202.5L93.9378 201.5L94.4378 200.634L92.7058 199.634L92.2058 200.5L90.4737 199.5L90.9737 198.634L89.2417 197.634L88.7417 198.5L87.0096 197.5L87.5096 196.634L85.7776 195.634L85.2776 196.5L83.5455 195.5L84.0455 194.634L82.3135 193.634L81.8135 194.5L80.0814 193.5L80.5814 192.634L78.8494 191.634L78.3494 192.5L76.6173 191.5L77.1173 190.634L75.3853 189.634L74.8853 190.5L73.1532 189.5L73.6532 188.634L71.9212 187.634L71.4212 188.5L69.6891 187.5L70.1891 186.634L68.4571 185.634L67.9571 186.5L66.225 185.5L66.725 184.634L64.993 183.634L64.493 184.5L62.7609 183.5L63.2609 182.634L61.5289 181.634L61.0289 182.5L59.2968 181.5L59.7968 180.634L58.0648 179.634L57.5648 180.5L55.8327 179.5L56.3327 178.634L54.6007 177.634L54.1007 178.5L52.3686 177.5L52.8686 176.634L51.1366 175.634L50.6366 176.5L48.9045 175.5L49.4045 174.634L47.6725 173.634L47.1725 174.5L45.4404 173.5L45.9404 172.634L44.2083 171.634L43.7083 172.5L41.9763 171.5L42.4763 170.634L40.7442 169.634L40.2442 170.5L38.5122 169.5L39.0122 168.634L37.2801 167.634L36.7801 168.5L35.0481 167.5L35.5481 166.634L33.816 165.634L33.316 166.5L31.584 165.5L32.084 164.634L30.3519 163.634L29.8519 164.5L28.1199 163.5L28.6199 162.634L26.8878 161.634L26.3878 162.5L24.6558 161.5L25.1558 160.634L23.4237 159.634L22.9237 160.5L21.1917 159.5L21.6917 158.634L19.9596 157.634L19.4596 158.5L17.7276 157.5L18.2276 156.634L16.4955 155.634L15.9955 156.5L14.2635 155.5L14.7635 154.634L14.3975 154.423V154H13.3975V152H14.3975V150H13.3975V148H14.3975V146H13.3975V144H14.3975V142H13.3975V140H14.3975V138H13.3975V136H14.3975V134H13.3975V132H14.3975V130H13.3975V128H14.3975V126H13.3975V124H14.3975V122H13.3975V120H14.3975V118H13.3975V116H14.3975V114H13.3975V112H14.3975V110H13.3975V108H14.3975V106H13.3975V104H14.3975V102H13.3975V100H14.3975V98H13.3975V96H14.3975V94H13.3975V92H14.3975V90H13.3975V88H14.3975V86H13.3975V84H14.3975V82H13.3975V80H14.3975V78H13.3975V76H14.3975V74H13.3975V72H14.3975V70H13.3975V68H14.3975V66H13.3975V64H14.3975V62H13.3975V60H14.3975V58H13.3975V56H14.3975V55.5774L14.7635 55.366L14.2635 54.5L15.9955 53.5L16.4955 54.366L18.2276 53.366L17.7276 52.5L19.4596 51.5L19.9596 52.366L21.6917 51.366L21.1917 50.5L22.9237 49.5L23.4237 50.366L25.1558 49.366L24.6558 48.5L26.3878 47.5L26.8878 48.366L28.6199 47.366L28.1199 46.5L29.8519 45.5L30.3519 46.366L32.084 45.366L31.584 44.5L33.316 43.5L33.816 44.366L35.5481 43.366L35.0481 42.5L36.7801 41.5L37.2801 42.366L39.0122 41.366L38.5122 40.5L40.2442 39.5L40.7442 40.366L42.4763 39.366L41.9763 38.5L43.7084 37.5L44.2084 38.366L45.9404 37.366L45.4404 36.5L47.1725 35.5L47.6725 36.366L49.4045 35.366L48.9045 34.5L50.6366 33.5L51.1366 34.366L52.8686 33.366L52.3686 32.5L54.1007 31.5L54.6007 32.366L56.3327 31.366L55.8327 30.5L57.5648 29.5L58.0648 30.366L59.7968 29.366L59.2968 28.5L61.0289 27.5L61.5289 28.366L63.2609 27.366L62.7609 26.5L64.493 25.5L64.993 26.366L66.725 25.366L66.225 24.5L67.9571 23.5L68.4571 24.366L70.1891 23.366L69.6891 22.5L71.4212 21.5L71.9212 22.366L73.6532 21.366L73.1532 20.5L74.8853 19.5L75.3853 20.366L77.1173 19.366L76.6173 18.5L78.3494 17.5L78.8494 18.366L80.5814 17.366L80.0814 16.5L81.8135 15.5L82.3135 16.366L84.0455 15.366L83.5455 14.5L85.2776 13.5L85.7776 14.366L87.5096 13.366L87.0096 12.5L88.7417 11.5L89.2417 12.366L90.9737 11.366L90.4737 10.5L92.2058 9.5L92.7058 10.366L94.4378 9.36603L93.9378 8.5L95.6699 7.5L96.1699 8.36603L97.9019 7.36603L97.4019 6.5Z" stroke="#FFC000" stroke-width="2" stroke-dasharray="2 2"/>
<g filter="url(#filter0_d_1817_7)">
<path d="M100 20L173.612 62.5V147.5L100 190L26.3878 147.5V62.5L100 20Z" fill="white"/>
</g>
<defs>
<filter id="filter0_d_1817_7" x="6.38794" y="0" width="187.224" height="210" filterUnits="userSpaceOnUse" color-interpolation-filters="sRGB">
<feFlood flood-opacity="0" result="BackgroundImageFix"/>
<feColorMatrix in="SourceAlpha" type="matrix" values="0 0 0 0 0 0 0 0 0 0 0 0 0 0 0 0 0 0 127 0" result="hardAlpha"/>
<feOffset/>
<feGaussianBlur stdDeviation="10"/>
<feComposite in2="hardAlpha" operator="out"/>
<feColorMatrix type="matrix" values="0 0 0 0 0.00392157 0 0 0 0 0.0745098 0 0 0 0 0.235294 0 0 0 0.08 0"/>
<feBlend mode="normal" in2="BackgroundImageFix" result="effect1_dropShadow_1817_7"/>
<feBlend mode="normal" in="SourceGraphic" in2="effect1_dropShadow_1817_7" result="shape"/>
</filter>
</defs>
</svg>
