<svg width="50" height="50" viewBox="0 0 50 50" fill="none" xmlns="http://www.w3.org/2000/svg">
<path d="M49.9944 24.5831C49.7031 24.1142 49.6919 23.4556 49.6135 22.8528C49.5687 22.3393 49.4567 21.8034 49.2326 21.3904C49.0982 21.1559 49.1654 20.7206 48.9638 20.5308C48.9526 20.5866 48.9414 20.6089 48.9302 20.6424C48.919 20.8434 49.1318 21.1559 48.9974 21.2117C48.8405 21.2676 48.8742 20.8545 48.8069 20.6759C48.6277 20.1512 48.5157 19.6042 48.3813 19.0572C48.2917 18.7223 48.202 18.3874 48.0228 18.1306C47.9556 18.0525 47.8884 17.9185 47.8548 17.8069C47.5747 16.9026 47.0706 16.177 46.6786 15.2951C46.4881 14.8597 46.1633 14.4467 45.8384 14.0448L44.8863 12.7275L43.8445 11.4772L43.6653 11.2986C43.7101 11.5889 43.8333 11.8791 44.0237 12.2028C44.1917 12.5043 44.2702 12.7163 44.5614 12.7387C44.6734 12.7387 44.763 12.9173 44.707 13.0066C44.6062 13.1964 44.7518 13.3973 44.9087 13.6206C45.9168 14.949 46.701 16.4115 47.3955 17.9409C47.6419 18.4097 47.81 18.9009 47.9444 19.4591C48.0004 19.8052 48.2917 20.0954 48.3477 20.5085C48.3813 20.7206 48.4373 20.9215 48.2917 20.955C48.1796 20.9773 48.0452 20.8992 48.0116 20.6536C47.8436 19.7493 47.4179 19.0237 47.0818 18.2534C46.8466 17.8069 46.6786 17.3157 46.4097 16.8915C46.0737 16.3556 45.8048 16.2998 45.6256 16.6459C45.5808 16.7352 45.648 16.8245 45.6816 16.9361C45.7824 17.2822 46.0177 17.5836 46.0513 17.952C46.0625 18.0413 46.1297 18.2088 46.0737 18.2088C45.7936 18.1864 45.6592 18.5437 45.3568 18.4655C45.3007 18.4544 45.2223 18.4209 45.1999 18.3204C45.1663 18.1976 45.2447 18.2088 45.3007 18.1976C45.5248 18.1976 45.5584 17.7511 45.8832 17.9855C45.7824 17.7399 45.704 17.5613 45.6256 17.3715C45.536 17.1706 45.5136 16.9138 45.3231 16.791C45.3455 17.0031 45.1439 16.9027 45.1103 17.0031C45.0431 17.1929 44.9535 17.2264 44.763 17.0589C44.6734 16.9808 44.6286 17.0366 44.5838 17.0813C44.5278 17.1482 44.4718 17.2041 44.3822 17.0589C44.3038 16.925 44.371 16.8468 44.427 16.8022C44.4718 16.7687 44.5502 16.7799 44.6174 16.7687C44.6734 16.7575 44.7518 16.7129 44.7182 16.6459C44.4382 16.1435 44.763 16.3445 44.8639 16.3556C45.1215 16.378 45.0991 16.1882 44.9423 15.8533C44.8527 15.6523 44.7518 15.4737 44.539 15.1835C44.651 15.4067 44.4046 15.3844 44.651 15.63C44.7406 15.7193 44.9087 15.8645 44.9087 16.0542C44.9087 16.2552 44.7182 16.0654 44.6398 16.11C44.5166 16.177 44.3262 15.8086 44.2366 15.9649C44.1581 16.0877 44.0685 16.11 43.9229 16.0766C43.8333 15.8979 44.1245 15.9426 43.9341 15.7305C43.8557 15.63 43.7213 15.6189 43.6092 15.5742C43.5532 14.9825 43.9117 14.949 44.2478 14.8821C44.2814 14.8709 44.371 14.9267 44.3486 14.8821C44.1133 14.5248 44.427 14.5472 44.3598 14.2904C44.1805 14.4244 44.0013 14.3127 43.7997 13.9667C43.7213 13.8327 43.6092 13.7099 43.5084 13.5871C43.3292 13.3638 43.0491 13.1517 43.2844 12.8838C42.6571 12.8615 42.5675 12.2028 42.1978 11.8903C41.8729 11.6 41.5145 11.3098 41.268 10.9079C41.1896 10.7739 41.0328 10.6958 40.8984 10.6958C41.2456 11.1423 41.6377 11.5442 42.0298 11.9349C42.097 12.0019 42.1754 12.0912 42.1978 12.1693C42.2762 12.4038 42.3098 12.5936 42.6011 12.6829C42.7355 12.7275 42.8923 12.9508 42.7579 13.0848C42.5339 13.308 42.2202 13.3527 41.8617 13.3527C41.7945 13.0401 41.9738 12.9843 42.1082 12.895C42.1754 12.8503 42.2874 12.828 42.1754 12.6717C42.0858 12.5489 41.9962 12.5154 41.9178 12.627C41.8169 12.761 41.8057 13.1182 41.3801 12.694C41.3689 12.6829 41.3241 12.694 41.3241 12.694C41.3016 12.9285 41.0216 12.8615 40.9096 12.9731C40.6855 13.1741 40.4727 13.0959 40.1927 12.6717C39.991 12.3591 40.0022 12.08 40.2263 11.9684C40.4167 11.8791 40.4391 11.6335 40.5399 11.4549C40.5847 11.3879 40.6407 11.3098 40.7752 11.3991C40.9096 11.4884 40.8536 11.5554 40.876 11.6558C40.9096 11.6223 40.9432 11.6 40.9656 11.5665C41.0328 11.4772 41.0776 11.3209 40.9544 11.187C40.7976 11.0084 40.6743 11.1088 40.5735 11.187C40.4055 11.3098 40.1366 11.3209 40.2151 11.6558C40.2487 11.7898 40.047 11.5665 39.9574 11.6447C39.8342 11.7563 39.6438 11.7898 39.5877 11.9796C39.5765 12.0242 39.5093 12.0465 39.4421 12.0577C39.3749 12.0689 39.1957 11.9126 39.1957 12.0354C39.1957 12.1582 39.3525 12.1917 39.4533 12.2698C39.8342 12.5712 40.1703 12.9173 40.5287 13.2522C40.6407 13.3527 40.5623 13.4308 40.5623 13.509C40.5623 13.6094 40.4727 13.5871 40.3943 13.5648C40.2935 13.5424 40.2375 13.4308 40.1367 13.375C40.1142 13.5536 40.2935 13.7881 40.103 13.8662C40.0358 13.8997 40.1815 14.0671 40.2263 14.1229C40.4391 14.3016 40.4055 14.3685 40.2711 14.4467C40.0582 14.5807 39.879 14.7481 39.6774 14.9044C39.6326 14.9379 39.5429 14.9379 39.599 15.0607C39.6438 15.1612 39.7222 15.2728 39.8006 15.2616C39.9462 15.2393 40.1142 15.4067 40.2599 15.3621C40.3495 15.3398 40.4615 15.3844 40.5063 15.5184C40.5399 15.63 40.4727 15.7193 40.3943 15.7193C40.2375 15.7193 40.1142 15.764 39.9686 15.7751C39.8342 15.7863 39.711 15.6635 39.655 15.5072C39.5205 15.1612 39.1845 14.9937 38.994 14.6811C38.938 14.603 38.882 14.6365 38.8596 14.6923C38.7364 14.949 38.602 14.8821 38.4115 14.5806C38.2995 14.3909 38.1315 14.3574 38.0531 14.5025C38.0195 14.5695 37.9635 14.5695 37.9075 14.5137C37.773 14.402 37.605 14.3462 37.5266 14.2011C37.4706 14.1006 37.6162 14.123 37.6946 14.1118C38.0195 14.0448 38.1427 13.7434 38.3667 13.5648C38.4788 13.4755 38.5348 13.2299 38.6692 13.6652C38.7252 13.855 38.9044 13.8439 39.0277 13.8997C39.1845 13.9667 39.0053 13.7992 39.0613 13.7657C39.2517 13.6764 39.3749 13.509 39.4869 13.308C39.5429 13.2076 39.6998 13.4978 39.8566 13.5536C39.6774 13.3415 39.7782 13.241 39.8342 13.1182C39.8678 13.0624 39.9014 12.9954 39.823 12.9061C39.7446 12.8057 39.6886 12.8503 39.6102 12.8615C39.4085 12.8726 39.2741 12.9508 39.2629 13.1852C39.2517 13.3973 38.994 13.3862 38.8932 13.5201C38.8596 13.5536 38.7924 13.5201 38.7476 13.4643C38.6356 13.3303 38.7812 13.2745 38.7252 13.1517C38.4115 13.2187 38.2323 13.4308 37.9411 13.5201C37.773 13.5759 37.6498 13.7322 37.5042 13.8439C37.3922 13.9332 37.3026 13.8997 37.2017 13.7992C37.0897 13.6987 37.1233 13.5871 37.2129 13.5425C37.5378 13.3862 37.7282 13.0848 38.0419 12.9173C38.2995 12.7722 38.6132 12.6047 38.6804 12.2252C38.7252 11.9907 38.8484 11.7228 39.1509 11.6781C39.2293 11.667 39.2629 11.6447 39.2293 11.5554C39.2069 11.4772 39.1509 11.4102 39.0725 11.3656C38.9716 11.3098 38.8932 11.2874 38.8708 11.3767C38.77 11.6893 38.4003 11.7675 38.2659 12.0465C38.0979 12.3926 37.8515 12.694 37.5602 12.9061C37.2465 13.1294 36.9777 13.4196 36.6304 13.6318C36.5408 13.0289 36.5072 13.0401 36.8097 12.9061C36.5632 12.8615 36.4064 12.761 36.2944 12.5824C36.2608 12.5266 36.272 12.4261 36.1824 12.4261C36.104 12.4261 36.0479 12.4596 36.0031 12.5266C35.8351 12.8168 35.4878 12.9396 35.2414 13.1629C35.2302 13.1741 35.1742 13.1629 35.163 13.1517C35.107 13.1071 35.1182 13.0513 35.1406 13.0178C35.2638 12.828 35.3198 12.6047 35.4654 12.4261C35.5775 12.3033 35.3758 11.9126 35.1742 11.801C35.051 11.734 34.6029 11.9126 34.6365 12.0242C34.7037 12.2475 34.5917 12.2921 34.3676 12.2475C34.2444 12.2252 34.1324 12.2363 34.0764 12.3368C34.054 12.3926 33.9868 12.4373 33.8972 12.3703C33.7964 12.3033 33.8412 12.2252 33.8972 12.1805C34.0092 12.08 34.1324 11.9907 34.2556 11.9126C34.3564 11.8456 34.3564 11.734 34.3004 11.6223C34.2444 11.5219 34.11 11.5107 34.0092 11.5107C33.83 11.5107 33.8188 11.6447 33.8524 11.7228C33.9308 11.9237 33.7067 11.8679 33.6171 11.9349C33.5499 11.9796 33.4939 11.9461 33.4379 11.8903C33.3483 11.7786 33.3035 11.667 33.3931 11.5777C33.5051 11.4661 33.4491 11.3209 33.3147 11.2539C33.0234 11.0977 33.1242 11.0195 33.2251 10.8967C33.2923 10.8074 33.3147 10.6958 33.1914 10.573C33.0794 10.4837 32.945 10.4725 32.8218 10.5283C32.777 10.5506 32.721 10.573 32.6538 10.5283C32.3177 10.2939 32.2393 10.4948 32.1273 10.64C31.9704 10.8297 32.0264 11.0753 31.9704 11.2874C31.948 11.3767 32.0376 11.3767 32.0937 11.3991C32.3177 11.5107 32.2729 11.6335 32.1945 11.7563C32.1609 11.801 32.1049 11.8233 32.0264 11.8121C31.948 11.7898 31.9368 11.734 31.9144 11.6781C31.892 11.5554 31.9928 11.3544 31.6456 11.4549C31.5224 11.4884 31.4663 11.3321 31.4888 11.2428C31.5224 11.0753 31.4775 10.9079 31.4103 10.7516C31.3655 10.64 31.3655 10.5395 31.5112 10.4725C31.5784 10.439 31.6232 10.3832 31.668 10.3385C31.724 10.2604 31.7688 10.1711 31.6344 10.0929C31.4888 10.0036 31.4215 10.1041 31.3655 10.1488C31.1863 10.2939 31.0519 10.3162 30.9287 10.0148C30.895 10.2157 30.839 10.3274 31.1527 10.3609C31.3207 10.372 31.3543 10.8632 31.1975 10.9525C31.1079 10.9972 30.9847 11.0083 31.0519 11.1646C31.1191 11.3209 30.9847 11.4549 30.7718 11.4437C30.5254 11.4326 30.5142 11.2763 30.5254 11.1312C30.5366 10.986 30.5142 10.8521 30.391 10.7069C30.2229 10.506 30.0437 10.5618 29.9205 10.6846C29.6852 10.8967 29.7076 10.9079 29.4612 10.6511C29.4724 10.7293 29.4948 10.7851 29.4948 10.8521C29.4948 10.9637 29.4276 11.0418 29.282 11.0418C29.1251 11.0418 29.0019 10.986 28.9795 10.8521L28.9459 10.4725C28.9459 10.4055 28.9683 10.3385 28.9347 10.2827C28.8675 10.1599 28.9347 9.97015 28.6995 9.92549C28.4754 9.90316 28.3522 10.026 28.2178 10.1599C28.0498 10.3274 27.8705 10.5395 27.4897 10.439C27.3664 10.4055 27.3216 10.4837 27.2992 10.5506C27.2432 10.6846 27.176 10.8521 26.9296 10.7962C26.7055 10.7516 26.6943 10.573 26.6607 10.439C26.6495 10.3832 26.6943 10.3274 26.7167 10.2381C26.4703 10.3274 26.5375 10.4502 26.5375 10.5506C26.5263 10.6623 26.5711 10.7962 26.3695 10.8409C26.123 10.8967 25.8206 11.0083 25.6413 10.919C25.4957 10.8297 25.4733 10.573 25.4509 10.3944C25.4285 10.2492 25.4285 10.1041 25.2269 10.0483C25.0028 9.98131 24.8572 10.1264 24.6668 10.1934C24.2747 10.3274 24.3307 10.6511 24.0843 10.8521C24.0619 10.8744 24.0619 10.9302 24.0843 10.9525C24.1851 11.0195 24.2635 11.0977 24.0843 11.187C23.905 11.2763 23.681 11.3432 23.5466 11.2316C23.4346 11.1423 23.2553 11.0642 23.2105 10.919C23.1657 10.7404 22.9865 10.7069 22.7736 10.7851C22.5832 10.8521 22.4824 10.9079 22.5048 11.1088C22.516 11.2651 22.3816 11.4549 22.2808 11.6223C22.1911 11.7675 21.9559 11.7898 21.8663 11.667C21.8215 11.6 21.8103 11.5219 21.7767 11.4437C21.7319 11.3544 21.7655 11.1646 21.5862 11.2316C21.4518 11.2986 21.2502 11.4884 21.3958 11.6447C21.4742 11.7228 21.4742 11.8121 21.3846 11.9014C21.295 11.9907 21.2278 11.9349 21.1494 11.9014C20.9925 11.8456 20.9925 11.8791 21.0037 12.0242C21.0149 12.1247 20.9029 12.3145 20.7349 12.3591C20.4772 12.4261 20.298 12.6382 20.0628 12.7275C19.8835 12.8057 19.7267 12.895 19.5475 12.7833C19.3795 12.6829 19.0658 12.895 19.0546 13.1071C19.0434 13.308 18.9426 13.442 18.7521 13.5536C18.6625 13.6094 18.5617 13.6652 18.4945 13.7322C18.2817 13.9332 18.1696 14.0225 18.136 13.7099C18.1248 13.5425 17.9904 13.5425 17.856 13.5425C17.7776 13.5425 17.688 13.5648 17.6544 13.6541C17.6096 13.7769 17.5983 13.8997 17.6992 13.9778C17.7776 14.0336 17.5871 14.5025 17.4639 14.6253C17.2399 14.8374 17.0831 14.9156 16.9038 14.7481C16.8702 14.7146 16.8478 14.6811 16.803 14.6588C16.6014 14.5248 16.4221 14.6365 16.3325 14.9267C16.2653 15.1277 16.3101 15.2951 16.3437 15.4514C16.3773 15.5742 16.3101 15.63 16.1981 15.6635C15.8733 15.7305 15.7948 16.0207 15.7052 16.2887C15.6604 16.4115 15.6828 16.5566 15.526 16.6459C15.3468 16.7464 15.302 16.5901 15.2011 16.5566C15.0891 16.5231 15.0555 16.2775 14.8987 16.4115C14.7643 16.5454 14.9323 16.6682 14.9099 16.8133C14.8875 16.925 14.9323 16.992 14.9883 17.0589C15.1003 17.1817 15.1003 17.3492 14.9995 17.539C14.8987 17.7399 14.7643 17.7176 14.6298 17.6953C14.5738 17.6841 14.5178 17.6841 14.4618 17.7622C14.4394 17.8292 14.473 17.8404 14.5066 17.8515C14.5962 17.8627 14.7194 17.8404 14.6298 18.0302C14.5626 18.1753 14.4506 18.2758 14.3498 18.1641C14.249 18.0413 14.193 18.153 14.1818 18.2423C14.1482 18.5548 13.9241 18.8339 13.9913 19.1688C14.0473 19.4033 13.9241 19.7493 13.7337 19.9838C13.3416 20.4303 13.3416 21.0331 13.1736 21.569C13.1064 21.7588 13.14 21.982 13.0728 22.1718C12.9495 22.6518 12.9271 23.143 12.9047 23.6342C12.8263 24.2147 12.8711 24.8064 12.8375 25.3757C12.8039 25.6548 12.8711 25.9339 12.8935 26.2018L13.0504 27.5303C13.1512 27.9656 13.2632 28.3898 13.3864 28.8141C13.7113 29.629 13.9353 30.4774 14.4282 31.2142C14.6186 31.5603 14.6522 31.7835 14.4618 32.1743C14.6074 32.2412 14.7307 32.1854 14.8651 32.2412C15.1115 32.3305 15.2683 32.4868 15.3916 32.7324C15.5596 33.045 15.806 33.2906 16.0301 33.5474C16.3661 33.9381 16.7694 34.2618 17.0495 34.6972C17.2511 34.9428 17.5087 35.1326 17.8 35.2777C18.136 35.4675 18.3825 35.7912 18.6737 36.0591C18.9986 36.3829 19.3795 36.6062 19.7715 36.7513C20.1748 36.9187 20.4436 37.2201 20.8133 37.3988C21.0597 37.5327 21.2614 37.689 21.5638 37.5997C21.7543 37.5662 22.0567 37.7002 22.2472 37.8676C22.3928 37.9793 22.516 38.0351 22.684 38.0127C22.8857 37.9793 23.0201 38.0797 23.1657 38.2025C23.5466 38.5151 24.0843 38.6267 24.5772 38.716C24.678 38.7384 24.7116 38.6714 24.7564 38.6156C24.8796 38.4481 25.0364 38.4481 25.1933 38.6156C25.2829 38.716 25.4285 38.7495 25.5405 38.7607C25.8654 38.8054 26.2014 38.7384 26.5263 38.8388C26.6383 38.8612 26.7279 38.7942 26.7727 38.716C26.8175 38.6491 26.9184 38.5821 26.9968 38.6267C27.4 38.8388 27.7921 38.6044 28.1954 38.5821C28.3858 38.5597 28.5874 38.6379 28.7219 38.716C28.9907 38.8723 29.1924 38.7495 29.3268 38.5709C29.4388 38.4258 29.5956 38.3588 29.7637 38.3811C30.0661 38.4593 30.335 38.2695 30.6262 38.3142C30.671 38.3142 30.727 38.3142 30.7606 38.2918C31.1751 37.9904 31.7128 37.9346 32.1721 37.7113C32.6314 37.5327 33.057 37.1866 33.5387 37.075C34.1548 36.9299 34.5469 36.3605 35.1742 36.2377C35.3758 35.7912 35.8015 35.6907 36.1936 35.4898C36.2384 35.4563 36.2496 35.367 36.2944 35.3112C36.4736 35.0656 36.6192 34.82 36.9665 34.7642C37.1569 34.7419 37.3362 34.6079 37.3922 34.3288C37.4706 34.0162 37.773 33.8153 38.0083 33.5809C38.6692 32.7324 39.4197 31.9622 39.9462 31.0133C40.2935 30.4551 40.5399 29.8299 40.9432 29.3052C41.0328 29.1936 41.0328 29.082 41.044 28.9703C40.9656 28.2112 41.3129 27.6084 41.7945 27.1172C41.8393 27.0726 41.9178 27.0502 41.9178 26.9721C41.9402 26.3916 42.3322 26.28 42.5787 26.0344C42.7467 25.8781 42.9483 25.7999 43.1052 25.5767C43.2396 25.398 43.4748 25.4762 43.6429 25.2641C43.8669 24.985 44.1245 24.9515 44.3822 25.052C44.4718 25.0855 44.5054 25.0408 44.5278 24.8734C44.5502 24.6166 44.6734 24.6389 44.7743 24.6836C44.8863 24.7282 44.8415 24.8622 44.8303 25.0297C44.8079 25.4092 44.5614 25.6102 44.5502 25.9785C44.5502 26.0679 44.4606 26.1683 44.5614 26.2353C44.6174 26.2688 44.6958 26.2576 44.7294 26.1572C44.8527 25.7999 44.9423 25.9897 45.0095 26.213C45.0879 26.4809 45.1775 26.559 45.3456 26.3916C45.4016 26.3358 45.48 26.3246 45.5472 26.2688C45.6256 26.213 45.704 26.1348 45.76 26.28C45.816 26.4251 45.8608 26.5814 45.76 26.7488C45.6368 26.9721 45.6144 27.0949 45.816 27.1172C45.9841 27.1395 46.1073 27.4075 46.3201 27.2958C46.4097 27.2512 46.3649 27.5079 46.3761 27.6419C46.3873 28.0438 46.1969 28.5238 46.3425 28.8699C46.4433 28.6801 46.533 28.5015 46.6674 28.4568C46.8578 28.3898 46.9698 28.5461 46.8802 28.8922C46.7906 29.2271 46.7346 29.4727 47.0146 29.3387C47.0706 29.3164 47.1155 29.3499 47.1155 29.428C47.0818 29.9192 47.2723 29.7741 47.4627 29.6625C47.5411 29.6178 47.6195 29.6067 47.6868 29.6178C47.8436 29.6513 47.8884 29.7853 47.7316 30.109C47.5971 30.3769 47.4627 30.6449 47.3395 30.9128C47.1939 31.1584 47.1267 31.3816 47.1155 31.6607C47.1043 31.9287 47.1491 32.018 47.3171 31.8952C47.4291 31.817 47.4851 31.8282 47.5299 31.9845C47.5971 32.2412 47.8324 32.0961 48.0228 32.0626C48.202 32.0291 48.3925 31.9287 48.5717 31.884C48.6837 31.8617 48.7621 31.951 48.6053 32.1966C48.0116 33.1566 47.6195 34.1837 47.2275 35.2554C46.6674 36.5838 45.8496 37.8006 44.9535 38.9505C44.6398 39.3635 44.707 38.9616 44.5502 38.984C44.5278 39.2184 44.539 39.4193 44.3822 39.6984C44.2926 39.8659 44.2254 40.0445 44.0125 40.0891C43.9005 40.1115 43.9005 40.1896 43.8445 40.2789C43.6092 40.6138 43.4748 40.9711 43.0155 41.239C42.2874 41.6855 41.7833 42.4223 41.0776 42.9358C40.9656 43.0251 40.876 43.1368 40.7304 43.2149C40.1479 43.5275 40.1703 43.5498 39.6214 44.1192C40.3607 43.6949 40.932 43.3265 41.5369 42.8577C42.3322 42.199 43.1612 41.5181 43.9341 40.7924C44.6062 40.0891 45.3119 39.4082 45.8496 38.5709C46.3201 37.9346 46.813 37.3206 47.2499 36.6731C47.4515 36.394 47.5859 36.0591 47.8324 35.8135C47.9444 35.6796 48.034 35.5679 48.1236 35.6014C48.202 35.6349 48.1684 35.7912 48.1236 35.9363C48.0676 36.0926 48.0004 36.2489 47.922 36.4052C47.4739 37.2313 47.0594 38.0797 46.4321 38.8165C45.9505 39.4417 45.5808 40.145 45.0095 40.7366C44.6734 41.0827 44.3262 41.3618 43.9901 41.786C43.4524 42.4335 42.7579 43.1033 42.0298 43.5721C41.5033 43.9405 41.156 44.3089 40.7079 44.6773C39.9014 45.2132 39.2181 45.9834 38.1875 46.2849C37.9075 46.3742 37.605 46.6086 37.2577 46.8095C37.829 46.7872 37.6162 46.9547 37.1121 47.2338C36.5072 47.5463 35.8911 47.8143 35.275 48.0822C34.8605 48.2608 34.5357 48.4729 34.1324 48.618C34.0764 48.6404 34.0316 48.685 33.9756 48.6962C32.9002 48.9083 32.0376 49.4218 30.9287 49.5446C30.1557 49.6786 29.282 49.7567 28.5314 49.98C28.4082 50.0246 27.9825 49.9465 27.7809 49.8795C27.6129 49.8237 27.5457 49.846 27.4336 49.8907C27.0192 50.0693 26.5263 49.98 26.0222 49.9576C25.5405 49.9353 24.9692 49.7455 24.5548 49.9688C24.4763 50.0135 24.3755 49.9576 24.2859 49.9242C23.7258 49.7009 23.1769 49.5334 22.5048 49.5893C22.404 49.6004 22.1911 49.5446 22.0903 49.4999C21.6647 49.2543 21.3174 49.232 20.9813 49.3213C20.7237 49.2767 20.5557 49.1985 20.4436 49.0646C20.3316 48.9418 20.13 48.886 19.9284 48.9194C19.6147 48.9976 19.4243 48.9306 19.2114 48.6627C19.0546 48.4729 18.7073 48.3836 18.4273 48.3948C18.1696 48.4059 18.2033 48.4841 18.5169 48.6292C18.6625 48.6962 18.6401 48.7631 18.5281 48.7743C18.3825 48.7966 18.5057 48.819 18.5617 48.8859C18.8866 49.2432 19.4691 49.2878 19.9059 49.4441C20.0404 49.4999 20.242 49.5111 20.354 49.4553C20.1636 49.366 19.962 49.3325 19.7603 49.2878C19.5251 49.232 19.4691 49.1204 19.4131 49.0311C19.3907 48.9864 19.3571 48.9306 19.4579 48.9529C19.6259 48.9864 19.7267 49.0646 19.8723 49.1204C20.1636 49.2432 20.5109 49.3325 20.8357 49.4218C20.8693 49.433 20.9253 49.3437 20.9701 49.3102C21.2726 49.3771 21.351 49.5781 21.6983 49.6339C21.7767 49.6451 21.8103 49.7009 21.7879 49.7455C21.7207 49.8795 20.8693 49.9688 20.5109 49.8572C19.4243 49.5781 18.3713 49.2209 17.3407 48.8301C16.6014 48.5176 15.8957 48.1938 15.2011 47.8589C14.2714 47.4012 13.3976 46.843 12.5127 46.296C12.143 46.0281 12.3558 45.9835 12.4903 45.9835C12.6919 45.9835 12.9383 46.0169 13.2072 46.0616C13.4312 46.1062 13.5656 46.0951 13.6665 46.0281C12.6135 45.4699 12.6583 45.4141 12.3558 45.8495C12.2214 46.0504 11.4485 45.6597 10.8436 45.0904C10.5523 44.8225 10.6531 44.7778 10.7652 44.7332C10.8324 44.7108 10.9444 44.7331 11.0788 44.8894C11.4485 45.3025 11.7957 45.403 12.1206 45.4364C12.4007 45.4588 12.5239 45.403 12.0646 45.0457C12.0198 45.0122 11.9526 44.9676 11.919 44.9229C11.6501 44.5769 11.4149 44.4652 11.1012 44.5434C11.0228 44.5657 10.978 44.6104 10.8212 44.5099C10.7204 44.4206 10.7316 44.3647 10.7316 44.3089C10.7428 44.2308 10.922 44.2196 10.6307 44.0298C10.4067 43.8847 10.2835 43.9182 10.2275 44.0298C10.2163 44.0522 10.2611 44.1415 10.3059 44.1973C10.3955 44.3424 10.7316 44.5769 10.5523 44.6327C10.3955 44.6773 10.0931 44.4652 9.88021 44.2643C9.44334 43.8401 8.95045 43.494 8.54718 43.0251C8.21112 42.6232 7.79665 42.2772 7.42699 41.8641C6.06035 40.3236 4.89535 38.6156 3.89838 36.8071C3.11424 35.3893 2.53174 33.8599 1.99405 32.3417C1.7364 31.3928 1.40035 30.4328 1.20991 29.4504C1.03068 28.4457 0.84025 27.4075 0.829048 26.3804C0.829048 26.3134 0.806643 26.2241 0.817845 26.1906C0.974672 25.6548 0.761836 25.2864 0.661019 24.8734C0.616211 24.7059 0.593807 24.5719 0.616211 24.3933C0.773038 23.4109 0.851451 22.4509 0.873855 21.4127C0.873855 21.0778 0.985875 20.6759 1.06429 20.3075C1.09789 20.1512 1.09789 19.8275 1.23232 19.9056C1.33314 19.9726 1.40035 20.1624 1.33314 20.475C1.27713 20.7317 1.17631 20.9885 1.27713 21.2006C1.36674 21.0555 1.31073 20.9885 1.32193 20.8992C1.35554 20.6536 1.37794 20.3298 1.50116 20.2182C1.60198 20.1289 1.66919 20.3187 1.6916 20.4861C1.7252 20.6759 1.79241 20.9103 1.59078 21.0889C1.46756 21.2006 1.55717 21.3457 1.57958 21.4239C1.7028 21.9039 1.99405 21.8927 2.37491 21.4573C2.3077 21.2452 2.19568 21.435 2.10607 21.4239C1.99405 21.4127 1.82602 21.5355 1.80362 21.1783C1.79241 20.9662 1.78121 20.6871 1.88203 20.5085C2.00525 20.2852 2.11727 20.5531 2.25169 20.4303C2.2629 20.4191 2.2853 20.4861 2.3077 20.5308C2.35251 20.6201 2.38612 20.7206 2.46453 20.5754C2.50934 20.5084 2.55415 20.4303 2.55415 20.3187C2.55415 20.1289 2.48693 20.0396 2.41972 20.0619C2.05006 20.1624 1.78121 19.727 1.42275 19.7828C1.26592 19.8163 1.17631 19.6042 1.27713 19.18C1.42275 18.5995 1.50116 18.0302 1.6804 17.4273C1.77001 17.0701 1.91564 16.6012 2.03886 16.2105C2.16208 15.7863 2.33011 15.4402 2.49814 15.0607C2.64376 14.7258 2.82299 14.3797 2.83419 14.0448C2.83419 13.922 2.93501 13.8774 2.96862 13.788C3.19266 13.3527 3.51751 12.9508 3.57352 12.4596C3.59593 12.3033 3.68554 12.2475 3.75275 12.1582C3.86477 12.0131 4.0216 11.8009 4.05521 11.667C4.29045 10.7851 4.89535 10.1488 5.44425 9.50127C5.54506 9.38964 5.67949 9.21103 5.70189 9.13289C5.85872 8.49657 6.40761 8.13934 6.79968 7.68164C7.18055 7.26859 7.57261 6.92252 7.91987 6.43132C8.35675 5.78384 8.91685 5.60523 9.46574 5.40429C9.43213 5.32615 9.40973 5.2815 9.39853 5.22568C9.37613 5.13637 9.35372 5.02474 9.53295 4.87961C9.74579 4.701 9.68978 4.87961 9.72339 4.93543C9.74579 4.98009 9.75699 5.02474 9.88021 4.93543C9.98103 4.85729 10.037 4.76798 10.0258 4.71216C10.0034 4.37726 10.5635 4.00885 10.81 3.69628C10.8548 3.6293 10.9668 3.57349 11.0676 3.54C11.4485 3.4172 11.5269 3.70745 12.0982 3.32789C12.199 3.26091 12.0758 3.48417 11.9526 3.58464C11.7509 3.75209 11.5493 3.89722 11.3589 4.07584C11.146 4.28794 11.1796 4.36609 11.2469 4.44424C11.2917 4.48889 11.3477 4.48889 11.4933 4.37726C11.6725 4.23213 11.8294 4.06467 11.7845 3.97536C11.7285 3.86373 11.7509 3.76326 12.0086 3.58464C12.2998 3.3837 12.311 3.51767 12.3558 3.60698C12.6695 3.36138 12.6135 3.22742 12.6359 3.07113C12.6919 2.81437 12.7703 2.5911 13.3528 2.35666C13.5881 2.26736 13.8009 2.08874 13.9241 1.89896C13.8681 1.82082 13.5993 2.05526 13.5096 1.99944C13.4648 1.96595 13.4312 1.94363 13.4872 1.86548C13.532 1.7985 13.6217 1.74268 13.6889 1.73151C14.0473 1.68686 14.3162 1.41894 14.6186 1.218C15.1115 0.916583 15.2683 0.905419 15.2011 1.16218C15.1899 1.22916 15.1899 1.28497 15.3132 1.22916C15.5484 1.11752 15.9181 1.06171 15.9741 0.860771C16.0413 0.659829 16.3325 0.592843 16.3997 0.604006C16.7246 0.693314 17.0943 0.43656 17.4863 0.302598C17.632 0.246781 17.8336 0.101656 17.9232 0.190964C18.0016 0.257944 17.8224 0.369579 17.6656 0.47005C17.4639 0.615175 17.2287 0.604009 17.0158 0.70448C16.803 0.816114 16.5678 0.91658 16.4782 1.0617C16.4109 1.16218 16.3101 1.20684 16.2093 1.19567C15.6716 1.17335 15.7052 1.35196 15.7388 1.53058C15.75 1.60872 15.6268 1.76501 15.8508 1.72035C16.0861 1.6757 16.0637 1.49709 16.1309 1.47476C16.635 1.29615 16.8254 0.972403 17.2399 0.760297C17.5199 0.637499 17.632 0.670984 17.7216 0.726801C18.0352 0.91658 17.9456 1.28497 18.3153 1.45243C18.4161 1.49708 18.1696 1.61989 18.1472 1.69803C18.08 1.87665 17.9008 2.06642 18.1584 2.16689C18.3937 2.26736 18.1696 2.4683 17.7888 2.66925C17.5199 2.81437 17.3743 2.90368 17.6096 2.99299C17.7328 3.03764 17.7664 3.17161 17.7104 3.31673C17.688 3.38371 17.6432 3.46185 17.7552 3.46185C17.7888 3.46185 17.8672 3.42836 17.9008 3.39487C18.0016 3.30556 18.0688 3.19393 18.0016 3.1716C17.7104 3.10462 17.9792 2.84786 18.136 2.61343C18.2705 2.78088 18.797 2.5911 18.7858 2.82554C18.7858 2.87019 18.8754 2.85903 18.9538 2.82554C19.0098 2.79205 19.0658 2.74739 19.0882 2.7139C19.1554 2.60227 19.301 2.43482 19.2338 2.379C18.9314 2.12224 19.5699 1.82082 19.8947 1.49708C20.1076 1.80966 20.8357 1.92129 21.0149 2.27852C20.8693 2.03293 21.1494 1.79849 21.4742 1.56406C21.6198 1.46359 21.4406 1.44127 21.4182 1.37429C21.3958 1.29614 21.4406 1.1845 21.6422 1.12868C21.8887 1.07287 21.7991 1.20684 21.8103 1.26265C21.8551 1.53058 21.9335 1.78734 22.2247 1.98828C22.516 1.87664 22.5384 1.73152 22.516 1.65337C22.4488 1.38545 23.0649 1.25149 23.2441 1.02822C23.3113 0.950079 23.457 0.983566 23.4906 1.03938C23.5354 1.11753 23.569 1.20683 23.625 1.34079C23.737 1.0617 23.7034 0.838436 23.9722 0.615167C24.0283 0.570513 24.0507 0.514696 23.9274 0.503532C23.8266 0.492369 23.5242 0.626328 23.6474 0.458876C23.7034 0.380731 23.8826 0.257944 24.0955 0.246781C24.2747 0.235617 24.2411 0.336078 24.2747 0.403058C24.3307 0.559347 24.2187 0.726801 24.1963 0.894253C24.1851 1.0952 24.2187 1.26266 24.8236 1.13986C25.1597 1.0952 25.2829 1.18451 25.2717 1.31847C25.2605 1.40778 25.2829 1.48592 25.2941 1.5864C25.5517 1.51941 25.5517 1.44127 25.5853 1.36313C25.6861 1.11753 25.7646 0.860763 26.5039 0.838436C26.5599 0.838436 26.6383 0.793785 26.6831 0.771458C26.7615 0.715641 26.7615 0.604001 26.9744 0.626328C27.1872 0.648654 27.1088 0.760294 27.1536 0.827275C27.1648 0.849602 27.1536 0.883087 27.1424 0.905414C27.1088 1.0617 27.2096 1.18451 27.5457 1.218C27.9713 1.25149 27.8033 1.05054 27.9041 0.95007C28.0162 0.849599 27.7809 0.682148 28.2738 0.670984C28.6995 0.659821 28.8115 0.70448 28.6659 0.871932C28.6099 0.938912 28.565 0.994722 28.4978 1.07287C28.7667 1.0617 29.0467 1.12869 29.1588 0.972406C29.1812 0.938915 29.3044 0.927741 29.3604 0.961231C29.506 1.05054 29.6852 1.12869 29.8757 1.05054C30.0213 0.983564 30.4022 0.950068 29.9541 0.737962C30.5702 0.849597 30.7382 0.994724 30.5702 1.17334C30.5254 1.22916 30.4246 1.26265 30.3798 1.31847C30.3238 1.38545 30.3574 1.46359 30.503 1.5194C30.7158 1.59755 30.7718 1.50824 30.839 1.46359C31.0519 1.31846 31.0071 1.09519 31.2759 0.961231C31.3767 0.905414 31.4327 0.804948 31.6568 0.883092C31.8584 0.950073 31.7016 1.01705 31.6792 1.07287L31.5672 1.31847C31.5336 1.40778 31.6008 1.48592 31.7912 1.54174C31.9928 1.58639 32.1273 1.58639 32.1945 1.49708C32.2169 1.46359 32.2617 1.44127 32.3177 1.4301C32.4297 1.38545 32.4969 1.27382 32.7434 1.36313C32.9674 1.44127 32.8666 1.51941 32.8442 1.59756C32.8106 1.72035 33.0346 1.84316 33.2587 1.86548C33.7739 1.94363 33.7739 1.93246 33.6283 2.16689C34.0428 2.20038 34.2108 2.07758 34.3676 1.96594C34.4685 1.89896 34.5469 1.79849 34.7933 1.91012C34.9726 1.99943 34.8941 2.11107 34.8717 2.18921C34.8269 2.31201 34.8157 2.42365 34.9838 2.60227C35.4318 2.57994 35.0286 2.03293 35.8911 2.2562C35.6671 2.41249 35.9583 2.69157 35.7231 2.84786C35.5551 2.94833 35.8239 3.19392 36.1824 3.35021C37.269 3.93071 38.3779 3.96421 38.4788 3.38371C38.49 3.30556 38.4452 3.21625 38.3219 3.11578C38.2099 3.02648 38.1651 2.95949 38.3555 3.01531C38.7364 3.12694 38.5796 3.39487 39.0165 3.55116C39.0613 3.56232 39.0052 3.68512 38.9156 3.68512C38.5908 3.65163 38.546 3.76327 38.7924 4.05352C38.882 4.15399 38.8148 4.18747 38.7364 4.18747C38.4228 4.22096 38.5908 4.52237 38.546 4.70099C38.5236 4.77913 38.6468 4.90194 38.8036 4.95775C38.9828 5.01357 39.0052 4.93543 38.9156 4.8238C38.7252 4.5782 38.9604 4.65635 39.0613 4.60053C39.2405 4.51122 39.6662 4.6675 39.7334 4.46656C39.7558 4.41074 39.8902 4.43307 39.9798 4.51122C40.0806 4.60052 40.2711 4.70099 40.2711 4.7903C40.2711 4.85728 40.2039 4.86845 40.0582 4.76798C39.9574 4.701 39.879 4.701 39.9126 4.77914C39.9798 4.96892 39.9798 4.96891 39.7222 4.92426C39.8118 5.19218 40.5287 5.22568 40.3495 5.60524C40.5287 5.5271 40.4839 5.33731 40.7304 5.47127C40.932 5.5829 40.7528 5.63873 40.9208 5.77269C41.3577 5.56059 41.929 6.34202 42.4554 6.5318C42.2538 6.68809 42.1978 6.95601 41.8393 6.92252C41.7721 6.92252 41.7385 6.98951 41.6153 6.88904C41.5257 6.82206 41.5257 6.76623 41.5145 6.69925C41.4921 6.59878 41.5929 6.52064 41.3689 6.35319C41.2456 6.33086 41.268 6.44249 41.212 6.48714C41.0552 6.6211 41.1224 6.75507 41.5145 6.91136C41.5593 6.93369 41.6377 6.96717 41.6601 6.9895C42.1754 7.74861 43.0155 8.09468 43.6317 8.75333C43.9453 9.11056 44.4046 9.46779 44.8079 9.8027C45.0655 10.0148 45.0319 10.0594 44.8863 10.0594C44.7294 10.0706 44.7742 10.1822 44.9087 10.3832C45.0543 10.5841 45.1887 10.7516 45.3231 10.6846C45.3904 10.6511 45.3792 10.4613 45.5584 10.6734C45.7152 10.8632 45.6144 10.9079 45.592 10.9972C45.5024 11.2316 45.7824 11.4437 45.9505 11.6781C46.6002 12.6829 47.3395 13.6764 47.7428 14.9044C47.4403 14.6588 47.2499 14.5025 47.0818 14.0336C46.8354 13.4085 46.3201 12.895 46.0625 12.2475C46.0177 12.147 45.8832 12.08 45.8272 12.1024C45.7488 12.1247 45.8048 12.2698 45.8832 12.3815C46.2753 12.9061 46.4769 13.5536 46.9138 14.056C47.0594 14.2457 47.1379 14.4913 47.2051 14.7146C47.2611 14.9379 47.3395 15.1277 47.4851 15.3063C47.81 15.6858 47.8996 16.1882 48.0676 16.6459C48.9862 18.7335 49.6023 20.9438 49.8935 23.2212C49.9719 23.6677 50.0168 24.1142 49.9944 24.5831ZM14.3274 46.7761C14.3162 46.8207 14.0809 46.7649 14.305 46.9323C14.4506 47.044 14.6186 47.1556 14.7307 47.0775C14.7979 47.0328 14.9323 46.9323 15.0555 47.2226C15.1003 47.3231 15.1563 47.2896 15.1899 47.2672C15.414 47.1556 15.7164 47.3677 16.0189 47.5128C16.1421 47.5798 16.2205 47.6691 16.3997 47.7138C16.5006 47.7361 16.467 47.5017 16.6686 47.7696C16.7694 47.9036 16.6798 47.937 16.4782 47.9036C16.3885 47.8812 16.2205 47.7919 16.3325 47.9482C16.4445 48.0933 16.579 48.1938 16.8142 48.2385C16.9038 48.2608 17.0383 48.3389 17.0158 48.2273C16.9486 47.8924 17.3071 48.0822 17.6992 48.2831C17.9008 48.3948 17.9456 48.3724 18.0128 48.3166C18.0016 48.2273 17.912 48.1603 17.7104 48.1045C17.3855 48.0264 16.9486 47.9594 16.9262 47.6468C16.9262 47.6022 16.7694 47.5575 16.6686 47.524C16.0525 47.3342 15.4476 47.1221 14.9659 46.6644C14.7643 46.4635 14.5402 46.4635 14.4394 46.5416C14.3386 46.5863 14.3386 46.6867 14.3274 46.7761ZM4.66011 12.8392C4.6153 12.828 4.57049 12.7945 4.50328 12.9061C4.43607 13.0178 4.45848 13.0848 4.46968 13.1406C4.49208 13.2634 4.46968 13.442 4.36886 13.6094C4.22323 13.855 4.14482 13.7099 4.0216 13.7769C3.89838 13.8439 4.0328 13.5313 4.06641 13.375C4.08881 13.2634 4.11122 13.1517 4.16722 12.9285C3.86477 13.509 3.65194 13.9443 3.83117 14.1899C3.86477 14.2346 3.83117 14.3685 3.83117 14.469C3.81996 14.8151 3.73035 15.1053 3.49511 15.15C3.25987 15.1946 3.31588 15.4067 3.30468 15.5742C3.29347 15.6747 3.32708 15.7528 3.33828 15.8533C3.33828 15.9872 3.36069 16.1324 3.24867 16.2887C3.15905 16.4115 3.11424 16.3445 3.06944 16.2663C3.03583 16.2105 3.02463 16.0989 2.96862 16.0989C2.83419 16.0877 2.65496 15.9872 2.49814 16.4226C2.34131 16.8245 2.34131 17.2822 2.2965 17.6953C2.2853 17.8515 2.33011 17.9632 2.43092 17.9074C2.57655 17.8181 2.47573 17.6841 2.50934 17.5725C2.59895 17.2264 2.66617 16.8245 2.83419 16.5566C2.99102 16.2887 3.08064 16.5231 3.21506 16.5231C3.29347 16.5231 3.38309 16.4338 3.4615 16.4338C3.61833 16.4226 3.66314 16.311 3.69674 16.0207C3.76396 15.5295 3.88718 14.9714 4.20083 14.5248C4.35766 14.2904 4.41367 14.1676 4.40247 13.9778C4.40247 13.8774 4.39126 13.7546 4.50328 13.6094C4.6153 13.4531 4.68251 13.4978 4.73852 13.5425C4.87295 13.6541 5.05218 13.6652 5.24261 13.6652C5.30982 13.6652 5.37703 13.7322 5.44425 13.5313C5.51146 13.375 5.43304 13.3303 5.36583 13.3303C5.09699 13.3527 4.91775 13.2299 4.82814 12.9061C4.82814 12.828 4.72732 12.8615 4.66011 12.8392ZM7.91987 7.63698C7.66223 7.59233 7.30377 7.72628 7.04612 7.6593C7.25896 7.71512 7.24776 7.97189 7.30377 8.17283C7.35978 8.3961 7.27016 8.6082 6.9341 8.80915C6.81088 8.88729 6.74367 8.95428 6.63165 9.12173C6.22838 9.72455 6.18357 10.3609 5.57867 10.9637C5.55626 10.986 5.51146 11.0976 5.51146 11.12C5.53386 11.4549 5.20901 11.8233 5.08578 12.147C4.98497 12.214 4.99617 12.147 4.97376 12.1247C4.94016 12.0689 4.95136 11.8903 4.81694 12.0912C4.68251 12.2698 4.74973 12.3368 4.80574 12.3926C5.02977 12.5824 5.29862 12.3591 5.54506 11.7563C5.67949 11.4326 5.85872 11.2204 5.94833 11.3432C6.07155 11.5107 6.23958 11.6112 6.41881 11.6893C6.48603 11.7228 6.39641 12.0465 6.58684 11.8456C6.76607 11.667 6.68766 11.4995 6.75487 11.3098C6.82208 11.1088 6.72127 11.1088 6.65406 11.0642C6.54204 10.986 6.40761 10.919 6.39641 10.6846C6.38521 10.5953 6.3628 10.4837 6.49723 10.3832C7.04612 9.99247 6.9117 9.8027 6.86689 9.56827C6.84449 9.44547 6.8893 9.28918 6.95651 9.06591C7.37098 9.12173 7.53901 8.61937 7.80786 8.25097C8.0431 7.92723 8.14391 7.68164 7.91987 7.63698ZM10.8212 5.30382C10.2499 5.59407 10.3507 5.29265 10.5075 4.9131C10.3619 5.13637 9.96983 5.29266 10.0034 5.51593C10.0482 5.78385 10.6083 5.6164 10.3395 6.12992C10.8212 5.85083 10.5075 6.43133 10.8212 6.34202C10.9108 6.3197 10.8996 6.50948 11.1124 6.28621C11.2469 6.14108 11.4373 5.9513 11.3365 5.85083C11.1796 5.69454 10.9332 5.6164 10.922 5.33731C10.922 5.31499 10.866 5.28149 10.8212 5.30382ZM12.199 4.7903C11.9414 4.72332 11.919 4.48888 11.6725 4.4219C11.4485 4.65633 11.3141 4.84612 11.5941 4.8238C11.8518 4.80147 11.8854 5.0024 11.7733 5.14753C11.4933 5.57174 11.7509 5.58291 11.9414 5.66106C12.255 5.2815 12.4679 4.86845 12.199 4.7903ZM15.5036 2.27852C14.9547 2.36783 15.1339 2.1334 15.2683 1.89896C15.3356 1.78733 15.3804 1.63104 15.1675 1.6757C14.9323 1.72035 14.6634 1.89897 14.5402 2.09991C14.4954 2.16689 14.4954 2.22271 14.473 2.27852C14.4282 2.42365 14.3946 2.5911 14.0809 2.69157C13.7001 2.82553 14.0585 2.52412 14.0249 2.45714C14.0137 2.44597 13.9689 2.45713 13.9241 2.4683C13.6665 2.63575 13.6105 2.8032 13.4648 2.97065C13.1512 3.29439 12.7255 3.52883 12.3446 3.57348C12.2662 3.74093 12.3894 3.77443 12.4791 3.83025C12.5911 3.89723 12.4455 4.17631 12.6583 4.10933C12.9719 4.00886 12.9495 3.76326 13.1512 3.58464C13.308 3.45068 13.42 3.40603 13.5544 3.39487C13.6665 3.38371 13.7785 3.41719 13.6441 3.52883C13.308 3.80791 13.4872 4.09816 12.8487 4.4219C12.6807 4.51121 12.7479 4.61168 12.7479 4.68983C12.7479 4.76797 12.9159 4.73448 12.8599 4.85728C12.7031 5.23684 12.9047 5.33731 13.2968 5.25916C13.5208 5.21451 13.4536 5.29266 13.3304 5.44895C13.2296 5.57175 13.2968 5.58291 13.3864 5.57174C13.4984 5.54942 13.5769 5.46011 13.6217 5.38197C13.7001 5.27034 13.6777 5.18102 13.6441 5.12521C13.5769 5.02473 13.3976 4.98007 13.7561 4.70099C13.7897 4.6675 13.8569 4.62285 13.7561 4.66751C13.14 4.95776 13.6441 4.32144 13.3528 4.34376C13.6441 4.04235 13.9577 3.77443 14.2602 3.48418C14.2602 3.48418 14.3162 3.48418 14.3386 3.48418C14.641 3.50651 14.7755 3.30556 14.9211 3.11578C15.0107 2.99299 14.9883 2.89251 15.2459 2.74738C15.5932 2.5911 15.7836 2.23387 15.5036 2.27852ZM17.2175 2.36784C17.3407 2.30086 17.4639 2.22271 17.5871 2.16689C17.6768 2.11107 17.6992 2.04409 17.6544 2.0106C17.6096 1.97711 17.5311 1.99944 17.4191 2.05526C17.0943 2.20038 17.0719 2.18922 17.2063 1.99944C17.3743 1.76501 17.5759 1.51941 17.632 1.31847C17.6432 1.25149 17.6544 1.17335 17.4863 1.19567C17.3407 1.20684 17.2847 1.30731 17.2063 1.37429C16.9262 1.61988 16.6574 1.84316 16.9038 1.97712C16.971 2.02177 16.915 2.17806 16.7134 2.2562C16.5006 2.34551 16.4445 2.26736 16.467 2.16689C16.5006 2.0106 16.3325 1.96595 16.1533 1.86548C16.0413 2.14457 15.7612 2.44598 16.1981 2.44598C15.9517 2.926 16.3661 3.16043 16.1533 3.6293C16.1085 3.71861 16.2093 3.76326 16.3549 3.74093C16.5342 3.71861 16.6126 3.60697 16.7134 3.51767C17.1167 3.16043 17.0943 2.84786 16.9374 2.73622C16.7022 2.56877 17.0046 2.49064 17.2175 2.36784ZM35.8575 7.86025C35.7455 7.73745 35.6335 7.70396 35.5439 7.74862C35.1854 7.92723 34.9501 8.16166 34.9389 8.54122C34.9389 8.59704 34.9501 8.63052 35.051 8.66401C35.2974 8.74216 35.5102 8.6417 35.4542 8.45192C35.3534 8.11702 35.3982 7.88258 35.8575 7.86025ZM39.1733 10.506C39.2629 10.4725 39.1845 10.2827 39.0501 10.1934C38.8484 10.0595 38.9156 10.2269 38.8932 10.2716C38.8148 10.3944 38.77 10.5283 38.6916 10.64C38.6468 10.6958 38.5348 10.7851 38.434 10.6511C38.1987 10.305 37.9523 10.439 37.717 10.3162C37.829 10.4502 38.0083 10.5172 38.1315 10.7404C37.8515 10.6176 37.8402 10.7851 37.7618 10.8855C37.717 10.9414 37.661 11.0195 37.7394 11.0977C37.7954 11.1535 37.9523 11.2093 38.0307 11.2093C38.1203 11.2093 38.2771 11.2093 38.2099 11.0753C38.1091 10.8856 38.2435 10.8855 38.3667 10.8744C38.7476 10.8632 38.8932 10.6176 39.1733 10.506Z" fill="#FFC000"/>
<path d="M4.31275 38.839C3.89828 38.2696 3.53982 37.6556 3.21496 37.0305C2.56525 35.8806 2.07236 34.6192 1.61308 33.3912C1.00818 31.8171 0.526491 30.1761 0.369664 28.4793C0.324856 27.9769 0.190433 27.4857 0 26.9387C0.504088 33.0786 3.27097 38.7831 7.42689 42.9359C6.9228 42.2773 4.85044 39.6874 4.31275 38.839Z" fill="#FFC000"/>
<path d="M43.9116 14.2684C43.71 13.9781 43.5195 13.6879 43.2619 13.4311C43.1611 13.3195 43.0266 13.1967 42.9594 13.2637C42.7802 13.4423 42.5226 13.5204 42.3657 13.766C42.7466 13.9558 42.9706 13.6321 43.3739 14.0563C43.0602 13.8777 43.1163 14.1902 43.0602 14.3689C43.0154 14.5363 43.0714 14.5698 43.2059 14.5921C43.3963 14.6145 43.5419 14.4917 43.7772 14.6368C43.7436 14.4247 44.2252 14.7373 43.9116 14.2684Z" fill="#FFC000"/>
<path d="M46.4993 19.526C46.5889 19.459 46.5217 19.2023 46.4209 19.0683C46.3089 18.9009 46.2977 18.6999 46.2305 18.5213C46.2081 18.4432 46.1857 18.3539 46.1185 18.3315C46.0624 18.3204 46.04 18.3874 46.0624 18.4655C46.0961 18.6776 46.0064 18.6888 45.9056 18.7334C45.7488 18.8116 45.5808 18.8897 45.4688 19.1353C45.6256 19.1353 45.7712 19.0237 45.872 19.4591C45.9168 19.6265 46.0624 19.6377 46.1073 19.4367C46.1297 19.3251 46.04 19.1465 46.1297 19.046C46.1521 19.1241 46.1633 19.18 46.1745 19.2358C46.2641 19.4814 46.4209 19.5818 46.4993 19.526Z" fill="#FFC000"/>
<path d="M20.3202 1.38549C20.5666 1.34084 20.7011 1.25153 20.7795 1.11757C20.9475 0.82733 20.6227 0.648723 20.7571 0.369642C20.8019 0.269172 21.1043 0.112887 20.8131 0.0905605C20.6003 0.0793972 20.4658 0.26917 20.2306 0.324986C20.0402 0.380802 20.0738 0.45894 20.0962 0.514756C20.2082 0.738021 19.8609 1.06176 20.2082 1.22921C20.2418 1.29619 20.0402 1.44131 20.3202 1.38549Z" fill="#FFC000"/>
<path d="M41.5253 17.0145C41.3797 16.9475 41.3237 16.5679 41.0885 16.5791C40.7748 16.5903 40.45 16.5791 40.2819 16.8917C40.2483 16.9587 40.2147 17.0033 40.2931 17.0926C40.3603 17.1707 40.4388 17.2266 40.506 17.1484C40.7076 16.9028 40.9652 16.6907 41.3573 17.1931C41.4133 17.2712 41.4917 17.2712 41.5365 17.2266C41.5926 17.1708 41.5814 17.1149 41.5253 17.0145Z" fill="#FFC000"/>
<path d="M42.7244 7.43605C42.8588 7.59234 42.8924 7.49188 42.982 7.5142C43.1836 7.55886 43.206 7.41373 43.3853 7.34675C43.4189 7.54769 43.2957 7.65933 43.5869 7.80445C43.9006 7.94958 44.1246 7.90492 44.1918 7.77096C44.259 7.62583 43.923 7.55885 43.7885 7.42489L43.5981 7.21278C43.4973 7.10114 43.3965 7.023 43.3069 7.04532C43.094 7.08998 42.87 7.12348 42.6684 7.17929C42.5787 7.19046 42.6236 7.31325 42.7244 7.43605Z" fill="#FFC000"/>
<path d="M46.7681 21.5243C46.8801 21.6024 46.9697 21.6136 46.9585 21.4015C46.9473 21.1559 46.8801 20.7763 46.7681 20.7652C46.5217 20.754 46.264 20.7317 46.0176 20.9326C46.2752 21.2005 46.4993 21.0219 46.8017 21.1559C46.6225 21.3568 46.3312 20.9215 46.3312 21.4796C46.3312 21.7699 46.432 21.9039 46.5777 22.0155C46.5777 21.7476 46.488 21.3345 46.7681 21.5243Z" fill="#FFC000"/>
<path d="M33.0459 11.3881C33.0123 11.3211 32.9787 11.2318 32.9451 11.1648C32.9227 11.109 32.9115 11.0532 32.8331 11.0197C32.7435 10.9862 32.7099 11.0197 32.6763 11.0755C32.6427 11.1313 32.5979 11.176 32.5531 11.2206C32.4858 11.2876 32.2618 11.2765 32.3514 11.3993C32.441 11.5444 32.6091 11.6672 32.7883 11.723C32.9675 11.79 33.1244 11.7119 33.2252 11.6002C33.3708 11.4328 33.0795 11.4774 33.0459 11.3881Z" fill="#FFC000"/>
<path d="M19.5026 0.358529C19.7042 0.213406 19.749 0.13526 19.7042 0.0347897C19.6818 -0.00986353 19.581 -0.00986081 19.469 0.0236291C19.2114 0.101772 19.0545 0.202234 18.9313 0.336194C18.8305 0.447827 18.7969 0.548302 18.7969 0.648772C18.7857 0.972509 18.7969 1.28508 18.9089 1.61998C19.2674 1.35206 19.1553 1.19577 19.2226 1.01715C19.301 0.793887 19.1105 0.626448 19.5026 0.358529Z" fill="#FFC000"/>
<path d="M36.5857 3.30571C37.0002 3.49548 37.3587 3.43968 37.1346 3.20525C36.6417 2.69174 37.1794 3.06012 37.4035 3.1271C37.5827 3.18291 37.8516 3.32804 37.8852 3.18291C37.9076 3.07128 37.7395 2.88151 37.5267 2.84802C37.1906 2.78104 36.7538 2.61359 36.6417 2.83685C36.5857 2.94849 36.6081 3.09362 36.4065 3.14943C36.2721 3.16059 36.4513 3.24989 36.5857 3.30571Z" fill="#FFC000"/>
</svg>
