<svg width="40" height="40" viewBox="0 0 40 40" fill="none" xmlns="http://www.w3.org/2000/svg">
<path fill-rule="evenodd" clip-rule="evenodd" d="M19.7178 0.0724076C19.6271 0.109039 19.4777 0.234631 19.3858 0.351398L19.2188 0.563688V9.61855V18.6733L16.7773 22.6489C15.4346 24.8355 14.3184 26.6251 14.2969 26.626C14.2754 26.6268 13.6074 25.5654 12.8125 24.2674C12.0176 22.9693 11.277 21.8051 11.1667 21.6803C10.8994 21.3778 10.3909 21.3582 10.117 21.6398C9.8332 21.9314 0 38.9748 0 39.175C0 39.4596 0.169141 39.7539 0.401953 39.8743C0.726172 40.0419 39.2738 40.0419 39.598 39.8743C39.8309 39.7539 40 39.4596 40 39.175C40 38.9748 30.1668 21.9314 29.883 21.6398C29.6091 21.3582 29.1006 21.3778 28.8333 21.6803C28.723 21.8051 27.9824 22.9693 27.1875 24.2674C26.3926 25.5654 25.7246 26.6268 25.7031 26.626C25.6816 26.6251 24.5655 24.8355 23.2227 22.6489L20.7812 18.6733V14.0209V9.36846H26.7262C32.1327 9.36846 32.6912 9.35666 32.8914 9.23841C33.2472 9.02831 33.378 8.60162 33.1927 8.25546C33.1439 8.16439 32.4899 7.3232 31.7392 6.38602L30.3744 4.68216L31.7392 2.9783C32.4899 2.04112 33.1439 1.19993 33.1927 1.10886C33.378 0.762699 33.2472 0.336012 32.8914 0.125909C32.6906 0.00734614 32.108 -0.00366664 26.277 0.000785339C22.7602 0.00351901 19.8086 0.0357763 19.7178 0.0724076ZM30.6096 1.88991C28.6127 4.35779 28.5275 4.48565 28.6234 4.86782C28.6629 5.02504 29.2312 5.77086 30.6096 7.47441L30.8782 7.80636H25.8297H20.7812V4.68216V1.55796H25.8297H30.8782L30.6096 1.88991ZM25.559 29.4219L31.0761 38.3844L25.538 38.4045C22.4921 38.4155 17.5079 38.4155 14.462 38.4045L8.92391 38.3844L14.441 29.4219C17.4754 24.4925 19.977 20.4594 20 20.4594C20.023 20.4594 22.5246 24.4925 25.559 29.4219ZM11.9895 25.9116C12.7103 27.0846 13.3046 28.0895 13.3102 28.1446C13.3158 28.1998 11.9141 30.5345 10.1953 33.3328L7.07031 38.4209L4.62891 38.4222C3.28617 38.4229 2.1875 38.4036 2.1875 38.3792C2.1875 38.3151 10.6402 23.7279 10.6613 23.7556C10.6711 23.7683 11.2688 24.7386 11.9895 25.9116ZM33.6237 31.0957C35.9276 35.0771 37.8125 38.3545 37.8125 38.379C37.8125 38.4035 36.7139 38.4229 35.3711 38.4222L32.9297 38.4209L29.8047 33.3328C28.0859 30.5345 26.6841 28.2003 26.6896 28.146C26.7063 27.9788 29.3327 23.7496 29.3855 23.805C29.4127 23.8336 31.3199 27.1144 33.6237 31.0957ZM19.7178 24.4411C19.4719 24.5405 19.2188 24.9025 19.2188 25.1549C19.2188 25.4676 19.5778 25.8428 19.9307 25.8988C20.1686 25.9366 20.2542 25.9068 20.4758 25.7089C20.6952 25.5128 20.7387 25.4199 20.7387 25.1457C20.7387 24.8738 20.6949 24.7782 20.4852 24.591C20.2286 24.3616 20.017 24.3203 19.7178 24.4411ZM21.4341 27.0159C21.342 27.055 21.2102 27.1677 21.1412 27.2663C20.8373 27.6998 20.8555 27.736 23.6354 32.2532C25.0762 34.5944 26.3252 36.5802 26.4109 36.6661C26.5212 36.7767 26.6709 36.8223 26.923 36.8223C27.2163 36.8223 27.3124 36.7837 27.4677 36.6032C27.8674 36.1386 27.8934 36.1926 25.0365 31.5503C23.5957 29.2091 22.3544 27.2309 22.278 27.1544C22.1129 26.9889 21.6689 26.9161 21.4341 27.0159Z" fill="#E30D16"/>
</svg>
