<svg width="50" height="50" viewBox="0 0 50 50" fill="none" xmlns="http://www.w3.org/2000/svg">
<path d="M49.9944 24.5826C49.7031 24.1138 49.6919 23.4551 49.6135 22.8523C49.5687 22.3388 49.4567 21.8029 49.2326 21.3899C49.0982 21.1554 49.1654 20.7201 48.9638 20.5303C48.9526 20.5861 48.9414 20.6084 48.9302 20.6419C48.919 20.8429 49.1318 21.1554 48.9974 21.2113C48.8405 21.2671 48.8742 20.854 48.8069 20.6754C48.6277 20.1507 48.5157 19.6037 48.3813 19.0567C48.2917 18.7218 48.202 18.3869 48.0228 18.1301C47.9556 18.052 47.8884 17.918 47.8548 17.8064C47.5747 16.9022 47.0706 16.1765 46.6786 15.2946C46.4881 14.8592 46.1633 14.4462 45.8384 14.0443L44.8863 12.727L43.8445 11.4767L43.6653 11.2981C43.7101 11.5884 43.8333 11.8786 44.0237 12.2024C44.1917 12.5038 44.2702 12.7159 44.5614 12.7382C44.6734 12.7382 44.763 12.9168 44.707 13.0061C44.6062 13.1959 44.7518 13.3968 44.9087 13.6201C45.9168 14.9486 46.701 16.411 47.3955 17.9404C47.6419 18.4092 47.81 18.9004 47.9444 19.4586C48.0004 19.8047 48.2917 20.0949 48.3477 20.508C48.3813 20.7201 48.4373 20.921 48.2917 20.9545C48.1796 20.9768 48.0452 20.8987 48.0116 20.6531C47.8436 19.7488 47.4179 19.0232 47.0818 18.2529C46.8466 17.8064 46.6786 17.3152 46.4097 16.891C46.0737 16.3552 45.8048 16.2993 45.6256 16.6454C45.5808 16.7347 45.648 16.824 45.6816 16.9357C45.7824 17.2817 46.0177 17.5831 46.0513 17.9515C46.0625 18.0408 46.1297 18.2083 46.0737 18.2083C45.7936 18.186 45.6592 18.5432 45.3568 18.465C45.3007 18.4539 45.2223 18.4204 45.1999 18.3199C45.1663 18.1971 45.2447 18.2083 45.3007 18.1971C45.5248 18.1971 45.5584 17.7506 45.8832 17.985C45.7824 17.7394 45.704 17.5608 45.6256 17.371C45.536 17.1701 45.5136 16.9133 45.3231 16.7905C45.3455 17.0026 45.1439 16.9022 45.1103 17.0026C45.0431 17.1924 44.9535 17.2259 44.763 17.0585C44.6734 16.9803 44.6286 17.0361 44.5838 17.0808C44.5278 17.1478 44.4718 17.2036 44.3822 17.0585C44.3038 16.9245 44.371 16.8463 44.427 16.8017C44.4718 16.7682 44.5502 16.7794 44.6174 16.7682C44.6734 16.757 44.7518 16.7124 44.7182 16.6454C44.4382 16.143 44.763 16.344 44.8639 16.3552C45.1215 16.3775 45.0991 16.1877 44.9423 15.8528C44.8527 15.6519 44.7518 15.4732 44.539 15.183C44.651 15.4063 44.4046 15.3839 44.651 15.6295C44.7406 15.7188 44.9087 15.864 44.9087 16.0537C44.9087 16.2547 44.7182 16.0649 44.6398 16.1096C44.5166 16.1765 44.3262 15.8081 44.2366 15.9644C44.1581 16.0872 44.0685 16.1096 43.9229 16.0761C43.8333 15.8974 44.1245 15.9421 43.9341 15.73C43.8557 15.6295 43.7213 15.6184 43.6092 15.5737C43.5532 14.982 43.9117 14.9486 44.2478 14.8816C44.2814 14.8704 44.371 14.9262 44.3486 14.8816C44.1133 14.5244 44.427 14.5467 44.3598 14.2899C44.1805 14.4239 44.0013 14.3122 43.7997 13.9662C43.7213 13.8322 43.6092 13.7094 43.5084 13.5866C43.3292 13.3634 43.0491 13.1512 43.2844 12.8833C42.6571 12.861 42.5675 12.2023 42.1978 11.8898C41.8729 11.5995 41.5145 11.3093 41.268 10.9074C41.1896 10.7734 41.0328 10.6953 40.8984 10.6953C41.2456 11.1418 41.6377 11.5437 42.0298 11.9344C42.097 12.0014 42.1754 12.0907 42.1978 12.1689C42.2762 12.4033 42.3098 12.5931 42.6011 12.6824C42.7355 12.727 42.8923 12.9503 42.7579 13.0843C42.5339 13.3075 42.2202 13.3522 41.8617 13.3522C41.7945 13.0396 41.9738 12.9838 42.1082 12.8945C42.1754 12.8498 42.2874 12.8275 42.1754 12.6712C42.0858 12.5484 41.9962 12.5149 41.9178 12.6266C41.8169 12.7605 41.8057 13.1178 41.3801 12.6935C41.3689 12.6824 41.3241 12.6935 41.3241 12.6935C41.3016 12.928 41.0216 12.861 40.9096 12.9726C40.6855 13.1736 40.4727 13.0954 40.1927 12.6712C39.991 12.3586 40.0022 12.0796 40.2263 11.9679C40.4167 11.8786 40.4391 11.633 40.5399 11.4544C40.5847 11.3874 40.6407 11.3093 40.7752 11.3986C40.9096 11.4879 40.8536 11.5549 40.876 11.6553C40.9096 11.6218 40.9432 11.5995 40.9656 11.566C41.0328 11.4767 41.0776 11.3204 40.9544 11.1865C40.7976 11.0079 40.6743 11.1083 40.5735 11.1865C40.4055 11.3093 40.1366 11.3204 40.2151 11.6553C40.2487 11.7893 40.047 11.566 39.9574 11.6442C39.8342 11.7558 39.6438 11.7893 39.5877 11.9791C39.5765 12.0237 39.5093 12.0461 39.4421 12.0572C39.3749 12.0684 39.1957 11.9121 39.1957 12.0349C39.1957 12.1577 39.3525 12.1912 39.4533 12.2693C39.8342 12.5707 40.1703 12.9168 40.5287 13.2517C40.6407 13.3522 40.5623 13.4303 40.5623 13.5085C40.5623 13.6089 40.4727 13.5866 40.3943 13.5643C40.2935 13.542 40.2375 13.4303 40.1367 13.3745C40.1142 13.5531 40.2935 13.7876 40.103 13.8657C40.0358 13.8992 40.1815 14.0666 40.2263 14.1225C40.4391 14.3011 40.4055 14.3681 40.2711 14.4462C40.0582 14.5802 39.879 14.7476 39.6774 14.9039C39.6326 14.9374 39.5429 14.9374 39.599 15.0602C39.6438 15.1607 39.7222 15.2723 39.8006 15.2611C39.9462 15.2388 40.1142 15.4063 40.2599 15.3616C40.3495 15.3393 40.4615 15.3839 40.5063 15.5179C40.5399 15.6295 40.4727 15.7188 40.3943 15.7188C40.2375 15.7188 40.1142 15.7635 39.9686 15.7747C39.8342 15.7858 39.711 15.663 39.655 15.5067C39.5205 15.1607 39.1845 14.9932 38.994 14.6806C38.938 14.6025 38.882 14.636 38.8596 14.6918C38.7364 14.9486 38.602 14.8816 38.4115 14.5802C38.2995 14.3904 38.1315 14.3569 38.0531 14.502C38.0195 14.569 37.9635 14.569 37.9075 14.5132C37.773 14.4015 37.605 14.3457 37.5266 14.2006C37.4706 14.1001 37.6162 14.1225 37.6946 14.1113C38.0195 14.0443 38.1427 13.7429 38.3667 13.5643C38.4788 13.475 38.5348 13.2294 38.6692 13.6648C38.7252 13.8545 38.9044 13.8434 39.0277 13.8992C39.1845 13.9662 39.0053 13.7987 39.0613 13.7652C39.2517 13.6759 39.3749 13.5085 39.4869 13.3075C39.5429 13.2071 39.6998 13.4973 39.8566 13.5531C39.6774 13.341 39.7782 13.2405 39.8342 13.1177C39.8678 13.0619 39.9014 12.9949 39.823 12.9056C39.7446 12.8052 39.6886 12.8498 39.6102 12.861C39.4085 12.8722 39.2741 12.9503 39.2629 13.1847C39.2517 13.3968 38.994 13.3857 38.8932 13.5196C38.8596 13.5531 38.7924 13.5196 38.7476 13.4638C38.6356 13.3299 38.7812 13.274 38.7252 13.1512C38.4115 13.2182 38.2323 13.4303 37.9411 13.5196C37.773 13.5754 37.6498 13.7317 37.5042 13.8434C37.3922 13.9327 37.3026 13.8992 37.2017 13.7987C37.0897 13.6982 37.1233 13.5866 37.2129 13.542C37.5378 13.3857 37.7282 13.0843 38.0419 12.9168C38.2995 12.7717 38.6132 12.6042 38.6804 12.2247C38.7252 11.9902 38.8484 11.7223 39.1509 11.6777C39.2293 11.6665 39.2629 11.6442 39.2293 11.5549C39.2069 11.4767 39.1509 11.4097 39.0725 11.3651C38.9716 11.3093 38.8932 11.2869 38.8708 11.3763C38.77 11.6888 38.4003 11.767 38.2659 12.0461C38.0979 12.3921 37.8515 12.6935 37.5602 12.9056C37.2465 13.1289 36.9777 13.4192 36.6304 13.6313C36.5408 13.0284 36.5072 13.0396 36.8097 12.9056C36.5632 12.861 36.4064 12.7605 36.2944 12.5819C36.2608 12.5261 36.272 12.4256 36.1824 12.4256C36.104 12.4256 36.0479 12.4591 36.0031 12.5261C35.8351 12.8163 35.4878 12.9391 35.2414 13.1624C35.2302 13.1736 35.1742 13.1624 35.163 13.1512C35.107 13.1066 35.1182 13.0508 35.1406 13.0173C35.2638 12.8275 35.3198 12.6042 35.4654 12.4256C35.5775 12.3028 35.3758 11.9121 35.1742 11.8005C35.051 11.7335 34.6029 11.9121 34.6365 12.0237C34.7037 12.247 34.5917 12.2917 34.3676 12.247C34.2444 12.2247 34.1324 12.2358 34.0764 12.3363C34.054 12.3921 33.9868 12.4368 33.8972 12.3698C33.7964 12.3028 33.8412 12.2247 33.8972 12.18C34.0092 12.0795 34.1324 11.9902 34.2556 11.9121C34.3564 11.8451 34.3564 11.7335 34.3004 11.6218C34.2444 11.5214 34.11 11.5102 34.0092 11.5102C33.83 11.5102 33.8188 11.6442 33.8524 11.7223C33.9308 11.9233 33.7067 11.8674 33.6171 11.9344C33.5499 11.9791 33.4939 11.9456 33.4379 11.8898C33.3483 11.7781 33.3035 11.6665 33.3931 11.5772C33.5051 11.4656 33.4491 11.3204 33.3147 11.2535C33.0234 11.0972 33.1242 11.019 33.2251 10.8962C33.2923 10.8069 33.3147 10.6953 33.1914 10.5725C33.0794 10.4832 32.945 10.472 32.8218 10.5278C32.777 10.5502 32.721 10.5725 32.6538 10.5278C32.3177 10.2934 32.2393 10.4943 32.1273 10.6395C31.9704 10.8292 32.0264 11.0748 31.9704 11.2869C31.948 11.3762 32.0376 11.3762 32.0937 11.3986C32.3177 11.5102 32.2729 11.633 32.1945 11.7558C32.1609 11.8005 32.1049 11.8228 32.0264 11.8116C31.948 11.7893 31.9368 11.7335 31.9144 11.6777C31.892 11.5549 31.9928 11.3539 31.6456 11.4544C31.5224 11.4879 31.4663 11.3316 31.4888 11.2423C31.5224 11.0748 31.4775 10.9074 31.4103 10.7511C31.3655 10.6395 31.3655 10.539 31.5112 10.472C31.5784 10.4385 31.6232 10.3827 31.668 10.338C31.724 10.2599 31.7688 10.1706 31.6344 10.0925C31.4888 10.0031 31.4215 10.1036 31.3655 10.1483C31.1863 10.2934 31.0519 10.3157 30.9287 10.0143C30.895 10.2153 30.839 10.3269 31.1527 10.3604C31.3207 10.3715 31.3543 10.8627 31.1975 10.952C31.1079 10.9967 30.9847 11.0079 31.0519 11.1641C31.1191 11.3204 30.9847 11.4544 30.7718 11.4432C30.5254 11.4321 30.5142 11.2758 30.5254 11.1307C30.5366 10.9855 30.5142 10.8516 30.391 10.7064C30.2229 10.5055 30.0437 10.5613 29.9205 10.6841C29.6852 10.8962 29.7076 10.9074 29.4612 10.6506C29.4724 10.7288 29.4948 10.7846 29.4948 10.8516C29.4948 10.9632 29.4276 11.0413 29.282 11.0413C29.1251 11.0413 29.0019 10.9855 28.9795 10.8516L28.9459 10.472C28.9459 10.405 28.9683 10.338 28.9347 10.2822C28.8675 10.1594 28.9347 9.96966 28.6995 9.925C28.4754 9.90268 28.3522 10.0255 28.2178 10.1594C28.0498 10.3269 27.8705 10.539 27.4897 10.4385C27.3664 10.405 27.3216 10.4832 27.2992 10.5502C27.2432 10.6841 27.176 10.8516 26.9296 10.7958C26.7055 10.7511 26.6943 10.5725 26.6607 10.4385C26.6495 10.3827 26.6943 10.3269 26.7167 10.2376C26.4703 10.3269 26.5375 10.4497 26.5375 10.5502C26.5263 10.6618 26.5711 10.7957 26.3695 10.8404C26.123 10.8962 25.8206 11.0079 25.6413 10.9186C25.4957 10.8292 25.4733 10.5725 25.4509 10.3939C25.4285 10.2487 25.4285 10.1036 25.2269 10.0478C25.0028 9.98082 24.8572 10.1259 24.6668 10.1929C24.2747 10.3269 24.3307 10.6506 24.0843 10.8516C24.0619 10.8739 24.0619 10.9297 24.0843 10.952C24.1851 11.019 24.2635 11.0972 24.0843 11.1865C23.905 11.2758 23.681 11.3428 23.5466 11.2311C23.4346 11.1418 23.2553 11.0637 23.2105 10.9186C23.1657 10.7399 22.9865 10.7064 22.7736 10.7846C22.5832 10.8516 22.4824 10.9074 22.5048 11.1083C22.516 11.2646 22.3816 11.4544 22.2808 11.6218C22.1911 11.767 21.9559 11.7893 21.8663 11.6665C21.8215 11.5995 21.8103 11.5214 21.7767 11.4432C21.7319 11.3539 21.7655 11.1641 21.5862 11.2311C21.4518 11.2981 21.2502 11.4879 21.3958 11.6442C21.4742 11.7223 21.4742 11.8116 21.3846 11.9009C21.295 11.9902 21.2278 11.9344 21.1494 11.9009C20.9925 11.8451 20.9925 11.8786 21.0037 12.0237C21.0149 12.1242 20.9029 12.314 20.7349 12.3586C20.4772 12.4256 20.298 12.6377 20.0628 12.727C19.8835 12.8052 19.7267 12.8945 19.5475 12.7828C19.3795 12.6824 19.0658 12.8945 19.0546 13.1066C19.0434 13.3075 18.9426 13.4415 18.7521 13.5531C18.6625 13.6089 18.5617 13.6648 18.4945 13.7317C18.2817 13.9327 18.1696 14.022 18.136 13.7094C18.1248 13.542 17.9904 13.542 17.856 13.542C17.7776 13.542 17.688 13.5643 17.6544 13.6536C17.6096 13.7764 17.5983 13.8992 17.6992 13.9773C17.7776 14.0332 17.5871 14.502 17.4639 14.6248C17.2399 14.8369 17.0831 14.9151 16.9038 14.7476C16.8702 14.7141 16.8478 14.6806 16.803 14.6583C16.6014 14.5244 16.4221 14.636 16.3325 14.9262C16.2653 15.1272 16.3101 15.2946 16.3437 15.4509C16.3773 15.5737 16.3101 15.6295 16.1981 15.663C15.8733 15.73 15.7948 16.0203 15.7052 16.2882C15.6604 16.411 15.6828 16.5561 15.526 16.6454C15.3468 16.7459 15.302 16.5896 15.2011 16.5561C15.0891 16.5226 15.0555 16.277 14.8987 16.411C14.7643 16.5449 14.9323 16.6677 14.9099 16.8129C14.8875 16.9245 14.9323 16.9915 14.9883 17.0585C15.1003 17.1813 15.1003 17.3487 14.9995 17.5385C14.8987 17.7394 14.7643 17.7171 14.6298 17.6948C14.5738 17.6836 14.5178 17.6836 14.4618 17.7617C14.4394 17.8287 14.473 17.8399 14.5066 17.8511C14.5962 17.8622 14.7194 17.8399 14.6298 18.0297C14.5626 18.1748 14.4506 18.2753 14.3498 18.1636C14.249 18.0408 14.193 18.1525 14.1818 18.2418C14.1482 18.5544 13.9241 18.8334 13.9913 19.1684C14.0473 19.4028 13.9241 19.7488 13.7337 19.9833C13.3416 20.4298 13.3416 21.0326 13.1736 21.5685C13.1064 21.7583 13.14 21.9815 13.0728 22.1713C12.9495 22.6513 12.9271 23.1425 12.9047 23.6337C12.8263 24.2142 12.8711 24.8059 12.8375 25.3752C12.8039 25.6543 12.8711 25.9334 12.8935 26.2013L13.0504 27.5298C13.1512 27.9651 13.2632 28.3894 13.3864 28.8136C13.7113 29.6285 13.9353 30.4769 14.4282 31.2137C14.6186 31.5598 14.6522 31.7831 14.4618 32.1738C14.6074 32.2408 14.7307 32.1849 14.8651 32.2408C15.1115 32.3301 15.2683 32.4864 15.3916 32.7319C15.5596 33.0445 15.806 33.2901 16.0301 33.5469C16.3661 33.9376 16.7694 34.2613 17.0495 34.6967C17.2511 34.9423 17.5087 35.1321 17.8 35.2772C18.136 35.467 18.3825 35.7907 18.6737 36.0586C18.9986 36.3824 19.3795 36.6057 19.7715 36.7508C20.1748 36.9182 20.4436 37.2196 20.8133 37.3983C21.0597 37.5322 21.2614 37.6885 21.5638 37.5992C21.7543 37.5657 22.0567 37.6997 22.2472 37.8671C22.3928 37.9788 22.516 38.0346 22.684 38.0123C22.8857 37.9788 23.0201 38.0792 23.1657 38.202C23.5466 38.5146 24.0843 38.6262 24.5772 38.7156C24.678 38.7379 24.7116 38.6709 24.7564 38.6151C24.8796 38.4476 25.0364 38.4476 25.1933 38.6151C25.2829 38.7156 25.4285 38.7491 25.5405 38.7602C25.8654 38.8049 26.2014 38.7379 26.5263 38.8384C26.6383 38.8607 26.7279 38.7937 26.7727 38.7156C26.8175 38.6486 26.9184 38.5816 26.9968 38.6262C27.4 38.8383 27.7921 38.6039 28.1954 38.5816C28.3858 38.5593 28.5874 38.6374 28.7219 38.7156C28.9907 38.8718 29.1924 38.749 29.3268 38.5704C29.4388 38.4253 29.5956 38.3583 29.7637 38.3807C30.0661 38.4588 30.335 38.269 30.6262 38.3137C30.671 38.3137 30.727 38.3137 30.7606 38.2913C31.1751 37.9899 31.7128 37.9341 32.1721 37.7108C32.6314 37.5322 33.057 37.1862 33.5387 37.0745C34.1548 36.9294 34.5469 36.3601 35.1742 36.2373C35.3758 35.7907 35.8015 35.6903 36.1936 35.4893C36.2384 35.4558 36.2496 35.3665 36.2944 35.3107C36.4736 35.0651 36.6192 34.8195 36.9665 34.7637C37.1569 34.7414 37.3362 34.6074 37.3922 34.3283C37.4706 34.0157 37.773 33.8148 38.0083 33.5804C38.6692 32.7319 39.4197 31.9617 39.9462 31.0128C40.2935 30.4546 40.5399 29.8294 40.9432 29.3048C41.0328 29.1931 41.0328 29.0815 41.044 28.9699C40.9656 28.2107 41.3129 27.6079 41.7945 27.1167C41.8393 27.0721 41.9178 27.0497 41.9178 26.9716C41.9402 26.3911 42.3322 26.2795 42.5787 26.0339C42.7467 25.8776 42.9483 25.7994 43.1052 25.5762C43.2396 25.3975 43.4748 25.4757 43.6429 25.2636C43.8669 24.9845 44.1245 24.951 44.3822 25.0515C44.4718 25.085 44.5054 25.0403 44.5278 24.8729C44.5502 24.6161 44.6734 24.6384 44.7743 24.6831C44.8863 24.7277 44.8415 24.8617 44.8303 25.0292C44.8079 25.4087 44.5614 25.6097 44.5502 25.9781C44.5502 26.0674 44.4606 26.1678 44.5614 26.2348C44.6174 26.2683 44.6958 26.2571 44.7294 26.1567C44.8527 25.7994 44.9423 25.9892 45.0095 26.2125C45.0879 26.4804 45.1775 26.5586 45.3456 26.3911C45.4016 26.3353 45.48 26.3241 45.5472 26.2683C45.6256 26.2125 45.704 26.1343 45.76 26.2795C45.816 26.4246 45.8608 26.5809 45.76 26.7483C45.6368 26.9716 45.6144 27.0944 45.816 27.1167C45.9841 27.1391 46.1073 27.407 46.3201 27.2953C46.4097 27.2507 46.3649 27.5074 46.3761 27.6414C46.3873 28.0433 46.1969 28.5233 46.3425 28.8694C46.4433 28.6796 46.533 28.501 46.6674 28.4563C46.8578 28.3894 46.9698 28.5456 46.8802 28.8917C46.7906 29.2266 46.7346 29.4722 47.0146 29.3383C47.0706 29.3159 47.1155 29.3494 47.1155 29.4276C47.0818 29.9187 47.2723 29.7736 47.4627 29.662C47.5411 29.6173 47.6195 29.6062 47.6868 29.6173C47.8436 29.6508 47.8884 29.7848 47.7316 30.1085C47.5971 30.3765 47.4627 30.6444 47.3395 30.9123C47.1939 31.1579 47.1267 31.3812 47.1155 31.6602C47.1043 31.9282 47.1491 32.0175 47.3171 31.8947C47.4291 31.8165 47.4851 31.8277 47.5299 31.984C47.5971 32.2407 47.8324 32.0956 48.0228 32.0621C48.202 32.0286 48.3925 31.9282 48.5717 31.8835C48.6837 31.8612 48.7621 31.9505 48.6053 32.1961C48.0116 33.1562 47.6195 34.1832 47.2275 35.2549C46.6674 36.5833 45.8496 37.8001 44.9535 38.95C44.6398 39.363 44.707 38.9612 44.5502 38.9835C44.5278 39.2179 44.539 39.4188 44.3822 39.6979C44.2926 39.8654 44.2254 40.044 44.0125 40.0887C43.9005 40.111 43.9005 40.1891 43.8445 40.2784C43.6092 40.6133 43.4748 40.9706 43.0155 41.2385C42.2874 41.685 41.7833 42.4218 41.0776 42.9353C40.9656 43.0246 40.876 43.1363 40.7304 43.2144C40.1479 43.527 40.1703 43.5493 39.6214 44.1187C40.3607 43.6945 40.932 43.3261 41.5369 42.8572C42.3322 42.1986 43.1612 41.5176 43.9341 40.792C44.6062 40.0887 45.3119 39.4077 45.8496 38.5704C46.3201 37.9341 46.813 37.3201 47.2499 36.6726C47.4515 36.3936 47.5859 36.0587 47.8324 35.8131C47.9444 35.6791 48.034 35.5675 48.1236 35.6009C48.202 35.6344 48.1684 35.7907 48.1236 35.9359C48.0676 36.0921 48.0004 36.2484 47.922 36.4047C47.4739 37.2308 47.0594 38.0792 46.4321 38.816C45.9505 39.4412 45.5808 40.1445 45.0095 40.7361C44.6734 41.0822 44.3262 41.3613 43.9901 41.7855C43.4524 42.433 42.7579 43.1028 42.0298 43.5717C41.5033 43.9401 41.156 44.3084 40.7079 44.6768C39.9014 45.2127 39.2181 45.983 38.1875 46.2844C37.9075 46.3737 37.605 46.6081 37.2577 46.8091C37.829 46.7867 37.6162 46.9542 37.1121 47.2333C36.5072 47.5458 35.8911 47.8138 35.275 48.0817C34.8605 48.2603 34.5357 48.4724 34.1324 48.6175C34.0764 48.6399 34.0316 48.6845 33.9756 48.6957C32.9002 48.9078 32.0376 49.4213 30.9287 49.5441C30.1557 49.6781 29.282 49.7562 28.5314 49.9795C28.4082 50.0241 27.9825 49.946 27.7809 49.879C27.6129 49.8232 27.5457 49.8455 27.4336 49.8902C27.0192 50.0688 26.5263 49.9795 26.0222 49.9571C25.5405 49.9348 24.9692 49.745 24.5548 49.9683C24.4763 50.013 24.3755 49.9572 24.2859 49.9237C23.7258 49.7004 23.1769 49.5329 22.5048 49.5888C22.404 49.5999 22.1911 49.5441 22.0903 49.4995C21.6647 49.2539 21.3174 49.2315 20.9813 49.3208C20.7237 49.2762 20.5557 49.198 20.4436 49.0641C20.3316 48.9413 20.13 48.8855 19.9284 48.919C19.6147 48.9971 19.4243 48.9301 19.2114 48.6622C19.0546 48.4724 18.7073 48.3831 18.4273 48.3943C18.1696 48.4054 18.2033 48.4836 18.5169 48.6287C18.6625 48.6957 18.6401 48.7627 18.5281 48.7738C18.3825 48.7962 18.5057 48.8185 18.5617 48.8855C18.8866 49.2427 19.4691 49.2873 19.9059 49.4436C20.0404 49.4995 20.242 49.5106 20.354 49.4548C20.1636 49.3655 19.962 49.332 19.7603 49.2873C19.5251 49.2315 19.4691 49.1199 19.4131 49.0306C19.3907 48.9859 19.3571 48.9301 19.4579 48.9524C19.6259 48.9859 19.7267 49.0641 19.8723 49.1199C20.1636 49.2427 20.5109 49.332 20.8357 49.4213C20.8693 49.4325 20.9253 49.3432 20.9701 49.3097C21.2726 49.3767 21.351 49.5776 21.6983 49.6334C21.7767 49.6446 21.8103 49.7004 21.7879 49.745C21.7207 49.879 20.8693 49.9683 20.5109 49.8567C19.4243 49.5776 18.3713 49.2204 17.3407 48.8296C16.6014 48.5171 15.8957 48.1933 15.2011 47.8584C14.2714 47.4007 13.3976 46.8426 12.5127 46.2955C12.143 46.0276 12.3558 45.983 12.4903 45.983C12.6919 45.983 12.9383 46.0164 13.2072 46.0611C13.4312 46.1058 13.5656 46.0946 13.6665 46.0276C12.6135 45.4694 12.6583 45.4136 12.3558 45.849C12.2214 46.0499 11.4485 45.6592 10.8436 45.0899C10.5523 44.822 10.6531 44.7773 10.7652 44.7327C10.8324 44.7103 10.9444 44.7327 11.0788 44.8889C11.4485 45.302 11.7957 45.4025 12.1206 45.436C12.4007 45.4583 12.5239 45.4025 12.0646 45.0452C12.0198 45.0117 11.9526 44.9671 11.919 44.9224C11.6501 44.5764 11.4149 44.4647 11.1012 44.5429C11.0228 44.5652 10.978 44.6099 10.8212 44.5094C10.7204 44.4201 10.7316 44.3643 10.7316 44.3084C10.7428 44.2303 10.922 44.2191 10.6307 44.0294C10.4067 43.8842 10.2835 43.9177 10.2275 44.0294C10.2163 44.0517 10.2611 44.141 10.3059 44.1968C10.3955 44.3419 10.7316 44.5764 10.5523 44.6322C10.3955 44.6768 10.0931 44.4647 9.88021 44.2638C9.44334 43.8396 8.95045 43.4935 8.54718 43.0246C8.21112 42.6228 7.79665 42.2767 7.42699 41.8636C6.06035 40.3231 4.89535 38.6151 3.89838 36.8066C3.11424 35.3888 2.53174 33.8595 1.99405 32.3412C1.7364 31.3923 1.40035 30.4323 1.20991 29.4499C1.03068 28.4452 0.84025 27.407 0.829048 26.3799C0.829048 26.313 0.806643 26.2236 0.817845 26.1902C0.974672 25.6543 0.761836 25.2859 0.661019 24.8729C0.616211 24.7054 0.593807 24.5715 0.616211 24.3928C0.773038 23.4105 0.851451 22.4504 0.873855 21.4122C0.873855 21.0773 0.985875 20.6754 1.06429 20.307C1.09789 20.1507 1.09789 19.827 1.23232 19.9051C1.33314 19.9721 1.40035 20.1619 1.33314 20.4745C1.27713 20.7312 1.17631 20.988 1.27713 21.2001C1.36674 21.055 1.31073 20.988 1.32193 20.8987C1.35554 20.6531 1.37794 20.3293 1.50116 20.2177C1.60198 20.1284 1.66919 20.3182 1.6916 20.4856C1.7252 20.6754 1.79241 20.9098 1.59078 21.0885C1.46756 21.2001 1.55717 21.3452 1.57958 21.4234C1.7028 21.9034 1.99405 21.8922 2.37491 21.4569C2.3077 21.2448 2.19568 21.4345 2.10607 21.4234C1.99405 21.4122 1.82602 21.535 1.80362 21.1778C1.79241 20.9657 1.78121 20.6866 1.88203 20.508C2.00525 20.2847 2.11727 20.5526 2.25169 20.4298C2.2629 20.4186 2.2853 20.4856 2.3077 20.5303C2.35251 20.6196 2.38612 20.7201 2.46453 20.5749C2.50934 20.508 2.55415 20.4298 2.55415 20.3182C2.55415 20.1284 2.48693 20.0391 2.41972 20.0614C2.05006 20.1619 1.78121 19.7265 1.42275 19.7823C1.26592 19.8158 1.17631 19.6037 1.27713 19.1795C1.42275 18.599 1.50116 18.0297 1.6804 17.4268C1.77001 17.0696 1.91564 16.6008 2.03886 16.21C2.16208 15.7858 2.33011 15.4398 2.49814 15.0602C2.64376 14.7253 2.82299 14.3792 2.83419 14.0443C2.83419 13.9215 2.93501 13.8769 2.96862 13.7876C3.19266 13.3522 3.51751 12.9503 3.57352 12.4591C3.59593 12.3028 3.68554 12.247 3.75275 12.1577C3.86477 12.0126 4.0216 11.8005 4.05521 11.6665C4.29045 10.7846 4.89535 10.1483 5.44425 9.50079C5.54506 9.38915 5.67949 9.21054 5.70189 9.1324C5.85872 8.49608 6.40761 8.13885 6.79968 7.68115C7.18055 7.2681 7.57261 6.92203 7.91987 6.43084C8.35675 5.78336 8.91685 5.60475 9.46574 5.4038C9.43213 5.32566 9.40973 5.28101 9.39853 5.22519C9.37613 5.13588 9.35372 5.02425 9.53295 4.87913C9.74579 4.70051 9.68978 4.87913 9.72339 4.93494C9.74579 4.9796 9.75699 5.02425 9.88021 4.93494C9.98103 4.8568 10.037 4.76749 10.0258 4.71167C10.0034 4.37677 10.5635 4.00837 10.81 3.69579C10.8548 3.62881 10.9668 3.573 11.0676 3.53951C11.4485 3.41671 11.5269 3.70696 12.0982 3.3274C12.199 3.26042 12.0758 3.48368 11.9526 3.58415C11.7509 3.75161 11.5493 3.89673 11.3589 4.07535C11.146 4.28746 11.1796 4.3656 11.2469 4.44375C11.2917 4.4884 11.3477 4.48841 11.4933 4.37677C11.6725 4.23165 11.8294 4.06418 11.7845 3.97488C11.7285 3.86324 11.7509 3.76277 12.0086 3.58415C12.2998 3.38321 12.311 3.51718 12.3558 3.60649C12.6695 3.36089 12.6135 3.22693 12.6359 3.07064C12.6919 2.81388 12.7703 2.59061 13.3528 2.35617C13.5881 2.26687 13.8009 2.08825 13.9241 1.89848C13.8681 1.82033 13.5993 2.05477 13.5096 1.99895C13.4648 1.96546 13.4312 1.94314 13.4872 1.86499C13.532 1.79801 13.6217 1.74219 13.6889 1.73102C14.0473 1.68637 14.3162 1.41845 14.6186 1.21751C15.1115 0.916095 15.2683 0.904931 15.2011 1.16169C15.1899 1.22867 15.1899 1.28449 15.3132 1.22867C15.5484 1.11703 15.9181 1.06122 15.9741 0.860283C16.0413 0.659341 16.3325 0.592354 16.3997 0.603518C16.7246 0.692825 17.0943 0.436071 17.4863 0.30211C17.632 0.246293 17.8336 0.101168 17.9232 0.190475C18.0016 0.257456 17.8224 0.369091 17.6656 0.469562C17.4639 0.614687 17.2287 0.603521 17.0158 0.703992C16.803 0.815626 16.5678 0.916092 16.4782 1.06122C16.4109 1.16169 16.3101 1.20635 16.2093 1.19519C15.6716 1.17286 15.7052 1.35147 15.7388 1.53009C15.75 1.60823 15.6268 1.76452 15.8508 1.71986C16.0861 1.67521 16.0637 1.4966 16.1309 1.47427C16.635 1.29566 16.8254 0.971915 17.2399 0.759809C17.5199 0.637011 17.632 0.670496 17.7216 0.726313C18.0352 0.916092 17.9456 1.28449 18.3153 1.45194C18.4161 1.49659 18.1696 1.6194 18.1472 1.69754C18.08 1.87616 17.9008 2.06593 18.1584 2.1664C18.3937 2.26687 18.1696 2.46781 17.7888 2.66876C17.5199 2.81388 17.3743 2.90319 17.6096 2.9925C17.7328 3.03715 17.7664 3.17112 17.7104 3.31624C17.688 3.38322 17.6432 3.46136 17.7552 3.46136C17.7888 3.46136 17.8672 3.42787 17.9008 3.39438C18.0016 3.30507 18.0688 3.19344 18.0016 3.17111C17.7104 3.10413 17.9792 2.84737 18.136 2.61294C18.2705 2.78039 18.797 2.59062 18.7858 2.82505C18.7858 2.8697 18.8754 2.85854 18.9538 2.82505C19.0098 2.79156 19.0658 2.7469 19.0882 2.71341C19.1554 2.60178 19.301 2.43433 19.2338 2.37851C18.9314 2.12175 19.5699 1.82033 19.8947 1.49659C20.1076 1.80917 20.8357 1.92081 21.0149 2.27804C20.8693 2.03244 21.1494 1.798 21.4742 1.56357C21.6198 1.4631 21.4406 1.44078 21.4182 1.3738C21.3958 1.29565 21.4406 1.18401 21.6422 1.12819C21.8887 1.07238 21.7991 1.20635 21.8103 1.26216C21.8551 1.53009 21.9335 1.78685 22.2247 1.98779C22.516 1.87615 22.5384 1.73103 22.516 1.65289C22.4488 1.38496 23.0649 1.251 23.2441 1.02773C23.3113 0.94959 23.457 0.983078 23.4906 1.0389C23.5354 1.11704 23.569 1.20634 23.625 1.3403C23.737 1.06122 23.7034 0.837948 23.9722 0.614679C24.0283 0.570025 24.0507 0.514207 23.9274 0.503044C23.8266 0.491881 23.5242 0.625839 23.6474 0.458387C23.7034 0.380243 23.8826 0.257456 24.0955 0.246293C24.2747 0.235129 24.2411 0.335589 24.2747 0.40257C24.3307 0.558858 24.2187 0.726313 24.1963 0.893765C24.1851 1.09471 24.2187 1.26217 24.8236 1.13937C25.1597 1.09472 25.2829 1.18402 25.2717 1.31798C25.2605 1.40729 25.2829 1.48544 25.2941 1.58591C25.5517 1.51893 25.5517 1.44078 25.5853 1.36264C25.6861 1.11704 25.7646 0.860274 26.5039 0.837948C26.5599 0.837948 26.6383 0.793297 26.6831 0.77097C26.7615 0.715152 26.7615 0.603512 26.9744 0.625839C27.1872 0.648166 27.1088 0.759806 27.1536 0.826787C27.1648 0.849114 27.1536 0.882599 27.1424 0.904926C27.1088 1.06121 27.2096 1.18402 27.5457 1.21751C27.9713 1.251 27.8033 1.05005 27.9041 0.949582C28.0162 0.849111 27.7809 0.681659 28.2738 0.670496C28.6995 0.659332 28.8115 0.703992 28.6659 0.871443C28.6099 0.938424 28.565 0.994233 28.4978 1.07238C28.7667 1.06121 29.0467 1.12821 29.1588 0.971917C29.1812 0.938427 29.3044 0.927253 29.3604 0.960743C29.506 1.05005 29.6852 1.1282 29.8757 1.05006C30.0213 0.983075 30.4022 0.949579 29.9541 0.737474C30.5702 0.849108 30.7382 0.994236 30.5702 1.17285C30.5254 1.22867 30.4246 1.26216 30.3798 1.31798C30.3238 1.38496 30.3574 1.4631 30.503 1.51892C30.7158 1.59706 30.7718 1.50775 30.839 1.4631C31.0519 1.31797 31.0071 1.0947 31.2759 0.960743C31.3767 0.904926 31.4327 0.80446 31.6568 0.882604C31.8584 0.949585 31.7016 1.01656 31.6792 1.07238L31.5672 1.31798C31.5336 1.40729 31.6008 1.48543 31.7912 1.54125C31.9928 1.5859 32.1273 1.5859 32.1945 1.49659C32.2169 1.4631 32.2617 1.44078 32.3177 1.42962C32.4297 1.38496 32.4969 1.27333 32.7434 1.36264C32.9674 1.44078 32.8666 1.51892 32.8442 1.59707C32.8106 1.71987 33.0346 1.84267 33.2587 1.86499C33.7739 1.94314 33.7739 1.93197 33.6283 2.1664C34.0428 2.19989 34.2108 2.07709 34.3676 1.96545C34.4685 1.89847 34.5469 1.798 34.7933 1.90964C34.9726 1.99894 34.8941 2.11058 34.8717 2.18872C34.8269 2.31152 34.8157 2.42316 34.9838 2.60178C35.4318 2.57945 35.0286 2.03245 35.8911 2.25571C35.6671 2.412 35.9583 2.69108 35.7231 2.84737C35.5551 2.94784 35.8239 3.19344 36.1824 3.34973C37.269 3.93022 38.3779 3.96372 38.4788 3.38322C38.49 3.30508 38.4452 3.21577 38.3219 3.1153C38.2099 3.02599 38.1651 2.959 38.3555 3.01482C38.7364 3.12646 38.5796 3.39438 39.0165 3.55067C39.0613 3.56184 39.0052 3.68463 38.9156 3.68463C38.5908 3.65114 38.546 3.76278 38.7924 4.05303C38.882 4.1535 38.8148 4.18698 38.7364 4.18698C38.4228 4.22047 38.5908 4.52188 38.546 4.7005C38.5236 4.77864 38.6468 4.90145 38.8036 4.95727C38.9828 5.01308 39.0052 4.93494 38.9156 4.82331C38.7252 4.57771 38.9604 4.65586 39.0613 4.60004C39.2405 4.51073 39.6662 4.66701 39.7334 4.46607C39.7558 4.41025 39.8902 4.43258 39.9798 4.51073C40.0806 4.60003 40.2711 4.70051 40.2711 4.78981C40.2711 4.85679 40.2039 4.86796 40.0582 4.76749C39.9574 4.70051 39.879 4.70051 39.9126 4.77865C39.9798 4.96843 39.9798 4.96842 39.7222 4.92377C39.8118 5.19169 40.5287 5.22519 40.3495 5.60475C40.5287 5.52661 40.4839 5.33682 40.7304 5.47078C40.932 5.58242 40.7528 5.63824 40.9208 5.7722C41.3577 5.5601 41.929 6.34153 42.4554 6.53131C42.2538 6.6876 42.1978 6.95552 41.8393 6.92203C41.7721 6.92203 41.7385 6.98902 41.6153 6.88855C41.5257 6.82157 41.5257 6.76574 41.5145 6.69876C41.4921 6.59829 41.5929 6.52015 41.3689 6.3527C41.2456 6.33037 41.268 6.442 41.212 6.48665C41.0552 6.62061 41.1224 6.75458 41.5145 6.91087C41.5593 6.9332 41.6377 6.96668 41.6601 6.98901C42.1754 7.74812 43.0155 8.0942 43.6317 8.75284C43.9453 9.11007 44.4046 9.4673 44.8079 9.80221C45.0655 10.0143 45.0319 10.059 44.8863 10.059C44.7294 10.0701 44.7742 10.1818 44.9087 10.3827C45.0543 10.5836 45.1887 10.7511 45.3231 10.6841C45.3904 10.6506 45.3792 10.4608 45.5584 10.6729C45.7152 10.8627 45.6144 10.9074 45.592 10.9967C45.5024 11.2311 45.7824 11.4432 45.9505 11.6777C46.6002 12.6824 47.3395 13.6759 47.7428 14.9039C47.4403 14.6583 47.2499 14.502 47.0818 14.0332C46.8354 13.408 46.3201 12.8945 46.0625 12.247C46.0177 12.1465 45.8832 12.0795 45.8272 12.1019C45.7488 12.1242 45.8048 12.2693 45.8832 12.381C46.2753 12.9056 46.4769 13.5531 46.9138 14.0555C47.0594 14.2453 47.1379 14.4909 47.2051 14.7141C47.2611 14.9374 47.3395 15.1272 47.4851 15.3058C47.81 15.6853 47.8996 16.1877 48.0676 16.6454C48.9862 18.733 49.6023 20.9433 49.8935 23.2207C49.9719 23.6672 50.0168 24.1138 49.9944 24.5826ZM14.3274 46.7756C14.3162 46.8202 14.0809 46.7644 14.305 46.9319C14.4506 47.0435 14.6186 47.1551 14.7307 47.077C14.7979 47.0323 14.9323 46.9319 15.0555 47.2221C15.1003 47.3226 15.1563 47.2891 15.1899 47.2668C15.414 47.1551 15.7164 47.3672 16.0189 47.5124C16.1421 47.5793 16.2205 47.6686 16.3997 47.7133C16.5006 47.7356 16.467 47.5012 16.6686 47.7691C16.7694 47.9031 16.6798 47.9366 16.4782 47.9031C16.3885 47.8807 16.2205 47.7914 16.3325 47.9477C16.4445 48.0929 16.579 48.1933 16.8142 48.238C16.9038 48.2603 17.0383 48.3384 17.0158 48.2268C16.9486 47.8919 17.3071 48.0817 17.6992 48.2826C17.9008 48.3943 17.9456 48.3719 18.0128 48.3161C18.0016 48.2268 17.912 48.1598 17.7104 48.104C17.3855 48.0259 16.9486 47.9589 16.9262 47.6463C16.9262 47.6017 16.7694 47.557 16.6686 47.5235C16.0525 47.3337 15.4476 47.1216 14.9659 46.6639C14.7643 46.463 14.5402 46.463 14.4394 46.5411C14.3386 46.5858 14.3386 46.6863 14.3274 46.7756ZM4.66011 12.8387C4.6153 12.8275 4.57049 12.794 4.50328 12.9056C4.43607 13.0173 4.45848 13.0843 4.46968 13.1401C4.49208 13.2629 4.46968 13.4415 4.36886 13.6089C4.22323 13.8545 4.14482 13.7094 4.0216 13.7764C3.89838 13.8434 4.0328 13.5308 4.06641 13.3745C4.08881 13.2629 4.11122 13.1512 4.16722 12.928C3.86477 13.5085 3.65194 13.9438 3.83117 14.1894C3.86477 14.2341 3.83117 14.3681 3.83117 14.4685C3.81996 14.8146 3.73035 15.1049 3.49511 15.1495C3.25987 15.1942 3.31588 15.4063 3.30468 15.5737C3.29347 15.6742 3.32708 15.7523 3.33828 15.8528C3.33828 15.9868 3.36069 16.1319 3.24867 16.2882C3.15905 16.411 3.11424 16.344 3.06944 16.2659C3.03583 16.21 3.02463 16.0984 2.96862 16.0984C2.83419 16.0872 2.65496 15.9868 2.49814 16.4221C2.34131 16.824 2.34131 17.2817 2.2965 17.6948C2.2853 17.8511 2.33011 17.9627 2.43092 17.9069C2.57655 17.8176 2.47573 17.6836 2.50934 17.572C2.59895 17.2259 2.66617 16.824 2.83419 16.5561C2.99102 16.2882 3.08064 16.5226 3.21506 16.5226C3.29347 16.5226 3.38309 16.4333 3.4615 16.4333C3.61833 16.4221 3.66314 16.3105 3.69674 16.0202C3.76396 15.5291 3.88718 14.9709 4.20083 14.5243C4.35766 14.2899 4.41367 14.1671 4.40247 13.9773C4.40247 13.8769 4.39126 13.7541 4.50328 13.6089C4.6153 13.4527 4.68251 13.4973 4.73852 13.542C4.87295 13.6536 5.05218 13.6648 5.24261 13.6648C5.30982 13.6648 5.37703 13.7317 5.44425 13.5308C5.51146 13.3745 5.43304 13.3299 5.36583 13.3299C5.09699 13.3522 4.91775 13.2294 4.82814 12.9056C4.82814 12.8275 4.72732 12.861 4.66011 12.8387ZM7.91987 7.63649C7.66223 7.59184 7.30377 7.7258 7.04612 7.65882C7.25896 7.71463 7.24776 7.9714 7.30377 8.17235C7.35978 8.39561 7.27016 8.60772 6.9341 8.80866C6.81088 8.8868 6.74367 8.95379 6.63165 9.12124C6.22838 9.72407 6.18357 10.3604 5.57867 10.9632C5.55626 10.9855 5.51146 11.0972 5.51146 11.1195C5.53386 11.4544 5.20901 11.8228 5.08578 12.1465C4.98497 12.2135 4.99617 12.1465 4.97376 12.1242C4.94016 12.0684 4.95136 11.8898 4.81694 12.0907C4.68251 12.2693 4.74973 12.3363 4.80574 12.3921C5.02977 12.5819 5.29862 12.3586 5.54506 11.7558C5.67949 11.4321 5.85872 11.22 5.94833 11.3428C6.07155 11.5102 6.23958 11.6107 6.41881 11.6888C6.48603 11.7223 6.39641 12.0461 6.58684 11.8451C6.76607 11.6665 6.68766 11.4991 6.75487 11.3093C6.82208 11.1083 6.72127 11.1083 6.65406 11.0637C6.54204 10.9855 6.40761 10.9186 6.39641 10.6841C6.38521 10.5948 6.3628 10.4832 6.49723 10.3827C7.04612 9.99198 6.9117 9.80221 6.86689 9.56778C6.84449 9.44498 6.8893 9.28869 6.95651 9.06542C7.37098 9.12124 7.53901 8.61888 7.80786 8.25048C8.0431 7.92674 8.14391 7.68115 7.91987 7.63649ZM10.8212 5.30333C10.2499 5.59358 10.3507 5.29217 10.5075 4.91261C10.3619 5.13588 9.96983 5.29217 10.0034 5.51544C10.0482 5.78336 10.6083 5.61591 10.3395 6.12943C10.8212 5.85034 10.5075 6.43084 10.8212 6.34154C10.9108 6.31921 10.8996 6.50899 11.1124 6.28572C11.2469 6.14059 11.4373 5.95081 11.3365 5.85034C11.1796 5.69405 10.9332 5.61591 10.922 5.33683C10.922 5.3145 10.866 5.281 10.8212 5.30333ZM12.199 4.78981C11.9414 4.72283 11.919 4.48839 11.6725 4.42141C11.4485 4.65585 11.3141 4.84564 11.5941 4.82331C11.8518 4.80098 11.8854 5.00191 11.7733 5.14704C11.4933 5.57125 11.7509 5.58242 11.9414 5.66057C12.255 5.28101 12.4679 4.86796 12.199 4.78981ZM15.5036 2.27804C14.9547 2.36734 15.1339 2.13291 15.2683 1.89848C15.3356 1.78684 15.3804 1.63055 15.1675 1.67521C14.9323 1.71986 14.6634 1.89848 14.5402 2.09942C14.4954 2.1664 14.4954 2.22222 14.473 2.27804C14.4282 2.42316 14.3946 2.59061 14.0809 2.69108C13.7001 2.82504 14.0585 2.52363 14.0249 2.45665C14.0137 2.44549 13.9689 2.45665 13.9241 2.46781C13.6665 2.63526 13.6105 2.80271 13.4648 2.97016C13.1512 3.29391 12.7255 3.52834 12.3446 3.57299C12.2662 3.74045 12.3894 3.77394 12.4791 3.82976C12.5911 3.89674 12.4455 4.17583 12.6583 4.10885C12.9719 4.00837 12.9495 3.76277 13.1512 3.58415C13.308 3.45019 13.42 3.40554 13.5544 3.39438C13.6665 3.38322 13.7785 3.4167 13.6441 3.52834C13.308 3.80742 13.4872 4.09767 12.8487 4.42141C12.6807 4.51072 12.7479 4.6112 12.7479 4.68934C12.7479 4.76748 12.9159 4.73399 12.8599 4.85679C12.7031 5.23635 12.9047 5.33682 13.2968 5.25867C13.5208 5.21402 13.4536 5.29217 13.3304 5.44846C13.2296 5.57126 13.2968 5.58242 13.3864 5.57126C13.4984 5.54893 13.5769 5.45963 13.6217 5.38148C13.7001 5.26985 13.6777 5.18053 13.6441 5.12472C13.5769 5.02425 13.3976 4.97959 13.7561 4.7005C13.7897 4.66701 13.8569 4.62236 13.7561 4.66702C13.14 4.95727 13.6441 4.32095 13.3528 4.34328C13.6441 4.04186 13.9577 3.77394 14.2602 3.48369C14.2602 3.48369 14.3162 3.48369 14.3386 3.48369C14.641 3.50602 14.7755 3.30507 14.9211 3.1153C15.0107 2.9925 14.9883 2.89202 15.2459 2.7469C15.5932 2.59061 15.7836 2.23338 15.5036 2.27804ZM17.2175 2.36735C17.3407 2.30037 17.4639 2.22222 17.5871 2.1664C17.6768 2.11058 17.6992 2.0436 17.6544 2.01011C17.6096 1.97662 17.5311 1.99895 17.4191 2.05477C17.0943 2.19989 17.0719 2.18873 17.2063 1.99895C17.3743 1.76452 17.5759 1.51892 17.632 1.31798C17.6432 1.251 17.6544 1.17286 17.4863 1.19519C17.3407 1.20635 17.2847 1.30682 17.2063 1.3738C16.9262 1.61939 16.6574 1.84267 16.9038 1.97663C16.971 2.02128 16.915 2.17757 16.7134 2.25571C16.5006 2.34502 16.4445 2.26687 16.467 2.1664C16.5006 2.01011 16.3325 1.96546 16.1533 1.86499C16.0413 2.14408 15.7612 2.44549 16.1981 2.44549C15.9517 2.92552 16.3661 3.15995 16.1533 3.62881C16.1085 3.71812 16.2093 3.76277 16.3549 3.74045C16.5342 3.71812 16.6126 3.60648 16.7134 3.51718C17.1167 3.15995 17.0943 2.84737 16.9374 2.73573C16.7022 2.56828 17.0046 2.49015 17.2175 2.36735ZM35.8575 7.85976C35.7455 7.73697 35.6335 7.70348 35.5439 7.74813C35.1854 7.92674 34.9501 8.16117 34.9389 8.54073C34.9389 8.59655 34.9501 8.63004 35.051 8.66353C35.2974 8.74167 35.5102 8.64121 35.4542 8.45143C35.3534 8.11653 35.3982 7.88209 35.8575 7.85976ZM39.1733 10.5055C39.2629 10.472 39.1845 10.2822 39.0501 10.1929C38.8484 10.059 38.9156 10.2264 38.8932 10.2711C38.8148 10.3939 38.77 10.5278 38.6916 10.6395C38.6468 10.6953 38.5348 10.7846 38.434 10.6506C38.1987 10.3046 37.9523 10.4385 37.717 10.3157C37.829 10.4497 38.0083 10.5167 38.1315 10.7399C37.8515 10.6171 37.8402 10.7846 37.7618 10.8851C37.717 10.9409 37.661 11.019 37.7394 11.0972C37.7954 11.153 37.9523 11.2088 38.0307 11.2088C38.1203 11.2088 38.2771 11.2088 38.2099 11.0748C38.1091 10.8851 38.2435 10.8851 38.3667 10.8739C38.7476 10.8627 38.8932 10.6171 39.1733 10.5055Z" fill="#F02801"/>
<path d="M4.31275 38.8385C3.89828 38.2691 3.53982 37.6551 3.21496 37.03C2.56525 35.8802 2.07236 34.6187 1.61308 33.3907C1.00818 31.8167 0.526491 30.1756 0.369664 28.4788C0.324856 27.9764 0.190433 27.4852 0 26.9382C0.504088 33.0781 3.27097 38.7826 7.42689 42.9354C6.9228 42.2768 4.85044 39.6869 4.31275 38.8385Z" fill="#F02801"/>
<path d="M43.9116 14.2679C43.71 13.9776 43.5195 13.6874 43.2619 13.4306C43.1611 13.319 43.0266 13.1962 42.9594 13.2632C42.7802 13.4418 42.5226 13.5199 42.3657 13.7655C42.7466 13.9553 42.9706 13.6316 43.3739 14.0558C43.0602 13.8772 43.1163 14.1898 43.0602 14.3684C43.0154 14.5358 43.0714 14.5693 43.2059 14.5916C43.3963 14.614 43.5419 14.4912 43.7772 14.6363C43.7436 14.4242 44.2252 14.7368 43.9116 14.2679Z" fill="#F02801"/>
<path d="M46.4993 19.5255C46.5889 19.4586 46.5217 19.2018 46.4209 19.0678C46.3089 18.9004 46.2977 18.6994 46.2305 18.5208C46.2081 18.4427 46.1857 18.3534 46.1185 18.3311C46.0624 18.3199 46.04 18.3869 46.0624 18.465C46.0961 18.6771 46.0064 18.6883 45.9056 18.7329C45.7488 18.8111 45.5808 18.8892 45.4688 19.1348C45.6256 19.1348 45.7712 19.0232 45.872 19.4586C45.9168 19.626 46.0624 19.6372 46.1073 19.4362C46.1297 19.3246 46.04 19.146 46.1297 19.0455C46.1521 19.1237 46.1633 19.1795 46.1745 19.2353C46.2641 19.4809 46.4209 19.5814 46.4993 19.5255Z" fill="#F02801"/>
<path d="M20.3202 1.38501C20.5666 1.34035 20.7011 1.25104 20.7795 1.11709C20.9475 0.826841 20.6227 0.648235 20.7571 0.369153C20.8019 0.268684 21.1043 0.112399 20.8131 0.0900722C20.6003 0.0789089 20.4658 0.268681 20.2306 0.324498C20.0402 0.380314 20.0738 0.458451 20.0962 0.514268C20.2082 0.737533 19.8609 1.06127 20.2082 1.22872C20.2418 1.2957 20.0402 1.44082 20.3202 1.38501Z" fill="#F02801"/>
<path d="M41.5253 17.014C41.3797 16.947 41.3237 16.5674 41.0885 16.5786C40.7748 16.5898 40.45 16.5786 40.2819 16.8912C40.2483 16.9582 40.2147 17.0028 40.2931 17.0921C40.3603 17.1703 40.4388 17.2261 40.506 17.1479C40.7076 16.9023 40.9652 16.6902 41.3573 17.1926C41.4133 17.2707 41.4917 17.2707 41.5365 17.2261C41.5926 17.1703 41.5814 17.1144 41.5253 17.014Z" fill="#F02801"/>
<path d="M42.7244 7.43556C42.8588 7.59185 42.8924 7.49139 42.982 7.51371C43.1836 7.55837 43.206 7.41324 43.3853 7.34626C43.4189 7.54721 43.2957 7.65884 43.5869 7.80397C43.9006 7.94909 44.1246 7.90443 44.1918 7.77047C44.259 7.62534 43.923 7.55836 43.7885 7.4244L43.5981 7.21229C43.4973 7.10065 43.3965 7.02251 43.3069 7.04483C43.094 7.08949 42.87 7.12299 42.6684 7.17881C42.5787 7.18997 42.6236 7.31276 42.7244 7.43556Z" fill="#F02801"/>
<path d="M46.7681 21.5238C46.8801 21.602 46.9697 21.6131 46.9585 21.401C46.9473 21.1554 46.8801 20.7758 46.7681 20.7647C46.5217 20.7535 46.264 20.7312 46.0176 20.9321C46.2752 21.2001 46.4993 21.0214 46.8017 21.1554C46.6225 21.3563 46.3312 20.921 46.3312 21.4792C46.3312 21.7694 46.432 21.9034 46.5777 22.015C46.5777 21.7471 46.488 21.334 46.7681 21.5238Z" fill="#F02801"/>
<path d="M33.0459 11.3876C33.0123 11.3206 32.9787 11.2313 32.9451 11.1643C32.9227 11.1085 32.9115 11.0527 32.8331 11.0192C32.7435 10.9857 32.7099 11.0192 32.6763 11.075C32.6427 11.1309 32.5979 11.1755 32.5531 11.2202C32.4858 11.2871 32.2618 11.276 32.3514 11.3988C32.441 11.5439 32.6091 11.6667 32.7883 11.7225C32.9675 11.7895 33.1244 11.7114 33.2252 11.5997C33.3708 11.4323 33.0795 11.4769 33.0459 11.3876Z" fill="#F02801"/>
<path d="M19.5026 0.35804C19.7042 0.212917 19.749 0.134771 19.7042 0.0343015C19.6818 -0.0103518 19.581 -0.0103491 19.469 0.0231409C19.2114 0.101284 19.0545 0.201746 18.9313 0.335706C18.8305 0.447339 18.7969 0.547814 18.7969 0.648284C18.7857 0.97202 18.7969 1.28459 18.9089 1.61949C19.2674 1.35157 19.1553 1.19528 19.2226 1.01667C19.301 0.793399 19.1105 0.62596 19.5026 0.35804Z" fill="#F02801"/>
<path d="M36.5857 3.30522C37.0002 3.49499 37.3587 3.43919 37.1346 3.20476C36.6417 2.69125 37.1794 3.05963 37.4035 3.12661C37.5827 3.18242 37.8516 3.32755 37.8852 3.18242C37.9076 3.07079 37.7395 2.88102 37.5267 2.84753C37.1906 2.78055 36.7538 2.6131 36.6417 2.83637C36.5857 2.948 36.6081 3.09313 36.4065 3.14894C36.2721 3.16011 36.4513 3.2494 36.5857 3.30522Z" fill="#F02801"/>
</svg>
